<?xml version="1.0" encoding="utf-8"?>
<!-- Generator: Adobe Illustrator 24.0.0, SVG Export Plug-In . SVG Version: 6.00 Build 0)  -->
<svg version="1.1" id="图层_1" xmlns="http://www.w3.org/2000/svg" xmlns:xlink="http://www.w3.org/1999/xlink" x="0px" y="0px"
	 viewBox="0 0 288 54.59" style="enable-background:new 0 0 288 54.59;" xml:space="preserve">
<style type="text/css">
	.st0{fill:#FFC129;}
	.st1{fill:#01BBF4;}
</style>
<g>
	<path class="st0" d="M6.95,31.02l6.46-6.44c0.6-0.6,0.6-1.57,0-2.17l-6.46-6.44V31.02z"/>
	<path class="st1" d="M78.47,3.89h-4.6c-0.77,0-1.39,0.62-1.39,1.39v1.65c-2.76-1.91-6.11-3.04-9.72-3.04
		c-9.45,0-17.11,7.66-17.11,17.11c0,9.45,7.66,17.11,17.11,17.11c3.61,0,6.96-1.13,9.72-3.04v1.61c0,0.77,0.62,1.39,1.39,1.39h4.6
		c0.77,0,1.39-0.62,1.39-1.39V5.29C79.87,4.52,79.24,3.89,78.47,3.89z M62.76,30.68c-5.35,0-9.68-4.34-9.68-9.68
		s4.34-9.68,9.68-9.68s9.68,4.34,9.68,9.68S68.11,30.68,62.76,30.68z"/>
	<g>
		<path class="st0" d="M141.05,26.36c0.17,0,0.33-0.07,0.45-0.19c0.12-0.12,0.19-0.28,0.19-0.45v-9.44c0-0.23-0.12-0.44-0.32-0.55
			c-0.2-0.11-0.44-0.11-0.64,0c-0.2,0.11-0.32,0.32-0.32,0.55v9.44c0,0.17,0.07,0.33,0.19,0.45
			C140.72,26.29,140.88,26.36,141.05,26.36L141.05,26.36z M145.84,22.44c0.17,0,0.33-0.07,0.45-0.19c0.12-0.12,0.19-0.28,0.19-0.45
			v-1.61c0-0.35-0.29-0.64-0.64-0.64c-0.35,0-0.64,0.29-0.64,0.64v1.61c0,0.17,0.07,0.33,0.19,0.45
			C145.51,22.38,145.67,22.44,145.84,22.44L145.84,22.44z M143.45,24.31c0.17,0,0.33-0.07,0.45-0.19c0.12-0.12,0.19-0.28,0.19-0.45
			v-5.53c0-0.35-0.29-0.64-0.64-0.64c-0.35,0-0.64,0.29-0.64,0.64v5.53c0,0.17,0.07,0.33,0.19,0.45
			C143.11,24.24,143.28,24.31,143.45,24.31L143.45,24.31z M143.45,24.31"/>
		<path class="st0" d="M136.26,22.44c0.17,0,0.33-0.07,0.45-0.19c0.12-0.12,0.19-0.28,0.19-0.45v-1.61c0-0.35-0.29-0.64-0.64-0.64
			c-0.35,0-0.64,0.29-0.64,0.64v1.61c0,0.17,0.07,0.33,0.19,0.45C135.93,22.38,136.09,22.44,136.26,22.44L136.26,22.44z
			 M138.66,24.31c0.17,0,0.33-0.07,0.45-0.19c0.12-0.12,0.19-0.28,0.19-0.45v-5.53c0-0.35-0.29-0.64-0.64-0.64
			c-0.35,0-0.64,0.29-0.64,0.64v5.53c0,0.17,0.07,0.33,0.19,0.45C138.32,24.24,138.49,24.31,138.66,24.31L138.66,24.31z
			 M138.66,24.31"/>
	</g>
	<path class="st1" d="M141.05,3.89c-9.45,0-17.11,7.66-17.11,17.11c0,9.45,7.66,17.11,17.11,17.11s17.11-7.66,17.11-17.11
		C158.16,11.55,150.5,3.89,141.05,3.89z M141.05,30.68c-5.35,0-9.68-4.34-9.68-9.68s4.34-9.68,9.68-9.68c5.35,0,9.68,4.34,9.68,9.68
		S146.4,30.68,141.05,30.68z"/>
	<path class="st1" d="M37.59,10.41c-3.27-4.14-8.16-6.52-13.43-6.52H8.34c-0.77,0-1.39,0.63-1.39,1.39v6c0,0.02,0.01,0.03,0.03,0.03
		h17.19c0.63,0,1.27,0.06,1.9,0.19c4.9,0.98,8.34,5.59,7.72,10.68c-0.6,4.92-4.98,8.5-9.93,8.5H16.2h-0.19h-1.65l-7.42,7.42v6.09
		c0,4.08,3.31,7.39,7.39,7.39c0.01-0.01,0.02-0.02,0.03-0.03V38.11h0h9.8c5.26,0,10.16-2.38,13.43-6.52
		c1.42-1.8,2.45-3.81,3.05-5.98c0.42-1.49,0.63-3.04,0.63-4.6C41.27,17.12,40,13.46,37.59,10.41z"/>
	<path class="st1" d="M112.4,6.93c-2.76-1.91-6.11-3.04-9.72-3.04c-3.6,0-6.93,1.11-9.68,3.01V5.29c0-0.77-0.62-1.39-1.39-1.39h-4.6
		c-0.77,0-1.39,0.62-1.39,1.39v14.98c-0.01,0.25-0.04,0.49-0.04,0.74s0.03,0.49,0.04,0.74v14.94c0,0.77,0.62,1.39,1.39,1.39h4.6
		c0.77,0,1.39-0.62,1.39-1.39v-1.58V21v0v0h0c0-5.35,4.34-9.68,9.68-9.68s9.72,4.33,9.72,9.68v14.07v1.61
		c0,0.77,0.62,1.39,1.39,1.39h4.6c0.77,0,1.39-0.62,1.39-1.39V21C119.79,15.17,116.86,10.02,112.4,6.93z"/>
	<g>
		<g>
			<path class="st1" d="M178.85,20.62v-7.95h2.87V8.81h-2.87V4h-3.9v4.81h-4.63v3.87h4.63v10.09l-5.43,2.98l1.88,3.36l3.54-1.95
				v5.72c0,0.77-0.58,1.37-1.33,1.37h-2.65v3.87h2.65c2.89,0,5.23-2.35,5.23-5.23v-7.86l4.46-2.44l-1.88-3.36L178.85,20.62z"/>
			<path class="st1" d="M198.9,7.34h-5.28V3.89h-3.87v3.44h-1.01c-2.89,0-5.23,2.35-5.23,5.23v20.19c0,2.89,2.35,5.23,5.23,5.23
				h10.15c2.89,0,5.23-2.35,5.23-5.23V12.57C204.13,9.69,201.78,7.34,198.9,7.34z M200.26,32.76c0,0.77-0.6,1.37-1.37,1.37h-10.15
				c-0.76,0-1.33-0.59-1.33-1.37v-8.68h12.85V32.76z M187.42,12.57c0-0.77,0.58-1.37,1.33-1.37h10.15c0.75,0,1.37,0.61,1.37,1.37
				v7.64h-12.85V12.57z"/>
		</g>
		<g>
			<path class="st1" d="M243.65,18.25h-14.19V9.54h-4.05v8.71h-9.95c-0.42,0-0.72-0.3-0.72-0.72V9.43c0-0.44,0.29-0.75,0.74-0.75
				l27.21-0.69l-0.12-4.08l-27.16,0.73c-2.62,0.05-4.75,2.2-4.75,4.8v8.11c0,2.63,2.15,4.76,4.8,4.76h9.95v10.33
				c0,0.8-0.63,1.43-1.43,1.43h-3.56v4.05h3.56c3.02,0,5.48-2.46,5.48-5.48V22.3h14.19V18.25z"/>
			<path class="st1" d="M214.11,24.31c-1.34,4.8-2.91,8.29-4.78,10.66l-0.46,0.58l3.15,2.55l0.47-0.59
				c2.31-2.92,4.13-6.89,5.54-12.13l0.19-0.72l-3.91-1.07L214.11,24.31z"/>
			<polygon class="st1" points="238.97,23.34 235.24,25 240.79,37.73 244.53,36.13 			"/>
		</g>
		<g>
			<rect x="250.36" y="3.89" class="st1" width="30.41" height="3.87"/>
			<path class="st1" d="M282.1,20.24v-3.87h-33.06v3.87h5.98l-4.2,17.86h24.32c2.89,0,5.23-2.35,5.23-5.23v-7.82h-3.87v7.82
				c0,0.75-0.61,1.37-1.37,1.37H255.5l3.45-14H282.1z"/>
		</g>
	</g>
</g>
</svg>
