<?xml version="1.0" encoding="utf-8"?>
<!-- Generator: Adobe Illustrator 24.0.0, SVG Export Plug-In . SVG Version: 6.00 Build 0)  -->
<svg version="1.1" id="图层_1" xmlns="http://www.w3.org/2000/svg" xmlns:xlink="http://www.w3.org/1999/xlink" x="0px" y="0px"
	 viewBox="0 0 1190.55 814" style="enable-background:new 0 0 1190.55 814;" xml:space="preserve">
<style type="text/css">
	.st0{opacity:0.11;fill:#1C1C1C;}
	.st1{fill:#D8D8D4;}
	.st2{fill:#BCBBB6;}
	.st3{fill:#44403F;}
	.st4{fill:#F8C57D;}
	.st5{fill:#418388;}
	.st6{fill:#C7C5C2;}
	.st7{fill:#FDD300;}
	.st8{fill:#BE6C2E;}
	.st9{fill:#ECB100;}
	.st10{fill:#F9C800;}
	.st11{fill:#FFE33F;}
	.st12{fill:#EDEDEB;}
	.st13{fill:#F6F6F5;}
	.st14{opacity:0.07;fill:#00101D;}
	.st15{fill:#807D77;}
	.st16{fill:#67645E;}
	.st17{fill:#EB6838;}
	.st18{fill:#C9131C;}
	.st19{fill:#FFFFFF;}
	.st20{fill:#E4E5E2;}
	.st21{fill:#57544F;}
	.st22{fill:#D0D0CC;}
	.st23{fill:#E1F1F4;}
	.st24{fill:#E57373;}
	.st25{fill:#FFDEC2;}
	.st26{fill:#F7AE6D;}
	.st27{fill:#F57C00;}
	.st28{fill:#F25100;}
	.st29{fill:#3E3B3C;}
	.st30{fill:#DEF1FB;}
	.st31{fill:#FFBA7B;}
	.st32{fill:#FFD9B3;}
	.st33{fill:#3E3A39;}
	.st34{fill:#F8C386;}
	.st35{fill:#F19857;}
	.st36{fill:#EF5350;}
	.st37{fill:#E1F2FC;}
	.st38{fill:#DB8545;}
	.st39{opacity:0.05;fill:#161519;}
	.st40{fill:#FCF0E8;}
	.st41{fill:#FFFCFA;stroke:#FCE368;stroke-miterlimit:10;}
	.st42{font-family:'Arial-BoldMT';}
	.st43{font-size:8px;}
	.st44{fill:none;stroke:#FFFFFF;stroke-linecap:round;stroke-miterlimit:10;}
</style>
<path class="st0" d="M403.4,403.45v40.43H217c-11.4-13.61,6.29-27.07-5.53-40.43H403.4z"/>
<g>
	
		<rect x="222.47" y="302.97" transform="matrix(-1 -1.224647e-16 1.224647e-16 -1 720.7109 721.795)" class="st1" width="275.76" height="115.86"/>
	
		<rect x="222.47" y="334.36" transform="matrix(-1 -1.224647e-16 1.224647e-16 -1 720.7109 753.1866)" class="st2" width="275.76" height="84.47"/>
	<g>
		<g>
			<path class="st3" d="M227.3,286.99l-0.04,0.03c-0.93,0.65-2.25,0.39-2.94-0.58l-7.28-10.23c-0.69-0.97-0.5-2.3,0.43-2.96
				l0.04-0.03c0.93-0.65,2.25-0.39,2.94,0.58l7.28,10.23C228.42,285.01,228.23,286.33,227.3,286.99z"/>
			<path class="st3" d="M220.89,281.92c3.74,9.25,9.4,22.17,9.4,22.17l80.89,119.59l2.78-16.36l-72.61-110
				c0,0-9.88-10.62-16.86-17.9C223.31,280.28,222.12,281.12,220.89,281.92z"/>
			<path class="st4" d="M240.92,296.85c-1.96-2.1-10.31-11.06-16.44-17.44c-1.17,0.87-2.36,1.71-3.59,2.5
				c3.6,8.91,8.98,21.22,9.37,22.11C233.88,301.73,237.42,299.32,240.92,296.85z"/>
		</g>
		<g>
			<path class="st5" d="M206,314.86l101.44,101.32l-0.59-16.86l-91.24-93.22C212.33,308.93,209.04,311.75,206,314.86z"/>
			<path class="st6" d="M229.57,320.36l-13.97-14.27c-3.27,2.85-6.57,5.66-9.6,8.77l14.6,14.58
				C223.61,326.43,226.59,323.4,229.57,320.36z"/>
			<path class="st7" d="M216.23,306.14l-1.9-1.86c-4.98-4.67-7.39-3.13-9.84-0.49l-0.39,0.42c-2.44,2.64-3.27,5.35,0.96,10.08
				l1.9,1.86L216.23,306.14z"/>
		</g>
		<g>
			<path class="st8" d="M199.16,337.81l116.08,84.14L312,405.39l-104.74-77.75C204.48,330.96,201.67,334.26,199.16,337.81z"/>
			<path class="st6" d="M223.3,339.54l-16.04-11.9c-2.78,3.33-5.6,6.62-8.1,10.17l16.7,12.11
				C218.36,346.47,220.83,343.01,223.3,339.54z"/>
			<path class="st7" d="M207.89,327.59l-2.17-1.54c-5.65-3.83-7.79-1.93-9.79,1.06l-0.32,0.47c-2,2.99-2.39,5.8,2.53,9.81l2.17,1.54
				L207.89,327.59z"/>
		</g>
		
			<rect x="304.84" y="341.37" transform="matrix(-1 -1.224647e-16 1.224647e-16 -1 672.4278 744.5479)" class="st9" width="62.75" height="61.81"/>
		
			<rect x="299.22" y="346.99" transform="matrix(-1 -1.224647e-16 1.224647e-16 -1 661.1876 755.7866)" class="st10" width="62.75" height="61.81"/>
		
			<rect x="293.6" y="351.67" transform="matrix(-1 -1.224647e-16 1.224647e-16 -1 649.9502 765.1513)" class="st11" width="62.75" height="61.81"/>
	</g>
	
		<rect x="210.25" y="377.87" transform="matrix(-1 -1.224647e-16 1.224647e-16 -1 696.2587 812.8872)" class="st12" width="275.76" height="57.16"/>
	<path class="st13" d="M456.8,404.82c-81.05-13.02-191.76-5.38-246.55,13.77v-40.72h275.76v32.35
		C476.32,408.2,466.58,406.39,456.8,404.82z"/>
</g>
<path class="st14" d="M366.09,740.47h491.17c6.75,0,12.28-5.59,12.28-12.42l-28.87-180.81c0-6.83-5.52-12.42-12.28-12.42H394.97
	c-6.75,0-12.28,5.59-12.28,12.42l-28.87,180.81C353.82,734.88,359.34,740.47,366.09,740.47z"/>
<path class="st14" d="M1140.98,429.17c0-3.72-3.51-6.76-7.81-6.76h-275.7c-4.29,0-7.81,3.04-7.81,6.76l-6.37,34.16v71.06h308.24
	c4.29,0,7.81-3.04,7.81-6.76L1140.98,429.17z"/>
<g>
	<g>
		<polygon class="st15" points="1134.17,486.2 833.78,486.2 828.84,428.15 1101.91,428.15 		"/>
		<path class="st16" d="M1133.09,517.34H833.16v-31.05h299.93c0,0,4.05,5.4,4.05,14.17
			C1137.14,512.62,1133.09,517.34,1133.09,517.34z"/>
	</g>
	<g>
		<polygon class="st17" points="1132.14,449.75 831.76,449.75 826.81,391.7 1099.89,391.7 		"/>
		<path class="st18" d="M1131.06,480.9H831.13v-31.05h299.93c0,0,4.05,5.4,4.05,14.17C1135.11,476.17,1131.06,480.9,1131.06,480.9z"
			/>
	</g>
	<g>
		<polygon class="st7" points="1129.44,440.7 847.93,440.7 843.29,380.59 1099.21,380.59 		"/>
		<rect x="855.04" y="405.06" class="st19" width="268.08" height="26.56"/>
		<polygon class="st7" points="1129.44,408.55 847.93,408.55 843.29,348.44 1099.21,348.44 		"/>
		<g>
			<g>
				<path class="st6" d="M1095.67,448.72c-2.43,0-4.4-2-4.4-4.47c0-2.47,1.97-4.48,4.4-4.48c6.21,0,11.47-7.32,11.47-15.98
					c0-8.66-5.25-15.98-11.47-15.98c-2.43,0-4.4-2-4.4-4.47c0-2.47,1.97-4.47,4.4-4.47c11.17,0,20.26,11.18,20.26,24.93
					C1115.94,437.54,1106.85,448.72,1095.67,448.72z"/>
			</g>
			<g>
				<path class="st6" d="M1071.87,448.72c-2.43,0-4.4-2-4.4-4.47c0-2.47,1.97-4.48,4.4-4.48c6.21,0,11.47-7.32,11.47-15.98
					c0-8.66-5.25-15.98-11.47-15.98c-2.43,0-4.4-2-4.4-4.47c0-2.47,1.97-4.47,4.4-4.47c11.17,0,20.26,11.18,20.26,24.93
					C1092.14,437.54,1083.05,448.72,1071.87,448.72z"/>
			</g>
			<g>
				<path class="st6" d="M897.69,448.72c-2.24,0-4.06-2-4.06-4.47c0-2.47,1.82-4.48,4.06-4.48c5.74,0,10.59-7.32,10.59-15.98
					c0-8.66-4.85-15.98-10.59-15.98c-2.24,0-4.06-2-4.06-4.47c0-2.47,1.82-4.47,4.06-4.47c10.32,0,18.71,11.18,18.71,24.93
					C916.41,437.54,908.01,448.72,897.69,448.72z"/>
			</g>
			<g>
				<path class="st6" d="M874.9,448.72c-2.24,0-4.06-2-4.06-4.47c0-2.47,1.82-4.48,4.06-4.48c5.74,0,10.59-7.32,10.59-15.98
					c0-8.66-4.85-15.98-10.59-15.98c-2.24,0-4.06-2-4.06-4.47c0-2.47,1.82-4.47,4.06-4.47c10.32,0,18.71,11.18,18.71,24.93
					C893.62,437.54,885.22,448.72,874.9,448.72z"/>
			</g>
		</g>
	</g>
</g>
<g>
	<path class="st2" d="M337.57,723.61h493.85c6.79,0,12.34-5.59,12.34-12.42l-29.03-180.81c0-6.83-5.55-12.42-12.34-12.42H366.59
		c-6.79,0-12.34,5.59-12.34,12.42L325.22,711.2C325.22,718.02,330.78,723.61,337.57,723.61z"/>
	<path class="st12" d="M337.53,713.92h492.51c6.77,0,12.31-5.32,12.31-11.83L813.4,529.8c0-6.51-5.54-11.83-12.31-11.83H366.48
		c-6.77,0-12.31,5.32-12.31,11.83l-28.95,172.28C325.22,708.6,330.76,713.92,337.53,713.92z"/>
	<path class="st20" d="M697.16,689.64c-29.88-25.86-64.15-46.1-100.1-62.28c-54.32-24.45-96.96-45.71-154.98-59.2
		c-36.74-8.54-54.03-12.98-91.39-17.66l3.48-20.7c0-6.51,5.54-11.83,12.31-11.83h434.61c6.77,0,12.31,5.32,12.31,11.83l28.95,172.28
		c0,6.51-5.54,11.83-12.31,11.83H720.35C713.49,705.12,705.69,697.02,697.16,689.64z"/>
	<polygon class="st16" points="366.75,632.15 795.08,632.15 785.59,546.04 377.81,546.04 	"/>
	<polygon class="st21" points="418.78,526.93 748.79,526.93 748.09,517.35 420.75,517.35 	"/>
	<polygon class="st20" points="520.22,694.55 648.87,694.55 647.1,644.26 522.46,644.26 	"/>
	<polygon class="st20" points="750.16,615.72 752.42,635.97 748.94,636.52 746.69,616.26 	"/>
	<polygon class="st20" points="726.78,615.24 729.04,635.49 725.57,636.04 723.31,615.79 	"/>
	<polygon class="st20" points="702.58,615.49 704.59,635.76 701.11,636.27 699.1,615.99 	"/>
	<polygon class="st20" points="483.55,632.33 484.86,616.23 488.35,616.6 487.07,632.33 	"/>
	<polygon class="st20" points="414.5,632.33 415.8,616.23 419.29,616.6 418.01,632.33 	"/>
	<polygon class="st20" points="436.5,632.33 437.81,616.23 441.29,616.6 440.02,632.33 	"/>
	<polygon class="st20" points="386.25,632.33 388.29,615.83 391.75,616.42 389.79,632.33 	"/>
	<g>
		<rect x="585.17" y="557.21" class="st20" width="3.68" height="20.45"/>
		<polygon class="st20" points="609.97,577.61 609.67,557.38 613.35,557.38 613.66,577.61 		"/>
		<polygon class="st20" points="634.77,577.56 634.17,557.54 637.85,557.54 638.46,577.56 		"/>
		<polygon class="st20" points="659.57,577.51 658.66,557.7 662.35,557.7 663.27,577.51 		"/>
		<polygon class="st20" points="684.37,577.46 683.16,557.87 686.85,557.87 688.07,577.46 		"/>
		<polygon class="st20" points="709.17,577.41 707.66,558.03 711.36,558.03 712.88,577.41 		"/>
		<polygon class="st20" points="733.97,577.37 732.15,558.19 735.86,558.19 737.68,577.37 		"/>
		<g>
			<polygon class="st20" points="758.77,577.32 756.65,558.36 760.36,558.36 762.48,577.32 			"/>
		</g>
	</g>
	<g>
		<rect x="562.04" y="557.69" class="st20" width="3.41" height="20.45"/>
		<polygon class="st20" points="542.37,578.07 542.75,557.85 539.33,557.85 538.96,578.07 		"/>
		<polygon class="st20" points="519.29,578 520.04,558.02 516.62,558.02 515.87,578 		"/>
		<polygon class="st20" points="496.21,577.93 497.34,558.18 493.92,558.18 492.79,577.93 		"/>
		<polygon class="st20" points="473.13,577.86 474.63,558.34 471.21,558.34 469.7,577.86 		"/>
		<polygon class="st20" points="450.05,577.79 451.93,558.51 448.5,558.51 446.62,577.79 		"/>
		<polygon class="st20" points="426.97,577.72 429.22,558.67 425.79,558.67 423.53,577.72 		"/>
		<g>
			<polygon class="st20" points="403.89,577.65 406.52,558.84 403.08,558.84 400.45,577.65 			"/>
		</g>
	</g>
	<g>
		<rect x="584.79" y="539.09" class="st20" width="3.78" height="20.45"/>
		<polygon class="st20" points="610.25,559.48 609.94,539.25 613.71,539.25 614.03,559.48 		"/>
		<polygon class="st20" points="635.7,559.43 635.08,539.41 638.86,539.41 639.49,559.43 		"/>
		<polygon class="st20" points="661.15,559.38 660.22,539.58 664.01,539.58 664.94,559.38 		"/>
		<polygon class="st20" points="686.61,559.34 685.36,539.74 689.15,539.74 690.4,559.34 		"/>
		<polygon class="st20" points="712.06,559.29 710.5,539.9 714.3,539.9 715.86,559.29 		"/>
		<polygon class="st20" points="737.52,559.24 735.64,540.07 739.45,540.07 741.32,559.24 		"/>
		<g>
			<polygon class="st20" points="762.97,559.19 760.79,540.23 764.59,540.23 766.78,559.19 			"/>
		</g>
	</g>
	<g>
		<rect x="561.05" y="539.56" class="st20" width="3.5" height="20.45"/>
		<polygon class="st20" points="540.86,559.94 541.25,539.72 537.75,539.72 537.36,559.94 		"/>
		<polygon class="st20" points="517.17,559.87 517.95,539.89 514.44,539.89 513.67,559.87 		"/>
		<polygon class="st20" points="493.48,559.8 494.64,540.05 491.13,540.05 489.97,559.8 		"/>
		<polygon class="st20" points="469.79,559.73 471.34,540.22 467.82,540.22 466.28,559.73 		"/>
		<polygon class="st20" points="446.11,559.66 448.04,540.38 444.52,540.38 442.59,559.66 		"/>
		<polygon class="st20" points="422.42,559.59 424.73,540.54 421.21,540.54 418.89,559.59 		"/>
		<g>
			<polygon class="st20" points="398.73,559.52 401.43,540.71 397.9,540.71 395.2,559.52 			"/>
		</g>
	</g>
	<g>
		<rect x="570.86" y="576.54" class="st20" width="3.68" height="20.45"/>
		<polygon class="st20" points="595.66,596.93 595.36,576.7 599.04,576.7 599.34,596.93 		"/>
		<polygon class="st20" points="620.46,596.88 619.85,576.86 623.54,576.86 624.15,596.88 		"/>
		<polygon class="st20" points="645.26,596.84 644.35,577.03 648.04,577.03 648.95,596.84 		"/>
		<polygon class="st20" points="670.06,596.79 668.85,577.19 672.54,577.19 673.76,596.79 		"/>
		<polygon class="st20" points="694.86,596.74 693.34,577.35 697.04,577.35 698.56,596.74 		"/>
		<polygon class="st20" points="719.66,596.69 717.84,577.52 721.54,577.52 723.37,596.69 		"/>
		<g>
			<polygon class="st20" points="744.46,596.64 742.34,577.68 746.04,577.68 748.17,596.64 			"/>
		</g>
	</g>
	<g>
		<rect x="570.87" y="577.01" class="st20" width="3.41" height="20.45"/>
		<polygon class="st20" points="551.2,597.39 551.57,577.17 548.16,577.17 547.78,597.39 		"/>
		<polygon class="st20" points="528.12,597.32 528.87,577.34 525.45,577.34 524.7,597.32 		"/>
		<polygon class="st20" points="505.04,597.25 506.16,577.5 502.74,577.5 501.61,597.25 		"/>
		<polygon class="st20" points="481.95,597.18 483.46,577.66 480.03,577.66 478.53,597.18 		"/>
		<polygon class="st20" points="458.87,597.11 460.75,577.83 457.33,577.83 455.44,597.11 		"/>
		<polygon class="st20" points="435.79,597.04 438.05,577.99 434.62,577.99 432.36,597.04 		"/>
		<g>
			<polygon class="st20" points="412.71,596.97 415.34,578.16 411.91,578.16 409.27,596.97 			"/>
		</g>
	</g>
	<g>
		<rect x="577.44" y="595.62" class="st20" width="3.23" height="20.45"/>
		<polygon class="st20" points="602.88,616.01 602.57,595.81 605.81,595.81 606.12,616.01 		"/>
		<polygon class="st20" points="628.33,615.95 627.71,596 630.95,596 631.57,615.95 		"/>
		<polygon class="st20" points="653.78,615.89 652.84,596.19 656.09,596.19 657.03,615.89 		"/>
		<polygon class="st20" points="679.23,615.84 677.98,596.38 681.23,596.38 682.48,615.84 		"/>
		<polygon class="st20" points="704.67,615.78 703.11,596.57 706.37,596.57 707.93,615.78 		"/>
		<g>
			<polygon class="st20" points="730.12,615.72 728.25,596.76 731.51,596.76 733.38,615.72 			"/>
		</g>
	</g>
	<g>
		<rect x="577.86" y="596.09" class="st20" width="3.25" height="20.45"/>
		<polygon class="st20" points="555.48,616.46 555.9,596.29 552.65,596.29 552.23,616.46 		"/>
		<polygon class="st20" points="529.85,616.38 530.69,596.48 527.43,596.48 526.6,616.38 		"/>
		<polygon class="st20" points="504.22,616.3 505.47,596.67 502.22,596.67 500.96,616.3 		"/>
		<polygon class="st20" points="478.59,616.21 480.26,596.86 477,596.86 475.33,616.21 		"/>
		<polygon class="st20" points="452.96,616.13 455.05,597.05 451.79,597.05 449.7,616.13 		"/>
		<g>
			<polygon class="st20" points="427.33,616.05 429.84,597.24 426.57,597.24 424.06,616.05 			"/>
		</g>
	</g>
	<path class="st20" d="M368.77,614.95h435.94c0.15,0.78,0.31,1.55,0.46,2.33H368.42C368.56,616.5,368.67,615.73,368.77,614.95z"/>
	<rect x="415.83" y="615.2" class="st20" width="24.72" height="6.92"/>
	<polygon class="st20" points="392.31,615.1 390.27,622.12 368.07,622.19 368.78,615.04 	"/>
	<path class="st20" d="M371.28,596.02c0.02-0.13,0.03-0.27,0.04-0.4h429.62c0.17,0.77,0.34,1.55,0.5,2.33H371
		C371.1,597.31,371.21,596.66,371.28,596.02z"/>
	<path class="st20" d="M373.7,576.03h424.08c0.2,0.82,0.38,1.64,0.57,2.46h-425C373.48,577.67,373.6,576.85,373.7,576.03z"/>
	<path class="st20" d="M376.24,556.78H795.3c0.11,1.11,0.22,2.23,0.33,3.34H375.88C376.03,559.01,376.16,557.9,376.24,556.78z"/>
</g>
<path class="st12" d="M360.02,518H807.4c6.57,0,11.95-5.38,11.95-11.95V213.73c0-6.57-5.38-11.95-11.95-11.95H360.02
	c-6.57,0-11.95,5.38-11.95,11.95v292.33C348.08,512.63,353.45,518,360.02,518z"/>
<path class="st22" d="M366.12,516.66h435.33c6.57,0,11.95-5.38,11.95-11.95V217.32c0-6.57-5.38-11.95-11.95-11.95H366.12
	c-6.57,0-11.95,5.38-11.95,11.95v287.39C354.17,511.28,359.55,516.66,366.12,516.66z"/>
<rect x="375.52" y="229.08" class="st23" width="416.91" height="263.07"/>
<rect x="395.1" y="240.45" class="st24" width="287.63" height="204.86"/>
<rect x="692.53" y="229.08" class="st25" width="99.9" height="263.07"/>
<rect x="692.53" y="229.08" class="st26" width="99.9" height="96.18"/>
<g>
	<path class="st27" d="M461.77,391.38c0.11,27.25,30.93,24.25,58.47,24.13l0,0c27.54-0.12,58.66,2.25,58.55-25L562.9,290.33
		c-3.86-28-17.03-26.57-44.56-26.46l-2.48-0.44c-27.53,0.12-32.11,3.27-37.14,32.78L461.77,391.38z"/>
	<path class="st28" d="M472.87,390.62c0.12,27.25,24.77,24.28,46.8,24.19l0,0c22.03-0.09,46.93,2.3,46.81-24.96l-12.79-100.22
		c-3.12-28.01-13.64-26.59-35.67-26.5l-1.98-0.45c-22.02,0.09-25.68,3.24-29.68,32.76L472.87,390.62z"/>
	<path class="st29" d="M547.94,318.79c-0.48,6.5,2.88,12.05,7.5,12.38c4.62,0.34,8.75-4.66,9.22-11.16
		c0.48-6.49-2.89-12.04-7.5-12.38C552.54,307.3,548.41,312.29,547.94,318.79z"/>
	<path class="st29" d="M492.45,319.36c0.5,6.5-2.83,12.06-7.46,12.41c-4.62,0.36-8.76-4.62-9.27-11.12
		c-0.5-6.49,2.84-12.05,7.46-12.4C487.8,307.88,491.95,312.86,492.45,319.36z"/>
	<path class="st19" d="M483.35,445.55l3.21-61.26c0.02-4.31,3.86-9.19,9.98-11.31c8.71-3.02,22.32-4.71,26.63-4.88
		c3.46,0.14,14.84,0.88,22.35,3.92c9.8,3.97,10.31,6.12,10.3,14.51l2.97,59.01H483.35z"/>
	<path class="st30" d="M517.48,379.05c-4.15,4.12-7.63,8.56-10.09,15.81c-2.87,5.56-5.43,11.43-6.72,17.4
		c-2.36,10.9-2.95,22.11-3.22,33.3h-14.11l3.21-61.26c0.02-4.31,3.86-9.19,9.98-11.31c8.71-3.02,22.32-4.71,26.63-4.88
		c1.06,0.04,2.94,0.22,5.25,0.53C524.39,371.76,520.72,375.19,517.48,379.05z"/>
	<path class="st31" d="M529.09,369.11c-0.59,2.19-7.5,1.45-7.5,1.45c-4.41,0.02-9.59-0.01-9.34-1.96l0.15-27.86
		c-0.03-6.56,3.52-11.9,7.94-11.92l0,0c4.41-0.02,8.01,5.29,8.04,11.85L529.09,369.11z"/>
	<path class="st32" d="M486.74,325.88c2.66,19.95,20.83,33.43,33.29,33.2l0,0c12,0.59,29.85-9.88,32.78-31.82l2.4-39.62
		c-0.08-18.73-17.13-32.95-35.63-32.87l0,0c-18.5,0.08-36.72,15.15-36.64,33.88L486.74,325.88z"/>
	<path class="st27" d="M536.09,274.11l-54.58,12.22c1.5-17.64,19.71-32.61,40.63-32.25c20.92,0.35,38.04,13.98,39.17,31.91
		L536.09,274.11z"/>
	<path class="st33" d="M531.84,317.19c0.01,3.07,1.93,5.55,4.28,5.54c2.35-0.01,4.24-2.51,4.23-5.58c-0.01-3.07-1.93-5.55-4.28-5.54
		C533.71,311.62,531.82,314.12,531.84,317.19z"/>
	<path class="st33" d="M497.8,317.33c0.01,3.07,1.93,5.55,4.28,5.54c2.35-0.01,4.24-2.51,4.23-5.58c-0.01-3.07-1.93-5.55-4.28-5.54
		C499.68,311.77,497.79,314.26,497.8,317.33z"/>
	<g>
		<path class="st27" d="M543.55,303.24l-0.11,1.26l0.19-1.24c0,0,0,0-0.02,0l0,0c-0.01,0-0.02-0.01-0.02-0.01l0,0
			c-0.05-0.01-0.13-0.02-0.23-0.04l0,0c-0.2-0.04-0.48-0.1-0.83-0.16l0,0c-0.71-0.13-1.72-0.27-3.03-0.39l0,0
			c-2.62-0.24-6.4-0.36-11.36,0.06l0,0l0.46,3.89c8.28-0.7,12.91,0.18,14.1,0.42l0,0c0.2,0.04,0.22,0.06,0.5,0.09l0,0l0,0
			L543.55,303.24L543.55,303.24z"/>
	</g>
	<g>
		<path class="st27" d="M493.95,303.1l0.08,1.26l-0.16-1.25c0,0,0,0,0.02,0l0,0c0,0,0.01,0,0.02,0l0,0
			c0.05-0.01,0.13-0.02,0.22-0.04l0,0c0.2-0.03,0.48-0.09,0.84-0.14l0,0c0.71-0.11,1.73-0.24,3.04-0.33l0,0
			c2.62-0.18,6.4-0.22,11.35,0.31l0,0l-0.57,3.88c-8.26-0.88-12.92-0.09-14.11,0.12l0,0c-0.21,0.04-0.22,0.05-0.51,0.08l0,0l0,0
			L493.95,303.1L493.95,303.1z"/>
	</g>
	<path class="st34" d="M524.15,325.4c3.09,6.04-1.93,5.39-3.47,5.39c-1.53,0-3.7,0.1-3.59-7.21c0.09-6.26,1.73-14.52,2.68-14.49
		C520.37,309.12,520.3,317.89,524.15,325.4z"/>
	<path class="st35" d="M520.7,329.35c2.88-0.09,3.75-1.52,3.58-5.29l1.42,4.04c0.45,2.87-1.16,4.14-4.98,4.21
		c-5.46,0.09-6.62-2.05-6.79-4.68C515.32,329.38,518.21,329.43,520.7,329.35z"/>
	<path class="st27" d="M530.17,276.38c-6.42,16.31-45.72,32.48-46.8,32.09c-2.39-0.84-2.28-3.97-2.28-3.97s-0.26-15.79,1.48-20.36
		C484.3,279.57,533.88,266.95,530.17,276.38z"/>
	<path class="st27" d="M557.02,302.16c0,0-0.98,5.88-2.39,4.84c-1.41-1.05-20.28-27.37-21.26-30.89
		c-2.47-8.93-7.33-10.92-7.33-10.92s22.78,6.83,26.3,10.67C555.87,279.71,556.31,298.3,557.02,302.16z"/>
	<path class="st34" d="M530.92,259.98c0,1.16,2.58,13.49,3.36,22.24c0,0-4.31-0.27-4.31-1.17
		C529.97,280.17,530.92,259.98,530.92,259.98z"/>
	<path class="st31" d="M520.51,379.57c-11.24,0-20.82-2.64-24.59-6.34c1.85-1.08,22.35-7.83,26.39-7.99
		c3.24,0.13,22.17,6.1,23.63,6.93C543.11,376.45,532.85,379.57,520.51,379.57z"/>
	<path class="st36" d="M532.45,336.5c-0.88,5.75-6.03,10.18-12.28,10.18c-6.25,0-11.4-4.42-12.28-10.18H532.45z"/>
	<g>
		<path class="st32" d="M489.59,409.86c-0.48,1.57-1.16,3.89-1.96,6.85c-1.85,6.68-4.28,16.68-6.39,28.62h-12.58
			c2.3-13.26,5.01-24.32,6.97-31.69c1.67-6.14,2.84-9.69,2.86-9.77h0c1-3.03,4.47-4.67,7.74-3.67c3.27,1,5.11,4.28,4.1,7.31
			C490.32,407.51,490.06,408.29,489.59,409.86z"/>
	</g>
	<g>
		<path class="st30" d="M490.47,409.07c-1.21,3.26-2.48,8.49-3.49,11.82c-5.63-2.06-13.39-4.6-17.81-6.42
			c8.93-27.22,18.6-36.72,24.39-39.87c2.74,3.18,3.82,6.67,5.87,10.13C495.98,392.86,493.55,400.77,490.47,409.07z"/>
	</g>
	<g>
		<path class="st32" d="M568.02,405.27c0.02,0.05,0.03,0.1,0.05,0.15c1.64,5.08,4.1,10.65,7.4,14.51c1.64,1.95,3.45,3.46,5.46,4.5
			c2.02,1.04,4.25,1.65,7.11,1.66c0.3,0,0.6,0,0.9-0.02c1.77-0.1,3.12-0.55,4.48-1.39c2.36-1.44,4.75-4.44,6.68-8.66
			c2.92-6.28,4.7-14.89,5.59-22.47c0.91-7.59,1.41-20.52,1.4-23.11c0-0.79-0.01-1.15-0.01-1.15c-0.08-3.44,2.28,0.02,5.76-0.06
			c3.48-0.08,5.89,1.05,5.98,4.49c0,0.05,0.01,0.56,0.01,1.46c-0.01,4.47,0.24,19.99-3.06,33.58c-1.68,6.8-4.08,13.57-8.09,19.21
			c-2.01,2.81-4.48,5.35-7.53,7.26c-3.04,1.91-6.7,3.13-10.62,3.3c-0.51,0.02-1,0.03-1.48,0.03h-0.06c-4.78,0-9.17-1.14-12.88-3.07
			c-5.62-2.92-9.66-7.43-12.62-12.13c-2.9-4.61-4.86-9.47-6.29-13.8C560.35,408.8,564.36,407.35,568.02,405.27z"/>
	</g>
	<g>
		<path class="st30" d="M554.75,400.6c-0.84-8.23-0.94-16.53-1.92-24.65c5.45,4.23,13.31,12.91,21.98,38.5
			c-4.59,1.88-12.06,4.75-17.42,6.85C556.75,414.37,555.75,407.49,554.75,400.6z"/>
	</g>
	<g>
		<path class="st32" d="M626.2,351c0.07,0.07,2.57,2.05,2.14,2.19c-3.22,9.65-9.93,22.12-10.59,22.12l-7.54-1.7
			c-4.89-3.45-7.67-16.49-8.17-20.66l11.84-7.67c2.69-3.01,4.6-1.57,10.02,3.54L626.2,351z"/>
		<path class="st32" d="M608.32,349.41c-0.42,2.81,1.22,4.12,3.4,5.04l0,0c2.18,0.92,3.62-0.94,4.04-3.77l3.84-23.04
			c0.42-2.84-0.87-4.63-3.05-5.55l0,0c-2.39-0.47-4.37,1.05-4.8,3.87L608.32,349.41z"/>
		<path class="st32" d="M603.83,361.32c0.82,2.87,4.29,6.35,6.42,5.85l0,0c2.13-0.5,3.2-3.24,2.38-6.12l-5.46-19.48
			c-0.81-2.88-3.2-4.8-5.32-4.3l0,0c-2.13,0.5-3.2,3.23-2.38,6.11L603.83,361.32z"/>
		<path class="st32" d="M616.16,349.75c-0.71,2.67-0.23,5.18,1.87,6.46l0,0c2.1,1.29,3.12-0.21,3.82-2.89l6.69-21.34
			c0.71-2.68-0.28-5.14-2.38-6.43l0,0c-2.12-0.87-4.46,0.2-5.1,2.51L616.16,349.75z"/>
		<path class="st32" d="M618.62,357.66c-1.18,2.14-1.67,4.59,0.13,6.28l-0.13-2.02c1.8,1.69,3.72,4.19,4.9,2.04l9.75-19.63
			c1.18-2.15,1.35-4.99-0.45-6.68l-0.67-0.25c-1.96-1.33-3.86,0.78-5.04,2.91L618.62,357.66z"/>
		<path class="st31" d="M613.38,345.99c0.46,0.68,4.48,6.54,4.22,7.06c-0.26,0.52-3.7,8.83-3.7,8.83s-3.12-9.38-3.12-10.42
			S612.47,344.63,613.38,345.99z"/>
	</g>
	<g>
		<path class="st29" d="M495.46,271.71c6.52-6.97,15.26-9.11,25.15-9.12l0,0c0.4,0,0.79,0,1.18,0.01l0,0
			c9.67,0.17,18.57,2.86,25.12,9.59l0,0c6.55,6.73,11.04,17.81,11.05,35.55l0,0c0,1.35-0.03,2.73-0.08,4.15l0,0l5,0.19
			c0.06-1.49,0.08-2.93,0.08-4.34l0,0c0.01-18.53-4.74-31.1-12.47-39.04l0,0c-7.72-7.94-18.13-10.94-28.62-11.11l0,0
			c-0.42-0.01-0.85-0.01-1.27-0.01l0,0c-10.53-0.02-21.02,2.36-28.8,10.71l0,0c-7.77,8.35-12.5,22.08-12.87,44.02l0,0l5,0.08
			C484.28,291.09,488.92,278.69,495.46,271.71L495.46,271.71z"/>
	</g>
	<g>
		<path class="st29" d="M550.32,350.56c7.2-6.42,11.7-16.82,11.68-32.48l0,0c0-1.49-0.04-3.03-0.12-4.61l0,0l-2.99,0.15
			c0.08,1.54,0.12,3.02,0.12,4.46l0,0c-0.02,15.14-4.26,24.5-10.68,30.25l0,0c-6.42,5.75-15.27,7.99-24.81,8.21l0,0v0l0.07,3
			C533.51,359.31,543.13,356.98,550.32,350.56L550.32,350.56z"/>
	</g>
	<path class="st29" d="M518.49,356.27c0,2.57,3.23,4.65,7.22,4.65c3.99,0,7.22-2.08,7.22-4.65s-3.23-4.65-7.22-4.65
		C521.73,351.62,518.49,353.7,518.49,356.27z"/>
</g>
<path class="st27" d="M787.49,478.83c0,4.07-3.3,7.37-7.37,7.37s-7.37-3.3-7.37-7.37c0-4.07,3.3-7.37,7.37-7.37
	S787.49,474.75,787.49,478.83z"/>
<path class="st27" d="M540.76,463.76c0,5.1-4.13,9.23-9.23,9.23c-5.1,0-9.23-4.13-9.23-9.23c0-5.1,4.13-9.23,9.23-9.23
	C536.63,454.53,540.76,458.66,540.76,463.76z"/>
<path class="st27" d="M509.81,463.76c0,5.1-4.13,9.23-9.23,9.23c-5.09,0-9.23-4.13-9.23-9.23c0-5.1,4.13-9.23,9.23-9.23
	C505.68,454.53,509.81,458.66,509.81,463.76z"/>
<path class="st27" d="M572.42,463.57c0,5.1-4.13,9.23-9.23,9.23c-5.1,0-9.23-4.13-9.23-9.23c0-5.1,4.13-9.23,9.23-9.23
	C568.29,454.34,572.42,458.47,572.42,463.57z"/>
<g>
	<path class="st37" d="M771.65,282.09c0,16.11-13.06,29.17-29.17,29.17c-16.11,0-29.17-13.06-29.17-29.17
		c0-16.11,13.06-29.17,29.17-29.17C758.59,252.92,771.65,265.98,771.65,282.09z"/>
	<path class="st38" d="M751.13,296.07c2.79,1.19,4.14,6.09,4.14,9.05l0.19,3.2c-3.98,2.03-8.48,3.21-13.25,3.21
		c-4.3,0-8.37-0.96-12.05-2.63l0.14-5.88c0.01-1.52,0.81-5.2,3.77-6.83c1.51-0.83,3.71-1.56,5.56-1.85
		c-0.06-0.07-0.09-0.16-0.08-0.26l0.34-3.18c-3.93-1.37-8.12-5.08-8.87-10.76l-0.3-6.34c-0.03-6.61,5.58-11.41,12.07-11.44
		c6.48-0.03,12.08,5.08,12.11,11.7l-0.7,6.57c-0.8,6-4.73,9.57-8.42,10.77l0.2,2.93C747.72,294.52,749.42,295.34,751.13,296.07z"/>
</g>
<path class="st39" d="M801.23,516.26h-57.62c-22.5-51.2-67.46-131.28-155.96-214.16c-49.6-46.45-136.27-88.5-180.58-97.12h394.16
	c6.69,0,12.17,5.48,12.17,12.17v286.94C813.4,510.78,807.92,516.26,801.23,516.26z"/>
<g>
	<path class="st14" d="M131.18,491.67c0,20.18,33.7,36.54,75.28,36.54s75.28-16.36,75.28-36.54c0-20.18-33.7-36.54-75.28-36.54
		S131.18,471.49,131.18,491.67z"/>
	<path class="st3" d="M257.03,203.69c7.09,34.48,46.21,46.28,89.68,37.56c43.48-8.72,74.84-34.65,67.76-69.13
		c-7.09-34.48-49.24-61.04-92.72-52.32C278.28,128.52,249.95,169.21,257.03,203.69z"/>
	<path class="st16" d="M321.76,119.8c29.47-5.91,58.31,4.4,76.06,22.38c-8.21-7.07-17.6-12.11-28.2-15.08
		c-6.47-0.87-12.94-1.74-19.41-2.61c-10.05-0.38-19.42,1.72-28.12,6.29c-9.05,2.94-16.88,7.97-23.49,15.09
		c-7.12,6.61-12.15,14.44-15.09,23.49c-4.57,8.7-6.67,18.07-6.29,28.12v2.98c0.04,13.18,3.36,25.46,9.97,36.84
		c0.35,0.45,0.69,0.9,1.04,1.35c-16.1-6.17-27.65-17.74-31.19-34.98C249.95,169.21,278.28,128.52,321.76,119.8z"/>
	<path class="st3" d="M166.94,486.94c0.66,18.86,24.01,28.4,52.38,27.44c28.37-0.96,51-12.07,50.35-30.93
		c-0.66-18.86-24.29-36.48-52.66-35.51C188.63,448.9,166.28,468.08,166.94,486.94z"/>
	<g>
		<path class="st7" d="M313.5,231.07c8.84,0,18.14-0.94,27.63-2.85l-2.32-11.25c-20.83,4.18-40.44,3.35-55.23-2.31
			c-10.54-4.04-23.88-12.65-27.6-30.77l-11.39,2.28c3.77,18.36,15.8,31.91,34.79,39.19C289.27,229.15,300.92,231.07,313.5,231.07z"
			/>
	</g>
	<g>
		<path class="st7" d="M190.57,466.57c0.09,0,0.18,0,0.27,0c3.21-0.14,5.69-2.83,5.55-6c-1.74-38.07-3.33-112.72-5.28-139.62
			c-1.99-27.46-3.56-49.14-3.71-65.03c-0.29-30.48,10.2-45.13,34.01-47.48c4.25-0.42,8.6-1.25,13.21-2.13
			c5.71-1.09,11.62-2.22,18.24-2.77c3.2-0.27,5.57-3.05,5.3-6.21c-0.27-3.16-3.08-5.5-6.28-5.24c-7.24,0.61-13.73,1.85-19.47,2.94
			c-4.34,0.83-8.44,1.61-12.16,1.98c-29.85,2.95-44.82,22.8-44.48,59.01c0.15,16.24,1.73,38.09,3.74,65.74
			c1.94,26.83,3.53,101.4,5.26,139.32C184.9,464.16,187.48,466.57,190.57,466.57z"/>
	</g>
	<path class="st7" d="M344.06,223.67c0,7.35-6.03,13.3-13.47,13.3c-7.44,0-13.47-5.96-13.47-13.3c0-7.35,6.03-13.31,13.47-13.31
		C338.03,210.37,344.06,216.33,344.06,223.67z"/>
	<path class="st15" d="M383.74,160.32c7.66,7.57,9.93,17.6,5.06,22.41c-4.87,4.81-15.03,2.57-22.7-5
		c-7.66-7.57-9.93-17.6-5.06-22.41C365.91,150.52,376.07,152.75,383.74,160.32z"/>
</g>
<rect x="696.09" y="332.64" class="st40" width="92.78" height="132.45"/>
<rect x="715.81" y="309.59" class="st41" width="53.34" height="11.37"/>
<g>
	<text transform="matrix(1 0 0 1 725.7247 318.5199)" class="st38 st42 st43">Student</text>
</g>
<path class="st19" d="M761.77,486.2h-58.31c-4.07,0-7.37-3.3-7.37-7.37l0,0c0-4.07,3.3-7.37,7.37-7.37h58.31
	c4.07,0,7.37,3.3,7.37,7.37l0,0C769.15,482.9,765.85,486.2,761.77,486.2z"/>
<g>
	<polyline class="st44" points="782.45,474.67 782.45,479.97 778.5,479.97 	"/>
	<polygon class="st19" points="779.05,482.07 776.16,479.97 779.05,477.87 	"/>
</g>
<path class="st25" d="M765.93,348.92h-60.56c-1.11,0-2.01-0.9-2.01-2.01l0,0c0-1.11,0.9-2.01,2.01-2.01h60.56
	c1.11,0,2.01,0.9,2.01,2.01l0,0C767.95,348.02,767.04,348.92,765.93,348.92z"/>
<path class="st25" d="M765.93,359.9h-60.56c-1.11,0-2.01-0.9-2.01-2.01l0,0c0-1.11,0.9-2.01,2.01-2.01h60.56
	c1.11,0,2.01,0.9,2.01,2.01l0,0C767.95,358.99,767.04,359.9,765.93,359.9z"/>
<path class="st25" d="M765.93,370.87h-60.56c-1.11,0-2.01-0.9-2.01-2.01l0,0c0-1.11,0.9-2.01,2.01-2.01h60.56
	c1.11,0,2.01,0.9,2.01,2.01l0,0C767.95,369.97,767.04,370.87,765.93,370.87z"/>
<path class="st25" d="M765.93,384.62h-60.56c-1.11,0-2.01-0.9-2.01-2.01l0,0c0-1.11,0.9-2.01,2.01-2.01h60.56
	c1.11,0,2.01,0.9,2.01,2.01l0,0C767.95,383.72,767.04,384.62,765.93,384.62z"/>
</svg>
