<?xml version="1.0" encoding="utf-8"?>
<!-- Generator: Adobe Illustrator 24.0.0, SVG Export Plug-In . SVG Version: 6.00 Build 0)  -->
<svg version="1.1" id="图层_1" xmlns="http://www.w3.org/2000/svg" xmlns:xlink="http://www.w3.org/1999/xlink" x="0px" y="0px"
	 viewBox="0 0 100 100" style="enable-background:new 0 0 100 100;" xml:space="preserve">
<style type="text/css">
	.st0{fill:#01BBF4;}
</style>
<g>
	<g>
		<path class="st0" d="M88.73,31.2c-3.54,0-6.47,2.8-6.47,6.2v24.11c0,3.4,2.83,6.2,6.47,6.2c3.53,0,6.46-2.8,6.46-6.2V37.41
			C95.1,34.01,92.27,31.21,88.73,31.2L88.73,31.2z M10.75,31.2c-3.53,0-6.46,2.8-6.46,6.2v24.11c0,3.4,2.83,6.2,6.46,6.2
			c3.64,0,6.47-2.8,6.47-6.2V37.41C17.22,34.01,14.39,31.21,10.75,31.2L10.75,31.2z M21.16,31.4v44.11c0,2.6,2.22,4.8,5.05,4.8h5.76
			v13.4c0,3.4,2.83,6.2,6.46,6.2c3.54,0,6.47-2.8,6.47-6.2v-13.4h10.1v13.4c0,3.4,2.83,6.2,6.47,6.2c3.53,0,6.46-2.8,6.46-6.2v-13.4
			h5.76c2.83,0,5.05-2.1,5.05-4.8V31.4L21.16,31.4L21.16,31.4z M63.38,8.6l5.35-7.2c0.2-0.5,0.2-1.1-0.3-1.3
			c-0.4-0.3-1.01-0.1-1.31,0.3l-5.45,7.5c-3.82-1.38-7.85-2.09-11.92-2.1c-4.24,0-8.28,0.7-11.92,2.1l-5.45-7.5
			c-0.3-0.5-0.91-0.6-1.31-0.3c-0.41,0.31-0.5,0.88-0.2,1.3l5.35,7.2c-8.38,3.7-14.34,10.7-15.05,18.9h57.48
			C77.72,19.3,71.86,12.3,63.38,8.6L63.38,8.6z M37.62,20c-1.82,0-3.13-1.3-3.13-3c0-1.7,1.41-3,3.13-3c1.82,0,3.13,1.3,3.13,3
			C40.75,18.7,39.34,20,37.62,20L37.62,20z M62.27,20c-1.82,0-3.13-1.3-3.13-3c0-1.7,1.42-3,3.13-3c1.82,0,3.13,1.3,3.13,3
			C65.4,18.7,63.99,20,62.27,20L62.27,20z M62.27,20"/>
	</g>
</g>
</svg>
