<?xml version="1.0" encoding="utf-8"?>
<!-- Generator: Adobe Illustrator 24.0.0, SVG Export Plug-In . SVG Version: 6.00 Build 0)  -->
<svg version="1.1" id="图层_1" xmlns="http://www.w3.org/2000/svg" xmlns:xlink="http://www.w3.org/1999/xlink" x="0px" y="0px"
	 viewBox="0 0 100 100" style="enable-background:new 0 0 100 100;" xml:space="preserve">
<style type="text/css">
	.st0{fill:#01BBF4;}
</style>
<g>
	<path class="st0" d="M28.94,44.27v-8.89h23.37v-1.86h1.86c0-14.93-12.15-27.08-27.09-27.08S0,18.59,0,33.53
		c0,14.93,12.14,27.07,27.08,27.07v-1.86h1.86V47.99 M25.22,10.54v8.51H9.17C13.11,14.12,18.92,11.03,25.22,10.54L25.22,10.54z
		 M28.94,10.54c6.3,0.49,12.12,3.58,16.06,8.51H28.94V10.54z M6.66,22.77h18.56v8.89H4.09C4.33,28.56,5.21,25.53,6.66,22.77
		L6.66,22.77z M28.94,22.77h18.57c1.44,2.71,2.31,5.67,2.57,8.89H28.94V22.77z M4.09,35.39h21.13v8.89H6.66
		C5.21,41.52,4.33,38.5,4.09,35.39L4.09,35.39z M9.17,47.99h16.06v8.52C18.92,56.02,13.11,52.93,9.17,47.99L9.17,47.99z M9.17,47.99
		"/>
	<path class="st0" d="M16.68,9.35c-6.53,16.08-7.61,31.47-0.48,48.17l3.42-1.46c-6.76-15.83-5.77-29.84,0.51-45.3L16.68,9.35z
		 M37.29,9.35l-3.44,1.41c3.14,7.73,4.93,15.11,5.12,22.52l3.72-0.09C42.49,25.23,40.56,17.39,37.29,9.35L37.29,9.35z M37.29,9.35"
		/>
	<path class="st0" d="M27.08,31.67c-1.03,0-1.86,0.83-1.86,1.86v57.1c0,1.03,0.83,1.86,1.86,1.86h71.06c1.03,0,1.86-0.83,1.86-1.86
		V71.75c0-1.03-0.83-1.86-1.86-1.86c-1.03,0-1.86,0.83-1.86,1.86v17.02H28.94V35.38h67.34v21.09c0,1.03,0.83,1.86,1.86,1.86
		c1.03,0,1.86-0.83,1.86-1.86V33.52c0-1.03-0.83-1.86-1.86-1.86L27.08,31.67L27.08,31.67z M98.11,61.04
		c-1.02,0.02-1.84,0.86-1.83,1.88v2.2c0,1.03,0.83,1.86,1.86,1.86c1.03,0,1.86-0.83,1.86-1.86v-2.2c0.01-0.5-0.19-0.98-0.55-1.34
		C99.1,61.22,98.61,61.03,98.11,61.04L98.11,61.04z M98.11,61.04"/>
	<rect x="25.28" y="46.07" class="st0" width="74.66" height="3.72"/>
	<path class="st0" d="M36.09,40.73c0,0.99-0.81,1.8-1.8,1.8c-0.48,0-0.94-0.19-1.27-0.53c-0.34-0.34-0.53-0.8-0.53-1.27
		c0-0.99,0.81-1.8,1.8-1.8C35.29,38.92,36.09,39.73,36.09,40.73L36.09,40.73z M43.3,40.73c0,0.99-0.81,1.8-1.8,1.8
		c-0.48,0-0.94-0.19-1.28-0.53c-0.34-0.34-0.53-0.8-0.53-1.27c0-0.99,0.81-1.8,1.8-1.8C42.49,38.93,43.3,39.73,43.3,40.73
		L43.3,40.73z M50.51,40.73c0,0.99-0.81,1.8-1.8,1.8c-0.48,0-0.94-0.19-1.27-0.53c-0.34-0.34-0.53-0.8-0.53-1.27
		c0-0.99,0.81-1.8,1.8-1.8C49.7,38.92,50.51,39.73,50.51,40.73L50.51,40.73z M50.51,40.73"/>
</g>
</svg>
