<?xml version="1.0" encoding="utf-8"?>
<!-- Generator: Adobe Illustrator 24.0.0, SVG Export Plug-In . SVG Version: 6.00 Build 0)  -->
<svg version="1.1" id="图层_1" xmlns="http://www.w3.org/2000/svg" xmlns:xlink="http://www.w3.org/1999/xlink" x="0px" y="0px"
	 viewBox="0 0 100 100" style="enable-background:new 0 0 100 100;" xml:space="preserve">
<style type="text/css">
	.st0{fill:#01BBF4;}
</style>
<path class="st0" d="M90.86,73.25c-0.13,0.38-2.1,7.2-6.94,14.21c-4.19,6.05-8.53,12.15-15.38,12.26
	c-6.74,0.12-8.89-3.99-16.58-3.99c-7.68,0-10.09,3.88-16.45,4.11c-6.58,0.26-11.65-6.61-15.85-12.63
	C11.05,74.88,4.44,52.26,13.31,37.1c4.38-7.59,12.23-12.4,20.78-12.54c6.45-0.12,12.58,4.33,16.5,4.33c4.02,0,11.44-5.38,19.27-4.58
	c3.27,0.14,12.44,1.35,18.35,9.85c-0.46,0.31-10.97,6.46-10.85,18.98C77.51,68.25,90.72,73.2,90.86,73.25 M64.74,16.22
	c3.53-4.27,5.85-10.14,5.24-15.97c-5.04,0.2-11.18,3.32-14.83,7.57c-3.23,3.7-6.07,9.67-5.28,15.43
	C55.47,23.58,61.22,20.34,64.74,16.22"/>
</svg>
