<?xml version="1.0" encoding="utf-8"?>
<!-- Generator: Adobe Illustrator 24.0.0, SVG Export Plug-In . SVG Version: 6.00 Build 0)  -->
<svg version="1.1" id="图层_1" xmlns="http://www.w3.org/2000/svg" xmlns:xlink="http://www.w3.org/1999/xlink" x="0px" y="0px"
	 viewBox="0 0 100 100" style="enable-background:new 0 0 100 100;" xml:space="preserve">
<style type="text/css">
	.st0{fill:#01BBF4;}
</style>
<path class="st0" d="M91.7,10.54H8.3c-4.52,0-8.19,3.67-8.19,8.19v52.94c0,4.52,3.67,8.19,8.19,8.19H91.7
	c4.52,0,8.19-3.67,8.19-8.19V18.73C99.89,14.21,96.23,10.54,91.7,10.54z M50,74.73c-1.22,0-2.22-0.99-2.22-2.22
	c0-1.22,0.99-2.22,2.22-2.22s2.22,0.99,2.22,2.22C52.22,73.74,51.22,74.73,50,74.73z M96.99,64H3.01V19.9
	c0-3.65,2.96-6.61,6.61-6.61h80.75c3.65,0,6.61,2.96,6.61,6.61V64z"/>
<path class="st0" d="M68.01,94.13l-3.2-8.61c-0.19-0.52-0.77-0.78-1.29-0.59c-0.52,0.19-0.78,0.77-0.59,1.29l3.22,8.65
	c0.14,0.33,0.11,0.69-0.09,0.99c-0.2,0.3-0.52,0.47-0.88,0.47H52.86h-1.28H39.25c-0.36,0-0.68-0.17-0.88-0.47
	c-0.2-0.3-0.23-0.66-0.08-1.03l3.2-8.61c0.19-0.52-0.07-1.09-0.59-1.29c-0.52-0.19-1.09,0.07-1.29,0.59l-3.19,8.57
	c-0.4,0.94-0.3,2.02,0.27,2.87c0.57,0.85,1.52,1.36,2.54,1.36h12.32h1.28h12.32c1.03,0,1.98-0.51,2.54-1.36
	C68.29,96.11,68.39,95.04,68.01,94.13z"/>
</svg>
