<?xml version="1.0" encoding="utf-8"?>
<!-- Generator: Adobe Illustrator 24.0.0, SVG Export Plug-In . SVG Version: 6.00 Build 0)  -->
<svg version="1.1" id="图层_1" xmlns="http://www.w3.org/2000/svg" xmlns:xlink="http://www.w3.org/1999/xlink" x="0px" y="0px"
	 viewBox="0 0 100 100" style="enable-background:new 0 0 100 100;" xml:space="preserve">
<style type="text/css">
	.st0{fill:#01BBF4;}
</style>
<g>
	<path class="st0" d="M58.71,83.72l1.2,0.25v-3.7l-0.79-0.17c-6.8-1.44-13.98-4.18-20.76-7.92C30.77,68,24.1,62.86,19.07,57.3
		c-0.67-0.73-1.81-0.79-2.54-0.12c-0.36,0.32-0.57,0.77-0.59,1.25c-0.02,0.48,0.14,0.94,0.47,1.29c5.31,5.85,12.3,11.25,20.22,15.62
		C43.87,79.34,51.5,82.24,58.71,83.72z"/>
	<path class="st0" d="M11.47,51.77c0.32,0,0.62-0.08,0.87-0.23c0.42-0.23,0.74-0.63,0.87-1.09s0.07-0.97-0.17-1.36
		c-3.32-5.97-3.97-11.42-1.82-15.33c3.06-5.55,11.56-7.86,22.75-6.18c0.48,0.07,0.95-0.05,1.33-0.33c0.39-0.29,0.64-0.71,0.71-1.19
		c0.07-0.48-0.05-0.95-0.33-1.33c-0.29-0.39-0.71-0.64-1.18-0.7c-12.93-1.94-22.56,0.98-26.44,8.01C5.29,37.07,5.94,43.76,9.9,50.85
		C10.22,51.42,10.82,51.77,11.47,51.77z"/>
	<path class="st0" d="M67,25.59c-3.1-7.53-7.23-12.99-11.98-15.86c0.23-2.66-1.07-5.24-3.41-6.58c-1.6-0.93-3.47-1.17-5.25-0.69
		c-1.79,0.48-3.28,1.63-4.2,3.22c-0.93,1.6-1.17,3.47-0.69,5.25c0.48,1.79,1.62,3.28,3.22,4.2c1.05,0.61,2.24,0.93,3.45,0.93
		c2.23,0,4.31-1.08,5.6-2.87c8.47,5.66,14.55,21.78,14.91,39.79c0.07,3.48-0.08,7.01-0.44,10.48l-0.15,1.42l3.73-0.93l0.07-0.7
		c0.34-3.4,0.47-6.88,0.4-10.34C72.06,42.9,70.24,33.45,67,25.59z M49.01,12.32c-0.87,0.23-1.75,0.12-2.52-0.33
		c-0.77-0.44-1.31-1.15-1.54-2.01c-0.23-0.86-0.11-1.75,0.33-2.52c0.45-0.78,1.15-1.31,2-1.54c0.3-0.08,0.59-0.12,0.87-0.12
		c0.57,0,1.13,0.15,1.65,0.45c0.77,0.44,1.31,1.15,1.54,2.02c0.24,0.86,0.12,1.75-0.32,2.51C50.57,11.55,49.85,12.1,49.01,12.32z"/>
	<path class="st0" d="M58.16,90.78c-2.84,3.15-6.03,4.85-9.22,4.92c-6.35,0.12-12.59-6.09-16.72-16.6
		c-0.36-0.93-1.41-1.39-2.34-1.03c-0.44,0.17-0.8,0.51-0.99,0.95c-0.2,0.45-0.21,0.94-0.03,1.4c4.73,12.01,11.97,18.89,19.89,18.89
		h0.27c4.41-0.09,8.66-2.39,12.31-6.66l0.97-1.13l-3.69-1.22L58.16,90.78z"/>
	<path class="st0" d="M86.86,29.6c-2.97-4.93-9.09-7.72-17.21-7.84c-0.49-0.01-0.95,0.17-1.3,0.51s-0.54,0.8-0.54,1.28
		c0,1,0.8,1.81,1.78,1.81c6.83,0.1,11.86,2.27,14.18,6.1c3.28,5.43,1.03,13.94-6.03,22.79c-0.3,0.38-0.43,0.84-0.38,1.32
		c0.05,0.48,0.29,0.92,0.67,1.21c0.32,0.25,0.72,0.39,1.12,0.39c0.55,0,1.08-0.26,1.42-0.68C88.72,46.27,91.01,36.47,86.86,29.6z"/>
	<path class="st0" d="M9.91,68.55c0.68-10.18,11.6-23.51,27.02-32.82c7.42-4.48,15.21-7.68,22.53-9.26c0.47-0.1,0.88-0.38,1.13-0.79
		c0.26-0.4,0.34-0.88,0.24-1.35c-0.1-0.47-0.38-0.87-0.78-1.13c-0.4-0.26-0.89-0.35-1.36-0.25c-7.72,1.67-15.9,5.03-23.64,9.71
		c-8.54,5.15-15.81,11.45-21.04,18.22C9.08,57.3,6.41,63.59,6.28,69.12l-0.01,0l0,0.07c-2.41,1.13-3.99,3.54-3.99,6.24
		c0,3.81,3.1,6.92,6.92,6.92s6.92-3.1,6.92-6.92C16.11,71.86,13.39,68.91,9.91,68.55z M9.2,78.74c-1.83,0-3.31-1.49-3.31-3.31
		c0-1.83,1.49-3.31,3.31-3.31s3.31,1.49,3.31,3.31C12.51,77.26,11.02,78.74,9.2,78.74z"/>
	<path class="st0" d="M42.39,52.8c0,2.99,2.43,5.42,5.42,5.42s5.42-2.43,5.42-5.42c0-2.99-2.43-5.42-5.42-5.42
		S42.39,49.81,42.39,52.8z"/>
</g>
<path class="st0" d="M91.09,84.91c-0.04,0.13-0.74,2.56-2.45,5.05c-1.48,2.15-3,4.32-5.42,4.35c-2.37,0.04-3.13-1.42-5.84-1.42
	c-2.7,0-3.56,1.38-5.8,1.46c-2.32,0.09-4.1-2.35-5.58-4.49c-3.03-4.38-5.36-12.41-2.23-17.8c1.54-2.69,4.31-4.41,7.32-4.45
	c2.27-0.04,4.43,1.54,5.81,1.54c1.42,0,4.03-1.91,6.79-1.63c1.15,0.05,4.38,0.48,6.46,3.5c-0.16,0.11-3.86,2.29-3.82,6.74
	C86.38,83.13,91.04,84.89,91.09,84.91 M81.88,64.65c1.24-1.52,2.06-3.6,1.85-5.67c-1.78,0.07-3.94,1.18-5.22,2.69
	c-1.14,1.32-2.14,3.43-1.86,5.48C78.62,67.27,80.65,66.11,81.88,64.65"/>
</svg>
