<?xml version="1.0" encoding="utf-8"?>
<!-- Generator: Adobe Illustrator 24.0.0, SVG Export Plug-In . SVG Version: 6.00 Build 0)  -->
<svg version="1.1" id="图层_1" xmlns="http://www.w3.org/2000/svg" xmlns:xlink="http://www.w3.org/1999/xlink" x="0px" y="0px"
	 viewBox="0 0 1190.55 814" style="enable-background:new 0 0 1190.55 814;" xml:space="preserve">
<style type="text/css">
	.st0{filter:url(#Adobe_OpacityMaskFilter);}
	.st1{filter:url(#Adobe_OpacityMaskFilter_1_);}
	.st2{mask:url(#SVGID_1_);fill:url(#SVGID_2_);}
	.st3{opacity:0.21;fill:url(#SVGID_3_);}
	.st4{opacity:0.21;fill:url(#SVGID_4_);}
	.st5{fill:#9FC400;}
	.st6{fill:none;stroke:#FFFFFF;stroke-width:6.8629;stroke-miterlimit:10;}
	.st7{fill:#FFFFFF;}
	.st8{fill:#3D2B1D;}
	.st9{fill:#5B4736;}
	.st10{fill:#177A99;}
	.st11{fill:#FCEAD9;}
	.st12{fill:#23A5D8;}
	.st13{fill:#E2143C;}
	.st14{fill:#871B35;}
	.st15{fill:#663714;}
	.st16{fill:#39AFEA;}
	.st17{opacity:0.8;fill:#FFFFFF;}
	.st18{fill:#CDD5D7;}
	.st19{fill:#E5E8EC;}
	.st20{fill:#596273;}
	.st21{fill:#373278;}
	.st22{fill:#F3AA06;}
	.st23{fill:#FDBF14;}
	.st24{opacity:0.1;fill:#FFFFFF;}
	.st25{fill:#73DDDA;}
	.st26{clip-path:url(#SVGID_6_);}
	.st27{fill:#5FC1BC;}
	.st28{fill:#F9DAAA;}
	.st29{fill:#F5B178;}
	.st30{fill:#27A79C;}
	.st31{fill:#25838A;}
	.st32{fill:#F7BB84;}
	.st33{fill:#F4A662;}
	.st34{fill:#B34A2F;}
	.st35{fill:#983B23;}
	.st36{opacity:0.3;}
	.st37{clip-path:url(#SVGID_8_);fill:#FFFFFF;}
	.st38{opacity:0.2;}
	.st39{clip-path:url(#SVGID_10_);fill:#FFFFFF;}
	.st40{fill:#E63B6C;}
	.st41{clip-path:url(#SVGID_12_);}
	.st42{fill:#C81D50;}
	.st43{fill:#F5C11C;}
	.st44{fill:#F19319;}
	.st45{fill:#F3A367;}
	.st46{clip-path:url(#SVGID_14_);fill:#FFFFFF;}
	.st47{clip-path:url(#SVGID_16_);fill:#FFFFFF;}
	.st48{fill:#3F2310;}
	.st49{clip-path:url(#SVGID_18_);}
	.st50{fill:#209380;}
	.st51{fill:#F08A1B;}
	.st52{fill:#C789B9;}
	.st53{fill:#9A64A6;}
	.st54{fill:#E9617B;}
	.st55{clip-path:url(#SVGID_20_);fill:#FFFFFF;}
	.st56{clip-path:url(#SVGID_22_);fill:#FFFFFF;}
	.st57{clip-path:url(#SVGID_24_);}
	.st58{fill:#9359A0;}
	.st59{fill:#042138;}
	.st60{clip-path:url(#SVGID_26_);fill:#FFFFFF;}
	.st61{clip-path:url(#SVGID_28_);fill:#FFFFFF;}
	.st62{fill:#D9D9E8;}
	.st63{fill:none;stroke:#FFFFFF;stroke-width:2;stroke-linecap:round;stroke-linejoin:round;stroke-miterlimit:10;}
	.st64{opacity:0.62;fill:#A0A0AF;}
	.st65{fill:#F39806;}
</style>
<defs>
	<filter id="Adobe_OpacityMaskFilter" filterUnits="userSpaceOnUse" x="144.45" y="174.71" width="912.03" height="597.98">
		<feFlood  style="flood-color:white;flood-opacity:1" result="back"/>
		<feBlend  in="SourceGraphic" in2="back" mode="normal"/>
	</filter>
</defs>
<mask maskUnits="userSpaceOnUse" x="144.45" y="174.71" width="912.03" height="597.98" id="SVGID_1_">
	<g class="st0">
		<defs>
			<filter id="Adobe_OpacityMaskFilter_1_" filterUnits="userSpaceOnUse" x="144.45" y="174.71" width="912.03" height="597.98">
				<feFlood  style="flood-color:white;flood-opacity:1" result="back"/>
				<feBlend  in="SourceGraphic" in2="back" mode="normal"/>
			</filter>
		</defs>
		<mask maskUnits="userSpaceOnUse" x="144.45" y="174.71" width="912.03" height="597.98" id="SVGID_1_">
			<g class="st1">
			</g>
		</mask>
		
			<linearGradient id="SVGID_2_" gradientUnits="userSpaceOnUse" x1="630.9152" y1="2016.556" x2="1323.8651" y2="2016.556" gradientTransform="matrix(0.3736 0.7545 1.0444 -0.6607 -1864.0736 1079.0765)">
			<stop  offset="0" style="stop-color:#000000"/>
			<stop  offset="1" style="stop-color:#FFFFFF"/>
		</linearGradient>
		<path class="st2" d="M383.1,766.32c139.68,20.81,352.69-9.59,457.7-87.5c306.69-227.54,219.2-405.93,141.8-451.79
			c-145.79-94.49-457.02-63.5-684.45,113.61C71.37,516.55,92.15,729.35,383.1,766.32z"/>
	</g>
</mask>
<linearGradient id="SVGID_3_" gradientUnits="userSpaceOnUse" x1="630.9152" y1="2016.556" x2="1323.8651" y2="2016.556" gradientTransform="matrix(0.3736 0.7545 1.0444 -0.6607 -1864.0736 1079.0765)">
	<stop  offset="0" style="stop-color:#5D68F4"/>
	<stop  offset="1" style="stop-color:#4E99FF"/>
</linearGradient>
<path class="st3" d="M383.1,766.32c139.68,20.81,352.69-9.59,457.7-87.5c306.69-227.54,219.2-405.93,141.8-451.79
	c-145.79-94.49-457.02-63.5-684.45,113.61C71.37,516.55,92.15,729.35,383.1,766.32z"/>
<linearGradient id="SVGID_4_" gradientUnits="userSpaceOnUse" x1="543.6251" y1="343.0033" x2="896.4827" y2="784.9003">
	<stop  offset="0" style="stop-color:#5D68F4;stop-opacity:0"/>
	<stop  offset="0.2393" style="stop-color:#5C67F1;stop-opacity:0.2393"/>
	<stop  offset="0.4139" style="stop-color:#5963E8;stop-opacity:0.4139"/>
	<stop  offset="0.568" style="stop-color:#545CD8;stop-opacity:0.568"/>
	<stop  offset="0.7103" style="stop-color:#4D52C1;stop-opacity:0.7103"/>
	<stop  offset="0.8444" style="stop-color:#4545A4;stop-opacity:0.8444"/>
	<stop  offset="0.9707" style="stop-color:#3A3681;stop-opacity:0.9707"/>
	<stop  offset="1" style="stop-color:#373278"/>
</linearGradient>
<path class="st4" d="M403.74,201.87c135.34-51.88,283.58-64.17,398.15-52.94c115.89,11.75,198.11,47.02,231.98,102.01
	c34.22,55.52,18.11,123.82-18.91,198.04c-38.26,73.68-97.41,153.3-177.96,218.4c-153.03,131.23-396.15,142.56-582.4,3.54
	C68.78,533.04,122.85,303.19,403.74,201.87z"/>
<g>
	<path class="st5" d="M956.88,385c0,2.85-2.33,5.18-5.18,5.18H780.92c-2.85,0-5.18-2.33-5.18-5.18v-8.09l-7.12-8.09l7.12-9.39v-6.8
		c0-2.85,2.34-5.18,5.18-5.18H951.7c2.85,0,5.18,2.33,5.18,5.18V385z"/>
	<g>
		<line class="st6" x1="941.6" y1="368.52" x2="888.11" y2="368.52"/>
		<line class="st6" x1="881.69" y1="368.52" x2="816.96" y2="368.52"/>
		<line class="st6" x1="809.83" y1="368.52" x2="795.03" y2="368.52"/>
	</g>
</g>
<g>
	<rect x="870.8" y="702.85" class="st7" width="8.22" height="6.17"/>
	<polygon class="st8" points="870.8,709.03 851.17,717.06 879.02,717.06 879.02,709.03 	"/>
	<polygon class="st8" points="862.75,532.44 854.25,625.28 869.47,706.97 881.76,706.97 878.29,614.51 901.46,531.14 	"/>
	<rect x="876.1" y="705.58" class="st7" width="8.22" height="6.17"/>
	<path class="st9" d="M862.75,532.44l11.77,175.93h10.92l6.78-94.97c0,0,16.19-49.2,13.87-82.26L862.75,532.44z"/>
	<path class="st10" d="M887.43,428.33l0.78-0.47l0.59-0.33l0.65-0.3l0.41-0.1l0.31,0.02l0.3,0.27c0,0-1.3,1.58-1.31,1.59
		c-0.01,0.01-1.25,0.49-1.25,0.49l-1.28-0.36L887.43,428.33z"/>
	<path class="st11" d="M830.55,467.08c-0.04-1.5,1.4-2.6,2.83-2.15c4.39,1.38,12.47,4.82,15.06,11.9l0.42,1.48
		c0.09,0.31,0.24,0.59,0.45,0.83l2.65,3.05c0.7,0.8,0.72,1.99,0.05,2.81l-3.94,4.88c-0.76,0.94-2.14,1.09-3.08,0.32l-1.68-1.36
		c-0.46-0.37-1.04-0.54-1.63-0.48c-2.58,0.28-9.86,0.61-10.66-4.37L830.55,467.08z"/>
	<polygon class="st12" points="844.45,491.12 851.97,481.65 868.75,495.79 862.34,515.28 	"/>
	<rect x="823.09" y="466.03" class="st13" width="15.67" height="21.93"/>
	<ellipse class="st14" cx="830.92" cy="487.96" rx="7.83" ry="0.5"/>
	<g>
		<path class="st11" d="M863.21,414.6c0,0-0.66,4.62-1.03,5.34c0,0-0.63,1.36,0,1.72c0,0,1.16,2.04-0.28,3.94l-1.12,2.63
			c0,0-1.04,2.04,2.85,1.49c0,0,1.99,1.81,1.99,5.66c0,0-0.63,3.71,4.48,2.99l3.44,0.09c0,0,1.9,0.72,2.22,1.76h0.91l10.81-9.45
			l0.48-0.85l-3.86-8.7l-7.01-6.64l-8.03-3.08l-4.65,0.85L863.21,414.6z"/>
		<path class="st15" d="M862.67,408.92c0,0-3.62,7.61,4.35,5.8c0,0,6.1,0.91,6.4,6.34l0.9-1.63c0,0,3.39-3.93,5.2,2.29
			c0,0,0.79,5.68,7.07,6.88l1.63-0.72c0,0,5.25-12.32-2.48-18.96c0,0-9.18-8.27-19.93-0.24
			C865.81,408.68,863.34,410.25,862.67,408.92z"/>
	</g>
	<path class="st16" d="M887.77,428.09c0,0,7.37-4.26-3.71,5.43l-12.36,10.35c0,0-2.76,18.97-4.43,22.87c0,0-8.41,30.6-4.51,65.69
		l43.34-1.3c0,0,21.17-62.39,1.67-87.08c0,0-9.56-10.31-15.34-11.14l-1.81-5.36C890.6,427.55,890.57,426.27,887.77,428.09z"/>
	<path class="st11" d="M874.14,533.7l-5.46,3.26c0,0-3.35,1.15-6.61,3.7c0,0-1.76,2.91-3,3.17c0,0-2.11,2.91,3,2.38l2.64-2.2
		c0,0,1.41,6.17,12.95,4.49l3.79-7.26L874.14,533.7z"/>
	<path class="st12" d="M871.69,443.88l1.87,6.73l18.85-17.7l-2.12-5.76C890.29,427.16,881.81,436.12,871.69,443.88z"/>
	<path class="st12" d="M899.72,445.02c0,0-18.76,2.6-3.56,53.53l-23.62,35.42l8.42,9.16c0,0,29.41-11.28,34.03-41.94
		C915,501.19,921.88,440.83,899.72,445.02z"/>
	<polygon class="st9" points="876.1,711.76 856.46,719.79 884.31,719.79 884.31,711.76 	"/>
	<g>
		<path class="st17" d="M833.29,442.73c0,0-3.64,5.69-0.57,10.83c0,0,2.34,4.69-0.77,8.12c0.94-1.04,1.65-2.28,2.06-3.62
			c0.49-1.59,0.48-3.29,0.2-4.92c-0.18-1.04-0.54-2.03-0.83-3.04c-0.49-1.69-0.66-3.59-0.45-5.34c0.03-0.34,0.08-0.68,0.14-1.02
			C833.11,443.46,833.13,442.97,833.29,442.73z"/>
		<path class="st17" d="M831.3,456.42c0,0-1.22,1.91-0.19,3.64c0,0,0.78,1.58-0.26,2.73c0.32-0.35,0.55-0.77,0.69-1.22
			c0.17-0.53,0.16-1.11,0.07-1.65c-0.06-0.35-0.18-0.68-0.28-1.02c-0.17-0.57-0.22-1.21-0.15-1.79c0.01-0.11,0.03-0.23,0.05-0.34
			C831.24,456.67,831.25,456.5,831.3,456.42z"/>
	</g>
</g>
<g>
	<g>
		<g>
			<path class="st18" d="M755.49,659.21c1.39,21.24-14.84,39.72-36.07,41.12l-230.5,15.1c-21.21,1.39-39.71-14.82-41.1-36.05
				l-35.79-546.08c-1.39-21.23,14.83-39.72,36.05-41.12l230.5-15.1c21.23-1.4,39.72,14.82,41.12,36.05L755.49,659.21z"/>
		</g>
		<g>
			<path class="st19" d="M494.48,709.1c-21.23,1.39-39.73-14.83-41.12-36.05l-35.01-534.22c-1.39-21.21,14.83-39.71,36.06-41.1
				L673.03,83.4c21.22-1.39,39.73,14.82,41.12,36.05l35.01,534.21c1.39,21.22-14.85,39.72-36.06,41.11L494.48,709.1z"/>
		</g>
		<g>
			<path class="st20" d="M529.22,125.12c0.19,2.85-1.99,5.34-4.86,5.53c-2.86,0.19-5.35-1.99-5.53-4.85
				c-0.19-2.87,1.99-5.35,4.85-5.54C526.55,120.06,529.04,122.24,529.22,125.12z"/>
			<path class="st20" d="M567.48,104.45c0.13,1.85-1.27,3.44-3.11,3.56c-1.83,0.12-3.45-1.27-3.56-3.11
				c-0.12-1.83,1.29-3.44,3.13-3.56C565.77,101.22,567.36,102.63,567.48,104.45z"/>
			<path class="st20" d="M585.82,120.9c0.09,1.36-0.94,2.55-2.3,2.64l-35.62,2.33c-1.36,0.09-2.54-0.96-2.63-2.31l0,0
				c-0.1-1.37,0.93-2.55,2.31-2.64l35.61-2.34C584.56,118.5,585.73,119.53,585.82,120.9L585.82,120.9z"/>
		</g>
		<polygon class="st18" points="421.42,191.41 421.42,191.41 414.19,191.89 414.19,191.89 412.63,168.15 412.63,168.15 
			419.87,167.67 419.87,167.67 		"/>
		<polygon class="st18" points="425.5,253.74 425.5,253.74 418.27,254.21 418.27,254.21 415.64,214.14 415.64,214.14 422.88,213.67 
			422.88,213.67 		"/>
		<polygon class="st18" points="428.62,301.22 428.62,301.22 421.38,301.7 421.38,301.7 418.88,263.48 418.88,263.48 426.11,263.01 
			426.11,263.01 		"/>
		<g>
			
				<rect x="448.1" y="154.86" transform="matrix(0.9979 -0.0654 0.0654 0.9979 -24.5929 39.0133)" class="st21" width="270.65" height="480.34"/>
		</g>
		<circle class="st18" cx="607.13" cy="664.35" r="17.73"/>
	</g>
	<g>
		<polygon class="st22" points="446.88,334.44 411.02,313.31 378.38,339.13 373.41,266.6 407.66,264.25 441.91,261.91 		"/>
		<path class="st23" d="M457.48,233.23c1.95,28.55-19.6,53.28-48.16,55.24c-28.55,1.95-53.28-19.61-55.23-48.16
			c-1.95-28.55,19.61-53.28,48.16-55.24C430.8,183.12,455.52,204.68,457.48,233.23z"/>
		<polygon class="st7" points="403.67,205.92 414.34,217.27 429.89,216.41 427.66,231.82 438.03,243.43 424.59,251.31 
			421.98,266.66 407.44,261.06 393.81,268.59 389.13,253.74 374.74,247.77 383.44,234.85 379.13,219.88 394.65,218.62 		"/>
	</g>
	<polygon class="st24" points="442.61,317.45 451.82,472.3 623.58,152.01 528.29,157.69 	"/>
	<polygon class="st24" points="456.92,558.16 676.4,148.88 640.16,151.03 453.42,499.23 	"/>
	<g>
		
			<ellipse transform="matrix(0.9977 -0.0683 0.0683 0.9977 -25.6998 34.4721)" class="st25" cx="491.33" cy="393.11" rx="20.16" ry="20.16"/>
		<g>
			<g>
				<defs>
					
						<ellipse id="SVGID_5_" transform="matrix(0.9977 -0.0683 0.0683 0.9977 -25.6998 34.4721)" cx="491.33" cy="393.11" rx="20.16" ry="20.16"/>
				</defs>
				<clipPath id="SVGID_6_">
					<use xlink:href="#SVGID_5_"  style="overflow:visible;"/>
				</clipPath>
				<g class="st26">
					<path class="st27" d="M513.84,381.13l-12.58-6.56l-6.96,14.89c0,0-0.42,8.89-0.19,12.53c0.23,3.65,0.64,6.84,0.64,6.84
						l2.89,8.82l3.5,1.79l15.32-0.23l-2.61-38.09L513.84,381.13z"/>
					<path class="st28" d="M500.66,384.24l0.34,5c1.39-0.09,2.43-1.29,2.34-2.68C503.24,385.19,502.04,384.15,500.66,384.24"/>
					<path class="st29" d="M500.73,385.24l0.21,3.01c0.83-0.06,1.47-0.77,1.41-1.61C502.28,385.8,501.57,385.18,500.73,385.24"/>
					<path class="st28" d="M481.68,385.54l0.34,5c-1.39,0.09-2.57-0.95-2.66-2.34C479.25,386.83,480.3,385.63,481.68,385.54"/>
					<path class="st29" d="M481.75,386.54l0.21,3.01c-0.83,0.06-1.56-0.57-1.61-1.41C480.29,387.31,480.93,386.59,481.75,386.54"/>
					<path class="st30" d="M483.04,420.68l-0.8-11.73c-0.4-5.83,4-10.87,9.83-11.27s10.87,4,11.27,9.83l0.8,11.73L483.04,420.68z"/>
					<path class="st31" d="M487.84,420.35l-0.88-12.79c-0.02-0.34-0.32-0.6-0.67-0.58c-0.34,0.02-0.6,0.32-0.58,0.67l0.88,12.79
						L487.84,420.35z"/>
					<path class="st31" d="M501.13,419.44l-0.88-12.79c-0.02-0.34-0.32-0.6-0.67-0.58c-0.34,0.02-0.6,0.32-0.58,0.67l0.88,12.79
						L501.13,419.44z"/>
					<path class="st32" d="M488.46,395.39l0.24,3.55c0.13,1.89,1.76,3.32,3.66,3.19c1.89-0.13,3.32-1.76,3.19-3.66l-0.24-3.55
						L488.46,395.39z"/>
					<path class="st28" d="M481.21,379.78l0.68,9.92c0.36,5.3,4.94,9.29,10.24,8.93c5.3-0.36,9.29-4.94,8.93-10.24l-0.74-10.8
						L481.21,379.78z"/>
					<path class="st33" d="M489.97,389.76l3.01-0.21c-0.06-0.83-0.77-1.47-1.61-1.41C490.54,388.2,489.91,388.92,489.97,389.76"/>
					<path class="st7" d="M496.01,390.65l-8.83,0.6c0.17,2.43,2.28,4.27,4.71,4.11C494.33,395.19,496.18,393.08,496.01,390.65"/>
					<path class="st34" d="M489.68,387.51c-0.37,0.03-0.71-0.26-0.73-0.64c-0.08-1.14-1.06-1.99-2.2-1.92s-1.99,1.06-1.92,2.2
						c0.03,0.37-0.26,0.71-0.64,0.73c-0.37,0.03-0.71-0.26-0.73-0.64c-0.13-1.89,1.29-3.52,3.18-3.65c1.89-0.13,3.52,1.29,3.65,3.18
						C490.34,387.15,490.05,387.49,489.68,387.51"/>
					<path class="st34" d="M498.51,386.91c-0.37,0.03-0.71-0.26-0.73-0.64c-0.08-1.14-1.06-1.99-2.2-1.92
						c-1.14,0.08-1.99,1.06-1.92,2.2c0.03,0.37-0.26,0.71-0.64,0.73c-0.37,0.03-0.71-0.26-0.73-0.64c-0.13-1.89,1.29-3.52,3.18-3.65
						c1.89-0.13,3.52,1.29,3.65,3.18C499.16,386.55,498.88,386.88,498.51,386.91"/>
					<polygon class="st35" points="500.38,378.08 500.92,386.74 498.33,378.56 					"/>
					<path class="st34" d="M481.91,388.8l0.73-6.53c0,0,7.39,1.47,14.05-0.96l-0.95-0.65c0,0,3.02,0.69,4.62-0.94l-1.69-0.42
						c0,0,3.82-1.15,2.59-4.72l-1.23,0.33c0,0-3.47-4.08-10.14-3.63c-5.66,0.39-10.18,4.53-9.63,8.58L481.91,388.8z"/>
					<g class="st36">
						<g>
							<g>
								<defs>
									
										<rect id="SVGID_7_" x="483.64" y="390.92" transform="matrix(0.9977 -0.0683 0.0683 0.9977 -25.7951 34.1982)" width="7.26" height="6.89"/>
								</defs>
								<clipPath id="SVGID_8_">
									<use xlink:href="#SVGID_7_"  style="overflow:visible;"/>
								</clipPath>
								<path class="st37" d="M490.51,397.6c-0.05,0-0.09,0.01-0.14-0.01c-5.36-0.84-6.82-5.47-6.88-5.65
									c-0.1-0.32,0.08-0.68,0.42-0.78c0.32-0.1,0.68,0.08,0.78,0.42c0.06,0.17,1.31,4.07,5.88,4.79c0.33,0.06,0.57,0.37,0.52,0.72
									C491.04,397.37,490.79,397.58,490.51,397.6"/>
							</g>
						</g>
					</g>
					<g class="st38">
						<g>
							<g>
								<defs>
									
										<rect id="SVGID_9_" x="483.55" y="401.24" transform="matrix(0.9977 -0.0683 0.0683 0.9977 -26.5412 34.1296)" width="4.68" height="8.01"/>
								</defs>
								<clipPath id="SVGID_10_">
									<use xlink:href="#SVGID_9_"  style="overflow:visible;"/>
								</clipPath>
								<path class="st39" d="M484.52,409.36c-0.02,0-0.03,0-0.05,0c-0.38-0.01-0.69-0.3-0.69-0.69c-0.03-5.68,3.09-7.38,3.22-7.45
									c0.33-0.18,0.75-0.05,0.93,0.28c0.18,0.33,0.05,0.75-0.28,0.93c-0.12,0.07-2.51,1.46-2.5,6.24
									C485.15,409.03,484.88,409.33,484.52,409.36"/>
							</g>
						</g>
					</g>
				</g>
			</g>
		</g>
	</g>
	<g>
		
			<ellipse transform="matrix(0.9977 -0.0683 0.0683 0.9977 -25.276 38.5915)" class="st40" cx="551.79" cy="388.97" rx="20.16" ry="20.16"/>
		<g>
			<g>
				<defs>
					
						<ellipse id="SVGID_11_" transform="matrix(0.9977 -0.0683 0.0683 0.9977 -25.276 38.5915)" cx="551.79" cy="388.97" rx="20.16" ry="20.16"/>
				</defs>
				<clipPath id="SVGID_12_">
					<use xlink:href="#SVGID_11_"  style="overflow:visible;"/>
				</clipPath>
				<g class="st41">
					<polygon class="st42" points="571.05,369.97 559.77,370.62 553.68,386.93 550.98,399.84 550.6,404.39 560.39,425.25 
						561.6,426.24 574.84,425.34 					"/>
					<path class="st28" d="M561.63,384.86l0.4,5.87c1.62-0.11,2.84-1.51,2.73-3.14C564.67,385.98,563.25,384.75,561.63,384.86"/>
					<path class="st29" d="M561.71,386.02l0.24,3.54c0.98-0.07,1.72-0.92,1.66-1.88C563.54,386.7,562.69,385.96,561.71,386.02"/>
					<path class="st28" d="M539.34,386.38l0.4,5.87c-1.62,0.11-3.02-1.11-3.13-2.74C536.48,387.91,537.72,386.49,539.34,386.38"/>
					<path class="st29" d="M539.42,387.55l0.24,3.54c-0.98,0.07-1.81-0.67-1.88-1.64C537.7,388.47,538.44,387.62,539.42,387.55"/>
					<path class="st43" d="M540.93,427.66l-0.94-13.77c-0.47-6.84,4.7-12.78,11.55-13.25c6.84-0.47,12.78,4.7,13.25,11.55
						l0.94,13.77L540.93,427.66z"/>
					<path class="st44" d="M546.57,427.27l-1.03-15.02c-0.03-0.41-0.38-0.71-0.78-0.68c-0.41,0.03-0.71,0.38-0.68,0.78l1.03,15.02
						L546.57,427.27z"/>
					<path class="st44" d="M562.18,426.2l-1.03-15.02c-0.03-0.41-0.38-0.71-0.78-0.68c-0.41,0.03-0.71,0.38-0.68,0.78l1.03,15.02
						L562.18,426.2z"/>
					<path class="st45" d="M547.3,397.95l0.28,4.16c0.15,2.21,2.08,3.9,4.29,3.74c2.21-0.15,3.9-2.07,3.74-4.29l-0.28-4.16
						L547.3,397.95z"/>
					<path class="st28" d="M538.78,379.63l0.8,11.65c0.43,6.22,5.8,10.9,12.02,10.48s10.9-5.8,10.48-12.02l-0.87-12.68
						L538.78,379.63z"/>
					<path class="st33" d="M549.07,391.34l3.54-0.24c-0.07-0.98-0.92-1.72-1.9-1.65C549.74,389.52,549,390.35,549.07,391.34"/>
					<path class="st34" d="M548.73,388.7c-0.44,0.03-0.82-0.3-0.85-0.74c-0.09-1.32-1.24-2.34-2.58-2.25
						c-1.34,0.09-2.34,1.24-2.25,2.58c0.03,0.44-0.3,0.82-0.74,0.85c-0.44,0.03-0.82-0.3-0.85-0.74c-0.15-2.21,1.52-4.13,3.73-4.28
						c2.21-0.15,4.13,1.52,4.28,3.73C549.5,388.28,549.17,388.67,548.73,388.7"/>
					<path class="st34" d="M553.68,393.12c-0.36,0.02-0.65,0.34-0.62,0.72c0.08,1.11-0.77,2.07-1.87,2.15
						c-1.11,0.08-2.07-0.77-2.15-1.87c-0.02-0.36-0.34-0.65-0.72-0.62c-0.36,0.02-0.65,0.34-0.62,0.72
						c0.13,1.84,1.72,3.23,3.56,3.11c1.84-0.13,3.23-1.72,3.11-3.56C554.37,393.37,554.06,393.09,553.68,393.12"/>
					<path class="st34" d="M559.09,387.99c-0.44,0.03-0.82-0.3-0.85-0.74c-0.09-1.32-1.24-2.34-2.58-2.25
						c-1.32,0.09-2.34,1.24-2.25,2.58c0.03,0.44-0.3,0.82-0.74,0.85c-0.44,0.03-0.82-0.3-0.85-0.74c-0.15-2.21,1.52-4.13,3.73-4.28
						s4.13,1.52,4.28,3.73C559.86,387.58,559.54,387.96,559.09,387.99"/>
					<g class="st36">
						<g>
							<g>
								<defs>
									
										<rect id="SVGID_13_" x="541.64" y="392.7" transform="matrix(0.9977 -0.0683 0.0683 0.9977 -25.8208 38.2078)" width="8.53" height="8.09"/>
								</defs>
								<clipPath id="SVGID_14_">
									<use xlink:href="#SVGID_13_"  style="overflow:visible;"/>
								</clipPath>
								<path class="st46" d="M549.7,400.56c-0.05,0-0.11,0.01-0.16,0c-6.3-0.98-8.01-6.42-8.09-6.65c-0.12-0.38,0.1-0.79,0.49-0.91
									c0.38-0.12,0.79,0.1,0.91,0.49c0.06,0.2,1.55,4.79,6.91,5.63c0.4,0.07,0.67,0.44,0.6,0.84
									C550.32,400.28,550.04,400.53,549.7,400.56"/>
							</g>
						</g>
					</g>
					<g class="st38">
						<g>
							<g>
								<defs>
									
										<rect id="SVGID_15_" x="541.53" y="404.84" transform="matrix(0.9977 -0.0683 0.0683 0.9977 -26.698 38.1269)" width="5.51" height="9.4"/>
								</defs>
								<clipPath id="SVGID_16_">
									<use xlink:href="#SVGID_15_"  style="overflow:visible;"/>
								</clipPath>
								<path class="st47" d="M542.66,414.36c-0.02,0-0.03,0-0.05,0c-0.44,0-0.81-0.35-0.81-0.81c-0.02-6.67,3.63-8.67,3.78-8.76
									c0.39-0.21,0.87-0.06,1.09,0.33c0.2,0.39,0.06,0.87-0.33,1.09c-0.14,0.07-2.95,1.7-2.93,7.32
									C543.42,413.98,543.08,414.33,542.66,414.36"/>
							</g>
						</g>
					</g>
					<path class="st48" d="M538.06,378.64c0.12,1.81,1.69,3.19,3.51,3.06c1.81-0.12,3.19-1.69,3.06-3.51
						c-0.12-1.81-1.69-3.19-3.51-3.06C539.31,375.27,537.93,376.84,538.06,378.64"/>
					<path class="st48" d="M537.03,381.5c0.1,1.42,1.31,2.48,2.73,2.38c1.42-0.1,2.48-1.31,2.38-2.73s-1.31-2.48-2.73-2.38
						C538.01,378.87,536.94,380.1,537.03,381.5"/>
					<path class="st48" d="M538.02,384.74c0.07,0.98,0.92,1.74,1.91,1.67c0.98-0.07,1.74-0.92,1.67-1.91
						c-0.07-0.98-0.92-1.74-1.91-1.67C538.71,382.89,537.95,383.74,538.02,384.74"/>
					<path class="st48" d="M538.96,386.96c0.04,0.56,0.52,0.98,1.08,0.94c0.56-0.04,0.98-0.52,0.94-1.08
						c-0.04-0.56-0.52-0.98-1.08-0.94C539.34,385.91,538.92,386.4,538.96,386.96"/>
					<path class="st48" d="M558.86,380.01c0.1,1.42,1.31,2.48,2.73,2.38c1.42-0.1,2.48-1.31,2.38-2.73s-1.31-2.48-2.73-2.38
						C559.82,377.37,558.76,378.6,558.86,380.01"/>
					<path class="st48" d="M559.85,383.24c0.07,0.98,0.92,1.74,1.91,1.67c0.98-0.07,1.74-0.92,1.67-1.91
						c-0.07-0.98-0.92-1.74-1.91-1.67C560.52,381.4,559.78,382.24,559.85,383.24"/>
					<path class="st48" d="M560.78,385.46c0.04,0.56,0.52,0.98,1.08,0.94c0.56-0.04,0.98-0.52,0.94-1.08
						c-0.04-0.56-0.52-0.98-1.08-0.94C561.16,384.42,560.74,384.9,560.78,385.46"/>
					<path class="st48" d="M555.88,377.42c0.12,1.81,1.69,3.19,3.51,3.06c1.81-0.12,3.19-1.69,3.06-3.51
						c-0.12-1.81-1.69-3.19-3.51-3.06C557.12,374.05,555.76,375.62,555.88,377.42"/>
					<path class="st48" d="M543.3,376.75c0.14,2.1,1.97,3.7,4.08,3.56c2.1-0.14,3.7-1.97,3.56-4.08c-0.14-2.1-1.97-3.7-4.08-3.56
						C544.73,372.82,543.15,374.63,543.3,376.75"/>
					<path class="st48" d="M539.1,374.27c0.14,2.1,1.97,3.7,4.08,3.56c2.1-0.14,3.7-1.97,3.56-4.08c-0.14-2.1-1.97-3.7-4.08-3.56
						C540.56,370.33,538.96,372.16,539.1,374.27"/>
					<path class="st48" d="M553,373.32c0.14,2.1,1.97,3.7,4.08,3.56c2.1-0.14,3.7-1.98,3.56-4.08c-0.14-2.1-1.97-3.7-4.08-3.56
						C554.45,369.38,552.86,371.21,553,373.32"/>
					<path class="st48" d="M545.08,373.11c0.19,2.77,2.6,4.88,5.38,4.69c2.77-0.19,4.88-2.6,4.69-5.38s-2.6-4.88-5.38-4.69
						C546.98,367.92,544.89,370.33,545.08,373.11"/>
					<path class="st48" d="M549.37,376.34c0.14,2.1,1.97,3.7,4.08,3.56c2.1-0.14,3.7-1.97,3.56-4.08s-1.97-3.7-4.08-3.56
						C550.83,372.4,549.23,374.22,549.37,376.34"/>
				</g>
			</g>
		</g>
	</g>
	<g>
		
			<ellipse transform="matrix(0.9977 -0.0683 0.0683 0.9977 -17.8909 39.969)" class="st30" cx="575.63" cy="281.65" rx="41.55" ry="41.55"/>
		<g>
			<g>
				<defs>
					
						<ellipse id="SVGID_17_" transform="matrix(0.9977 -0.0683 0.0683 0.9977 -17.8909 39.969)" cx="575.63" cy="281.65" rx="41.55" ry="41.55"/>
				</defs>
				<clipPath id="SVGID_18_">
					<use xlink:href="#SVGID_17_"  style="overflow:visible;"/>
				</clipPath>
				<g class="st49">
					<polygon class="st50" points="616.37,268.44 595.82,250.49 573.11,276.05 584.36,355.05 590.73,361.39 593.19,363.38 
						622.73,361.36 					"/>
					<path class="st28" d="M597.41,277.06l0.84,12.2c3.37-0.23,5.91-3.15,5.68-6.52C603.7,279.37,600.78,276.83,597.41,277.06"/>
					<path class="st29" d="M597.57,279.5l0.5,7.35c2.02-0.14,3.58-1.89,3.44-3.91C601.35,280.89,599.6,279.36,597.57,279.5"/>
					
						<rect x="548.82" y="287.38" transform="matrix(0.9977 -0.0683 0.0683 0.9977 -19.1842 39.9572)" class="st51" width="51.97" height="26.36"/>
					<path class="st52" d="M554.34,366.04l-1.96-28.64c-0.97-14.22,9.76-26.57,23.98-27.54c14.22-0.97,26.57,9.76,27.55,24.02
						l1.96,28.64L554.34,366.04z"/>
					<path class="st53" d="M566.09,365.24L563.95,334c-0.06-0.83-0.78-1.46-1.61-1.41c-0.83,0.06-1.46,0.78-1.41,1.61l2.14,31.24
						L566.09,365.24z"/>
					<path class="st53" d="M598.52,363.02l-2.14-31.24c-0.06-0.83-0.78-1.46-1.61-1.41c-0.83,0.06-1.46,0.78-1.41,1.61l2.14,31.24
						L598.52,363.02z"/>
					<path class="st32" d="M567.63,304.26l0.59,8.67c0.32,4.62,4.3,8.09,8.92,7.78c4.62-0.32,8.09-4.3,7.78-8.92l-0.59-8.67
						L567.63,304.26z"/>
					<path class="st28" d="M549.89,266.19l1.66,24.24c0.88,12.91,12.07,22.66,24.97,21.77c12.91-0.88,22.66-12.07,21.77-24.97
						l-1.8-26.36L549.89,266.19z"/>
					<path class="st33" d="M571.3,290.53l7.35-0.5c-0.14-2.02-1.89-3.55-3.91-3.41C572.68,286.75,571.16,288.5,571.3,290.53"/>
					<path class="st54" d="M575.97,303.69c-5.49,0.38-10.26-3.78-10.63-9.27c-0.07-1,0.68-1.85,1.67-1.92
						c1-0.07,1.85,0.68,1.92,1.67c0.24,3.53,3.29,6.19,6.83,5.95c3.53-0.24,6.19-3.29,5.95-6.83c-0.07-1,0.68-1.85,1.67-1.92
						c1-0.07,1.85,0.68,1.92,1.67C585.62,298.55,581.46,303.31,575.97,303.69"/>
					<path class="st34" d="M570.57,285.03c-0.93,0.06-1.72-0.62-1.78-1.56c-0.19-2.76-2.59-4.85-5.35-4.67
						c-2.76,0.19-4.85,2.59-4.67,5.35c0.06,0.93-0.62,1.72-1.56,1.78c-0.93,0.06-1.72-0.62-1.78-1.56
						c-0.31-4.59,3.16-8.57,7.78-8.89c4.59-0.31,8.6,3.15,8.92,7.74C572.19,284.18,571.5,284.96,570.57,285.03"/>
					<path class="st34" d="M556.85,282.06l-0.03,0c-2.45,0.04-3.37-1.7-3.5-2.63c-0.05-0.32,0.18-0.63,0.5-0.68
						c0.29-0.05,0.63,0.18,0.68,0.5c0.04,0.16,0.34,1.62,2.3,1.62c0.32,0.01,0.6,0.25,0.62,0.6
						C557.41,281.77,557.14,282.04,556.85,282.06"/>
					<path class="st34" d="M555.73,284.17c-1.7,0.12-2.74-0.97-3.08-1.69c-0.15-0.31-0.01-0.64,0.27-0.79
						c0.31-0.15,0.64-0.01,0.79,0.27c0.08,0.16,0.81,1.46,2.67,0.85c0.31-0.12,0.65,0.08,0.77,0.4c0.09,0.32-0.08,0.65-0.4,0.77
						C556.4,284.06,556.06,284.15,555.73,284.17"/>
					<path class="st34" d="M591.68,279.68l0.03,0c2.43-0.3,3.11-2.15,3.11-3.08c0.01-0.32-0.27-0.59-0.59-0.6
						c-0.29-0.01-0.59,0.27-0.6,0.59c0.01,0.16-0.11,1.65-2.06,1.92c-0.32,0.05-0.56,0.33-0.53,0.68
						C591.09,279.46,591.36,279.7,591.68,279.68"/>
					<path class="st34" d="M593.07,281.62c1.7-0.12,2.59-1.34,2.82-2.1c0.11-0.33-0.08-0.64-0.37-0.75
						c-0.33-0.11-0.64,0.08-0.75,0.37c-0.05,0.16-0.6,1.56-2.53,1.21c-0.33-0.07-0.63,0.17-0.68,0.5c-0.07,0.33,0.17,0.63,0.5,0.71
						C592.4,281.6,592.75,281.64,593.07,281.62"/>
					<path class="st34" d="M592.11,283.55c-0.93,0.06-1.72-0.62-1.78-1.56c-0.19-2.76-2.59-4.85-5.35-4.67s-4.85,2.59-4.67,5.35
						c0.06,0.93-0.62,1.72-1.56,1.78c-0.93,0.06-1.72-0.62-1.78-1.56c-0.31-4.59,3.16-8.57,7.75-8.88c4.59-0.31,8.57,3.16,8.88,7.75
						C593.73,282.7,593.04,283.49,592.11,283.55"/>
					<g class="st36">
						<g>
							<g>
								<defs>
									
										<rect id="SVGID_19_" x="555.83" y="293.38" transform="matrix(0.9977 -0.0683 0.0683 0.9977 -19.2925 39.2698)" width="17.73" height="16.83"/>
								</defs>
								<clipPath id="SVGID_20_">
									<use xlink:href="#SVGID_19_"  style="overflow:visible;"/>
								</clipPath>
								<path class="st55" d="M572.61,309.69c-0.1,0.01-0.22,0.02-0.36-0.01c-13.11-2.04-16.65-13.31-16.82-13.82
									c-0.25-0.79,0.21-1.66,1-1.91s1.66,0.21,1.91,1c0.12,0.41,3.2,9.94,14.38,11.69c0.82,0.14,1.38,0.91,1.28,1.75
									C573.89,309.12,573.28,309.65,572.61,309.69"/>
							</g>
						</g>
					</g>
					<g class="st38">
						<g>
							<g>
								<defs>
									
										<rect id="SVGID_21_" x="555.61" y="318.58" transform="matrix(0.9977 -0.0683 0.0683 0.9977 -21.1137 39.1023)" width="11.46" height="19.53"/>
								</defs>
								<clipPath id="SVGID_22_">
									<use xlink:href="#SVGID_21_"  style="overflow:visible;"/>
								</clipPath>
								<path class="st56" d="M557.96,338.37c-0.03,0-0.06,0-0.1,0.01c-0.94,0-1.66-0.76-1.69-1.66
									c-0.05-13.87,7.54-18.03,7.85-18.18c0.81-0.44,1.83-0.13,2.27,0.72c0.44,0.81,0.13,1.83-0.68,2.27
									c-0.28,0.15-6.14,3.55-6.09,15.22C559.52,337.59,558.83,338.31,557.96,338.37"/>
							</g>
						</g>
					</g>
					<path class="st43" d="M584.25,266.77c0,0-1,7.94-14.05,8.25l2.68-3.73c0,0-6.03,3.74-15.97,3.22l1.29-2.31l-7.67,0.62
						l2.9,42.38l-6.1,0.42l-3.39-49.48c0,0,1.61-21.3,27.77-23.09c25.08-1.72,30.67,17.38,30.67,17.38l3.5,51.18l-6.1,0.42
						l-2.9-42.38C596.9,269.68,589.71,272.46,584.25,266.77"/>
				</g>
			</g>
		</g>
	</g>
	<g>
		
			<ellipse transform="matrix(0.9977 -0.0683 0.0683 0.9977 -24.8522 42.711)" class="st52" cx="612.25" cy="384.83" rx="20.16" ry="20.16"/>
		<g>
			<g>
				<defs>
					
						<ellipse id="SVGID_23_" transform="matrix(0.9977 -0.0683 0.0683 0.9977 -24.8522 42.711)" cx="612.25" cy="384.83" rx="20.16" ry="20.16"/>
				</defs>
				<clipPath id="SVGID_24_">
					<use xlink:href="#SVGID_23_"  style="overflow:visible;"/>
				</clipPath>
				<g class="st57">
					<path class="st58" d="M621,369.57l-5.96,47.21c0.47,0.48,2.34,7.87,2.34,7.87l4.87,0.9l13.91-0.95l-3.04-44.45L621,369.57z"/>
					<path class="st28" d="M623.45,382.28l0.42,6.12c1.7-0.12,2.98-1.58,2.86-3.28C626.6,383.45,625.14,382.17,623.45,382.28"/>
					<path class="st29" d="M623.54,383.5l0.25,3.69c1.01-0.07,1.78-0.95,1.71-1.96C625.43,384.2,624.55,383.43,623.54,383.5"/>
					<path class="st28" d="M600.18,383.88l0.42,6.12c-1.7,0.12-3.16-1.16-3.28-2.86C597.22,385.46,598.5,383.99,600.18,383.88"/>
					<path class="st29" d="M600.26,385.09l0.25,3.69c-1.01,0.07-1.89-0.7-1.96-1.71C598.48,386.04,599.25,385.16,600.26,385.09"/>
					
						<rect x="599.84" y="379.32" transform="matrix(0.9977 -0.0683 0.0683 0.9977 -25.5474 42.7573)" class="st59" width="25.47" height="31.4"/>
					<path class="st30" d="M601.84,426.93l-0.98-14.36c-0.49-7.14,4.91-13.33,12.05-13.82c7.14-0.49,13.33,4.91,13.82,12.05
						l0.98,14.36L601.84,426.93z"/>
					<path class="st31" d="M607.73,426.53l-1.07-15.67c-0.03-0.42-0.39-0.74-0.82-0.71c-0.42,0.03-0.74,0.39-0.71,0.82l1.07,15.67
						L607.73,426.53z"/>
					<path class="st31" d="M624.01,425.41l-1.07-15.67c-0.03-0.42-0.39-0.74-0.82-0.71c-0.42,0.03-0.74,0.4-0.71,0.82l1.07,15.67
						L624.01,425.41z"/>
					<path class="st32" d="M608.5,395.94l0.3,4.35c0.16,2.32,2.16,4.06,4.48,3.9c2.32-0.16,4.06-2.16,3.9-4.48l-0.3-4.35
						L608.5,395.94z"/>
					<path class="st28" d="M599.6,376.83l0.83,12.15c0.44,6.48,6.05,11.39,12.55,10.94c6.48-0.44,11.37-6.05,10.93-12.55
						l-0.91-13.23L599.6,376.83z"/>
					<path class="st33" d="M610.34,389.03l3.69-0.25c-0.07-1.01-0.95-1.78-1.96-1.71C611.04,387.14,610.28,388.02,610.34,389.03"/>
					<path class="st54" d="M612.69,395.64c-2.76,0.19-5.15-1.9-5.34-4.66c-0.03-0.5,0.34-0.93,0.84-0.97
						c0.5-0.03,0.93,0.34,0.97,0.84c0.12,1.76,1.65,3.11,3.43,2.99c1.76-0.12,3.11-1.65,2.99-3.43c-0.03-0.5,0.34-0.93,0.84-0.97
						c0.5-0.03,0.93,0.34,0.97,0.84C617.54,393.05,615.45,395.45,612.69,395.64"/>
					<path class="st34" d="M610.15,386.12c-0.44,0.03-0.8-0.31-0.83-0.73c-0.09-1.31-1.22-2.3-2.53-2.21
						c-1.31,0.09-2.3,1.22-2.21,2.53c0.03,0.44-0.29,0.8-0.73,0.83c-0.44,0.03-0.8-0.31-0.83-0.73c-0.15-2.17,1.49-4.06,3.67-4.21
						c2.17-0.15,4.06,1.49,4.21,3.67C610.92,385.71,610.58,386.09,610.15,386.12"/>
					<path class="st34" d="M603.66,384.7C603.66,384.7,603.65,384.7,603.66,384.7c-1.17,0.02-1.6-0.8-1.68-1.23
						c-0.03-0.15,0.09-0.3,0.24-0.33c0.14-0.03,0.3,0.09,0.33,0.23c0.01,0.08,0.16,0.77,1.08,0.76c0.16,0,0.29,0.12,0.29,0.28
						C603.93,384.57,603.82,384.69,603.66,384.7"/>
					<path class="st34" d="M603.14,385.71c-0.81,0.06-1.3-0.46-1.45-0.79c-0.07-0.14-0.01-0.31,0.13-0.37
						c0.14-0.07,0.31-0.01,0.38,0.13c0.04,0.08,0.38,0.69,1.26,0.4c0.15-0.04,0.32,0.04,0.36,0.18c0.04,0.15-0.04,0.32-0.18,0.36
						C603.46,385.66,603.29,385.7,603.14,385.71"/>
					<path class="st34" d="M613.71,385.88c0.44-0.03,0.75-0.41,0.73-0.83c-0.09-1.31,0.9-2.44,2.21-2.53
						c1.31-0.09,2.44,0.9,2.53,2.21c0.03,0.44,0.4,0.76,0.83,0.73c0.44-0.03,0.75-0.41,0.73-0.83c-0.15-2.17-2.03-3.82-4.21-3.67
						c-2.17,0.15-3.82,2.03-3.67,4.21C612.91,385.57,613.28,385.91,613.71,385.88"/>
					<path class="st34" d="M619.94,383.59C619.96,383.59,619.96,383.59,619.94,383.59c1.16-0.14,1.48-1.01,1.5-1.45
						c0-0.16-0.13-0.29-0.29-0.29c-0.14-0.01-0.29,0.13-0.29,0.27c0.01,0.08-0.06,0.79-0.97,0.9c-0.15,0.03-0.27,0.16-0.24,0.31
						C619.67,383.5,619.8,383.6,619.94,383.59"/>
					<path class="st34" d="M620.6,384.51c0.81-0.06,1.22-0.63,1.34-0.98c0.05-0.14-0.04-0.31-0.18-0.35
						c-0.14-0.05-0.31,0.04-0.36,0.18c-0.03,0.08-0.28,0.74-1.2,0.57c-0.16-0.02-0.31,0.08-0.33,0.23
						c-0.02,0.16,0.08,0.31,0.23,0.33C620.29,384.5,620.44,384.52,620.6,384.51"/>
					<g class="st36">
						<g>
							<g>
								<defs>
									
										<rect id="SVGID_25_" x="602.59" y="390.46" transform="matrix(0.9977 -0.0683 0.0683 0.9977 -25.5371 42.3781)" width="8.9" height="8.45"/>
								</defs>
								<clipPath id="SVGID_26_">
									<use xlink:href="#SVGID_25_"  style="overflow:visible;"/>
								</clipPath>
								<path class="st60" d="M611,398.65c-0.06,0-0.11,0.01-0.17,0c-6.58-1.02-8.36-6.69-8.44-6.94c-0.12-0.4,0.1-0.82,0.51-0.96
									c0.4-0.12,0.82,0.1,0.96,0.51c0.06,0.2,1.61,4.99,7.21,5.86c0.41,0.07,0.7,0.45,0.64,0.86
									C611.64,398.37,611.35,398.62,611,398.65"/>
							</g>
						</g>
					</g>
					<g class="st38">
						<g>
							<g>
								<defs>
									
										<rect id="SVGID_27_" x="602.46" y="403.12" transform="matrix(0.9977 -0.0683 0.0683 0.9977 -26.4517 42.293)" width="5.75" height="9.81"/>
								</defs>
								<clipPath id="SVGID_28_">
									<use xlink:href="#SVGID_27_"  style="overflow:visible;"/>
								</clipPath>
								<path class="st61" d="M603.65,413.05c-0.02,0-0.03,0-0.06,0c-0.47,0-0.84-0.38-0.84-0.83c-0.02-6.96,3.78-9.04,3.95-9.13
									c0.41-0.22,0.92-0.06,1.13,0.34c0.22,0.41,0.06,0.92-0.34,1.13c-0.14,0.07-3.07,1.78-3.06,7.64
									C604.43,412.65,604.08,413.02,603.65,413.05"/>
							</g>
						</g>
					</g>
					<path class="st59" d="M615.94,376.85c0,0-3.38,6.85-16.66,8.37l-0.71-8.31c0,0-0.43-9.25,11.69-10.08
						c12.1-0.83,13.65,7.27,13.65,7.27l0.43,6.33C624.34,380.42,617.73,381.16,615.94,376.85"/>
				</g>
			</g>
		</g>
	</g>
	<path class="st62" d="M604.47,335.28l-50.12,3.43c-1.42,0.1-2.66-0.98-2.75-2.4l-0.05-0.72c-0.1-1.42,0.98-2.66,2.4-2.75
		l50.12-3.43c1.42-0.1,2.66,0.98,2.75,2.4l0.05,0.72C606.97,333.95,605.9,335.19,604.47,335.28z"/>
	<path class="st62" d="M594.02,182.55l-50.12,3.43c-1.42,0.1-2.66-0.98-2.75-2.4l-0.05-0.72c-0.1-1.42,0.98-2.66,2.4-2.75
		l50.12-3.43c1.42-0.1,2.66,0.98,2.75,2.4l0.05,0.72C596.52,181.21,595.44,182.45,594.02,182.55z"/>
	<path class="st62" d="M581.12,196.9l-22.48,1.54c-1.42,0.1-2.66-0.98-2.75-2.4l-0.05-0.72c-0.1-1.42,0.98-2.66,2.4-2.75l22.48-1.54
		c1.42-0.1,2.66,0.98,2.75,2.4l0.05,0.72C583.62,195.57,582.54,196.81,581.12,196.9z"/>
	<circle class="st62" cx="495.9" cy="459.89" r="20.16"/>
	<circle class="st62" cx="556.36" cy="455.75" r="20.16"/>
	<circle class="st62" cx="616.82" cy="451.61" r="20.16"/>
	<circle class="st62" cx="677.28" cy="447.48" r="20.16"/>
	<circle class="st62" cx="672.71" cy="380.7" r="20.16"/>
	<g>
		<line class="st63" x1="662.58" y1="381.39" x2="682.84" y2="380"/>
		<line class="st63" x1="672.02" y1="370.57" x2="673.4" y2="390.82"/>
	</g>
	<g>
		<line class="st63" x1="667.16" y1="448.17" x2="687.41" y2="446.78"/>
		<line class="st63" x1="676.59" y1="437.35" x2="677.97" y2="457.6"/>
	</g>
	<g>
		<line class="st63" x1="606.69" y1="452.31" x2="626.95" y2="450.92"/>
		<line class="st63" x1="616.13" y1="441.49" x2="617.51" y2="461.74"/>
	</g>
	<g>
		<line class="st63" x1="546.23" y1="456.45" x2="566.48" y2="455.06"/>
		<line class="st63" x1="555.67" y1="445.63" x2="557.05" y2="465.88"/>
	</g>
	<g>
		<line class="st63" x1="485.77" y1="460.58" x2="506.02" y2="459.2"/>
		<line class="st63" x1="495.2" y1="449.77" x2="496.59" y2="470.02"/>
	</g>
	<g>
		<circle class="st62" cx="486.06" cy="419.97" r="1.59"/>
		<circle class="st62" cx="493.13" cy="419.48" r="1.59"/>
		<circle class="st62" cx="500.2" cy="419" r="1.59"/>
	</g>
	<g>
		<circle class="st62" cx="546.52" cy="415.83" r="1.59"/>
		<circle class="st62" cx="553.59" cy="415.34" r="1.59"/>
		<circle class="st62" cx="560.66" cy="414.86" r="1.59"/>
	</g>
	<g>
		<circle class="st62" cx="606.98" cy="411.69" r="1.59"/>
		<circle class="st62" cx="614.05" cy="411.2" r="1.59"/>
		<circle class="st62" cx="621.12" cy="410.72" r="1.59"/>
	</g>
	<g>
		<path class="st7" d="M660.57,410.46c0.13,0.07,0.28,0.17,0.51,0.28c0.49,0.25,1.12,0.26,1.93,0.2c0.83-0.06,1.94-0.2,2.64-0.34
			c-0.07,0.18-0.14,0.49-0.14,0.67c-0.51,0.07-1.78,0.2-2.49,0.25c-0.9,0.06-1.51,0.03-2.03-0.24c-0.31-0.15-0.56-0.37-0.72-0.35
			c-0.19,0.01-0.44,0.47-0.65,0.92l-0.47-0.57c0.27-0.37,0.55-0.66,0.8-0.81l-0.13-1.85l-0.76,0.05l-0.04-0.61l1.39-0.1
			L660.57,410.46z M659.96,407.28c-0.19-0.33-0.62-0.84-0.99-1.2l0.5-0.32c0.38,0.34,0.83,0.82,1.03,1.16L659.96,407.28z
			 M661.8,409.51c-0.09,0.5-0.28,0.9-0.68,1.21c-0.07-0.12-0.23-0.29-0.36-0.37c0.46-0.36,0.55-0.93,0.56-1.61l-0.63,0.04
			l-0.03-0.46l1-0.07c-0.06-0.1-0.13-0.18-0.19-0.26l0.39-0.17l-1.05,0.07l-0.13-1.96l0.71-0.05c0.04-0.19,0.07-0.42,0.09-0.57
			l0.65,0.01c-0.06,0.17-0.13,0.36-0.19,0.52l0.85-0.06l0.13,1.83c0.29-0.64,0.43-1.53,0.49-2.41l0.53,0.04
			c-0.03,0.33-0.05,0.66-0.1,0.97l1.38-0.09l0.04,0.56L665,406.7c-0.04,0.83-0.14,1.56-0.33,2.17c0.31,0.44,0.59,0.87,0.77,1.2
			l-0.46,0.34c-0.13-0.26-0.33-0.58-0.55-0.92c-0.23,0.46-0.52,0.86-0.92,1.2c-0.08-0.09-0.3-0.3-0.42-0.38
			c0.46-0.36,0.76-0.8,0.98-1.36c-0.24-0.32-0.48-0.66-0.71-0.97l-0.05,0.09c-0.11-0.08-0.34-0.22-0.47-0.29l0.03-0.04l-0.85,0.06
			c0.11,0.12,0.21,0.26,0.28,0.39l0.84-0.06l0.03,0.46l-1.29,0.09c0,0.11-0.01,0.23-0.01,0.33l1.17-0.08c0,0,0,0.13,0,0.21
			c0.01,0.77-0.03,1.1-0.14,1.25c-0.08,0.11-0.19,0.15-0.34,0.17c-0.11,0.03-0.31,0.04-0.52,0.04c-0.02-0.13-0.08-0.32-0.15-0.43
			c0.18,0.01,0.32,0,0.38,0c0.07,0,0.12-0.01,0.15-0.07c0.05-0.07,0.08-0.25,0.08-0.66L661.8,409.51z M661.27,406.68l1.04-0.07
			l-0.02-0.35l-1.04,0.07L661.27,406.68z M661.32,407.44l1.04-0.07l-0.02-0.36l-1.04,0.07L661.32,407.44z M663.74,406.79
			c-0.09,0.41-0.2,0.78-0.34,1.11l0.34-0.24c0.17,0.21,0.34,0.43,0.52,0.66c0.1-0.47,0.17-1,0.18-1.58L663.74,406.79z"/>
		<path class="st7" d="M668.41,409.42c0.05,0.17,0.18,0.41,0.26,0.54c-1.15,1.02-1.34,1.21-1.45,1.37
			c-0.07-0.15-0.25-0.41-0.37-0.53c0.14-0.1,0.33-0.33,0.3-0.65l-0.16-2.4l-0.97,0.07l-0.04-0.63l1.6-0.11l0.2,2.89L668.41,409.42z
			 M667.4,406.55c-0.24-0.28-0.74-0.72-1.13-1.02l0.39-0.43c0.4,0.29,0.91,0.7,1.16,0.97L667.4,406.55z M672.44,406.82l0.03,0.49
			l-4.29,0.29l-0.03-0.49l1.79-0.12l-0.03-0.41l-1.4,0.1l-0.03-0.46l1.4-0.1l-0.03-0.37l-1.57,0.11l-0.03-0.49l1.57-0.11l-0.04-0.52
			l0.65-0.04l0.04,0.52l1.63-0.11l0.03,0.49l-1.63,0.11l0.03,0.37l1.42-0.1l0.03,0.46l-1.42,0.1l0.03,0.41L672.44,406.82z
			 M672.15,410.41c0.02,0.3-0.03,0.47-0.24,0.58c-0.21,0.11-0.54,0.14-1.03,0.17c-0.04-0.16-0.14-0.4-0.22-0.55
			c0.33,0,0.66-0.03,0.75-0.04c0.1-0.01,0.13-0.04,0.12-0.13l-0.02-0.36l-2.03,0.14l0.07,1.04l-0.61,0.04l-0.23-3.4l3.26-0.22
			L672.15,410.41z M669.34,408.36l0.03,0.46l2.03-0.14l-0.03-0.46L669.34,408.36z M671.47,409.62l-0.03-0.49l-2.03,0.14l0.03,0.49
			L671.47,409.62z"/>
		<path class="st7" d="M679.62,409.58l0.04,0.66l-6.3,0.43l-0.05-0.66l2.58-0.18l-0.37-5.38l0.7-0.05l0.14,2.1l2.57-0.18l0.04,0.66
			l-2.57,0.18l0.18,2.63L679.62,409.58z"/>
		<path class="st7" d="M685.62,407.5c-0.31,0.65-0.8,1.18-1.39,1.61c0.75,0.23,1.63,0.33,2.61,0.35c-0.12,0.16-0.27,0.45-0.35,0.63
			c-1.12-0.04-2.1-0.23-2.93-0.58c-0.84,0.46-1.82,0.78-2.81,0.99c-0.07-0.17-0.21-0.43-0.33-0.57c0.87-0.16,1.72-0.41,2.47-0.76
			c-0.39-0.25-0.75-0.54-1.05-0.89c-0.3,0.25-0.65,0.48-1.03,0.69c-0.11-0.16-0.34-0.36-0.5-0.45c0.92-0.44,1.58-1.01,1.97-1.55
			l-2.07,0.14l-0.04-0.54l2.8-0.19l-0.03-0.5l-2.04,0.14l-0.04-0.52l2.04-0.14l-0.03-0.47l-2.46,0.17l-0.04-0.55l2.46-0.17
			l-0.04-0.52l0.65-0.04l0.04,0.52l2.52-0.17l0.04,0.55l-2.52,0.17l0.03,0.47l2.13-0.15l0.04,0.52l-2.13,0.15l0.03,0.5l2.85-0.2
			l0.04,0.54l-3.4,0.23c-0.12,0.19-0.26,0.36-0.41,0.53l2.33-0.16l0.12-0.04L685.62,407.5z M682.39,408.04
			c0.3,0.33,0.69,0.59,1.14,0.8c0.44-0.27,0.82-0.59,1.1-0.96L682.39,408.04z"/>
	</g>
	<g>
		<path class="st7" d="M665.18,477.77c0.13,0.07,0.28,0.17,0.51,0.28c0.49,0.25,1.12,0.26,1.93,0.2c0.83-0.06,1.94-0.2,2.64-0.34
			c-0.07,0.18-0.14,0.49-0.14,0.67c-0.51,0.07-1.78,0.2-2.49,0.25c-0.9,0.06-1.51,0.03-2.03-0.24c-0.31-0.15-0.56-0.37-0.72-0.35
			c-0.19,0.01-0.44,0.47-0.65,0.92l-0.47-0.57c0.27-0.37,0.55-0.66,0.8-0.81l-0.13-1.85l-0.76,0.05l-0.04-0.61l1.39-0.1
			L665.18,477.77z M664.56,474.59c-0.19-0.33-0.62-0.84-0.99-1.2l0.5-0.32c0.38,0.34,0.83,0.82,1.03,1.16L664.56,474.59z
			 M666.41,476.82c-0.09,0.5-0.28,0.9-0.68,1.21c-0.07-0.12-0.23-0.29-0.36-0.37c0.46-0.36,0.55-0.93,0.56-1.61l-0.63,0.04
			l-0.03-0.46l1-0.07c-0.06-0.1-0.13-0.18-0.19-0.26l0.39-0.17l-1.05,0.07l-0.13-1.96l0.71-0.05c0.04-0.19,0.07-0.42,0.09-0.57
			l0.65,0.01c-0.06,0.17-0.13,0.36-0.19,0.52l0.85-0.06l0.13,1.83c0.29-0.64,0.43-1.53,0.49-2.41l0.53,0.04
			c-0.03,0.33-0.05,0.66-0.1,0.97l1.38-0.09l0.04,0.56l-0.27,0.02c-0.04,0.83-0.14,1.56-0.33,2.17c0.31,0.44,0.59,0.87,0.77,1.2
			l-0.46,0.34c-0.13-0.26-0.33-0.58-0.55-0.92c-0.23,0.46-0.52,0.86-0.92,1.2c-0.08-0.09-0.3-0.3-0.42-0.38
			c0.46-0.36,0.76-0.8,0.98-1.36c-0.24-0.32-0.48-0.66-0.71-0.97l-0.05,0.09c-0.11-0.08-0.34-0.22-0.47-0.29l0.03-0.04l-0.85,0.06
			c0.11,0.12,0.21,0.26,0.28,0.39l0.84-0.06l0.03,0.46l-1.29,0.09c0,0.11-0.01,0.23-0.01,0.33l1.17-0.08c0,0,0,0.13,0,0.21
			c0.01,0.77-0.03,1.1-0.14,1.25c-0.08,0.11-0.19,0.15-0.34,0.17c-0.11,0.03-0.31,0.04-0.52,0.04c-0.02-0.13-0.08-0.32-0.15-0.43
			c0.18,0.01,0.32,0,0.38,0c0.07,0,0.12-0.01,0.15-0.07c0.05-0.07,0.08-0.25,0.08-0.66L666.41,476.82z M665.88,473.99l1.04-0.07
			l-0.02-0.35l-1.04,0.07L665.88,473.99z M665.93,474.75l1.04-0.07l-0.02-0.36l-1.04,0.07L665.93,474.75z M668.35,474.1
			c-0.09,0.41-0.2,0.78-0.34,1.11l0.34-0.24c0.17,0.21,0.34,0.43,0.52,0.66c0.1-0.47,0.17-1,0.18-1.58L668.35,474.1z"/>
		<path class="st7" d="M673.02,476.74c0.05,0.17,0.18,0.41,0.26,0.54c-1.15,1.02-1.34,1.21-1.45,1.37
			c-0.07-0.15-0.25-0.41-0.37-0.53c0.14-0.1,0.33-0.33,0.3-0.65l-0.16-2.4l-0.97,0.07l-0.04-0.63l1.6-0.11l0.2,2.89L673.02,476.74z
			 M672.01,473.86c-0.24-0.28-0.74-0.72-1.13-1.02l0.39-0.43c0.4,0.29,0.91,0.7,1.16,0.97L672.01,473.86z M677.05,474.13l0.03,0.49
			l-4.29,0.29l-0.03-0.49l1.79-0.12l-0.03-0.41l-1.4,0.1l-0.03-0.46l1.4-0.1l-0.03-0.37l-1.57,0.11l-0.03-0.49l1.57-0.11l-0.04-0.52
			l0.65-0.04l0.04,0.52l1.63-0.11l0.03,0.49l-1.63,0.11l0.03,0.37l1.42-0.1l0.03,0.46l-1.42,0.1l0.03,0.41L677.05,474.13z
			 M676.76,477.73c0.02,0.3-0.03,0.47-0.24,0.58c-0.21,0.11-0.54,0.14-1.03,0.17c-0.04-0.16-0.14-0.4-0.22-0.55
			c0.33,0,0.66-0.03,0.75-0.04c0.1-0.01,0.13-0.04,0.12-0.13l-0.02-0.36l-2.03,0.14l0.07,1.04l-0.61,0.04l-0.23-3.4l3.26-0.22
			L676.76,477.73z M673.95,475.68l0.03,0.46l2.03-0.14l-0.03-0.46L673.95,475.68z M676.08,476.94l-0.03-0.49l-2.03,0.14l0.03,0.49
			L676.08,476.94z"/>
		<path class="st7" d="M684.23,476.89l0.05,0.66l-6.3,0.43l-0.04-0.66l2.58-0.18l-0.37-5.38l0.7-0.05l0.14,2.1l2.57-0.18l0.04,0.66
			l-2.57,0.18l0.18,2.63L684.23,476.89z"/>
		<path class="st7" d="M690.23,474.81c-0.31,0.65-0.8,1.18-1.39,1.61c0.75,0.23,1.63,0.33,2.61,0.35c-0.12,0.16-0.27,0.45-0.35,0.63
			c-1.12-0.04-2.1-0.23-2.93-0.58c-0.84,0.46-1.82,0.78-2.81,0.99c-0.07-0.17-0.21-0.43-0.33-0.57c0.87-0.16,1.72-0.41,2.47-0.76
			c-0.39-0.25-0.75-0.54-1.05-0.89c-0.3,0.25-0.65,0.48-1.03,0.69c-0.11-0.16-0.34-0.36-0.5-0.45c0.92-0.44,1.58-1.01,1.97-1.55
			l-2.07,0.14l-0.04-0.54l2.8-0.19l-0.03-0.5l-2.04,0.14l-0.04-0.52l2.04-0.14l-0.03-0.47l-2.46,0.17l-0.04-0.55l2.46-0.17
			l-0.04-0.52l0.65-0.04l0.04,0.52l2.52-0.17l0.04,0.55l-2.52,0.17l0.03,0.47l2.13-0.15l0.04,0.52l-2.13,0.15l0.03,0.5l2.85-0.2
			l0.04,0.54l-3.4,0.23c-0.12,0.19-0.26,0.36-0.41,0.53l2.33-0.16l0.12-0.04L690.23,474.81z M687,475.35
			c0.3,0.33,0.69,0.59,1.14,0.8c0.44-0.27,0.82-0.59,1.1-0.96L687,475.35z"/>
	</g>
	<g>
		<path class="st7" d="M606.46,481.79c0.13,0.07,0.28,0.17,0.51,0.28c0.49,0.25,1.12,0.26,1.93,0.2c0.83-0.06,1.94-0.2,2.64-0.34
			c-0.07,0.18-0.14,0.49-0.14,0.67c-0.51,0.07-1.78,0.2-2.49,0.25c-0.9,0.06-1.51,0.03-2.03-0.24c-0.31-0.15-0.56-0.37-0.72-0.35
			c-0.19,0.01-0.44,0.47-0.65,0.92l-0.47-0.57c0.27-0.37,0.55-0.66,0.8-0.81l-0.13-1.85l-0.76,0.05l-0.04-0.61l1.39-0.1
			L606.46,481.79z M605.84,478.61c-0.19-0.33-0.62-0.84-0.99-1.2l0.5-0.32c0.38,0.34,0.83,0.82,1.03,1.16L605.84,478.61z
			 M607.69,480.84c-0.09,0.5-0.28,0.9-0.68,1.21c-0.07-0.12-0.23-0.29-0.36-0.37c0.46-0.36,0.55-0.93,0.56-1.61l-0.63,0.04
			l-0.03-0.46l1-0.07c-0.06-0.1-0.13-0.18-0.19-0.26l0.39-0.17l-1.05,0.07l-0.13-1.96l0.71-0.05c0.04-0.19,0.07-0.42,0.09-0.57
			l0.65,0.01c-0.06,0.17-0.13,0.36-0.19,0.52l0.85-0.06l0.13,1.83c0.29-0.64,0.43-1.53,0.49-2.41l0.53,0.04
			c-0.03,0.33-0.05,0.66-0.1,0.97l1.38-0.09l0.04,0.56l-0.27,0.02c-0.04,0.83-0.14,1.56-0.33,2.17c0.31,0.44,0.59,0.87,0.77,1.2
			l-0.46,0.34c-0.13-0.26-0.33-0.58-0.55-0.92c-0.23,0.46-0.52,0.86-0.92,1.2c-0.08-0.09-0.3-0.3-0.42-0.38
			c0.46-0.36,0.76-0.8,0.98-1.36c-0.24-0.32-0.48-0.66-0.71-0.97l-0.05,0.09c-0.11-0.08-0.34-0.22-0.47-0.29l0.03-0.04l-0.85,0.06
			c0.11,0.12,0.21,0.26,0.28,0.39l0.84-0.06l0.03,0.46l-1.29,0.09c0,0.11-0.01,0.23-0.01,0.33l1.17-0.08c0,0,0,0.13,0,0.21
			c0.01,0.77-0.03,1.1-0.14,1.25c-0.08,0.11-0.19,0.15-0.34,0.17c-0.11,0.03-0.31,0.04-0.52,0.04c-0.02-0.13-0.08-0.32-0.15-0.43
			c0.18,0.01,0.32,0,0.38,0c0.07,0,0.12-0.01,0.15-0.07c0.05-0.07,0.08-0.25,0.08-0.66L607.69,480.84z M607.16,478.01l1.04-0.07
			l-0.02-0.35l-1.04,0.07L607.16,478.01z M607.21,478.77l1.04-0.07l-0.02-0.36l-1.04,0.07L607.21,478.77z M609.63,478.12
			c-0.09,0.41-0.2,0.78-0.34,1.11l0.34-0.24c0.17,0.21,0.34,0.43,0.52,0.66c0.1-0.47,0.17-1,0.18-1.58L609.63,478.12z"/>
		<path class="st7" d="M614.3,480.76c0.05,0.17,0.18,0.41,0.26,0.54c-1.15,1.02-1.34,1.21-1.45,1.37c-0.07-0.15-0.25-0.41-0.37-0.53
			c0.14-0.1,0.33-0.33,0.3-0.65l-0.16-2.4l-0.97,0.07l-0.04-0.63l1.6-0.11l0.2,2.89L614.3,480.76z M613.29,477.88
			c-0.24-0.28-0.74-0.72-1.13-1.02l0.39-0.43c0.4,0.29,0.91,0.7,1.16,0.97L613.29,477.88z M618.32,478.15l0.03,0.49l-4.29,0.29
			l-0.03-0.49l1.79-0.12l-0.03-0.41l-1.4,0.1l-0.03-0.46l1.4-0.1l-0.03-0.37l-1.57,0.11l-0.03-0.49l1.57-0.11l-0.04-0.52l0.65-0.04
			l0.04,0.52l1.63-0.11l0.03,0.49l-1.63,0.11l0.03,0.37l1.42-0.1l0.03,0.46l-1.42,0.1l0.03,0.41L618.32,478.15z M618.04,481.75
			c0.02,0.3-0.03,0.47-0.24,0.58c-0.21,0.11-0.54,0.14-1.03,0.17c-0.04-0.16-0.14-0.4-0.22-0.55c0.33,0,0.66-0.03,0.75-0.04
			c0.1-0.01,0.13-0.04,0.12-0.13l-0.02-0.36l-2.03,0.14l0.07,1.04l-0.61,0.04l-0.23-3.4l3.26-0.22L618.04,481.75z M615.23,479.7
			l0.03,0.46l2.03-0.14l-0.03-0.46L615.23,479.7z M617.36,480.96l-0.03-0.49l-2.03,0.14l0.03,0.49L617.36,480.96z"/>
		<path class="st7" d="M625.51,480.91l0.04,0.66l-6.3,0.43l-0.04-0.66l2.58-0.18l-0.37-5.38l0.7-0.05l0.14,2.1l2.57-0.18l0.04,0.66
			l-2.57,0.18l0.18,2.63L625.51,480.91z"/>
		<path class="st7" d="M631.51,478.83c-0.31,0.65-0.8,1.18-1.39,1.61c0.75,0.23,1.63,0.33,2.61,0.35c-0.12,0.16-0.27,0.45-0.35,0.63
			c-1.12-0.04-2.1-0.23-2.93-0.58c-0.84,0.46-1.82,0.78-2.81,0.99c-0.07-0.17-0.21-0.43-0.33-0.57c0.87-0.16,1.72-0.41,2.47-0.76
			c-0.39-0.25-0.75-0.54-1.05-0.89c-0.3,0.25-0.65,0.48-1.03,0.69c-0.11-0.16-0.34-0.36-0.5-0.45c0.92-0.44,1.58-1.01,1.97-1.55
			l-2.07,0.14l-0.04-0.54l2.8-0.19l-0.03-0.5l-2.04,0.14l-0.04-0.52l2.04-0.14l-0.03-0.47l-2.46,0.17l-0.04-0.55l2.46-0.17
			l-0.04-0.52l0.65-0.04l0.04,0.52l2.52-0.17l0.04,0.55l-2.52,0.17l0.03,0.47l2.13-0.15l0.04,0.52l-2.13,0.15l0.03,0.5l2.85-0.2
			l0.04,0.54l-3.4,0.23c-0.12,0.19-0.26,0.36-0.41,0.53l2.33-0.16l0.12-0.04L631.51,478.83z M628.27,479.37
			c0.3,0.33,0.69,0.59,1.14,0.8c0.44-0.27,0.82-0.59,1.1-0.96L628.27,479.37z"/>
	</g>
	<g>
		<path class="st7" d="M546,485.93c0.13,0.07,0.28,0.17,0.51,0.28c0.49,0.25,1.12,0.26,1.93,0.2c0.83-0.06,1.94-0.2,2.64-0.34
			c-0.07,0.18-0.14,0.49-0.14,0.67c-0.51,0.07-1.78,0.2-2.49,0.25c-0.9,0.06-1.51,0.03-2.03-0.24c-0.31-0.15-0.56-0.37-0.72-0.35
			c-0.19,0.01-0.44,0.47-0.65,0.92l-0.47-0.57c0.27-0.37,0.55-0.66,0.8-0.81l-0.13-1.85l-0.76,0.05l-0.04-0.61l1.39-0.1L546,485.93z
			 M545.38,482.75c-0.19-0.33-0.62-0.84-0.99-1.2l0.5-0.32c0.38,0.34,0.83,0.82,1.03,1.16L545.38,482.75z M547.23,484.98
			c-0.09,0.5-0.28,0.9-0.68,1.21c-0.07-0.12-0.23-0.29-0.36-0.37c0.46-0.36,0.55-0.93,0.56-1.61l-0.63,0.04l-0.03-0.46l1-0.07
			c-0.06-0.1-0.13-0.18-0.19-0.26l0.39-0.17l-1.05,0.07l-0.13-1.96l0.71-0.05c0.04-0.19,0.07-0.42,0.09-0.57l0.65,0.01
			c-0.06,0.17-0.13,0.36-0.19,0.52l0.85-0.06l0.13,1.83c0.29-0.64,0.43-1.53,0.49-2.41l0.53,0.04c-0.03,0.33-0.05,0.66-0.1,0.97
			l1.38-0.09l0.04,0.56l-0.27,0.02c-0.04,0.83-0.14,1.56-0.33,2.17c0.31,0.44,0.59,0.87,0.77,1.2l-0.46,0.34
			c-0.13-0.26-0.33-0.58-0.55-0.92c-0.23,0.46-0.52,0.86-0.92,1.2c-0.08-0.09-0.3-0.3-0.42-0.38c0.46-0.36,0.76-0.8,0.98-1.36
			c-0.24-0.32-0.48-0.66-0.71-0.97l-0.05,0.09c-0.11-0.08-0.34-0.22-0.47-0.29l0.03-0.04l-0.85,0.06c0.11,0.12,0.21,0.26,0.28,0.39
			l0.84-0.06l0.03,0.46l-1.29,0.09c0,0.11-0.01,0.23-0.01,0.33l1.17-0.08c0,0,0,0.13,0,0.21c0.01,0.77-0.03,1.1-0.14,1.25
			c-0.08,0.11-0.19,0.15-0.34,0.17c-0.11,0.03-0.31,0.04-0.52,0.04c-0.02-0.13-0.08-0.32-0.15-0.43c0.18,0.01,0.32,0,0.38,0
			c0.07,0,0.12-0.01,0.15-0.07c0.05-0.07,0.08-0.25,0.08-0.66L547.23,484.98z M546.7,482.15l1.04-0.07l-0.02-0.35l-1.04,0.07
			L546.7,482.15z M546.75,482.91l1.04-0.07l-0.02-0.36l-1.04,0.07L546.75,482.91z M549.17,482.26c-0.09,0.41-0.2,0.78-0.34,1.11
			l0.34-0.24c0.17,0.21,0.34,0.43,0.52,0.66c0.1-0.47,0.17-1,0.18-1.58L549.17,482.26z"/>
		<path class="st7" d="M553.83,484.9c0.05,0.17,0.18,0.41,0.26,0.54c-1.15,1.02-1.34,1.21-1.45,1.37c-0.07-0.15-0.25-0.41-0.37-0.53
			c0.14-0.1,0.33-0.33,0.3-0.65l-0.16-2.4l-0.97,0.07l-0.04-0.63l1.6-0.11l0.2,2.89L553.83,484.9z M552.83,482.02
			c-0.24-0.28-0.74-0.72-1.13-1.02l0.39-0.43c0.4,0.29,0.91,0.7,1.16,0.97L552.83,482.02z M557.86,482.29l0.03,0.49l-4.29,0.29
			l-0.03-0.49l1.79-0.12l-0.03-0.41l-1.4,0.1l-0.03-0.46l1.4-0.1l-0.03-0.37l-1.57,0.11l-0.03-0.49l1.57-0.11l-0.04-0.52l0.65-0.04
			l0.04,0.52l1.63-0.11l0.03,0.49l-1.63,0.11l0.03,0.37l1.42-0.1l0.03,0.46l-1.42,0.1l0.03,0.41L557.86,482.29z M557.58,485.89
			c0.02,0.3-0.03,0.47-0.24,0.58c-0.21,0.11-0.54,0.14-1.03,0.17c-0.04-0.16-0.14-0.4-0.22-0.55c0.33,0,0.66-0.03,0.75-0.04
			c0.1-0.01,0.13-0.04,0.12-0.13l-0.02-0.36l-2.03,0.14l0.07,1.04l-0.61,0.04l-0.23-3.4l3.26-0.22L557.58,485.89z M554.77,483.84
			l0.03,0.46l2.03-0.14l-0.03-0.46L554.77,483.84z M556.9,485.1l-0.03-0.49l-2.03,0.14l0.03,0.49L556.9,485.1z"/>
		<path class="st7" d="M565.05,485.05l0.04,0.66l-6.3,0.43l-0.05-0.66l2.58-0.18l-0.37-5.38l0.7-0.05l0.14,2.1l2.57-0.18l0.04,0.66
			l-2.57,0.18l0.18,2.63L565.05,485.05z"/>
		<path class="st7" d="M571.05,482.97c-0.31,0.65-0.8,1.18-1.39,1.61c0.75,0.23,1.63,0.33,2.61,0.35c-0.12,0.16-0.27,0.45-0.35,0.63
			c-1.12-0.04-2.1-0.23-2.93-0.58c-0.84,0.46-1.82,0.78-2.81,0.99c-0.07-0.17-0.21-0.43-0.33-0.57c0.87-0.16,1.72-0.41,2.47-0.76
			c-0.39-0.25-0.75-0.54-1.05-0.89c-0.3,0.25-0.65,0.48-1.03,0.69c-0.11-0.16-0.34-0.36-0.5-0.45c0.92-0.44,1.58-1.01,1.97-1.55
			l-2.07,0.14l-0.04-0.54l2.8-0.19l-0.03-0.5l-2.04,0.14l-0.04-0.52l2.04-0.14l-0.03-0.47l-2.46,0.17l-0.04-0.55l2.46-0.17
			l-0.04-0.52l0.65-0.04l0.04,0.52l2.52-0.17l0.04,0.55l-2.52,0.17l0.03,0.47l2.13-0.15l0.04,0.52l-2.13,0.15l0.03,0.5l2.85-0.2
			l0.04,0.54l-3.4,0.23c-0.12,0.19-0.26,0.36-0.41,0.53l2.33-0.16l0.12-0.04L571.05,482.97z M567.81,483.51
			c0.3,0.33,0.69,0.59,1.14,0.8c0.44-0.27,0.82-0.59,1.1-0.96L567.81,483.51z"/>
	</g>
	<g>
		<path class="st7" d="M485.54,490.07c0.13,0.07,0.28,0.17,0.51,0.28c0.49,0.25,1.12,0.26,1.93,0.2c0.83-0.06,1.94-0.2,2.64-0.34
			c-0.07,0.18-0.14,0.49-0.14,0.67c-0.51,0.07-1.78,0.2-2.49,0.25c-0.9,0.06-1.51,0.03-2.03-0.24c-0.31-0.15-0.56-0.37-0.72-0.35
			c-0.19,0.01-0.44,0.47-0.65,0.92l-0.47-0.57c0.27-0.37,0.55-0.66,0.8-0.81l-0.13-1.85l-0.76,0.05l-0.04-0.61l1.39-0.1
			L485.54,490.07z M484.92,486.89c-0.19-0.33-0.62-0.84-0.99-1.2l0.5-0.32c0.38,0.34,0.83,0.82,1.03,1.16L484.92,486.89z
			 M486.77,489.12c-0.09,0.5-0.28,0.9-0.68,1.21c-0.07-0.12-0.23-0.29-0.36-0.37c0.46-0.36,0.55-0.93,0.56-1.61l-0.63,0.04
			l-0.03-0.46l1-0.07c-0.06-0.1-0.13-0.18-0.19-0.26l0.39-0.17l-1.05,0.07l-0.13-1.96l0.71-0.05c0.04-0.19,0.07-0.42,0.09-0.57
			l0.65,0.01c-0.06,0.17-0.13,0.36-0.19,0.52l0.85-0.06l0.13,1.83c0.29-0.64,0.43-1.53,0.49-2.41l0.53,0.04
			c-0.03,0.33-0.05,0.66-0.1,0.97l1.38-0.09l0.04,0.56l-0.27,0.02c-0.04,0.83-0.14,1.56-0.33,2.17c0.31,0.44,0.59,0.87,0.77,1.2
			l-0.46,0.34c-0.13-0.26-0.33-0.58-0.55-0.92c-0.23,0.46-0.52,0.86-0.92,1.2c-0.08-0.09-0.3-0.3-0.42-0.38
			c0.46-0.36,0.76-0.8,0.98-1.36c-0.24-0.32-0.48-0.66-0.71-0.97l-0.05,0.09c-0.11-0.08-0.34-0.22-0.47-0.29l0.03-0.04l-0.85,0.06
			c0.11,0.12,0.21,0.26,0.28,0.39l0.84-0.06l0.03,0.46l-1.29,0.09c0,0.11-0.01,0.23-0.01,0.33l1.17-0.08c0,0,0,0.13,0,0.21
			c0.01,0.77-0.03,1.1-0.14,1.25c-0.08,0.11-0.19,0.15-0.34,0.17c-0.11,0.03-0.31,0.04-0.52,0.04c-0.02-0.13-0.08-0.32-0.15-0.43
			c0.18,0.01,0.32,0,0.38,0c0.07,0,0.12-0.01,0.15-0.07c0.05-0.07,0.08-0.25,0.08-0.66L486.77,489.12z M486.23,486.29l1.04-0.07
			l-0.02-0.35l-1.04,0.07L486.23,486.29z M486.29,487.05l1.04-0.07l-0.02-0.36l-1.04,0.07L486.29,487.05z M488.7,486.4
			c-0.09,0.41-0.2,0.78-0.34,1.11l0.34-0.24c0.17,0.21,0.34,0.43,0.52,0.66c0.1-0.47,0.17-1,0.18-1.58L488.7,486.4z"/>
		<path class="st7" d="M493.37,489.03c0.05,0.17,0.18,0.41,0.26,0.54c-1.15,1.02-1.34,1.21-1.45,1.37
			c-0.07-0.15-0.25-0.41-0.37-0.53c0.14-0.1,0.33-0.33,0.3-0.65l-0.16-2.4l-0.97,0.07l-0.04-0.63l1.6-0.11l0.2,2.89L493.37,489.03z
			 M492.37,486.16c-0.24-0.28-0.74-0.72-1.13-1.02l0.39-0.43c0.4,0.29,0.91,0.7,1.16,0.97L492.37,486.16z M497.4,486.43l0.03,0.49
			l-4.29,0.29l-0.03-0.49l1.79-0.12l-0.03-0.41l-1.4,0.1l-0.03-0.46l1.4-0.1l-0.03-0.37l-1.57,0.11l-0.03-0.49l1.57-0.11l-0.04-0.52
			l0.65-0.04l0.04,0.52l1.63-0.11l0.03,0.49l-1.63,0.11l0.03,0.37l1.42-0.1l0.03,0.46l-1.42,0.1l0.03,0.41L497.4,486.43z
			 M497.12,490.03c0.02,0.3-0.03,0.47-0.24,0.58c-0.21,0.11-0.54,0.14-1.03,0.17c-0.04-0.16-0.14-0.4-0.22-0.55
			c0.33,0,0.66-0.03,0.75-0.04c0.1-0.01,0.13-0.04,0.12-0.13l-0.02-0.36l-2.03,0.14l0.07,1.04l-0.61,0.04l-0.23-3.4l3.26-0.22
			L497.12,490.03z M494.31,487.98l0.03,0.46l2.03-0.14l-0.03-0.46L494.31,487.98z M496.44,489.23l-0.03-0.49l-2.03,0.14l0.03,0.49
			L496.44,489.23z"/>
		<path class="st7" d="M504.59,489.19l0.05,0.66l-6.3,0.43l-0.04-0.66l2.58-0.18l-0.37-5.38l0.7-0.05l0.14,2.1l2.57-0.18l0.04,0.66
			l-2.57,0.18l0.18,2.63L504.59,489.19z"/>
		<path class="st7" d="M510.59,487.11c-0.31,0.65-0.8,1.18-1.39,1.61c0.75,0.23,1.63,0.33,2.61,0.35c-0.12,0.16-0.27,0.45-0.35,0.63
			c-1.12-0.04-2.1-0.23-2.93-0.58c-0.84,0.46-1.82,0.78-2.81,0.99c-0.07-0.17-0.21-0.43-0.33-0.57c0.87-0.16,1.72-0.41,2.47-0.76
			c-0.39-0.25-0.75-0.54-1.05-0.89c-0.3,0.25-0.65,0.48-1.03,0.69c-0.11-0.16-0.34-0.36-0.5-0.45c0.92-0.44,1.58-1.01,1.97-1.55
			l-2.07,0.14l-0.04-0.54l2.8-0.19l-0.03-0.5l-2.04,0.14l-0.04-0.52l2.04-0.14l-0.03-0.47l-2.46,0.17l-0.04-0.55l2.46-0.17
			l-0.04-0.52l0.65-0.04l0.04,0.52l2.52-0.17l0.04,0.55l-2.52,0.17l0.03,0.47l2.13-0.15l0.04,0.52l-2.13,0.15l0.03,0.5l2.85-0.2
			l0.04,0.54l-3.4,0.23c-0.12,0.19-0.26,0.36-0.41,0.53l2.33-0.16l0.12-0.04L510.59,487.11z M507.35,487.65
			c0.3,0.33,0.69,0.59,1.14,0.8c0.44-0.27,0.82-0.59,1.1-0.96L507.35,487.65z"/>
	</g>
	<path class="st62" d="M622.6,625.65l-128.01,8.76c-5.31,0.36-9.9-3.64-10.27-8.95l-0.18-2.68c-0.36-5.31,3.64-9.9,8.95-10.27
		l128.01-8.76c5.31-0.36,9.9,3.64,10.27,8.95l0.18,2.68C631.91,620.69,627.91,625.29,622.6,625.65z"/>
	<circle class="st64" cx="659.02" cy="612.16" r="10.98"/>
	<circle class="st64" cx="696.19" cy="609.61" r="10.98"/>
	<circle class="st64" cx="679.09" cy="179.2" r="10.98"/>
	<circle class="st64" cx="641.7" cy="181.76" r="10.98"/>
	<path class="st64" d="M729.55,555.39l-51.34,3.51c-7.42,0.51-13.85-5.1-14.36-12.52l-0.26-3.75c-0.51-7.42,5.1-13.85,12.52-14.36
		l51.34-3.51L729.55,555.39z"/>
	<g>
		<path class="st7" d="M715.74,533.83c6.43,3.15,6.83,8.99,0.89,12.99l-29.31,19.7c-5.94,3.99-11.21,1.42-11.69-5.72l-2.41-35.23
			c-0.49-7.15,4.37-10.42,10.81-7.26L715.74,533.83z"/>
		<path class="st5" d="M712.99,534.02c6.43,3.15,6.83,8.99,0.89,12.99l-29.31,19.7c-5.94,3.99-11.21,1.42-11.69-5.72l-2.41-35.23
			c-0.49-7.15,4.37-10.42,10.81-7.26L712.99,534.02z"/>
		<g>
			<path class="st7" d="M692.19,547.18c1.07,2.49-0.87,5.71-4.32,7.19c-3.46,1.49-7.13,0.68-8.2-1.82
				c-1.07-2.49,0.87-5.71,4.33-7.19C687.44,543.88,691.12,544.7,692.19,547.18z"/>
			<g>
				<polygon class="st7" points="692.43,548.17 687.56,548.51 686.01,525.88 697.31,531.23 695.22,535.64 691.45,533.86 				"/>
			</g>
		</g>
	</g>
	<g>
		<g>
			<path class="st22" d="M634.74,203.66L599.36,172l30.7-36.72l76.12-5.21l2.34,34.19l2.34,34.2L634.74,203.66z M630.82,162.57
				c-3.75,0.25-6.58,3.58-6.31,7.43c0.26,3.85,3.51,6.77,7.27,6.51c3.75-0.25,6.58-3.59,6.32-7.44
				C637.83,165.23,634.58,162.32,630.82,162.57z"/>
			<polygon class="st7" points="669.01,148.99 664.32,160.73 652.23,163.38 661.67,171.63 660.44,184.26 670.97,177.61 
				682.3,182.76 679.36,170.41 687.6,160.96 675.25,159.98 			"/>
		</g>
	</g>
	<g>
		<g>
			<circle class="st62" cx="481.87" cy="526.32" r="2.56"/>
			<circle class="st62" cx="493.26" cy="525.54" r="2.56"/>
			<circle class="st62" cx="504.64" cy="524.77" r="2.56"/>
		</g>
		<g>
			<circle class="st62" cx="520.66" cy="523.67" r="2.56"/>
			<circle class="st62" cx="532.05" cy="522.89" r="2.56"/>
			<circle class="st62" cx="543.43" cy="522.11" r="2.56"/>
		</g>
		<path class="st62" d="M567.07,534.21l-85.85,5.88c-1.18,0.08-2.2-0.81-2.29-1.99l-0.04-0.6c-0.08-1.18,0.81-2.2,1.99-2.29
			l85.85-5.88c1.18-0.08,2.2,0.81,2.29,1.99l0.04,0.6C569.15,533.1,568.25,534.12,567.07,534.21z"/>
		<path class="st62" d="M568.32,552.4l-85.85,5.88c-1.18,0.08-2.2-0.81-2.29-1.99l-0.04-0.6c-0.08-1.18,0.81-2.2,1.99-2.29
			l85.85-5.88c1.18-0.08,2.2,0.81,2.29,1.99l0.04,0.6C570.39,551.3,569.5,552.32,568.32,552.4z"/>
		<path class="st62" d="M569.57,570.6l-85.85,5.88c-1.18,0.08-2.2-0.81-2.29-1.99l-0.04-0.6c-0.08-1.18,0.81-2.2,1.99-2.29
			l85.85-5.88c1.18-0.08,2.2,0.81,2.29,1.99l0.04,0.6C571.64,569.5,570.75,570.52,569.57,570.6z"/>
	</g>
	<g>
		<path class="st23" d="M502.77,508.91c0.43,6.21-4.27,11.6-10.48,12.02l-7.5,0.51l1.8,26.25l-28.05-24.46l-86.26,5.9
			c-6.22,0.43-11.6-4.27-12.02-10.48l-6.42-93.76c-0.43-6.21,4.27-11.6,10.48-12.02l120.02-8.22c6.21-0.43,11.6,4.27,12.02,10.48
			L502.77,508.91z"/>
		
			<rect x="378.02" y="442.52" transform="matrix(0.9977 -0.0683 0.0683 0.9977 -29.4815 30.1958)" class="st65" width="97.74" height="7.52"/>
		
			<rect x="379.31" y="461.28" transform="matrix(0.9977 -0.0683 0.0683 0.9977 -30.7592 30.3273)" class="st65" width="97.74" height="7.52"/>
		
			<rect x="380.59" y="480.03" transform="matrix(0.9977 -0.0683 0.0683 0.9977 -32.0368 30.4587)" class="st65" width="97.74" height="7.52"/>
	</g>
</g>
</svg>
