<?xml version="1.0" encoding="utf-8"?>
<!-- Generator: Adobe Illustrator 24.0.0, SVG Export Plug-In . SVG Version: 6.00 Build 0)  -->
<svg version="1.1" id="图层_1" xmlns="http://www.w3.org/2000/svg" xmlns:xlink="http://www.w3.org/1999/xlink" x="0px" y="0px"
	 viewBox="0 0 1190.55 814" style="enable-background:new 0 0 1190.55 814;" xml:space="preserve">
<style type="text/css">
	.st0{filter:url(#Adobe_OpacityMaskFilter);}
	.st1{filter:url(#Adobe_OpacityMaskFilter_1_);}
	.st2{mask:url(#SVGID_1_);fill:url(#SVGID_2_);}
	.st3{opacity:0.21;fill:url(#SVGID_3_);}
	.st4{opacity:0.21;fill:url(#SVGID_4_);}
	.st5{fill:#9FC400;}
	.st6{fill:none;stroke:#FFFFFF;stroke-width:6.8629;stroke-miterlimit:10;}
	.st7{fill:#CDD5D7;}
	.st8{fill:#E5E8EC;}
	.st9{fill:#596273;}
	.st10{fill:#373278;}
	.st11{fill:#F3AA06;}
	.st12{fill:#FDBF14;}
	.st13{fill:#FFFFFF;}
	.st14{opacity:0.1;fill:#FFFFFF;}
	.st15{fill:#73DDDA;}
	.st16{clip-path:url(#SVGID_6_);}
	.st17{fill:#5FC1BC;}
	.st18{fill:#F9DAAA;}
	.st19{fill:#F5B178;}
	.st20{fill:#27A79C;}
	.st21{fill:#25838A;}
	.st22{fill:#F7BB84;}
	.st23{fill:#F4A662;}
	.st24{fill:#B34A2F;}
	.st25{fill:#983B23;}
	.st26{opacity:0.3;}
	.st27{clip-path:url(#SVGID_8_);fill:#FFFFFF;}
	.st28{opacity:0.2;}
	.st29{clip-path:url(#SVGID_10_);fill:#FFFFFF;}
	.st30{clip-path:url(#SVGID_12_);}
	.st31{fill:#209380;}
	.st32{fill:#F08A1B;}
	.st33{fill:#C789B9;}
	.st34{fill:#9A64A6;}
	.st35{fill:#E9617B;}
	.st36{clip-path:url(#SVGID_14_);fill:#FFFFFF;}
	.st37{clip-path:url(#SVGID_16_);fill:#FFFFFF;}
	.st38{fill:#F5C11C;}
	.st39{fill:#E63B6C;}
	.st40{clip-path:url(#SVGID_18_);}
	.st41{fill:#C81D50;}
	.st42{fill:#F19319;}
	.st43{fill:#F3A367;}
	.st44{clip-path:url(#SVGID_20_);fill:#FFFFFF;}
	.st45{clip-path:url(#SVGID_22_);fill:#FFFFFF;}
	.st46{fill:#3F2310;}
	.st47{clip-path:url(#SVGID_24_);}
	.st48{fill:#9359A0;}
	.st49{fill:#042138;}
	.st50{clip-path:url(#SVGID_26_);fill:#FFFFFF;}
	.st51{clip-path:url(#SVGID_28_);fill:#FFFFFF;}
	.st52{opacity:0.62;fill:#A0A0AF;}
	.st53{fill:#D9D9E8;}
	.st54{fill:#35C4FC;}
	.st55{clip-path:url(#SVGID_30_);}
	.st56{clip-path:url(#SVGID_32_);fill:#FFFFFF;}
	.st57{clip-path:url(#SVGID_34_);fill:#FFFFFF;}
	.st58{clip-path:url(#SVGID_36_);}
	.st59{clip-path:url(#SVGID_38_);fill:#FFFFFF;}
	.st60{clip-path:url(#SVGID_40_);fill:#FFFFFF;}
	.st61{clip-path:url(#SVGID_42_);}
	.st62{clip-path:url(#SVGID_44_);fill:#FFFFFF;}
	.st63{clip-path:url(#SVGID_46_);fill:#FFFFFF;}
	.st64{fill:none;stroke:#FFFFFF;stroke-miterlimit:10;}
	.st65{fill:none;stroke:#FFFFFF;stroke-linecap:round;stroke-miterlimit:10;}
	.st66{clip-path:url(#SVGID_48_);}
	.st67{clip-path:url(#SVGID_50_);fill:#FFFFFF;}
	.st68{clip-path:url(#SVGID_52_);fill:#FFFFFF;}
	.st69{fill:#C1C1D3;}
	.st70{fill:#E53D1C;}
	.st71{fill-rule:evenodd;clip-rule:evenodd;fill:#CFCFED;}
	.st72{fill-rule:evenodd;clip-rule:evenodd;fill:#E0E0FF;}
	.st73{fill-rule:evenodd;clip-rule:evenodd;fill:#FFFFFF;}
	.st74{fill-rule:evenodd;clip-rule:evenodd;fill:#2C3E50;}
	.st75{fill-rule:evenodd;clip-rule:evenodd;fill:#163470;}
	.st76{fill-rule:evenodd;clip-rule:evenodd;fill:#0E2549;}
</style>
<defs>
	<filter id="Adobe_OpacityMaskFilter" filterUnits="userSpaceOnUse" x="159.22" y="156.87" width="912.03" height="597.98">
		<feFlood  style="flood-color:white;flood-opacity:1" result="back"/>
		<feBlend  in="SourceGraphic" in2="back" mode="normal"/>
	</filter>
</defs>
<mask maskUnits="userSpaceOnUse" x="159.22" y="156.87" width="912.03" height="597.98" id="SVGID_1_">
	<g class="st0">
		<defs>
			<filter id="Adobe_OpacityMaskFilter_1_" filterUnits="userSpaceOnUse" x="159.22" y="156.87" width="912.03" height="597.98">
				<feFlood  style="flood-color:white;flood-opacity:1" result="back"/>
				<feBlend  in="SourceGraphic" in2="back" mode="normal"/>
			</filter>
		</defs>
		<mask maskUnits="userSpaceOnUse" x="159.22" y="156.87" width="912.03" height="597.98" id="SVGID_1_">
			<g class="st1">
			</g>
		</mask>
		
			<linearGradient id="SVGID_2_" gradientUnits="userSpaceOnUse" x1="622.3407" y1="2033.7631" x2="1315.2905" y2="2033.7631" gradientTransform="matrix(0.3736 0.7545 1.0444 -0.6607 -1864.0736 1079.0765)">
			<stop  offset="0" style="stop-color:#000000"/>
			<stop  offset="1" style="stop-color:#FFFFFF"/>
		</linearGradient>
		<path class="st2" d="M397.87,748.48c139.68,20.81,352.69-9.59,457.7-87.5c306.69-227.54,219.2-405.93,141.8-451.79
			c-145.79-94.49-457.02-63.5-684.45,113.61C86.13,498.71,106.92,711.51,397.87,748.48z"/>
	</g>
</mask>
<linearGradient id="SVGID_3_" gradientUnits="userSpaceOnUse" x1="622.3407" y1="2033.7631" x2="1315.2905" y2="2033.7631" gradientTransform="matrix(0.3736 0.7545 1.0444 -0.6607 -1864.0736 1079.0765)">
	<stop  offset="0" style="stop-color:#5D68F4"/>
	<stop  offset="1" style="stop-color:#4E99FF"/>
</linearGradient>
<path class="st3" d="M397.87,748.48c139.68,20.81,352.69-9.59,457.7-87.5c306.69-227.54,219.2-405.93,141.8-451.79
	c-145.79-94.49-457.02-63.5-684.45,113.61C86.13,498.71,106.92,711.51,397.87,748.48z"/>
<linearGradient id="SVGID_4_" gradientUnits="userSpaceOnUse" x1="558.3927" y1="325.1651" x2="911.2504" y2="767.062">
	<stop  offset="0" style="stop-color:#5D68F4;stop-opacity:0"/>
	<stop  offset="0.2393" style="stop-color:#5C67F1;stop-opacity:0.2393"/>
	<stop  offset="0.4139" style="stop-color:#5963E8;stop-opacity:0.4139"/>
	<stop  offset="0.568" style="stop-color:#545CD8;stop-opacity:0.568"/>
	<stop  offset="0.7103" style="stop-color:#4D52C1;stop-opacity:0.7103"/>
	<stop  offset="0.8444" style="stop-color:#4545A4;stop-opacity:0.8444"/>
	<stop  offset="0.9707" style="stop-color:#3A3681;stop-opacity:0.9707"/>
	<stop  offset="1" style="stop-color:#373278"/>
</linearGradient>
<path class="st4" d="M418.51,184.03c135.34-51.88,283.58-64.17,398.15-52.94c115.89,11.75,198.11,47.02,231.98,102.01
	c34.22,55.52,18.11,123.82-18.91,198.04c-38.26,73.68-97.41,153.3-177.96,218.4c-153.03,131.23-396.15,142.56-582.4,3.54
	C83.55,515.2,137.62,285.35,418.51,184.03z"/>
<g>
	<path class="st5" d="M1046.88,559.47c0,2.85-2.33,5.18-5.18,5.18H870.92c-2.85,0-5.18-2.33-5.18-5.18v-8.09l-7.12-8.09l7.12-9.39
		v-6.8c0-2.85,2.34-5.18,5.18-5.18h170.78c2.85,0,5.18,2.33,5.18,5.18V559.47z"/>
	<g>
		<line class="st6" x1="1031.61" y1="542.99" x2="978.11" y2="542.99"/>
		<line class="st6" x1="971.69" y1="542.99" x2="906.97" y2="542.99"/>
		<line class="st6" x1="899.83" y1="542.99" x2="885.03" y2="542.99"/>
	</g>
</g>
<g>
	<g>
		<g>
			<path class="st7" d="M620.78,636.88c1.97,21.19-13.76,40.11-34.94,42.08l-230.01,21.33c-21.16,1.97-40.1-13.74-42.06-34.93
				l-50.56-544.92c-1.96-21.18,13.75-40.11,34.92-42.08l230.01-21.34c21.18-1.97,40.11,13.74,42.09,34.92L620.78,636.88z"/>
		</g>
		<g>
			<path class="st8" d="M361.22,693.82c-21.18,1.96-40.11-13.74-42.08-34.93l-49.46-533.07c-1.96-21.17,13.75-40.1,34.93-42.06
				l218.15-20.24c21.17-1.97,40.12,13.74,42.08,34.92l49.47,533.07c1.96,21.18-13.77,40.1-34.93,42.07L361.22,693.82z"/>
		</g>
		<g>
			<path class="st9" d="M380.13,109.11c0.27,2.84-1.84,5.39-4.7,5.66c-2.86,0.27-5.4-1.84-5.66-4.7c-0.27-2.87,1.85-5.4,4.7-5.67
				C377.33,104.13,379.87,106.24,380.13,109.11z"/>
			<path class="st9" d="M417.81,87.42c0.18,1.85-1.18,3.47-3.02,3.65c-1.83,0.17-3.48-1.18-3.64-3.02c-0.17-1.83,1.2-3.47,3.03-3.64
				C416.02,84.23,417.65,85.6,417.81,87.42z"/>
			<path class="st9" d="M436.6,103.36c0.13,1.36-0.87,2.58-2.23,2.7l-35.55,3.3c-1.36,0.13-2.56-0.89-2.69-2.24l0,0
				c-0.13-1.37,0.86-2.58,2.24-2.7l35.54-3.3C435.27,101,436.47,101.99,436.6,103.36L436.6,103.36z"/>
		</g>
		<polygon class="st7" points="274.17,178.3 274.17,178.3 266.95,178.97 266.95,178.97 264.75,155.28 264.75,155.28 271.97,154.61 
			271.97,154.61 		"/>
		<polygon class="st7" points="279.94,240.5 279.94,240.5 272.71,241.16 272.71,241.16 269,201.18 269,201.18 276.23,200.51 
			276.23,200.51 		"/>
		<polygon class="st7" points="284.33,287.87 284.33,287.87 277.12,288.55 277.12,288.55 273.58,250.41 273.58,250.41 
			280.79,249.74 280.79,249.74 		"/>
		<g>
			
				<rect x="306.3" y="137.29" transform="matrix(0.9957 -0.0924 0.0924 0.9957 -32.9951 42.4311)" class="st10" width="270.65" height="480.34"/>
		</g>
		<circle class="st7" cx="466.33" cy="646.61" r="17.73"/>
	</g>
	<g>
		<polygon class="st11" points="323.97,207.34 287.56,187.18 255.62,213.88 248.7,141.51 282.87,138.23 317.04,134.96 		"/>
		<path class="st12" d="M331.83,105.88c2.73,28.49-18.15,53.79-46.64,56.52c-28.49,2.73-53.79-18.16-56.52-46.64
			c-2.73-28.49,18.16-53.79,46.64-56.52C303.8,56.5,329.1,77.39,331.83,105.88z"/>
		<polygon class="st13" points="277.3,80.03 288.27,91.09 303.79,89.8 301.98,105.27 312.66,116.6 299.44,124.84 297.24,140.25 
			282.57,135.05 269.14,142.94 264.06,128.22 249.51,122.65 257.86,109.5 253.15,94.65 268.63,92.97 		"/>
	</g>
	<polygon class="st14" points="298.76,303.72 312.16,458.26 475.18,133.44 380.08,141.69 	"/>
	<polygon class="st14" points="319.59,543.95 527.9,128.88 491.73,132.01 314.49,485.14 	"/>
	<g>
		<g>
			
				<ellipse transform="matrix(0.9954 -0.0953 0.0953 0.9954 -38.2189 44.171)" class="st15" cx="443.38" cy="422.26" rx="25.51" ry="25.51"/>
			<g>
				<g>
					<defs>
						
							<ellipse id="SVGID_5_" transform="matrix(0.9954 -0.0953 0.0953 0.9954 -38.2189 44.171)" cx="443.38" cy="422.26" rx="25.51" ry="25.51"/>
					</defs>
					<clipPath id="SVGID_6_">
						<use xlink:href="#SVGID_5_"  style="overflow:visible;"/>
					</clipPath>
					<g class="st16">
						<path class="st17" d="M471.45,406.33l-16.14-7.86l-8.3,19.08c0,0-0.23,11.26,0.19,15.86c0.42,4.6,1.04,8.63,1.04,8.63
							l3.96,11.06l4.49,2.15l19.38-0.82l-4.6-48.09L471.45,406.33z"/>
						<path class="st18" d="M454.88,410.71l0.6,6.31c1.75-0.17,3.03-1.72,2.86-3.47C458.18,411.83,456.63,410.55,454.88,410.71"/>
						<path class="st19" d="M455,411.97l0.36,3.8c1.04-0.1,1.83-1.03,1.73-2.09C456.99,412.64,456.07,411.87,455,411.97"/>
						<path class="st18" d="M430.92,413.01l0.6,6.31c-1.75,0.17-3.28-1.12-3.45-2.87C427.89,414.73,429.17,413.17,430.92,413.01"/>
						<path class="st19" d="M431.04,414.27l0.36,3.8c-1.04,0.1-1.99-0.66-2.09-1.73C429.22,415.29,430,414.37,431.04,414.27"/>
						<path class="st20" d="M433.84,457.41l-1.42-14.81c-0.7-7.36,4.69-13.89,12.04-14.59c7.36-0.7,13.89,4.69,14.59,12.04
							l1.42,14.81L433.84,457.41z"/>
						<path class="st21" d="M439.9,456.83l-1.55-16.15c-0.04-0.43-0.43-0.75-0.86-0.71c-0.43,0.04-0.75,0.43-0.71,0.86l1.55,16.15
							L439.9,456.83z"/>
						<path class="st21" d="M456.68,455.23l-1.55-16.15c-0.04-0.43-0.43-0.75-0.86-0.71c-0.43,0.04-0.75,0.43-0.71,0.86l1.55,16.15
							L456.68,455.23z"/>
						<path class="st22" d="M439.84,425.24l0.43,4.48c0.23,2.38,2.34,4.14,4.74,3.91c2.38-0.23,4.14-2.34,3.91-4.74l-0.43-4.48
							L439.84,425.24z"/>
						<path class="st18" d="M430.13,405.74l1.2,12.53c0.64,6.69,6.57,11.58,13.26,10.94c6.69-0.64,11.58-6.57,10.94-13.26
							l-1.3-13.63L430.13,405.74z"/>
						<path class="st23" d="M441.55,418.06l3.8-0.36c-0.1-1.04-1.03-1.83-2.09-1.73C442.21,416.07,441.45,417,441.55,418.06"/>
						<path class="st13" d="M449.22,418.98l-11.15,1.07c0.29,3.07,3.03,5.33,6.1,5.03C447.26,424.78,449.52,422.05,449.22,418.98"/>
						<path class="st24" d="M441.1,415.23c-0.47,0.05-0.9-0.31-0.95-0.78c-0.14-1.44-1.41-2.49-2.85-2.35s-2.49,1.41-2.35,2.85
							c0.05,0.47-0.31,0.9-0.78,0.95s-0.9-0.31-0.95-0.78c-0.23-2.38,1.52-4.49,3.9-4.72s4.49,1.52,4.72,3.9
							C441.93,414.75,441.57,415.18,441.1,415.23"/>
						<path class="st24" d="M452.25,414.16c-0.47,0.05-0.9-0.31-0.95-0.78c-0.14-1.44-1.41-2.49-2.85-2.35s-2.49,1.41-2.35,2.85
							c0.05,0.47-0.31,0.9-0.78,0.95c-0.47,0.05-0.9-0.31-0.95-0.78c-0.23-2.38,1.52-4.49,3.9-4.72c2.38-0.23,4.49,1.52,4.72,3.9
							C453.06,413.69,452.73,414.12,452.25,414.16"/>
						<polygon class="st25" points="454.32,402.93 455.3,413.87 451.74,403.61 						"/>
						<path class="st24" d="M431.32,417.12l0.7-8.28c0,0,9.4,1.6,17.74-1.7l-1.23-0.8c0,0,3.84,0.76,5.81-1.35l-2.15-0.47
							c0,0,4.79-1.59,3.11-6.05l-1.54,0.47c0,0-4.53-5.04-12.95-4.24c-7.14,0.68-12.72,6.08-11.89,11.18L431.32,417.12z"/>
						<g class="st26">
							<g>
								<g>
									<defs>
										
											<rect id="SVGID_7_" x="433.7" y="419.63" transform="matrix(0.9954 -0.0953 0.0953 0.9954 -38.4066 43.6943)" width="9.19" height="8.71"/>
									</defs>
									<clipPath id="SVGID_8_">
										<use xlink:href="#SVGID_7_"  style="overflow:visible;"/>
									</clipPath>
									<path class="st27" d="M442.5,427.96c-0.06,0.01-0.12,0.01-0.18,0c-6.81-0.88-8.82-6.68-8.9-6.91c-0.14-0.4,0.08-0.86,0.5-1
										c0.4-0.14,0.86,0.08,1,0.5c0.08,0.21,1.8,5.11,7.61,5.86c0.42,0.06,0.74,0.45,0.68,0.89
										C443.16,427.66,442.85,427.92,442.5,427.96"/>
								</g>
							</g>
						</g>
						<g class="st28">
							<g>
								<g>
									<defs>
										
											<rect id="SVGID_9_" x="433.96" y="432.72" transform="matrix(0.9954 -0.0953 0.0953 0.9954 -39.7286 43.6268)" width="5.93" height="10.14"/>
									</defs>
									<clipPath id="SVGID_10_">
										<use xlink:href="#SVGID_9_"  style="overflow:visible;"/>
									</clipPath>
									<path class="st29" d="M435.33,443.04c-0.02,0-0.04,0-0.06,0.01c-0.48,0.01-0.89-0.35-0.89-0.85
										c-0.23-7.18,3.66-9.44,3.81-9.54c0.41-0.24,0.94-0.09,1.18,0.32c0.24,0.41,0.09,0.94-0.32,1.18
										c-0.15,0.09-3.13,1.93-2.95,7.98C436.12,442.6,435.78,442.99,435.33,443.04"/>
								</g>
							</g>
						</g>
					</g>
				</g>
			</g>
		</g>
		<g>
			
				<ellipse transform="matrix(0.9954 -0.0953 0.0953 0.9954 -19.7195 41.596)" class="st20" cx="425.67" cy="227.27" rx="25.51" ry="25.51"/>
			<g>
				<g>
					<defs>
						
							<ellipse id="SVGID_11_" transform="matrix(0.9954 -0.0953 0.0953 0.9954 -19.7195 41.596)" cx="425.67" cy="227.27" rx="25.51" ry="25.51"/>
					</defs>
					<clipPath id="SVGID_12_">
						<use xlink:href="#SVGID_11_"  style="overflow:visible;"/>
					</clipPath>
					<g class="st30">
						<polygon class="st31" points="450.46,218.49 437.54,207.81 424.03,223.87 432.25,272.18 436.27,275.96 437.81,277.14 
							455.91,275.41 						"/>
						<path class="st18" d="M438.96,224.09l0.72,7.47c2.07-0.2,3.58-2.03,3.38-4.1C442.86,225.41,441.03,223.89,438.96,224.09"/>
						<path class="st19" d="M439.11,225.59l0.43,4.5c1.24-0.12,2.17-1.22,2.05-2.46C441.45,226.38,440.35,225.47,439.11,225.59"/>
						
							<rect x="409.53" y="230.8" transform="matrix(0.9954 -0.0953 0.0953 0.9954 -20.8276 41.631)" class="st32" width="31.91" height="16.18"/>
						<path class="st33" d="M414.01,279.42l-1.68-17.55c-0.83-8.71,5.55-16.47,14.26-17.31c8.71-0.83,16.47,5.55,17.31,14.28
							l1.68,17.55L414.01,279.42z"/>
						<path class="st34" d="M421.21,278.73l-1.83-19.14c-0.05-0.51-0.5-0.88-1.01-0.84c-0.51,0.05-0.88,0.5-0.84,1.01l1.83,19.14
							L421.21,278.73z"/>
						<path class="st34" d="M441.07,276.83l-1.83-19.14c-0.05-0.51-0.5-0.88-1.01-0.84c-0.51,0.05-0.88,0.5-0.84,1.01l1.83,19.14
							L441.07,276.83z"/>
						<path class="st22" d="M421.14,241.28l0.51,5.31c0.27,2.83,2.77,4.9,5.6,4.62s4.9-2.77,4.62-5.6l-0.51-5.31L421.14,241.28z"/>
						<path class="st18" d="M409.62,218.21l1.42,14.85c0.76,7.91,7.78,13.71,15.69,12.95s13.71-7.78,12.95-15.69l-1.55-16.15
							L409.62,218.21z"/>
						<path class="st23" d="M423.16,232.79l4.5-0.43c-0.12-1.24-1.22-2.15-2.46-2.03C423.95,230.45,423.04,231.55,423.16,232.79"/>
						<path class="st35" d="M426.25,240.79c-3.36,0.32-6.36-2.15-6.68-5.51c-0.06-0.61,0.39-1.15,1-1.21c0.61-0.06,1.15,0.39,1.21,1
							c0.21,2.16,2.13,3.75,4.29,3.54c2.16-0.21,3.75-2.13,3.54-4.29c-0.06-0.61,0.39-1.15,1-1.21c0.61-0.06,1.15,0.39,1.21,1
							C432.09,237.47,429.61,240.47,426.25,240.79"/>
						<path class="st24" d="M422.62,229.43c-0.57,0.05-1.07-0.35-1.12-0.92c-0.16-1.69-1.67-2.94-3.36-2.77
							c-1.69,0.16-2.94,1.67-2.77,3.36c0.05,0.57-0.35,1.07-0.92,1.12c-0.57,0.05-1.07-0.35-1.12-0.92
							c-0.27-2.81,1.79-5.31,4.63-5.58c2.81-0.27,5.33,1.79,5.6,4.61C423.6,228.88,423.19,229.37,422.62,229.43"/>
						<path class="st24" d="M414.15,227.84l-0.02,0c-1.5,0.06-2.1-0.99-2.19-1.56c-0.04-0.19,0.1-0.39,0.3-0.43
							c0.18-0.04,0.39,0.1,0.43,0.3c0.03,0.1,0.23,0.99,1.44,0.95c0.2,0,0.37,0.14,0.39,0.36
							C414.49,227.65,414.33,227.82,414.15,227.84"/>
						<path class="st24" d="M413.5,229.15c-1.04,0.1-1.7-0.55-1.92-0.99c-0.1-0.19-0.02-0.4,0.15-0.49c0.19-0.1,0.4-0.02,0.49,0.15
							c0.05,0.09,0.52,0.88,1.65,0.48c0.19-0.08,0.4,0.04,0.48,0.23c0.06,0.19-0.04,0.4-0.23,0.48
							C413.91,229.07,413.7,229.13,413.5,229.15"/>
						<path class="st24" d="M435.49,225.79l0.02,0c1.49-0.22,1.87-1.37,1.86-1.94c0-0.2-0.17-0.36-0.37-0.36
							c-0.18,0-0.36,0.17-0.36,0.37c0.01,0.1-0.04,1.02-1.23,1.21c-0.19,0.04-0.34,0.21-0.32,0.43
							C435.12,225.67,435.3,225.81,435.49,225.79"/>
						<path class="st24" d="M436.38,226.96c1.04-0.1,1.56-0.86,1.7-1.33c0.06-0.2-0.06-0.39-0.24-0.45
							c-0.2-0.06-0.39,0.06-0.45,0.24c-0.03,0.1-0.34,0.97-1.53,0.78c-0.2-0.04-0.39,0.12-0.41,0.32c-0.04,0.2,0.12,0.39,0.32,0.43
							C435.96,226.96,436.18,226.98,436.38,226.96"/>
						<path class="st24" d="M435.82,228.16c-0.57,0.05-1.07-0.35-1.12-0.92c-0.16-1.69-1.67-2.94-3.36-2.77s-2.94,1.67-2.77,3.36
							c0.05,0.57-0.35,1.07-0.92,1.12c-0.57,0.05-1.07-0.35-1.12-0.92c-0.27-2.81,1.79-5.31,4.61-5.58
							c2.81-0.27,5.31,1.79,5.58,4.61C436.8,227.61,436.39,228.11,435.82,228.16"/>
						<g class="st26">
							<g>
								<g>
									<defs>
										
											<rect id="SVGID_13_" x="413.85" y="234.65" transform="matrix(0.9954 -0.0953 0.0953 0.9954 -20.9443 41.0459)" width="10.89" height="10.33"/>
									</defs>
									<clipPath id="SVGID_14_">
										<use xlink:href="#SVGID_13_"  style="overflow:visible;"/>
									</clipPath>
									<path class="st36" d="M424.29,244.53c-0.06,0.01-0.14,0.01-0.22,0c-8.08-1.03-10.44-7.89-10.55-8.2
										c-0.17-0.48,0.1-1.02,0.58-1.19c0.48-0.17,1.02,0.1,1.19,0.58c0.08,0.25,2.13,6.05,9.02,6.94c0.5,0.07,0.86,0.53,0.82,1.05
										C425.06,244.16,424.7,244.49,424.29,244.53"/>
								</g>
							</g>
						</g>
						<g class="st28">
							<g>
								<g>
									<defs>
										
											<rect id="SVGID_15_" x="414.16" y="250.18" transform="matrix(0.9954 -0.0953 0.0953 0.9954 -22.51 40.9659)" width="7.03" height="11.99"/>
									</defs>
									<clipPath id="SVGID_16_">
										<use xlink:href="#SVGID_15_"  style="overflow:visible;"/>
									</clipPath>
									<path class="st37" d="M415.77,262.38c-0.02,0-0.04,0-0.06,0.01c-0.57,0.02-1.03-0.44-1.07-0.99
										c-0.26-8.51,4.33-11.19,4.52-11.29c0.49-0.29,1.12-0.11,1.41,0.4c0.29,0.49,0.11,1.12-0.38,1.41
										c-0.17,0.1-3.71,2.28-3.48,9.44C416.71,261.87,416.3,262.33,415.77,262.38"/>
								</g>
							</g>
						</g>
						<path class="st38" d="M430.72,217.99c0,0-0.48,4.89-8.49,5.3l1.58-2.34c0,0-3.64,2.39-9.75,2.24l0.76-1.44l-4.7,0.51
							l2.49,25.97l-3.74,0.36l-2.9-30.31c0,0,0.63-13.1,16.66-14.64c15.36-1.47,19.12,10.16,19.12,10.16l3,31.35l-3.74,0.36
							l-2.49-25.97C438.53,219.57,434.16,221.4,430.72,217.99"/>
					</g>
				</g>
			</g>
		</g>
	</g>
	<g>
		<g>
			
				<ellipse transform="matrix(0.9954 -0.0953 0.0953 0.9954 -30.1093 34.152)" class="st39" cx="342.53" cy="332.33" rx="25.51" ry="25.51"/>
			<g>
				<g>
					<defs>
						
							<ellipse id="SVGID_17_" transform="matrix(0.9954 -0.0953 0.0953 0.9954 -30.1093 34.152)" cx="342.53" cy="332.33" rx="25.51" ry="25.51"/>
					</defs>
					<clipPath id="SVGID_18_">
						<use xlink:href="#SVGID_17_"  style="overflow:visible;"/>
					</clipPath>
					<g class="st40">
						<polygon class="st41" points="366.25,307.63 352,308.84 344.86,329.69 341.89,346.11 341.57,351.88 354.66,377.92 
							356.23,379.14 372.95,377.54 						"/>
						<path class="st18" d="M354.85,326.79l0.71,7.42c2.05-0.2,3.54-2.01,3.34-4.07C358.72,328.1,356.89,326.59,354.85,326.79"/>
						<path class="st19" d="M354.99,328.26l0.43,4.47c1.24-0.12,2.15-1.22,2.03-2.44C357.33,329.05,356.23,328.15,354.99,328.26"/>
						<path class="st18" d="M326.7,329.48l0.71,7.42c-2.05,0.2-3.86-1.3-4.05-3.36C323.14,331.51,324.65,329.68,326.7,329.48"/>
						<path class="st19" d="M326.84,330.96l0.43,4.47c-1.24,0.12-2.32-0.79-2.44-2.01C324.69,332.18,325.6,331.08,326.84,330.96"/>
						<path class="st38" d="M330.12,381.64l-1.66-17.39c-0.83-8.64,5.5-16.33,14.16-17.16c8.64-0.83,16.33,5.5,17.16,14.16
							l1.66,17.39L330.12,381.64z"/>
						<path class="st42" d="M337.24,380.96L335.43,362c-0.05-0.51-0.5-0.88-1.01-0.84c-0.51,0.05-0.88,0.5-0.84,1.01l1.82,18.96
							L337.24,380.96z"/>
						<path class="st42" d="M356.95,379.07l-1.82-18.96c-0.05-0.51-0.5-0.88-1.01-0.84c-0.51,0.05-0.88,0.5-0.84,1.01l1.82,18.96
							L356.95,379.07z"/>
						<path class="st43" d="M337.16,343.85l0.5,5.25c0.27,2.79,2.77,4.86,5.56,4.59c2.79-0.27,4.86-2.75,4.59-5.56l-0.5-5.25
							L337.16,343.85z"/>
						<path class="st18" d="M325.76,320.96l1.41,14.71c0.75,7.85,7.71,13.59,15.56,12.84c7.85-0.75,13.59-7.71,12.84-15.56
							l-1.53-16.01L325.76,320.96z"/>
						<path class="st23" d="M339.18,335.42l4.47-0.43c-0.12-1.24-1.22-2.15-2.46-2.03C339.97,333.1,339.06,334.18,339.18,335.42"/>
						<path class="st24" d="M338.66,332.09c-0.55,0.05-1.05-0.36-1.1-0.91c-0.16-1.67-1.65-2.92-3.34-2.76
							c-1.69,0.16-2.92,1.65-2.76,3.34c0.05,0.55-0.36,1.05-0.91,1.1c-0.55,0.05-1.05-0.36-1.1-0.91c-0.27-2.79,1.78-5.27,4.57-5.54
							c2.79-0.27,5.27,1.78,5.54,4.57C339.62,331.54,339.21,332.04,338.66,332.09"/>
						<path class="st24" d="M345.07,337.51c-0.45,0.04-0.81,0.45-0.76,0.93c0.13,1.4-0.9,2.65-2.29,2.78
							c-1.4,0.13-2.65-0.9-2.78-2.29c-0.04-0.45-0.45-0.81-0.93-0.76c-0.45,0.04-0.81,0.45-0.76,0.93c0.22,2.32,2.29,4.03,4.61,3.81
							c2.32-0.22,4.03-2.29,3.81-4.61C345.96,337.8,345.55,337.47,345.07,337.51"/>
						<path class="st24" d="M351.74,330.84c-0.55,0.05-1.05-0.36-1.1-0.91c-0.16-1.67-1.65-2.92-3.34-2.76
							c-1.67,0.16-2.92,1.65-2.76,3.34c0.05,0.55-0.36,1.05-0.91,1.1c-0.55,0.05-1.05-0.36-1.1-0.91c-0.27-2.79,1.78-5.27,4.57-5.54
							c2.79-0.27,5.27,1.78,5.54,4.57C352.7,330.29,352.31,330.78,351.74,330.84"/>
						<g class="st26">
							<g>
								<g>
									<defs>
										
											<rect id="SVGID_19_" x="329.96" y="337.25" transform="matrix(0.9954 -0.0953 0.0953 0.9954 -31.0983 33.5137)" width="10.79" height="10.24"/>
									</defs>
									<clipPath id="SVGID_20_">
										<use xlink:href="#SVGID_19_"  style="overflow:visible;"/>
									</clipPath>
									<path class="st44" d="M340.29,347.06c-0.06,0.01-0.14,0.01-0.2,0c-8-1.02-10.36-7.84-10.47-8.13
										c-0.17-0.48,0.1-1,0.58-1.17s1,0.1,1.17,0.58c0.08,0.25,2.12,6.01,8.94,6.89c0.5,0.07,0.86,0.53,0.79,1.04
										C341.07,346.69,340.72,347.02,340.29,347.06"/>
								</g>
							</g>
						</g>
						<g class="st28">
							<g>
								<g>
									<defs>
										
											<rect id="SVGID_21_" x="330.26" y="352.66" transform="matrix(0.9954 -0.0953 0.0953 0.9954 -32.6525 33.434)" width="6.98" height="11.9"/>
									</defs>
									<clipPath id="SVGID_22_">
										<use xlink:href="#SVGID_21_"  style="overflow:visible;"/>
									</clipPath>
									<path class="st45" d="M331.86,364.76c-0.02,0-0.04,0-0.06,0.01c-0.55,0.01-1.03-0.42-1.05-0.99
										c-0.25-8.43,4.3-11.09,4.49-11.21c0.49-0.29,1.1-0.11,1.39,0.38c0.27,0.49,0.11,1.1-0.38,1.39
										c-0.17,0.1-3.67,2.26-3.45,9.36C332.81,364.25,332.39,364.71,331.86,364.76"/>
								</g>
							</g>
						</g>
						<path class="st46" d="M324.81,319.74c0.22,2.28,2.25,3.97,4.55,3.75c2.28-0.22,3.97-2.25,3.75-4.55
							c-0.22-2.28-2.25-3.97-4.55-3.75C326.29,315.43,324.59,317.46,324.81,319.74"/>
						<path class="st46" d="M323.61,323.39c0.17,1.79,1.74,3.09,3.53,2.92c1.79-0.17,3.09-1.74,2.92-3.53s-1.74-3.09-3.53-2.92
							C324.76,320.02,323.44,321.62,323.61,323.39"/>
						<path class="st46" d="M324.97,327.44c0.12,1.24,1.22,2.17,2.48,2.05c1.24-0.12,2.17-1.22,2.05-2.48
							c-0.12-1.24-1.22-2.17-2.48-2.05C325.78,325.08,324.85,326.19,324.97,327.44"/>
						<path class="st46" d="M326.23,330.22c0.07,0.71,0.69,1.22,1.4,1.16c0.71-0.07,1.22-0.69,1.16-1.4
							c-0.07-0.71-0.69-1.22-1.4-1.16C326.68,328.89,326.16,329.51,326.23,330.22"/>
						<path class="st46" d="M351.17,320.75c0.17,1.79,1.74,3.09,3.53,2.92c1.79-0.17,3.09-1.74,2.92-3.53
							c-0.17-1.79-1.74-3.09-3.53-2.92C352.3,317.39,351,318.98,351.17,320.75"/>
						<path class="st46" d="M352.53,324.81c0.12,1.24,1.22,2.17,2.48,2.05c1.24-0.12,2.17-1.22,2.05-2.48
							c-0.12-1.24-1.22-2.17-2.48-2.05C353.32,322.45,352.41,323.55,352.53,324.81"/>
						<path class="st46" d="M353.79,327.58c0.07,0.71,0.69,1.22,1.4,1.16c0.71-0.07,1.22-0.69,1.16-1.4
							c-0.07-0.71-0.69-1.22-1.4-1.16C354.24,326.25,353.72,326.88,353.79,327.58"/>
						<path class="st46" d="M347.32,317.58c0.22,2.28,2.25,3.97,4.55,3.75c2.28-0.22,3.97-2.25,3.75-4.55
							c-0.22-2.28-2.25-3.97-4.55-3.75C348.77,313.28,347.1,315.3,347.32,317.58"/>
						<path class="st46" d="M331.37,317.16c0.25,2.66,2.63,4.61,5.28,4.36c2.66-0.25,4.61-2.63,4.36-5.28
							c-0.25-2.66-2.63-4.61-5.28-4.36C333.06,312.14,331.12,314.49,331.37,317.16"/>
						<path class="st46" d="M325.99,314.17c0.25,2.66,2.63,4.61,5.28,4.36c2.66-0.25,4.61-2.63,4.36-5.28
							c-0.25-2.66-2.63-4.61-5.28-4.36S325.73,311.51,325.99,314.17"/>
						<path class="st46" d="M343.53,312.49c0.25,2.66,2.63,4.61,5.28,4.36c2.66-0.25,4.61-2.63,4.36-5.28
							c-0.25-2.66-2.63-4.61-5.28-4.36C345.23,307.46,343.28,309.83,343.53,312.49"/>
						<path class="st46" d="M333.51,312.49c0.34,3.5,3.46,6.08,6.96,5.75c3.5-0.34,6.08-3.46,5.75-6.96
							c-0.34-3.5-3.46-6.08-6.96-5.75C335.73,305.87,333.17,308.99,333.51,312.49"/>
						<path class="st46" d="M339.05,316.43c0.25,2.66,2.63,4.61,5.28,4.36c2.66-0.25,4.61-2.63,4.36-5.28
							c-0.25-2.66-2.63-4.61-5.28-4.36C340.75,311.4,338.79,313.76,339.05,316.43"/>
					</g>
				</g>
			</g>
		</g>
		<g>
			
				<ellipse transform="matrix(0.9954 -0.0953 0.0953 0.9954 -27.6551 51.7833)" class="st33" cx="528.37" cy="315.45" rx="25.51" ry="25.51"/>
			<g>
				<g>
					<defs>
						
							<ellipse id="SVGID_23_" transform="matrix(0.9954 -0.0953 0.0953 0.9954 -27.6551 51.7833)" cx="528.37" cy="315.45" rx="25.51" ry="25.51"/>
					</defs>
					<clipPath id="SVGID_24_">
						<use xlink:href="#SVGID_23_"  style="overflow:visible;"/>
					</clipPath>
					<g class="st47">
						<path class="st48" d="M538.92,295.84L533,355.76c0.61,0.6,3.23,9.87,3.23,9.87l6.19,0.98l17.57-1.68l-5.37-56.12
							L538.92,295.84z"/>
						<path class="st18" d="M542.45,311.84l0.74,7.73c2.14-0.21,3.71-2.1,3.5-4.25C546.48,313.2,544.58,311.64,542.45,311.84"/>
						<path class="st19" d="M542.6,313.38l0.45,4.66c1.28-0.12,2.22-1.26,2.1-2.54C545.02,314.2,543.88,313.25,542.6,313.38"/>
						<path class="st18" d="M513.07,314.66l0.74,7.73c-2.14,0.21-4.04-1.36-4.25-3.5C509.38,316.76,510.94,314.86,513.07,314.66"/>
						<path class="st19" d="M513.21,316.19l0.45,4.66c-1.28,0.12-2.42-0.82-2.54-2.1C510.99,317.45,511.94,316.31,513.21,316.19"/>
						
							<rect x="513.02" y="308.46" transform="matrix(0.9954 -0.0953 0.0953 0.9954 -28.8789 51.915)" class="st49" width="32.23" height="39.74"/>
						<path class="st20" d="M516.65,369.06l-1.74-18.14c-0.86-9.01,5.75-17.03,14.76-17.89c9.01-0.86,17.03,5.75,17.89,14.76
							l1.74,18.14L516.65,369.06z"/>
						<path class="st21" d="M524.08,368.35l-1.89-19.79c-0.05-0.53-0.52-0.92-1.06-0.87s-0.92,0.53-0.87,1.06l1.89,19.79
							L524.08,368.35z"/>
						<path class="st21" d="M544.64,366.38l-1.89-19.79c-0.05-0.53-0.52-0.92-1.06-0.87c-0.53,0.05-0.92,0.52-0.87,1.06l1.89,19.79
							L544.64,366.38z"/>
						<path class="st22" d="M524.01,329.63l0.53,5.49c0.28,2.93,2.87,5.07,5.8,4.78s5.07-2.87,4.78-5.8l-0.53-5.49L524.01,329.63z"
							/>
						<path class="st18" d="M512.1,305.76l1.47,15.34c0.78,8.18,8.05,14.2,16.25,13.41c8.18-0.78,14.18-8.05,13.39-16.25l-1.6-16.7
							L512.1,305.76z"/>
						<path class="st23" d="M526.1,320.83l4.66-0.45c-0.12-1.28-1.26-2.22-2.54-2.1C526.92,318.41,525.98,319.55,526.1,320.83"/>
						<path class="st35" d="M529.3,329.1c-3.48,0.33-6.59-2.23-6.92-5.71c-0.06-0.63,0.4-1.19,1.03-1.25
							c0.63-0.06,1.19,0.4,1.25,1.03c0.21,2.22,2.2,3.88,4.44,3.66c2.22-0.21,3.88-2.2,3.66-4.44c-0.06-0.63,0.4-1.19,1.03-1.25
							c0.63-0.06,1.19,0.4,1.25,1.03C535.34,325.66,532.78,328.77,529.3,329.1"/>
						<path class="st24" d="M525.75,317.15c-0.55,0.05-1.03-0.36-1.08-0.89c-0.16-1.65-1.62-2.86-3.28-2.7s-2.86,1.62-2.7,3.28
							c0.05,0.55-0.34,1.02-0.89,1.08s-1.03-0.36-1.08-0.89c-0.26-2.73,1.75-5.19,4.5-5.45c2.73-0.26,5.19,1.75,5.45,4.5
							C526.71,316.61,526.3,317.1,525.75,317.15"/>
						<path class="st24" d="M517.5,315.58C517.5,315.58,517.48,315.58,517.5,315.58c-1.48,0.06-2.06-0.95-2.17-1.5
							c-0.04-0.19,0.1-0.39,0.3-0.43c0.18-0.04,0.39,0.1,0.42,0.28c0.01,0.1,0.23,0.97,1.4,0.92c0.2,0,0.37,0.14,0.37,0.34
							C517.84,315.41,517.7,315.56,517.5,315.58"/>
						<path class="st24" d="M516.87,316.87c-1.02,0.1-1.66-0.54-1.86-0.95c-0.1-0.17-0.02-0.4,0.15-0.47
							c0.17-0.1,0.4-0.02,0.49,0.15c0.05,0.09,0.5,0.87,1.61,0.46c0.19-0.06,0.4,0.04,0.46,0.21c0.06,0.19-0.04,0.4-0.21,0.46
							C517.28,316.79,517.07,316.85,516.87,316.87"/>
						<path class="st24" d="M530.26,316.72c0.55-0.05,0.94-0.55,0.89-1.08c-0.16-1.65,1.05-3.12,2.7-3.28s3.12,1.05,3.28,2.7
							c0.05,0.55,0.53,0.94,1.08,0.89s0.94-0.55,0.89-1.08c-0.26-2.73-2.7-4.76-5.45-4.5c-2.73,0.26-4.76,2.7-4.5,5.45
							C529.23,316.36,529.71,316.78,530.26,316.72"/>
						<path class="st24" d="M538.06,313.61C538.08,313.61,538.08,313.61,538.06,313.61c1.47-0.22,1.84-1.33,1.84-1.88
							c0-0.2-0.17-0.36-0.37-0.36c-0.18,0-0.36,0.17-0.36,0.35c0.01,0.1-0.04,1-1.2,1.17c-0.19,0.04-0.34,0.21-0.3,0.41
							C537.71,313.51,537.88,313.63,538.06,313.61"/>
						<path class="st24" d="M538.92,314.76c1.02-0.1,1.53-0.84,1.66-1.29c0.06-0.18-0.06-0.39-0.24-0.43
							c-0.18-0.06-0.39,0.06-0.45,0.24c-0.03,0.1-0.33,0.94-1.5,0.76c-0.2-0.02-0.39,0.12-0.41,0.3c-0.02,0.2,0.12,0.39,0.3,0.41
							C538.53,314.76,538.73,314.78,538.92,314.76"/>
						<g class="st26">
							<g>
								<g>
									<defs>
										
											<rect id="SVGID_25_" x="516.48" y="322.75" transform="matrix(0.9954 -0.0953 0.0953 0.9954 -28.8879 51.2449)" width="11.26" height="10.69"/>
									</defs>
									<clipPath id="SVGID_26_">
										<use xlink:href="#SVGID_25_"  style="overflow:visible;"/>
									</clipPath>
									<path class="st50" d="M527.27,332.97c-0.08,0.01-0.14,0.01-0.22,0c-8.36-1.07-10.81-8.18-10.92-8.48
										c-0.17-0.5,0.1-1.04,0.62-1.23c0.5-0.17,1.04,0.1,1.23,0.62c0.08,0.25,2.21,6.26,9.32,7.17c0.52,0.07,0.91,0.55,0.84,1.07
										C528.06,332.59,527.7,332.93,527.27,332.97"/>
								</g>
							</g>
						</g>
						<g class="st28">
							<g>
								<g>
									<defs>
										
											<rect id="SVGID_27_" x="516.78" y="338.81" transform="matrix(0.9954 -0.0953 0.0953 0.9954 -30.5085 51.1604)" width="7.27" height="12.41"/>
									</defs>
									<clipPath id="SVGID_28_">
										<use xlink:href="#SVGID_27_"  style="overflow:visible;"/>
									</clipPath>
									<path class="st51" d="M518.45,351.44c-0.02,0-0.04,0-0.08,0.01c-0.59,0.02-1.08-0.45-1.09-1.03
										c-0.27-8.81,4.47-11.56,4.68-11.68c0.51-0.29,1.16-0.11,1.45,0.4s0.11,1.16-0.4,1.45c-0.17,0.1-3.82,2.35-3.61,9.77
										C519.44,350.91,519,351.39,518.45,351.44"/>
								</g>
							</g>
						</g>
						<path class="st49" d="M532.77,305.23c0,0-4.04,8.78-20.79,11.16l-1.18-10.49c0,0-0.86-11.69,14.44-13.15
							c15.28-1.46,17.51,8.73,17.51,8.73l0.76,7.99C543.52,309.46,535.17,310.61,532.77,305.23"/>
					</g>
				</g>
			</g>
		</g>
	</g>
	<circle class="st52" cx="456.86" cy="551.19" r="27.7"/>
	<g>
		<path class="st13" d="M385.89,224.17c6.51,2.97,7.07,8.8,1.24,12.96l-28.76,20.49c-5.83,4.15-11.16,1.72-11.85-5.41l-3.37-35.15
			c-0.68-7.13,4.09-10.53,10.6-7.55L385.89,224.17z"/>
		<path class="st5" d="M383.15,224.43c6.51,2.97,7.07,8.8,1.24,12.96l-28.76,20.49c-5.83,4.15-11.16,1.72-11.85-5.41l-3.37-35.15
			c-0.68-7.13,4.09-10.53,10.6-7.55L383.15,224.43z"/>
		<g>
			<path class="st13" d="M362.71,238.16c1.13,2.46-0.72,5.73-4.13,7.31c-3.42,1.58-7.11,0.87-8.24-1.6
				c-1.13-2.46,0.71-5.73,4.13-7.31C357.87,234.99,361.57,235.7,362.71,238.16z"/>
			<g>
				<polygon class="st13" points="362.98,239.14 358.12,239.61 355.96,217.03 367.4,222.07 365.43,226.54 361.61,224.85 				"/>
			</g>
		</g>
	</g>
	<path class="st53" d="M462.69,347.04l-51.79,4.7c-10.5,0.95-19.79-6.79-20.74-17.29v0c-0.95-10.5,6.79-19.79,17.29-20.74l51.79-4.7
		c10.5-0.95,19.79,6.79,20.74,17.29v0C480.93,336.8,473.19,346.08,462.69,347.04z"/>
	
		<rect x="397.08" y="330.02" transform="matrix(0.9959 -0.0905 0.0905 0.9959 -28.5156 37.4039)" class="st13" width="2.58" height="6.51"/>
	
		<rect x="402.3" y="329.54" transform="matrix(0.9959 -0.0905 0.0905 0.9959 -28.4512 37.8747)" class="st13" width="2.58" height="6.51"/>
	
		<rect x="407.53" y="322.32" transform="matrix(0.9959 -0.0905 0.0905 0.9959 -28.3869 38.3454)" class="st13" width="2.58" height="20.01"/>
	
		<rect x="412.75" y="325.91" transform="matrix(0.9959 -0.0905 0.0905 0.9959 -28.3225 38.8162)" class="st13" width="2.58" height="11.87"/>
	
		<rect x="417.98" y="321.37" transform="matrix(0.9959 -0.0905 0.0905 0.9959 -28.2581 39.287)" class="st13" width="2.58" height="20.01"/>
	
		<rect x="423.21" y="324.96" transform="matrix(0.9959 -0.0905 0.0905 0.9959 -28.1938 39.7578)" class="st13" width="2.58" height="11.87"/>
	
		<rect x="428.43" y="326.02" transform="matrix(0.9959 -0.0905 0.0905 0.9959 -28.1294 40.2286)" class="st13" width="2.58" height="8.81"/>
	
		<rect x="433.66" y="323.24" transform="matrix(0.9959 -0.0905 0.0905 0.9959 -28.065 40.6993)" class="st13" width="2.58" height="13.42"/>
	
		<rect x="438.88" y="326.22" transform="matrix(0.9959 -0.0905 0.0905 0.9959 -28.0007 41.1701)" class="st13" width="2.58" height="6.51"/>
	
		<rect x="444.11" y="325.75" transform="matrix(0.9959 -0.0905 0.0905 0.9959 -27.9363 41.6409)" class="st13" width="2.58" height="6.51"/>
	
		<rect x="449.33" y="325.27" transform="matrix(0.9959 -0.0905 0.0905 0.9959 -27.8719 42.1117)" class="st13" width="2.58" height="6.51"/>
	
		<rect x="454.56" y="320.7" transform="matrix(0.9959 -0.0905 0.0905 0.9959 -27.8076 42.5825)" class="st13" width="2.58" height="14.71"/>
	
		<rect x="459.78" y="321.37" transform="matrix(0.9959 -0.0905 0.0905 0.9959 -27.7432 43.0532)" class="st13" width="2.58" height="12.42"/>
	
		<rect x="465.01" y="319.46" transform="matrix(0.9959 -0.0905 0.0905 0.9959 -27.6788 43.524)" class="st13" width="2.58" height="15.29"/>
	<g>
		<path class="st13" d="M446.3,556.7c0.05,0.52,0.37,0.97,0.84,1.18c0.47,0.22,1.02,0.17,1.44-0.13c0.42-0.3,0.66-0.8,0.61-1.32
			c-0.07-0.8-0.78-1.38-1.57-1.31C446.82,555.2,446.23,555.9,446.3,556.7L446.3,556.7z M446.3,556.7"/>
		<path class="st13" d="M465.33,554.96c0.05,0.52,0.37,0.97,0.84,1.18c0.47,0.22,1.02,0.17,1.44-0.13c0.42-0.3,0.65-0.8,0.61-1.32
			c-0.05-0.52-0.37-0.97-0.84-1.18c-0.47-0.22-1.02-0.17-1.44,0.13C465.52,553.94,465.29,554.44,465.33,554.96L465.33,554.96z
			 M465.33,554.96"/>
		<path class="st13" d="M457.86,562.61c-0.8,0.07-1.39,0.78-1.32,1.58l0.28,3.03c0.07,0.8,0.78,1.39,1.58,1.32
			c0.8-0.07,1.39-0.78,1.32-1.58l-0.28-3.03C459.37,563.13,458.66,562.54,457.86,562.61L457.86,562.61z M457.86,562.61"/>
		<path class="st13" d="M454.36,568.54c0.07,0.8,0.78,1.39,1.58,1.32l5.17-0.47c0.8-0.07,1.39-0.78,1.32-1.58
			c-0.07-0.8-0.78-1.39-1.58-1.32l-5.17,0.47C454.88,567.03,454.29,567.74,454.36,568.54L454.36,568.54z M463.21,542.32
			c0-0.05-0.01-0.11-0.02-0.16l0.01,0c-0.43-3.86-3.88-6.69-7.77-6.34c-3.94,0.36-6.84,3.84-6.48,7.78l1,11.01
			c0,0.04,0.01,0.08,0.01,0.12c0.48,3.81,3.9,6.57,7.75,6.22c3.85-0.35,6.71-3.69,6.5-7.52c0-0.04,0-0.08-0.01-0.12L463.21,542.32z
			 M463.21,542.32"/>
		<path class="st13" d="M465.33,554.86c-0.33,3.9-3.42,7.12-7.46,7.49c-4.04,0.37-7.66-2.25-8.69-6.03l-2.86,0.52
			c1.3,5.25,6.26,8.91,11.81,8.4c5.55-0.5,9.78-5,10.11-10.4L465.33,554.86z M465.33,554.86"/>
	</g>
	<g>
		<path class="st54" d="M303.33,513.54c26.33,21.95,47.73,24.77,54.11,25.12c8.46-11.62,12.6-26.45,10.33-42
			c-4.28-29.26-31-50.74-60.49-48.7c-13.49,0.9-26.18,6.56-35.86,15.92C272.37,470.44,277.4,491.93,303.33,513.54z"/>
		<path class="st54" d="M252.1,532.44l-81.7,124.97c-3.42,5.22-2.39,12.16,2.38,16.17c4.77,4.01,11.79,3.82,16.34-0.44l112.02-104.7
			C274.97,560.52,258.66,541.51,252.1,532.44z"/>
		<path class="st54" d="M297.53,520.5c-22.06-18.39-30.37-36.77-33.5-47.88c-7.29,10.61-11.07,23.73-9.81,37.58
			c0.43,4.77,1.52,9.33,3.02,13.65c3.31,5.11,20.78,30.06,51.16,37.17c0.78,0.18,1.49,0.58,2.07,1.12c1.94,0.05,3.9,0.01,5.89-0.17
			c13.13-1.19,24.81-6.73,33.76-15.06C339.1,545.04,319.82,539.08,297.53,520.5z"/>
	</g>
	<g>
		<g>
			<g>
				<path class="st7" d="M898.1,579.61c-2.34,18.32-19.24,31.37-37.55,29.04l-198.86-25.4c-18.3-2.33-31.37-19.22-29.03-37.53
					L692.82,74.6c2.34-18.32,19.23-31.37,37.53-29.04l198.86,25.4c18.31,2.33,31.38,19.22,29.05,37.54L898.1,579.61z"/>
			</g>
			<g>
				<path class="st8" d="M667.48,578.79c-18.31-2.34-31.38-19.22-29.04-37.54l58.85-460.89c2.34-18.3,19.22-31.37,37.54-29.03
					l188.61,24.08c18.31,2.34,31.38,19.22,29.04,37.54l-58.84,460.88c-2.34,18.31-19.24,31.37-37.54,29.04L667.48,578.79z"/>
			</g>
			<g>
				<path class="st9" d="M794.01,87.09c-0.31,2.46-2.58,4.22-5.05,3.9c-2.47-0.31-4.22-2.58-3.91-5.05
					c0.31-2.48,2.58-4.23,5.05-3.91C792.57,82.34,794.33,84.61,794.01,87.09z"/>
				<path class="st9" d="M830.03,75.84c-0.2,1.6-1.65,2.72-3.24,2.52c-1.58-0.2-2.72-1.65-2.52-3.24c0.2-1.58,1.67-2.71,3.25-2.51
					C829.11,72.8,830.23,74.27,830.03,75.84z"/>
				<path class="st9" d="M842.93,92.89c-0.15,1.17-1.23,2.02-2.4,1.86l-30.73-3.93c-1.18-0.15-2-1.23-1.86-2.4l0,0
					c0.15-1.19,1.22-2.02,2.4-1.86l30.72,3.92C842.25,90.64,843.08,91.71,842.93,92.89L842.93,92.89z"/>
			</g>
			<polygon class="st7" points="691.18,125.67 691.18,125.67 684.93,124.87 684.93,124.87 687.55,104.39 687.55,104.39 
				693.79,105.19 693.79,105.19 			"/>
			<polygon class="st7" points="684.31,179.44 684.31,179.44 678.06,178.64 678.06,178.64 682.47,144.07 682.47,144.07 
				688.72,144.87 688.72,144.87 			"/>
			<polygon class="st7" points="679.08,220.4 679.08,220.4 672.84,219.61 672.84,219.61 677.05,186.64 677.05,186.64 683.28,187.43 
				683.28,187.43 			"/>
			<g>
				
					<rect x="586.94" y="208.57" transform="matrix(0.1266 -0.9919 0.9919 0.1266 371.2679 1073.7048)" class="st10" width="416.87" height="234.89"/>
			</g>
			<circle class="st7" cx="765.44" cy="558.67" r="15.38"/>
		</g>
		<polygon class="st14" points="688.3,236.55 670.45,369.99 869.92,125.66 787.81,114.68 		"/>
		<polygon class="st14" points="660.54,443.97 915.44,131.76 884.21,127.58 667.34,393.2 		"/>
		<g>
			
				<ellipse transform="matrix(0.1238 -0.9923 0.9923 0.1238 354.4027 986.45)" class="st15" cx="735.77" cy="292.55" rx="22.14" ry="22.14"/>
			<g>
				<g>
					<defs>
						
							<ellipse id="SVGID_29_" transform="matrix(0.1238 -0.9923 0.9923 0.1238 354.4027 986.45)" cx="735.77" cy="292.55" rx="22.14" ry="22.14"/>
					</defs>
					<clipPath id="SVGID_30_">
						<use xlink:href="#SVGID_29_"  style="overflow:visible;"/>
					</clipPath>
					<g class="st55">
						<path class="st17" d="M762.56,284.36l-12.18-9.71l-10.63,14.59c0,0-2.32,9.49-2.84,13.47c-0.51,3.98-0.75,7.51-0.75,7.51
							l1.26,10.11l3.4,2.67l16.57,2.97l5.19-41.61L762.56,284.36z"/>
						<path class="st18" d="M747.69,284.94l-0.68,5.46c1.51,0.19,2.89-0.88,3.08-2.4C750.28,286.51,749.21,285.13,747.69,284.94"/>
						<path class="st19" d="M747.56,286.03l-0.41,3.28c0.9,0.11,1.74-0.53,1.86-1.44C749.12,286.97,748.48,286.15,747.56,286.03"/>
						<path class="st18" d="M726.97,282.36l-0.68,5.46c-1.51-0.19-2.57-1.56-2.38-3.08C724.07,283.24,725.45,282.17,726.97,282.36"
							/>
						<path class="st19" d="M726.83,283.45l-0.41,3.28c-0.9-0.11-1.56-0.94-1.44-1.86C725.09,283.97,725.93,283.33,726.83,283.45"/>
						<path class="st20" d="M721.05,320.52l1.6-12.81c0.79-6.36,6.59-10.88,12.96-10.08c6.36,0.79,10.88,6.59,10.08,12.96
							l-1.6,12.81L721.05,320.52z"/>
						<path class="st21" d="M726.29,321.18l1.74-13.97c0.05-0.37-0.22-0.72-0.6-0.77c-0.37-0.05-0.72,0.22-0.77,0.6l-1.74,13.97
							L726.29,321.18z"/>
						<path class="st21" d="M740.81,322.99l1.74-13.97c0.05-0.37-0.22-0.72-0.6-0.77c-0.37-0.05-0.72,0.22-0.77,0.6l-1.74,13.97
							L740.81,322.99z"/>
						<path class="st22" d="M732.2,294.4l-0.48,3.88c-0.26,2.06,1.2,3.95,3.28,4.21c2.06,0.26,3.95-1.2,4.21-3.28l0.48-3.88
							L732.2,294.4z"/>
						<path class="st18" d="M727.67,276.05l-1.35,10.84c-0.72,5.79,3.37,11.05,9.16,11.77c5.79,0.72,11.05-3.37,11.77-9.16
							l1.47-11.79L727.67,276.05z"/>
						<path class="st23" d="M735.01,288.65l3.28,0.41c0.11-0.9-0.53-1.74-1.44-1.86C735.95,287.09,735.13,287.73,735.01,288.65"/>
						<path class="st13" d="M741.34,290.87l-9.65-1.2c-0.33,2.65,1.56,5.09,4.22,5.42C738.58,295.42,741.01,293.53,741.34,290.87"/>
						<path class="st24" d="M735.17,286.16c-0.41-0.05-0.71-0.43-0.66-0.84c0.15-1.24-0.72-2.37-1.97-2.53
							c-1.24-0.15-2.37,0.72-2.53,1.97c-0.05,0.41-0.43,0.71-0.84,0.66c-0.41-0.05-0.71-0.43-0.66-0.84
							c0.26-2.06,2.13-3.52,4.19-3.26c2.06,0.26,3.52,2.13,3.26,4.19C735.96,285.92,735.58,286.21,735.17,286.16"/>
						<path class="st24" d="M744.82,287.37c-0.41-0.05-0.71-0.43-0.66-0.84c0.15-1.24-0.72-2.37-1.97-2.53
							c-1.24-0.15-2.37,0.72-2.53,1.97c-0.05,0.41-0.43,0.71-0.84,0.66c-0.41-0.05-0.71-0.43-0.66-0.84
							c0.26-2.06,2.13-3.52,4.19-3.26s3.52,2.13,3.26,4.19C745.59,287.12,745.23,287.42,744.82,287.37"/>
						<polygon class="st25" points="748.69,278.24 747.45,287.7 746.38,278.33 						"/>
						<path class="st24" d="M726.52,285.91l2.16-6.89c0,0,7.66,3.13,15.35,1.91l-0.89-0.91c0,0,3.11,1.37,5.17-0.05l-1.73-0.8
							c0,0,4.36-0.44,3.78-4.54l-1.4,0.1c0,0-2.89-5.13-10.17-6.04c-6.18-0.77-11.92,2.75-12.19,7.22L726.52,285.91z"/>
						<g class="st26">
							<g>
								<g>
									<defs>
										
											<rect id="SVGID_31_" x="727.36" y="289.06" transform="matrix(0.1238 -0.9923 0.9923 0.1238 349.8441 982.2917)" width="7.56" height="7.97"/>
									</defs>
									<clipPath id="SVGID_32_">
										<use xlink:href="#SVGID_31_"  style="overflow:visible;"/>
									</clipPath>
									<path class="st56" d="M733.95,297.21c-0.05-0.01-0.1-0.01-0.15-0.04c-5.61-2.03-6.21-7.32-6.23-7.53
										c-0.04-0.37,0.23-0.71,0.61-0.75c0.37-0.04,0.71,0.23,0.75,0.61c0.03,0.19,0.56,4.67,5.34,6.4
										c0.35,0.13,0.54,0.52,0.41,0.88C734.57,297.08,734.25,297.25,733.95,297.21"/>
								</g>
							</g>
						</g>
						<g class="st28">
							<g>
								<g>
									<defs>
										
											<rect id="SVGID_33_" x="722.97" y="301.91" transform="matrix(0.1238 -0.9923 0.9923 0.1238 335.1925 988.5742)" width="8.8" height="5.14"/>
									</defs>
									<clipPath id="SVGID_34_">
										<use xlink:href="#SVGID_33_"  style="overflow:visible;"/>
									</clipPath>
									<path class="st57" d="M725.02,308.63c-0.02,0-0.03,0-0.05-0.01c-0.4-0.08-0.69-0.47-0.6-0.89
										c1.16-6.13,4.89-7.31,5.03-7.36c0.4-0.12,0.82,0.1,0.94,0.5c0.12,0.4-0.1,0.82-0.5,0.94c-0.14,0.05-3.02,1.04-4.01,6.21
										C725.77,308.41,725.41,308.68,725.02,308.63"/>
								</g>
							</g>
						</g>
					</g>
				</g>
			</g>
		</g>
		<path class="st53" d="M886.53,261.14L728.13,240.6c-10.35-1.34-17.65-10.82-16.31-21.17l4.85-37.38
			c1.34-10.35,10.82-17.65,21.17-16.31l158.41,20.54c10.35,1.34,17.65,10.82,16.31,21.17l-4.85,37.38
			C906.36,255.18,896.88,262.48,886.53,261.14z"/>
		<g>
			
				<ellipse transform="matrix(0.1238 -0.9923 0.9923 0.1238 283.7426 1034.2134)" class="st39" cx="727.49" cy="356.44" rx="22.14" ry="22.14"/>
			<g>
				<g>
					<defs>
						
							<ellipse id="SVGID_35_" transform="matrix(0.1238 -0.9923 0.9923 0.1238 283.7426 1034.2134)" cx="727.49" cy="356.44" rx="22.14" ry="22.14"/>
					</defs>
					<clipPath id="SVGID_36_">
						<use xlink:href="#SVGID_35_"  style="overflow:visible;"/>
					</clipPath>
					<g class="st58">
						<polygon class="st41" points="752.25,340 739.94,338.33 729.96,354.64 724.34,367.99 722.97,372.81 729.14,397.35 
							730.24,398.68 744.7,400.48 						"/>
						<path class="st18" d="M738.96,354.07l-0.8,6.42c1.77,0.22,3.38-1.03,3.6-2.82C742,355.92,740.73,354.29,738.96,354.07"/>
						<path class="st19" d="M738.81,355.35l-0.48,3.86c1.07,0.13,2.05-0.63,2.18-1.68C740.64,356.46,739.88,355.48,738.81,355.35"/>
						<path class="st18" d="M714.61,351.03l-0.8,6.42c-1.77-0.22-3.02-1.83-2.8-3.62C711.22,352.08,712.84,350.81,714.61,351.03"/>
						<path class="st19" d="M714.45,352.31l-0.48,3.86c-1.07-0.13-1.81-1.11-1.68-2.16C712.4,352.93,713.38,352.17,714.45,352.31"/>
						<path class="st38" d="M707.66,395.86l1.88-15.04c0.93-7.47,7.75-12.79,15.24-11.86c7.47,0.93,12.79,7.75,11.86,15.24
							l-1.88,15.04L707.66,395.86z"/>
						<path class="st42" d="M713.82,396.63l2.05-16.41c0.06-0.44-0.26-0.84-0.7-0.9c-0.44-0.06-0.84,0.26-0.9,0.7l-2.05,16.41
							L713.82,396.63z"/>
						<path class="st42" d="M730.87,398.75l2.05-16.41c0.06-0.44-0.26-0.84-0.7-0.9c-0.44-0.06-0.84,0.26-0.9,0.7l-2.05,16.41
							L730.87,398.75z"/>
						<path class="st43" d="M720.76,365.18l-0.57,4.54c-0.3,2.42,1.43,4.64,3.84,4.94c2.42,0.3,4.63-1.41,4.94-3.84l0.57-4.54
							L720.76,365.18z"/>
						<path class="st18" d="M715.43,343.63l-1.59,12.73c-0.85,6.79,3.96,12.97,10.75,13.82s12.97-3.96,13.82-10.75l1.73-13.85
							L715.43,343.63z"/>
						<path class="st23" d="M724.06,358.41l3.86,0.48c0.13-1.07-0.63-2.05-1.7-2.18C725.17,356.6,724.19,357.34,724.06,358.41"/>
						<path class="st24" d="M724.25,355.5c-0.48-0.06-0.82-0.5-0.76-0.98c0.18-1.45-0.85-2.78-2.31-2.97s-2.78,0.85-2.97,2.31
							c-0.06,0.48-0.5,0.82-0.98,0.76c-0.48-0.06-0.82-0.5-0.76-0.98c0.3-2.42,2.5-4.13,4.92-3.83c2.42,0.3,4.13,2.5,3.83,4.92
							C725.17,355.22,724.73,355.56,724.25,355.5"/>
						<path class="st24" d="M728.66,361.3c-0.39-0.05-0.77,0.23-0.82,0.64c-0.15,1.21-1.26,2.07-2.47,1.92
							c-1.21-0.15-2.07-1.26-1.92-2.47c0.05-0.39-0.23-0.77-0.64-0.82c-0.39-0.05-0.77,0.23-0.82,0.64
							c-0.25,2.01,1.18,3.85,3.19,4.1c2.01,0.25,3.85-1.18,4.1-3.19C729.35,361.72,729.07,361.35,728.66,361.3"/>
						<path class="st24" d="M735.57,356.91c-0.48-0.06-0.82-0.5-0.76-0.98c0.18-1.45-0.85-2.78-2.31-2.97
							c-1.45-0.18-2.78,0.85-2.97,2.31c-0.06,0.48-0.5,0.82-0.98,0.76s-0.82-0.5-0.76-0.98c0.3-2.42,2.5-4.13,4.92-3.83
							c2.42,0.3,4.13,2.5,3.83,4.92C736.48,356.63,736.06,356.97,735.57,356.91"/>
						<g class="st26">
							<g>
								<g>
									<defs>
										
											<rect id="SVGID_37_" x="715.07" y="358.9" transform="matrix(0.1238 -0.9923 0.9923 0.1238 269.6628 1032.5582)" width="8.88" height="9.36"/>
									</defs>
									<clipPath id="SVGID_38_">
										<use xlink:href="#SVGID_37_"  style="overflow:visible;"/>
									</clipPath>
									<path class="st59" d="M722.8,368.49c-0.05-0.01-0.12-0.01-0.17-0.04c-6.58-2.38-7.29-8.6-7.33-8.86
										c-0.05-0.44,0.28-0.83,0.71-0.88s0.83,0.28,0.88,0.71c0.02,0.23,0.66,5.49,6.27,7.52c0.41,0.16,0.63,0.61,0.48,1.03
										C723.53,368.32,723.18,368.54,722.8,368.49"/>
								</g>
							</g>
						</g>
						<g class="st28">
							<g>
								<g>
									<defs>
										
											<rect id="SVGID_39_" x="709.91" y="374" transform="matrix(0.1238 -0.9923 0.9923 0.1238 252.4355 1039.9402)" width="10.32" height="6.05"/>
									</defs>
									<clipPath id="SVGID_40_">
										<use xlink:href="#SVGID_39_"  style="overflow:visible;"/>
									</clipPath>
									<path class="st60" d="M712.32,381.89c-0.02,0-0.03,0-0.05-0.01c-0.47-0.09-0.8-0.55-0.7-1.04
										c1.38-7.19,5.74-8.58,5.92-8.65c0.47-0.15,0.95,0.12,1.1,0.59c0.13,0.47-0.12,0.95-0.59,1.1
										c-0.16,0.05-3.54,1.22-4.69,7.28C713.21,381.64,712.78,381.95,712.32,381.89"/>
								</g>
							</g>
						</g>
						<path class="st46" d="M714.86,342.42c-0.25,1.97,1.15,3.79,3.14,4.04c1.97,0.25,3.79-1.15,4.04-3.14
							c0.25-1.97-1.15-3.79-3.14-4.04C716.92,339.05,715.1,340.45,714.86,342.42"/>
						<path class="st46" d="M713.15,345.28c-0.19,1.55,0.89,2.95,2.44,3.14c1.55,0.19,2.95-0.89,3.14-2.44
							c0.19-1.55-0.89-2.95-2.44-3.14C714.76,342.65,713.34,343.75,713.15,345.28"/>
						<path class="st46" d="M713.54,348.98c-0.13,1.07,0.62,2.07,1.71,2.2c1.07,0.13,2.07-0.62,2.2-1.71
							c0.13-1.07-0.62-2.07-1.71-2.2C714.67,347.13,713.67,347.89,713.54,348.98"/>
						<path class="st46" d="M714.08,351.57c-0.08,0.61,0.36,1.17,0.97,1.24c0.61,0.08,1.17-0.36,1.24-0.97s-0.36-1.17-0.97-1.24
							C714.71,350.53,714.15,350.96,714.08,351.57"/>
						<path class="st46" d="M736.99,348.26c-0.19,1.55,0.89,2.95,2.44,3.14c1.55,0.19,2.95-0.89,3.14-2.44s-0.89-2.95-2.44-3.14
							C738.58,345.62,737.18,346.73,736.99,348.26"/>
						<path class="st46" d="M737.38,351.95c-0.13,1.07,0.62,2.07,1.71,2.2c1.07,0.13,2.07-0.62,2.2-1.71
							c0.13-1.07-0.62-2.07-1.71-2.2C738.49,350.1,737.52,350.86,737.38,351.95"/>
						<path class="st46" d="M737.92,354.54c-0.08,0.61,0.36,1.17,0.97,1.24c0.61,0.08,1.17-0.36,1.24-0.97s-0.36-1.17-0.97-1.24
							C738.55,353.5,738,353.93,737.92,354.54"/>
						<path class="st46" d="M734.33,344.85c-0.25,1.97,1.15,3.79,3.14,4.04c1.97,0.25,3.79-1.15,4.04-3.14
							c0.25-1.97-1.15-3.79-3.14-4.04C736.37,341.47,734.57,342.87,734.33,344.85"/>
						<path class="st46" d="M720.9,341.48c-0.29,2.3,1.35,4.4,3.65,4.69c2.3,0.29,4.4-1.35,4.69-3.65s-1.35-4.4-3.65-4.69
							C723.28,337.54,721.19,339.17,720.9,341.48"/>
						<path class="st46" d="M716.9,337.92c-0.29,2.3,1.35,4.4,3.65,4.69c2.3,0.29,4.4-1.35,4.69-3.65c0.29-2.3-1.35-4.4-3.65-4.69
							C719.3,333.99,717.19,335.63,716.9,337.92"/>
						<path class="st46" d="M732.08,339.82c-0.29,2.3,1.35,4.4,3.65,4.69c2.3,0.29,4.4-1.35,4.69-3.65c0.29-2.3-1.35-4.4-3.65-4.69
							C734.48,335.88,732.37,337.52,732.08,339.82"/>
						<path class="st46" d="M723.59,337.93c-0.38,3.03,1.78,5.8,4.81,6.18c3.03,0.38,5.8-1.78,6.18-4.81
							c0.38-3.03-1.78-5.8-4.81-6.18C726.73,332.74,723.97,334.9,723.59,337.93"/>
						<path class="st46" d="M727.54,342.31c-0.29,2.3,1.35,4.4,3.65,4.69c2.3,0.29,4.4-1.35,4.69-3.65s-1.35-4.4-3.65-4.69
							C729.93,338.37,727.83,339.99,727.54,342.31"/>
					</g>
				</g>
			</g>
		</g>
		<g>
			
				<ellipse transform="matrix(0.1238 -0.9923 0.9923 0.1238 211.7748 1082.8606)" class="st33" cx="719.05" cy="421.51" rx="22.14" ry="22.14"/>
			<g>
				<g>
					<defs>
						
							<ellipse id="SVGID_41_" transform="matrix(0.1238 -0.9923 0.9923 0.1238 211.7748 1082.8606)" cx="719.05" cy="421.51" rx="22.14" ry="22.14"/>
					</defs>
					<clipPath id="SVGID_42_">
						<use xlink:href="#SVGID_41_"  style="overflow:visible;"/>
					</clipPath>
					<g class="st61">
						<path class="st48" d="M731.69,406.9l-16.34,49.64c0.41,0.62,0.87,8.97,0.87,8.97l5.06,2l15.2,1.9l6.06-48.55L731.69,406.9z"/>
						<path class="st18" d="M731.66,421.12l-0.83,6.69c1.85,0.23,3.54-1.08,3.77-2.93C734.81,423.03,733.5,421.35,731.66,421.12"/>
						<path class="st19" d="M731.5,422.44l-0.5,4.03c1.11,0.14,2.12-0.65,2.26-1.76C733.39,423.6,732.6,422.58,731.5,422.44"/>
						<path class="st18" d="M706.24,417.95l-0.83,6.69c-1.85-0.23-3.17-1.92-2.93-3.77C702.72,419.03,704.4,417.72,706.24,417.95"/>
						<path class="st19" d="M706.07,419.27l-0.5,4.03c-1.11-0.14-1.9-1.15-1.76-2.26C703.95,419.92,704.97,419.14,706.07,419.27"/>
						
							<rect x="700.02" y="418.58" transform="matrix(0.1238 -0.9923 0.9923 0.1238 199.2417 1090.7753)" class="st49" width="34.49" height="27.97"/>
						<path class="st20" d="M698.99,464.71l1.96-15.69c0.97-7.79,8.09-13.34,15.89-12.36c7.79,0.97,13.34,8.09,12.36,15.89
							l-1.96,15.69L698.99,464.71z"/>
						<path class="st21" d="M705.42,465.51l2.14-17.12c0.06-0.46-0.27-0.88-0.73-0.94c-0.46-0.06-0.88,0.27-0.94,0.73l-2.14,17.12
							L705.42,465.51z"/>
						<path class="st21" d="M723.21,467.73l2.14-17.12c0.06-0.46-0.27-0.88-0.73-0.94c-0.46-0.06-0.88,0.27-0.94,0.73l-2.14,17.12
							L723.21,467.73z"/>
						<path class="st22" d="M712.68,432.7l-0.59,4.75c-0.32,2.54,1.47,4.83,4.01,5.15c2.54,0.32,4.83-1.47,5.15-4.01l0.59-4.75
							L712.68,432.7z"/>
						<path class="st18" d="M707.1,410.22l-1.66,13.27c-0.88,7.08,4.13,13.55,11.23,14.43c7.08,0.88,13.53-4.14,14.41-11.23
							l1.8-14.45L707.1,410.22z"/>
						<path class="st23" d="M716.11,425.64l4.03,0.5c0.14-1.11-0.65-2.12-1.76-2.26C717.27,423.75,716.25,424.54,716.11,425.64"/>
						<path class="st35" d="M717.26,433.25c-3.01-0.38-5.16-3.13-4.78-6.14c0.07-0.54,0.57-0.93,1.11-0.86
							c0.54,0.07,0.93,0.57,0.86,1.11c-0.24,1.92,1.13,3.7,3.07,3.94c1.92,0.24,3.7-1.13,3.94-3.07c0.07-0.54,0.57-0.93,1.11-0.86
							c0.54,0.07,0.93,0.57,0.86,1.11C723.03,431.48,720.27,433.63,717.26,433.25"/>
						<path class="st24" d="M716.51,422.46c-0.48-0.06-0.8-0.5-0.74-0.96c0.18-1.43-0.83-2.73-2.26-2.91
							c-1.43-0.18-2.73,0.83-2.91,2.26c-0.06,0.48-0.48,0.8-0.96,0.74c-0.48-0.06-0.8-0.5-0.74-0.96c0.3-2.37,2.46-4.07,4.84-3.77
							c2.37,0.3,4.07,2.46,3.77,4.84C717.43,422.18,716.99,422.52,716.51,422.46"/>
						<path class="st24" d="M709.82,419.57C709.82,419.57,709.8,419.57,709.82,419.57c-1.27-0.23-1.56-1.2-1.55-1.68
							c0-0.17,0.16-0.31,0.33-0.3c0.16,0,0.31,0.16,0.31,0.31c-0.01,0.09,0.01,0.87,1.01,1.04c0.17,0.04,0.29,0.19,0.25,0.36
							C710.14,419.49,709.99,419.59,709.82,419.57"/>
						<path class="st24" d="M709.04,420.54c-0.88-0.11-1.3-0.77-1.39-1.16c-0.05-0.16,0.06-0.34,0.22-0.37
							c0.16-0.05,0.34,0.06,0.39,0.22c0.02,0.09,0.26,0.83,1.28,0.7c0.17-0.01,0.33,0.11,0.35,0.27c0.01,0.17-0.11,0.33-0.27,0.35
							C709.4,420.55,709.21,420.56,709.04,420.54"/>
						<path class="st24" d="M720.41,422.95c0.48,0.06,0.9-0.29,0.96-0.74c0.18-1.43,1.48-2.44,2.91-2.26
							c1.43,0.18,2.44,1.48,2.26,2.91c-0.06,0.48,0.27,0.9,0.74,0.96s0.9-0.29,0.96-0.74c0.3-2.37-1.39-4.55-3.77-4.84
							c-2.37-0.3-4.55,1.39-4.84,3.77C719.61,422.45,719.93,422.89,720.41,422.95"/>
						<path class="st24" d="M727.6,421.79C727.62,421.79,727.62,421.79,727.6,421.79c1.28,0.09,1.81-0.78,1.92-1.25
							c0.04-0.17-0.08-0.34-0.25-0.38c-0.15-0.04-0.34,0.08-0.37,0.23c-0.01,0.09-0.23,0.84-1.24,0.76c-0.17,0-0.33,0.11-0.33,0.29
							C727.33,421.63,727.45,421.77,727.6,421.79"/>
						<path class="st24" d="M728.12,422.92c0.88,0.11,1.45-0.42,1.65-0.78c0.09-0.14,0.03-0.34-0.12-0.41
							c-0.14-0.09-0.34-0.03-0.43,0.12c-0.04,0.08-0.46,0.74-1.41,0.36c-0.17-0.06-0.35,0.03-0.4,0.17
							c-0.06,0.17,0.03,0.35,0.17,0.4C727.78,422.85,727.95,422.9,728.12,422.92"/>
						<g class="st26">
							<g>
								<g>
									<defs>
										
											<rect id="SVGID_43_" x="706.72" y="426.15" transform="matrix(0.1238 -0.9923 0.9923 0.1238 195.5902 1083.5779)" width="9.28" height="9.78"/>
									</defs>
									<clipPath id="SVGID_44_">
										<use xlink:href="#SVGID_43_"  style="overflow:visible;"/>
									</clipPath>
									<path class="st62" d="M714.81,436.14c-0.07-0.01-0.12-0.01-0.18-0.04c-6.88-2.48-7.61-8.97-7.64-9.25
										c-0.05-0.46,0.28-0.86,0.75-0.93c0.46-0.05,0.86,0.28,0.93,0.75c0.02,0.23,0.69,5.72,6.54,7.83
										c0.43,0.16,0.66,0.64,0.51,1.07C715.55,435.98,715.18,436.19,714.81,436.14"/>
								</g>
							</g>
						</g>
						<g class="st28">
							<g>
								<g>
									<defs>
										
											<rect id="SVGID_45_" x="701.34" y="441.9" transform="matrix(0.1238 -0.9923 0.9923 0.1238 177.6201 1091.261)" width="10.77" height="6.31"/>
									</defs>
									<clipPath id="SVGID_46_">
										<use xlink:href="#SVGID_45_"  style="overflow:visible;"/>
									</clipPath>
									<path class="st63" d="M703.85,450.12c-0.02,0-0.03,0-0.07-0.01c-0.51-0.1-0.83-0.59-0.73-1.08
										c1.44-7.51,5.97-8.95,6.17-9.01c0.48-0.15,1,0.13,1.15,0.61c0.15,0.48-0.13,1-0.61,1.15c-0.16,0.05-3.68,1.27-4.91,7.6
										C704.78,449.86,704.33,450.18,703.85,450.12"/>
								</g>
							</g>
						</g>
						<path class="st49" d="M724.71,413.68c0,0-5.08,6.68-19.72,5.53l0.98-9.11c0,0,1.48-10.06,14.72-8.41
							c13.22,1.65,13.18,10.7,13.18,10.7l-0.86,6.91C733.01,419.3,725.73,418.7,724.71,413.68"/>
					</g>
				</g>
			</g>
		</g>
		<g>
			<path class="st54" d="M898.85,239.36l-44.76-5.8c-9.08-1.18-15.48-9.49-14.3-18.56v0c1.18-9.08,9.49-15.48,18.56-14.3l44.76,5.8
				c9.08,1.18,15.48,9.49,14.3,18.56v0C916.24,234.13,907.93,240.54,898.85,239.36z"/>
			
				<rect x="845.85" y="212.72" transform="matrix(0.9917 0.1286 -0.1286 0.9917 34.747 -107.1181)" class="st13" width="2.24" height="5.65"/>
			
				<rect x="850.37" y="213.31" transform="matrix(0.9917 0.1286 -0.1286 0.9917 34.8598 -107.694)" class="st13" width="2.24" height="5.65"/>
			
				<rect x="854.88" y="208.03" transform="matrix(0.9917 0.1286 -0.1286 0.9917 34.9726 -108.2698)" class="st13" width="2.24" height="17.36"/>
			
				<rect x="859.4" y="212.15" transform="matrix(0.9917 0.1286 -0.1286 0.9917 35.0854 -108.8456)" class="st13" width="2.24" height="10.3"/>
			
				<rect x="863.92" y="209.21" transform="matrix(0.9917 0.1286 -0.1286 0.9917 35.1981 -109.4215)" class="st13" width="2.24" height="17.36"/>
			
				<rect x="868.43" y="213.32" transform="matrix(0.9917 0.1286 -0.1286 0.9917 35.3109 -109.9973)" class="st13" width="2.24" height="10.3"/>
			
				<rect x="872.95" y="215.24" transform="matrix(0.9917 0.1286 -0.1286 0.9917 35.4237 -110.5731)" class="st13" width="2.24" height="7.65"/>
			
				<rect x="877.46" y="213.82" transform="matrix(0.9917 0.1286 -0.1286 0.9917 35.5365 -111.149)" class="st13" width="2.24" height="11.65"/>
			
				<rect x="881.98" y="217.41" transform="matrix(0.9917 0.1286 -0.1286 0.9917 35.6493 -111.7248)" class="st13" width="2.24" height="5.65"/>
			
				<rect x="886.5" y="217.99" transform="matrix(0.9917 0.1286 -0.1286 0.9917 35.7621 -112.3006)" class="st13" width="2.24" height="5.65"/>
			
				<rect x="891.01" y="218.58" transform="matrix(0.9917 0.1286 -0.1286 0.9917 35.8748 -112.8764)" class="st13" width="2.24" height="5.65"/>
			
				<rect x="895.53" y="215.6" transform="matrix(0.9917 0.1286 -0.1286 0.9917 35.9876 -113.4523)" class="st13" width="2.24" height="12.77"/>
			
				<rect x="900.04" y="217.18" transform="matrix(0.9917 0.1286 -0.1286 0.9917 36.1004 -114.0281)" class="st13" width="2.24" height="10.78"/>
			
				<rect x="904.56" y="216.52" transform="matrix(0.9917 0.1286 -0.1286 0.9917 36.2132 -114.604)" class="st13" width="2.24" height="13.27"/>
		</g>
		<g>
			<circle class="st52" cx="776.32" cy="496.63" r="24.04"/>
			<circle class="st52" cx="713.3" cy="488.46" r="9.85"/>
			<g>
				<path class="st13" d="M766.34,499.3c-0.06,0.45,0.13,0.89,0.48,1.16c0.36,0.27,0.83,0.33,1.25,0.16c0.41-0.17,0.71-0.55,0.76-1
					c0.09-0.69-0.4-1.32-1.09-1.41C767.06,498.12,766.43,498.61,766.34,499.3L766.34,499.3z M766.34,499.3"/>
				<path class="st13" d="M782.79,501.42c-0.06,0.45,0.13,0.89,0.48,1.16c0.36,0.27,0.83,0.33,1.25,0.16c0.41-0.17,0.71-0.55,0.76-1
					c0.06-0.45-0.13-0.89-0.48-1.16c-0.36-0.27-0.83-0.33-1.25-0.16C783.14,500.59,782.85,500.97,782.79,501.42L782.79,501.42z
					 M782.79,501.42"/>
				<path class="st13" d="M775.02,506.49c-0.69-0.09-1.32,0.4-1.41,1.09l-0.34,2.62c-0.09,0.69,0.4,1.32,1.09,1.41
					c0.69,0.09,1.32-0.4,1.41-1.09l0.34-2.62C776.19,507.21,775.71,506.58,775.02,506.49L775.02,506.49z M775.02,506.49"/>
				<path class="st13" d="M770.93,510.85c-0.09,0.69,0.4,1.32,1.09,1.41l4.47,0.58c0.69,0.09,1.32-0.4,1.41-1.09
					c0.09-0.69-0.4-1.32-1.09-1.41l-4.47-0.58C771.66,509.67,771.02,510.16,770.93,510.85L770.93,510.85z M783.38,490.32
					c0.01-0.05,0.01-0.09,0.01-0.14l0.01,0c0.36-3.35-2.02-6.4-5.38-6.83c-3.4-0.44-6.52,1.96-6.96,5.36l-1.23,9.51
					c0,0.03-0.01,0.07-0.01,0.1c-0.31,3.31,2.06,6.3,5.39,6.74c3.33,0.43,6.38-1.85,6.93-5.14c0.01-0.03,0.01-0.07,0.02-0.1
					L783.38,490.32z M783.38,490.32"/>
				<path class="st13" d="M782.8,501.34c-1.02,3.24-4.25,5.39-7.73,4.94c-3.49-0.45-6.06-3.35-6.22-6.75l-2.52-0.1
					c0.11,4.69,3.62,8.73,8.42,9.35c4.8,0.62,9.23-2.39,10.53-6.9L782.8,501.34z M782.8,501.34"/>
			</g>
			<g>
				<circle class="st13" cx="708.72" cy="483.87" r="1.44"/>
				<path class="st13" d="M719.12,486.34l-6.68-0.87c-0.58-0.08-1-0.61-0.92-1.2l0,0c0.08-0.58,0.61-1,1.2-0.92l6.68,0.87
					c0.58,0.08,1,0.61,0.92,1.2l0,0C720.24,486,719.71,486.42,719.12,486.34z"/>
				<circle class="st13" cx="708.21" cy="487.8" r="1.44"/>
				<path class="st13" d="M718.61,490.26l-6.68-0.87c-0.58-0.08-1-0.61-0.92-1.2l0,0c0.08-0.58,0.61-1,1.2-0.92l6.68,0.87
					c0.58,0.08,1,0.61,0.92,1.2l0,0C719.73,489.93,719.2,490.34,718.61,490.26z"/>
				<circle class="st13" cx="707.7" cy="491.72" r="1.44"/>
				<path class="st13" d="M718.1,494.19l-6.68-0.87c-0.58-0.08-1-0.61-0.92-1.2l0,0c0.08-0.58,0.61-1,1.2-0.92l6.68,0.87
					c0.58,0.08,1,0.61,0.92,1.2l0,0C719.22,493.85,718.69,494.26,718.1,494.19z"/>
			</g>
			<circle class="st52" cx="848.02" cy="505.92" r="9.85"/>
			<g>
				<path class="st13" d="M852.99,503.7l-9.17-1.19c-0.58-0.08-1-0.61-0.92-1.2l0,0c0.08-0.58,0.61-1,1.2-0.92l9.17,1.19
					c0.58,0.08,1,0.61,0.92,1.2l0,0C854.11,503.36,853.58,503.77,852.99,503.7z"/>
				<path class="st13" d="M849.99,507.3l-6.68-0.87c-0.58-0.08-1-0.61-0.92-1.2l0,0c0.08-0.58,0.61-1,1.2-0.92l6.68,0.87
					c0.58,0.08,1,0.61,0.92,1.2l0,0C851.11,506.96,850.58,507.37,849.99,507.3z"/>
				<path class="st64" d="M855.04,508.78c-0.21,1.62-1.69,2.76-3.31,2.55c-0.75-0.1-1.4-0.47-1.86-1c-0.53-0.61-0.81-1.44-0.7-2.31
					c0.21-1.62,1.69-2.76,3.31-2.55C854.1,505.68,855.24,507.16,855.04,508.78z"/>
				<line class="st65" x1="847.23" y1="512.23" x2="849.87" y2="510.33"/>
			</g>
		</g>
		<g>
			
				<ellipse transform="matrix(0.1238 -0.9923 0.9923 0.1238 451.217 921.0074)" class="st20" cx="747.12" cy="205.01" rx="22.14" ry="22.14"/>
			<g>
				<g>
					<defs>
						
							<ellipse id="SVGID_47_" transform="matrix(0.1238 -0.9923 0.9923 0.1238 451.217 921.0074)" cx="747.12" cy="205.01" rx="22.14" ry="22.14"/>
					</defs>
					<clipPath id="SVGID_48_">
						<use xlink:href="#SVGID_47_"  style="overflow:visible;"/>
					</clipPath>
					<g class="st66">
						<polygon class="st31" points="769.78,202.25 760.86,190.77 746.38,201.82 744.21,244.29 746.9,248.25 747.98,249.55 
							763.63,251.5 						"/>
						<path class="st18" d="M758.98,204.83l-0.81,6.47c1.79,0.22,3.41-1.04,3.64-2.83C762.04,206.68,760.77,205.05,758.98,204.83"/>
						<path class="st19" d="M758.82,206.12l-0.49,3.9c1.07,0.13,2.07-0.62,2.2-1.7C760.65,207.23,759.89,206.25,758.82,206.12"/>
						
							<rect x="737.74" y="200.96" transform="matrix(0.1238 -0.9923 0.9923 0.1238 439.4207 927.2639)" class="st32" width="14.05" height="27.7"/>
						<path class="st33" d="M727.39,246.98l1.89-15.18c0.94-7.54,7.81-12.9,15.35-11.96c7.54,0.94,12.9,7.81,11.96,15.37
							l-1.89,15.18L727.39,246.98z"/>
						<path class="st34" d="M733.62,247.75l2.07-16.56c0.06-0.44-0.26-0.84-0.7-0.9c-0.44-0.06-0.84,0.26-0.9,0.7l-2.07,16.56
							L733.62,247.75z"/>
						<path class="st34" d="M750.8,249.9l2.07-16.56c0.06-0.44-0.26-0.84-0.7-0.9c-0.44-0.06-0.84,0.26-0.9,0.7l-2.07,16.56
							L750.8,249.9z"/>
						<path class="st22" d="M740.63,216.02l-0.57,4.59c-0.31,2.45,1.42,4.67,3.87,4.98c2.45,0.31,4.67-1.42,4.98-3.87l0.57-4.59
							L740.63,216.02z"/>
						<path class="st18" d="M735.24,194.29l-1.6,12.85c-0.85,6.84,4,13.08,10.84,13.93c6.84,0.85,13.08-4,13.93-10.84l1.74-13.97
							L735.24,194.29z"/>
						<path class="st23" d="M743.95,209.21l3.9,0.49c0.13-1.07-0.63-2.05-1.7-2.18C745.06,207.38,744.09,208.14,743.95,209.21"/>
						<path class="st35" d="M745.06,216.57c-2.91-0.36-4.98-3.02-4.62-5.93c0.07-0.53,0.54-0.9,1.07-0.83
							c0.53,0.07,0.9,0.54,0.83,1.07c-0.23,1.87,1.09,3.58,2.96,3.81c1.87,0.23,3.58-1.09,3.81-2.96c0.07-0.53,0.54-0.9,1.07-0.83
							c0.53,0.07,0.9,0.54,0.83,1.07C750.63,214.86,747.97,216.93,745.06,216.57"/>
						<path class="st24" d="M744.13,206.26c-0.49-0.06-0.84-0.5-0.77-1c0.18-1.46-0.86-2.8-2.32-2.99c-1.46-0.18-2.8,0.86-2.99,2.32
							c-0.06,0.49-0.5,0.84-1,0.77c-0.49-0.06-0.84-0.5-0.77-1c0.3-2.43,2.52-4.16,4.97-3.86c2.43,0.3,4.18,2.53,3.87,4.96
							C745.07,205.98,744.63,206.32,744.13,206.26"/>
						<path class="st24" d="M737.26,203.31l-0.02,0c-1.28-0.23-1.59-1.24-1.56-1.73c0-0.17,0.16-0.31,0.33-0.3
							c0.16,0,0.31,0.16,0.3,0.33c0.01,0.09,0.01,0.88,1.04,1.08c0.17,0.04,0.29,0.19,0.26,0.38
							C737.58,203.21,737.41,203.33,737.26,203.31"/>
						<path class="st24" d="M736.46,204.3c-0.9-0.11-1.34-0.79-1.44-1.2c-0.05-0.18,0.06-0.34,0.22-0.39
							c0.18-0.05,0.34,0.06,0.39,0.22c0.02,0.09,0.27,0.85,1.31,0.72c0.18-0.03,0.33,0.11,0.36,0.29c0.01,0.17-0.11,0.33-0.29,0.36
							C736.82,204.31,736.63,204.32,736.46,204.3"/>
						<path class="st24" d="M755.72,205.61l0.02,0c1.3,0.09,1.85-0.81,1.94-1.3c0.04-0.17-0.08-0.34-0.25-0.38
							c-0.15-0.04-0.34,0.08-0.38,0.25c-0.01,0.09-0.23,0.85-1.27,0.79c-0.17,0-0.33,0.11-0.35,0.3
							C755.43,205.44,755.55,205.59,755.72,205.61"/>
						<path class="st24" d="M756.25,206.77c0.9,0.11,1.49-0.44,1.69-0.81c0.09-0.16,0.03-0.34-0.12-0.43
							c-0.16-0.09-0.34-0.03-0.43,0.12c-0.04,0.08-0.47,0.75-1.45,0.37c-0.16-0.07-0.35,0.03-0.4,0.19
							c-0.07,0.16,0.03,0.35,0.19,0.42C755.9,206.69,756.08,206.75,756.25,206.77"/>
						<path class="st24" d="M755.55,207.68c-0.49-0.06-0.84-0.5-0.77-1c0.18-1.46-0.86-2.8-2.32-2.99c-1.46-0.18-2.8,0.86-2.99,2.32
							c-0.06,0.49-0.5,0.84-1,0.77c-0.49-0.06-0.84-0.5-0.77-1c0.3-2.43,2.52-4.16,4.96-3.86c2.43,0.3,4.16,2.52,3.86,4.96
							C756.48,207.4,756.04,207.74,755.55,207.68"/>
						<g class="st26">
							<g>
								<g>
									<defs>
										
											<rect id="SVGID_49_" x="734.87" y="209.71" transform="matrix(0.1238 -0.9923 0.9923 0.1238 435.0557 921.5577)" width="8.97" height="9.45"/>
									</defs>
									<clipPath id="SVGID_50_">
										<use xlink:href="#SVGID_49_"  style="overflow:visible;"/>
									</clipPath>
									<path class="st67" d="M742.69,219.37c-0.05-0.01-0.12-0.01-0.19-0.04c-6.65-2.4-7.35-8.66-7.39-8.94
										c-0.05-0.44,0.28-0.85,0.72-0.9c0.44-0.05,0.85,0.28,0.9,0.72c0.02,0.23,0.66,5.53,6.33,7.58
										c0.41,0.16,0.63,0.61,0.49,1.05C743.42,219.2,743.04,219.41,742.69,219.37"/>
								</g>
							</g>
						</g>
						<g class="st28">
							<g>
								<g>
									<defs>
										
											<rect id="SVGID_51_" x="729.68" y="224.92" transform="matrix(0.1238 -0.9923 0.9923 0.1238 417.7031 928.9976)" width="10.41" height="6.11"/>
									</defs>
									<clipPath id="SVGID_52_">
										<use xlink:href="#SVGID_51_"  style="overflow:visible;"/>
									</clipPath>
									<path class="st68" d="M732.1,232.87c-0.02,0-0.03,0-0.05-0.01c-0.49-0.1-0.79-0.57-0.72-1.04
										c1.39-7.26,5.78-8.66,5.96-8.71c0.47-0.15,0.97,0.12,1.12,0.61c0.15,0.47-0.12,0.97-0.59,1.12
										c-0.16,0.05-3.58,1.23-4.74,7.34C733,232.62,732.56,232.93,732.1,232.87"/>
								</g>
							</g>
						</g>
						<path class="st38" d="M753.15,198.1c0,0-1.33,4.05-8.19,2.88l1.78-1.68c0,0-3.54,1.34-8.68,0.06l0.91-1.08l-4.07-0.46
							l-2.8,22.46l-3.23-0.4l3.27-26.22c0,0,3.01-10.98,16.88-9.25c13.29,1.66,14.27,12.22,14.27,12.22l-3.38,27.13l-3.23-0.4
							l2.8-22.46C759.47,200.91,755.42,201.63,753.15,198.1"/>
					</g>
				</g>
			</g>
		</g>
		<path class="st69" d="M809.38,212.53l-27.53-3.57c-1.6-0.21-2.72-1.67-2.51-3.26v0c0.21-1.6,1.67-2.72,3.26-2.51l27.53,3.57
			c1.6,0.21,2.72,1.67,2.51,3.26l0,0C812.43,211.61,810.97,212.74,809.38,212.53z"/>
		<path class="st69" d="M821.58,226.66l-41.33-5.36c-1.6-0.21-2.72-1.67-2.51-3.26l0,0c0.21-1.6,1.67-2.72,3.26-2.51l41.33,5.36
			c1.6,0.21,2.72,1.67,2.51,3.26l0,0C824.63,225.74,823.17,226.86,821.58,226.66z"/>
		<path class="st69" d="M825.58,301.9l-54.86-7.11c-1.6-0.21-2.72-1.67-2.51-3.26l0,0c0.21-1.6,1.67-2.72,3.26-2.51l54.86,7.11
			c1.6,0.21,2.72,1.67,2.51,3.26l0,0C828.64,300.98,827.18,302.11,825.58,301.9z"/>
		<path class="st69" d="M858.21,318.67l-89.09-11.55c-1.6-0.21-2.72-1.67-2.51-3.26l0,0c0.21-1.6,1.67-2.72,3.26-2.51l89.09,11.55
			c1.6,0.21,2.72,1.67,2.51,3.26v0C861.27,317.76,859.81,318.88,858.21,318.67z"/>
		<path class="st69" d="M817.07,367.51l-54.86-7.11c-1.6-0.21-2.72-1.67-2.51-3.26v0c0.21-1.6,1.67-2.72,3.26-2.51l54.86,7.11
			c1.6,0.21,2.72,1.67,2.51,3.26l0,0C820.13,366.59,818.67,367.72,817.07,367.51z"/>
		<path class="st69" d="M849.7,384.29l-89.09-11.55c-1.6-0.21-2.72-1.67-2.51-3.26l0,0c0.21-1.6,1.67-2.72,3.26-2.51l89.09,11.55
			c1.6,0.21,2.72,1.67,2.51,3.26l0,0C852.76,383.37,851.3,384.49,849.7,384.29z"/>
		<path class="st69" d="M808.57,433.12l-54.86-7.11c-1.6-0.21-2.72-1.67-2.51-3.26l0,0c0.21-1.6,1.67-2.72,3.26-2.51l54.86,7.11
			c1.6,0.21,2.72,1.67,2.51,3.26l0,0C811.62,432.2,810.16,433.33,808.57,433.12z"/>
		<path class="st69" d="M841.2,449.9l-89.09-11.55c-1.6-0.21-2.72-1.67-2.51-3.26l0,0c0.21-1.6,1.67-2.72,3.26-2.51l89.09,11.55
			c1.6,0.21,2.72,1.67,2.51,3.26l0,0C844.25,448.98,842.79,450.1,841.2,449.9z"/>
	</g>
	<g>
		<g>
			<path class="st11" d="M612.53,203.87l-36.23-30.69L606,135.64l75.96-7.27l3.27,34.12l3.26,34.12L612.53,203.87z M607.49,162.91
				c-3.74,0.35-6.48,3.76-6.11,7.6s3.7,6.67,7.44,6.31c3.74-0.36,6.48-3.76,6.11-7.61C614.57,165.37,611.24,162.55,607.49,162.91z"
				/>
			<polygon class="st13" points="645.31,148.3 640.94,160.16 628.92,163.14 638.58,171.12 637.7,183.78 648.04,176.85 659.5,181.7 
				656.23,169.43 664.21,159.76 651.84,159.11 			"/>
		</g>
	</g>
	<path class="st70" d="M585.31,460.58c1.06,8.08,8.49,9.2,9.42,3.89c1.14-5.26,4.57-10.08,6.89-12.14c5.27-4.18,8.8-0.63,8.8-0.63
		s7.44,23.72,7.59,24.3c1.72,5.91,10.71,11.54,22.24,10.51c11.54-1.02,20.2-9.24,19.66-15.37c-0.55-6.12-10.1-11.98-21.53-10.16
		c-3.8,0.61-7.09,1.18-10.71,3.81c-2.85-9.8-9.96-26.23-12.39-34.92C581.97,443,585.31,460.58,585.31,460.58L585.31,460.58z
		 M585.31,460.58"/>
</g>
<g>
	<g>
		<polygon class="st71" points="719.47,564.26 719.47,591.74 907.6,700.26 907.6,672.78 		"/>
		<polygon class="st72" points="907.6,672.78 907.6,700.26 934.12,684.93 934.12,657.44 		"/>
	</g>
	<polygon class="st73" points="934.12,657.44 746,548.92 719.47,564.26 907.6,672.78 	"/>
	<g>
		<polygon class="st71" points="689.14,581.77 689.14,609.26 877.26,717.78 877.26,690.29 		"/>
		<polygon class="st72" points="877.26,690.29 877.26,717.78 903.79,702.44 903.79,674.96 		"/>
	</g>
	<polygon class="st73" points="903.79,674.96 715.66,566.44 689.14,581.77 877.26,690.29 	"/>
	<g>
		<polygon class="st71" points="658.8,599.28 658.8,626.77 846.93,735.29 846.93,707.8 		"/>
		<polygon class="st72" points="846.93,707.8 846.93,735.29 873.45,719.95 873.45,692.47 		"/>
	</g>
	<polygon class="st73" points="873.45,692.47 685.32,583.95 658.8,599.28 846.93,707.8 	"/>
	<polygon class="st74" points="846.43,628.7 827.45,639.68 708.03,570.8 727.01,559.9 	"/>
	<polygon class="st75" points="804.7,652.83 816.09,659.37 816.09,646.3 816.09,640.18 816.09,635.74 797.11,646.63 677.74,577.83 
		677.74,588.39 797.11,657.19 	"/>
	<polygon class="st76" points="846.43,618.14 827.45,629.12 708.03,560.24 727.01,549.34 	"/>
	<path class="st75" d="M835.03,635.32l11.4,6.54c0-9.55,0-14.08,0-23.71l-18.98,10.98l-119.41-68.88v10.56l119.41,68.88
		L835.03,635.32z"/>
	<polygon class="st76" points="814.94,635.74 795.96,646.63 676.59,577.83 695.53,566.86 	"/>
	<g>
		<polygon class="st71" points="628.47,616.8 628.47,644.28 816.59,752.89 816.59,725.4 		"/>
		<polygon class="st72" points="816.59,725.4 816.59,752.89 843.12,737.55 843.12,710.07 		"/>
	</g>
	<polygon class="st73" points="843.12,710.07 654.95,601.47 628.47,616.8 816.59,725.4 	"/>
	<g>
		<polygon class="st71" points="598.09,634.32 598.13,661.8 786.26,770.4 786.26,742.92 		"/>
		<polygon class="st72" points="786.26,742.92 786.26,770.4 812.78,755.07 812.78,727.58 		"/>
	</g>
	<polygon class="st73" points="812.78,727.58 624.61,619.06 598.09,634.32 786.26,742.92 	"/>
	<polygon class="st75" points="743.98,687.95 755.42,694.48 755.42,681.33 755.42,675.29 755.42,670.77 736.44,681.74 
		617.07,612.86 617.07,623.42 736.44,692.3 	"/>
	<polygon class="st76" points="755.42,670.77 736.44,681.74 617.07,612.86 636.01,601.88 	"/>
	<g>
		<polygon class="st71" points="567.76,651.91 567.76,679.4 755.92,787.92 755.92,760.43 		"/>
		<polygon class="st72" points="755.92,760.43 755.92,787.92 782.45,772.58 782.45,745.1 		"/>
	</g>
	<polygon class="st73" points="782.45,745.1 594.28,636.58 567.76,651.91 755.92,760.43 	"/>
	<g>
		<polygon class="st71" points="537.42,669.42 537.42,696.91 725.63,805.43 725.59,777.94 		"/>
		<polygon class="st72" points="725.59,777.94 725.63,805.43 752.11,790.09 752.11,762.61 		"/>
	</g>
	<polygon class="st73" points="752.11,762.61 563.94,654.09 537.42,669.42 725.59,777.94 	"/>
	<polygon class="st74" points="725.09,698.84 706.11,709.82 586.74,640.94 605.67,629.96 	"/>
	<polygon class="st75" points="683.35,722.97 694.75,729.51 694.75,716.35 694.75,710.32 694.75,705.79 675.77,716.77 556.4,647.89 
		556.4,658.45 675.77,727.33 	"/>
	<polygon class="st76" points="725.09,688.28 706.11,699.26 586.74,630.38 605.67,619.4 	"/>
	<path class="st75" d="M713.65,705.46l11.44,6.54c0-9.55,0-14.08,0-23.71l-18.98,10.98l-119.37-68.88v10.56l119.37,68.88
		L713.65,705.46z"/>
	<polygon class="st76" points="694.75,705.79 675.77,716.77 556.4,647.89 575.34,636.91 	"/>
</g>
</svg>
