<?xml version="1.0" encoding="utf-8"?>
<!-- Generator: Adobe Illustrator 24.0.0, SVG Export Plug-In . SVG Version: 6.00 Build 0)  -->
<svg version="1.1" id="图层_1" xmlns="http://www.w3.org/2000/svg" xmlns:xlink="http://www.w3.org/1999/xlink" x="0px" y="0px"
	 viewBox="0 0 460 460" style="enable-background:new 0 0 460 460;" xml:space="preserve">
<style type="text/css">
	.st0{fill:#FFF8E9;}
	.st1{fill:#ED9F4A;}
	.st2{fill:url(#SVGID_1_);}
	.st3{fill:#FFC878;}
	.st4{fill:#71E5CB;}
	.st5{fill:#39B499;}
	.st6{fill:#8AE6B9;}
	.st7{fill:#55CEB3;}
	.st8{fill:#FFD066;}
	.st9{fill:#D18942;}
	.st10{fill:url(#Path_14_);}
	.st11{fill:#143E81;}
	.st12{fill:#F7A959;}
	.st13{fill:#DCEEFD;}
	.st14{fill:#A9C2E8;}
	.st15{fill:url(#SVGID_2_);}
	.st16{fill:#DAE7FF;}
	.st17{fill:#8184F4;}
	.st18{fill:#A9ABFB;}
	.st19{fill:#5358FC;}
	.st20{fill:#E8ECFC;}
	.st21{fill:#6C7D96;}
	.st22{fill:url(#SVGID_3_);}
	.st23{fill:url(#SVGID_4_);}
	.st24{fill:url(#SVGID_5_);}
	.st25{fill:url(#SVGID_6_);}
	.st26{fill:#EEB819;}
	.st27{clip-path:url(#SVGID_8_);fill:#FFFFFF;}
	.st28{clip-path:url(#SVGID_10_);fill:#FFFFFF;}
	.st29{fill:#FFFFFF;}
	.st30{clip-path:url(#SVGID_12_);fill:#FFFFFF;}
	.st31{fill:#D7599B;}
	.st32{clip-path:url(#SVGID_14_);fill:#FFFFFF;}
	.st33{clip-path:url(#SVGID_16_);fill:#FFFFFF;}
	.st34{clip-path:url(#SVGID_18_);fill:#FFFFFF;}
	.st35{fill:#50C1EC;}
	.st36{clip-path:url(#SVGID_20_);fill:#FFFFFF;}
	.st37{clip-path:url(#SVGID_22_);fill:#FFFFFF;}
	.st38{fill:#52B459;}
	.st39{clip-path:url(#SVGID_24_);fill:#FFFFFF;}
	.st40{clip-path:url(#SVGID_26_);fill:#FFFFFF;}
	.st41{clip-path:url(#SVGID_28_);fill:#FFFFFF;}
	.st42{fill:url(#SVGID_29_);}
	.st43{fill:url(#SVGID_30_);}
	.st44{opacity:0.18;fill:#4C4E51;enable-background:new    ;}
	.st45{fill:#F41E42;}
	.st46{fill:#40A9FF;}
	.st47{fill:#BAE7FF;}
	.st48{fill:#096DD9;}
</style>
<g>
	<circle class="st0" cx="223.34" cy="236.46" r="209.54"/>
	<circle class="st1" cx="223.34" cy="236.46" r="181.72"/>
	
		<linearGradient id="SVGID_1_" gradientUnits="userSpaceOnUse" x1="223.34" y1="343.6489" x2="223.34" y2="-43.9147" gradientTransform="matrix(1 0 0 -1 0 461.2756)">
		<stop  offset="0" style="stop-color:#FFE66A;stop-opacity:0.2"/>
		<stop  offset="0.233" style="stop-color:#FFE366;stop-opacity:0.3864"/>
		<stop  offset="0.4444" style="stop-color:#FFDB5B;stop-opacity:0.5555"/>
		<stop  offset="0.6475" style="stop-color:#FFCC49;stop-opacity:0.718"/>
		<stop  offset="0.8442" style="stop-color:#FFB82F;stop-opacity:0.8754"/>
		<stop  offset="1" style="stop-color:#FFA415"/>
	</linearGradient>
	<circle class="st2" cx="223.34" cy="236.46" r="209.54"/>
	<g>
		<path class="st3" d="M402.08,183.05h-87.92c-3.41,0-6.18-2.77-6.18-6.18v-4.32c0-3.41,2.77-6.18,6.18-6.18h87.92
			c3.41,0,6.18,2.77,6.18,6.18v4.32C408.25,180.28,405.49,183.05,402.08,183.05z"/>
		<path class="st3" d="M433.6,215.32h-87.92c-3.41,0-6.18-2.77-6.18-6.18v-4.32c0-3.41,2.77-6.18,6.18-6.18h87.92
			c3.41,0,6.18,2.77,6.18,6.18v4.32C439.77,212.55,437.01,215.32,433.6,215.32z"/>
		<path class="st3" d="M379.26,190.85c0-4.31,3.49-7.8,7.8-7.8H361.3c4.31,0,7.8,3.49,7.8,7.8s-3.49,7.8-7.8,7.8h25.76
			C382.75,198.65,379.26,195.16,379.26,190.85z"/>
	</g>
	<g>
		<path class="st3" d="M121.34,119.13H60.01c-2.38,0-4.31-1.93-4.31-4.31v-3.01c0-2.38,1.93-4.31,4.31-4.31h61.33
			c2.38,0,4.31,1.93,4.31,4.31v3.01C125.65,117.2,123.72,119.13,121.34,119.13z"/>
		<path class="st3" d="M143.33,141.64H82c-2.38,0-4.31-1.93-4.31-4.31v-3.01c0-2.38,1.93-4.31,4.31-4.31h61.33
			c2.38,0,4.31,1.93,4.31,4.31v3.01C147.64,139.71,145.71,141.64,143.33,141.64z"/>
		<path class="st3" d="M105.42,124.57c0-3.01,2.44-5.44,5.44-5.44H92.9c3.01,0,5.44,2.44,5.44,5.44c0,3.01-2.44,5.44-5.44,5.44
			h17.97C107.86,130.01,105.42,127.58,105.42,124.57z"/>
	</g>
	<g>
		<g id="plant_6_" transform="translate(288.000000, 0.000000)">
			<path id="Path_1_" class="st4" d="M1.95,173.87c0,0,47.77-81.93,128.12-23.67l-21.89-4.64l6.52,5.93l-21.66,7.44l-16.23-10.9
				c0,0,8.96,10.44,13.19,13.73c-4.58,2.62-27.91,5.19-27.91,5.19l-2.72-12.32c0,0-0.75,10.57,1.09,15.21l-22.13,1.87l-3.16-8.04
				l-7.67,6.68L1.95,173.87z"/>
			<path id="Path_2_" class="st5" d="M3.21,177.01c0,0,21.07-92.77,115.56-60.3L96.18,123l-0.3,5.7l-16.54,12.07l-12.23-10.53
				c0,0,1.8,9.82,6.84,11.74c-3.59,3.86-15.24,10.76-15.24,10.76l-6.32-11.04c0,0-1.51,7.37,1.65,11.3L37.4,164.27l-5.44-6.81
				l2.86,8.51L3.21,177.01z"/>
			<path id="Path_3_" class="st6" d="M53.45,151.89c0,0-21.69-78.6-101.11-47.25l19.54,4.53l0.48,4.86l14.61,9.71L-3,114.26
				c0,0-1.15,8.47-5.38,10.3c3.22,3.17,13.44,8.63,13.44,8.63l4.96-9.69c0,0,1.59,6.25-0.96,9.73l14.67,9.03l4.38-6.03l-2.11,7.4
				L53.45,151.89z"/>
			<path id="Path_4_" class="st7" d="M3.21,177.01c0,0,19.4-117.03,95.46-89.34L81.31,102.1l-14.39-3.45l14.47,7.07l-9.28,11.75
				l-19.73-2.95l7.37,5.04l-8.21,15.89l-10.29-5.88c0,0,0.52,7.58,4.64,10.56l-13.05,15.4l-7.1-5.19l5.06,7.53L3.21,177.01z"/>
		</g>
		
			<g id="plant_10_" transform="translate(42.000000, 281.500000) scale(-1, 1) translate(-42.000000, -281.500000) translate(0.000000, 163.000000)">
			<path id="Path_5_" class="st8" d="M43.06,164.92c16.37-0.72,23.16-9.07,24.1-27.63c0.94-18.55-8.72-26.91-9.94-41.08
				C56,82.04,52.61,64.07,49.1,63.28s-5.34,8.28-9.48,13.88c-6.18,8.36-15.25,4.25-12.16,26.59c2.65,19.16-10.73,17.22-12.79,36.37
				C12.67,158.76,26.29,165.66,43.06,164.92z"/>
			<path id="Path_6_" class="st9" d="M32.07,212.07c-0.06-9.53,0.39-18.95,1.34-28.38c0.93-9.41,2.41-18.79,4.73-27.98
				c0.42-1.51,0.85-3,1.28-4.5c-4.03-9-5.58-18.94-4.67-28.58c-0.33,9,1.59,18.02,5.39,26.06c1.93-6.73,3.8-13.39,4.89-20.33
				c1.6-9.25,2.5-18.66,2.19-28.07c0.59,9.4-0.03,18.86-1.36,28.2c-0.19,1.49-0.47,2.97-0.72,4.46c2.36-1.52,4.49-3.67,6.22-6.01
				c1.97-2.78,3.51-5.89,4.57-9.18c-0.8,3.36-2.08,6.62-3.87,9.64c-1.87,2.97-4.11,5.72-7.28,7.75c-1.36,7.07-3.31,14.06-5,20.95
				c-3.97,18.3-4.9,37.23-4.34,55.86L32.07,212.07z"/>
		</g>
		<g id="窗口" transform="translate(109.000000, 54.000000)">
			<g id="Group">
				
					<linearGradient id="Path_14_" gradientUnits="userSpaceOnUse" x1="-380.5427" y1="-122.1441" x2="-380.5427" y2="-121.5161" gradientTransform="matrix(380.3937 0 0 336.1597 144867.0781 41172.5977)">
					<stop  offset="0" style="stop-color:#F0F1FF"/>
					<stop  offset="1" style="stop-color:#F3F9FF"/>
				</linearGradient>
				<path id="Path_7_" class="st10" d="M260.4,112.66v207.89c0,1.78-1.81,3.23-4.04,3.23H-34.27c-2.23,0-4.04-1.45-4.04-3.23V112.66
					H260.4z"/>
				<path id="Path_8_" class="st11" d="M260.4,99.41v13.25H-38.31V99.41c0-3.07,3.12-5.56,6.97-5.56h284.78
					C257.28,93.85,260.4,96.34,260.4,99.41z"/>
				<ellipse id="Oval" class="st12" cx="-16.91" cy="103.59" rx="4.41" ry="3.52"/>
				<ellipse id="Oval_1_" class="st7" cx="-1.22" cy="103.59" rx="4.41" ry="3.52"/>
				<rect id="Rectangle_11_" x="-38.31" y="112.66" class="st13" width="298.14" height="5.31"/>
			</g>
			<g id="Group_1_" transform="translate(27.000000, 63.000000)">
				<g id="Path_9_" transform="translate(176.026234, 148.800623)">
					<path class="st14" d="M1.77-6.72v66.15c0,3.56-2.9,6.44-6.47,6.44h-77.24c-3.57,0-6.47-2.88-6.47-6.44V-6.72
						c0-3.56,2.9-6.44,6.47-6.44H-4.7C-1.13-13.17,1.77-10.29,1.77-6.72z"/>
					
						<linearGradient id="SVGID_2_" gradientUnits="userSpaceOnUse" x1="-786.4794" y1="-122.4679" x2="-786.4794" y2="-121.84" gradientTransform="matrix(143.5853 0 0 125.853 112883.5547 15396.5635)">
						<stop  offset="0" style="stop-color:#F0F1FF"/>
						<stop  offset="1" style="stop-color:#F3F9FF"/>
					</linearGradient>
					<path class="st15" d="M1.77-9.95V56.2c0,3.56-2.9,6.44-6.47,6.44h-77.24c-3.57,0-6.47-2.88-6.47-6.44V-9.95
						c0-3.56,2.9-6.44,6.47-6.44H-4.7C-1.13-16.39,1.77-13.51,1.77-9.95z"/>
				</g>
				<path id="Shape" class="st16" d="M105.73,180.87h-6.47v-1.93h6.47V180.87z M92.79,180.87h-6.47v-1.93h6.47V180.87z
					 M79.85,180.87h-6.47v-1.93h6.47V180.87z M66.92,180.87h-6.47v-1.93h6.47V180.87z M53.98,180.87h-6.47v-1.93h6.47V180.87z
					 M41.04,180.87h-6.47v-1.93h6.47V180.87z M27.9,180.69c-2.48-0.56-4.48-2.32-5.35-4.7l1.82-0.66c0.63,1.74,2.15,3.07,3.95,3.47
					L27.9,180.69z M112.31,178.42l-1.44-1.3c0.91-1.01,1.41-2.31,1.41-3.67v-1.71h1.94v1.71
					C114.22,175.3,113.54,177.06,112.31,178.42z M24.05,169.26h-1.94v-6.44h1.94V169.26z M114.22,165.3h-1.94v-6.44h1.94V165.3z
					 M24.05,156.37h-1.94v-6.44h1.94V156.37z M114.22,152.41h-1.94v-6.44h1.94V152.41z M24.05,143.48h-1.94v-6.44h1.94V143.48z
					 M114.22,139.53h-1.94v-6.44h1.94V139.53z M24.05,130.6h-1.94v-6.44h1.94V130.6z M114.22,126.64h-1.94v-6.44h1.94V126.64z
					 M24.05,117.71h-1.94v-6.44h1.94V117.71z M114.22,113.75h-1.94v-6.44c0-1.28-0.45-2.53-1.28-3.51l1.49-1.24
					c1.11,1.33,1.73,3.02,1.73,4.75V113.75z M24.45,105.25l-1.8-0.73c0.96-2.35,3.02-4.03,5.52-4.5l0.36,1.9
					C26.71,102.26,25.15,103.53,24.45,105.25z M105.98,101.83h-6.47V99.9h6.47V101.83z M93.04,101.83h-6.47V99.9h6.47V101.83z
					 M80.1,101.83h-6.47V99.9h6.47V101.83z M67.16,101.83h-6.47V99.9h6.47V101.83z M54.22,101.83h-6.47V99.9h6.47V101.83z
					 M41.29,101.83h-6.47V99.9h6.47V101.83z"/>
			</g>
		</g>
		
			<g id="paperplane" transform="translate(548.000000, 277.000000) scale(-1, 1) translate(-548.000000, -277.000000) translate(510.000000, 256.000000)">
			<polygon id="Path_10_" class="st17" points="222.93,-18.55 211.07,-12.62 175.48,-28.43 			"/>
			<polygon id="Path_11_" class="st18" points="209.09,-2.74 211.07,-12.62 175.48,-28.43 			"/>
			<polygon id="Path_12_" class="st19" points="209.09,-2.74 205.14,-10.64 195.25,-12.62 			"/>
			<polygon id="Path_13_" class="st17" points="205.14,-10.64 195.25,-6.69 175.48,-28.43 			"/>
		</g>
		<g id="plant_3_" transform="translate(412.000000, 373.000000)">
			<path id="Path_30_" class="st9" d="M-44.8,7.81h-36.42c0,0-0.33,20.1,18.21,20.1S-44.8,7.81-44.8,7.81z"/>
			<ellipse id="Oval_2_" class="st20" cx="-63.01" cy="7.49" rx="18.21" ry="5.97"/>
			<path id="Path_31_" class="st7" d="M-63.08,9.69c0,0-14.03-22.42-8.82-41.45C-71.9-31.76-62.11-14.3-63.08,9.69z"/>
			<path id="Path_32_" class="st7" d="M-63.01,9.69c0,0,1.23-26.5,16.33-39.57C-46.69-29.87-48.57-9.87-63.01,9.69z"/>
			<path id="Path_33_" class="st5" d="M-62.62,12.83c0,0-5.86-25.55,4.47-42.08C-58.14-29.24-54.6-9.69-62.62,12.83z"/>
		</g>
		<rect x="71.26" y="169.31" class="st21" width="298.14" height="43.19"/>
		
			<linearGradient id="SVGID_3_" gradientUnits="userSpaceOnUse" x1="85.44" y1="270.2156" x2="143.74" y2="270.2156" gradientTransform="matrix(1 0 0 -1 0 461.2756)">
			<stop  offset="0" style="stop-color:#F0F1FF"/>
			<stop  offset="1" style="stop-color:#F3F9FF"/>
		</linearGradient>
		<rect x="85.44" y="171.97" class="st22" width="58.3" height="38.18"/>
		
			<linearGradient id="SVGID_4_" gradientUnits="userSpaceOnUse" x1="154.08" y1="270.2156" x2="212.38" y2="270.2156" gradientTransform="matrix(1 0 0 -1 0 461.2756)">
			<stop  offset="0" style="stop-color:#F0F1FF"/>
			<stop  offset="1" style="stop-color:#F3F9FF"/>
		</linearGradient>
		<rect x="154.08" y="171.97" class="st23" width="58.3" height="38.18"/>
		
			<linearGradient id="SVGID_5_" gradientUnits="userSpaceOnUse" x1="222.71" y1="270.2156" x2="281.01" y2="270.2156" gradientTransform="matrix(1 0 0 -1 0 461.2756)">
			<stop  offset="0" style="stop-color:#F0F1FF"/>
			<stop  offset="1" style="stop-color:#F3F9FF"/>
		</linearGradient>
		<rect x="222.71" y="171.97" class="st24" width="58.3" height="38.18"/>
		
			<linearGradient id="SVGID_6_" gradientUnits="userSpaceOnUse" x1="291.34" y1="270.2156" x2="349.64" y2="270.2156" gradientTransform="matrix(1 0 0 -1 0 461.2756)">
			<stop  offset="0" style="stop-color:#F0F1FF"/>
			<stop  offset="1" style="stop-color:#F3F9FF"/>
		</linearGradient>
		<rect x="291.34" y="171.97" class="st25" width="58.3" height="38.18"/>
		<g>
			<path class="st26" d="M107.04,182.62c0,4.17,3.38,7.55,7.55,7.55c4.17,0,7.55-3.38,7.55-7.55s-3.38-7.55-7.55-7.55
				C110.42,175.08,107.04,178.46,107.04,182.62"/>
			<g>
				<g>
					<defs>
						<rect id="SVGID_7_" x="108.08" y="176.97" width="4.1" height="6.37"/>
					</defs>
					<clipPath id="SVGID_8_">
						<use xlink:href="#SVGID_7_"  style="overflow:visible;"/>
					</clipPath>
					<path class="st27" d="M108.68,183.34c-0.33,0-0.59-0.27-0.59-0.59c0-2.34,1.19-4.47,3.19-5.69c0.28-0.17,0.65-0.08,0.82,0.2
						s0.08,0.65-0.2,0.82c-1.64,1-2.62,2.75-2.62,4.68C109.27,183.08,109.01,183.34,108.68,183.34"/>
				</g>
			</g>
			<g>
				<g>
					<defs>
						<rect id="SVGID_9_" x="112.51" y="176.08" width="2.84" height="1.42"/>
					</defs>
					<clipPath id="SVGID_10_">
						<use xlink:href="#SVGID_9_"  style="overflow:visible;"/>
					</clipPath>
					<path class="st28" d="M113.1,177.5c-0.26,0-0.5-0.17-0.57-0.43c-0.09-0.32,0.1-0.64,0.41-0.73c0.59-0.17,1.2-0.25,1.81-0.25
						c0.33,0,0.59,0.27,0.59,0.59c0,0.33-0.27,0.59-0.59,0.59c-0.51,0-1.01,0.07-1.49,0.2C113.21,177.49,113.16,177.5,113.1,177.5"
						/>
				</g>
			</g>
			<path class="st26" d="M114.59,189.64c-5.85,0-10.6,4.74-10.6,10.6v4h21.2v-4C125.19,194.38,120.45,189.64,114.59,189.64"/>
			<path class="st29" d="M111.25,184.27L111.25,184.27c0,1.85,1.5,3.34,3.34,3.34c1.85,0,3.34-1.5,3.34-3.34H111.25z"/>
			<path class="st26" d="M103.99,202.45v4.14c0,1.97,1.59,3.56,3.56,3.56h14.08c1.97,0,3.56-1.59,3.56-3.56v-4.14H103.99z"/>
			<g>
				<g>
					<defs>
						<rect id="SVGID_11_" x="106.05" y="196.94" width="2.03" height="10.8"/>
					</defs>
					<clipPath id="SVGID_12_">
						<use xlink:href="#SVGID_11_"  style="overflow:visible;"/>
					</clipPath>
					<path class="st30" d="M108.08,206.73c0,0.56-0.45,1.01-1.01,1.01c-0.56,0-1.01-0.45-1.01-1.01v-8.78
						c0-0.56,0.45-1.01,1.01-1.01c0.56,0,1.01,0.45,1.01,1.01V206.73z"/>
				</g>
			</g>
		</g>
		<g>
			<path class="st31" d="M312.95,182.62c0,4.17,3.38,7.55,7.55,7.55c4.17,0,7.55-3.38,7.55-7.55s-3.38-7.55-7.55-7.55
				C316.33,175.08,312.95,178.46,312.95,182.62"/>
			<g>
				<g>
					<defs>
						<rect id="SVGID_13_" x="313.99" y="176.97" width="4.1" height="6.37"/>
					</defs>
					<clipPath id="SVGID_14_">
						<use xlink:href="#SVGID_13_"  style="overflow:visible;"/>
					</clipPath>
					<path class="st32" d="M314.58,183.34c-0.33,0-0.6-0.27-0.6-0.59c0-2.34,1.19-4.47,3.19-5.69c0.28-0.17,0.65-0.08,0.82,0.2
						s0.08,0.65-0.2,0.82c-1.64,1-2.63,2.75-2.63,4.68C315.18,183.08,314.91,183.34,314.58,183.34"/>
				</g>
			</g>
			<g>
				<g>
					<defs>
						<rect id="SVGID_15_" x="318.41" y="176.08" width="2.84" height="1.42"/>
					</defs>
					<clipPath id="SVGID_16_">
						<use xlink:href="#SVGID_15_"  style="overflow:visible;"/>
					</clipPath>
					<path class="st33" d="M319.01,177.5c-0.26,0-0.5-0.17-0.57-0.43c-0.09-0.32,0.1-0.64,0.41-0.73c0.59-0.17,1.2-0.25,1.81-0.25
						c0.33,0,0.59,0.27,0.59,0.59c0,0.33-0.27,0.59-0.59,0.59c-0.51,0-1.01,0.07-1.49,0.2C319.11,177.49,319.06,177.5,319.01,177.5"
						/>
				</g>
			</g>
			<path class="st31" d="M320.5,189.64c-5.86,0-10.6,4.74-10.6,10.6v4h21.2v-4C331.1,194.38,326.35,189.64,320.5,189.64"/>
			<path class="st29" d="M317.15,184.27L317.15,184.27c0,1.85,1.5,3.34,3.35,3.34s3.34-1.5,3.34-3.34H317.15z"/>
			<path class="st31" d="M309.9,202.45v4.14c0,1.97,1.59,3.56,3.56,3.56h14.08c1.97,0,3.56-1.59,3.56-3.56v-4.14H309.9z"/>
			<g>
				<g>
					<defs>
						<rect id="SVGID_17_" x="311.96" y="196.94" width="2.03" height="10.8"/>
					</defs>
					<clipPath id="SVGID_18_">
						<use xlink:href="#SVGID_17_"  style="overflow:visible;"/>
					</clipPath>
					<path class="st34" d="M313.99,206.73c0,0.56-0.45,1.01-1.01,1.01s-1.01-0.45-1.01-1.01v-8.78c0-0.56,0.45-1.01,1.01-1.01
						s1.01,0.45,1.01,1.01V206.73z"/>
				</g>
			</g>
		</g>
		<g>
			<path class="st35" d="M175.68,182.62c0,4.17,3.38,7.55,7.55,7.55s7.55-3.38,7.55-7.55s-3.38-7.55-7.55-7.55
				C179.06,175.08,175.68,178.46,175.68,182.62"/>
			<g>
				<g>
					<defs>
						<rect id="SVGID_19_" x="176.72" y="176.97" width="4.1" height="6.37"/>
					</defs>
					<clipPath id="SVGID_20_">
						<use xlink:href="#SVGID_19_"  style="overflow:visible;"/>
					</clipPath>
					<path class="st36" d="M177.31,183.34c-0.33,0-0.6-0.27-0.6-0.59c0-2.34,1.19-4.47,3.19-5.69c0.28-0.17,0.65-0.08,0.82,0.2
						c0.17,0.28,0.08,0.65-0.2,0.82c-1.64,1-2.63,2.75-2.63,4.68C177.91,183.08,177.64,183.34,177.31,183.34"/>
				</g>
			</g>
			<path class="st35" d="M183.23,189.64c-5.86,0-10.6,4.74-10.6,10.6v4h21.2v-4C193.83,194.38,189.08,189.64,183.23,189.64"/>
			<path class="st29" d="M179.88,184.27L179.88,184.27c0,1.85,1.5,3.34,3.35,3.34s3.34-1.5,3.34-3.34H179.88z"/>
			<path class="st35" d="M172.63,202.45v4.14c0,1.97,1.59,3.56,3.56,3.56h14.08c1.97,0,3.56-1.59,3.56-3.56v-4.14H172.63z"/>
			<g>
				<g>
					<defs>
						<rect id="SVGID_21_" x="174.69" y="196.94" width="2.03" height="10.8"/>
					</defs>
					<clipPath id="SVGID_22_">
						<use xlink:href="#SVGID_21_"  style="overflow:visible;"/>
					</clipPath>
					<path class="st37" d="M176.72,206.73c0,0.56-0.45,1.01-1.01,1.01s-1.01-0.45-1.01-1.01v-8.78c0-0.56,0.45-1.01,1.01-1.01
						s1.01,0.45,1.01,1.01V206.73z"/>
				</g>
			</g>
		</g>
		<g>
			<path class="st38" d="M244.31,182.62c0,4.17,3.38,7.55,7.55,7.55s7.55-3.38,7.55-7.55s-3.38-7.55-7.55-7.55
				C247.69,175.08,244.31,178.46,244.31,182.62"/>
			<g>
				<g>
					<defs>
						<rect id="SVGID_23_" x="245.35" y="176.97" width="4.1" height="6.37"/>
					</defs>
					<clipPath id="SVGID_24_">
						<use xlink:href="#SVGID_23_"  style="overflow:visible;"/>
					</clipPath>
					<path class="st39" d="M245.95,183.34c-0.33,0-0.59-0.27-0.59-0.59c0-2.34,1.19-4.47,3.19-5.69c0.28-0.17,0.65-0.08,0.82,0.2
						c0.17,0.28,0.08,0.65-0.2,0.82c-1.64,1-2.62,2.75-2.62,4.68C246.54,183.08,246.27,183.34,245.95,183.34"/>
				</g>
			</g>
			<g>
				<g>
					<defs>
						<rect id="SVGID_25_" x="249.78" y="176.08" width="2.84" height="1.42"/>
					</defs>
					<clipPath id="SVGID_26_">
						<use xlink:href="#SVGID_25_"  style="overflow:visible;"/>
					</clipPath>
					<path class="st40" d="M250.37,177.5c-0.26,0-0.5-0.17-0.57-0.43c-0.09-0.32,0.1-0.65,0.41-0.73c0.59-0.17,1.2-0.25,1.81-0.25
						c0.33,0,0.59,0.27,0.59,0.59c0,0.33-0.27,0.59-0.59,0.59c-0.51,0-1.01,0.07-1.49,0.2C250.48,177.49,250.42,177.5,250.37,177.5"
						/>
				</g>
			</g>
			<path class="st38" d="M251.86,189.64c-5.85,0-10.6,4.74-10.6,10.59v4h21.2v-4C262.46,194.38,257.72,189.64,251.86,189.64"/>
			<path class="st29" d="M248.52,184.27L248.52,184.27c0,1.85,1.5,3.34,3.34,3.34c1.85,0,3.34-1.5,3.34-3.34H248.52z"/>
			<path class="st38" d="M241.26,202.45v4.14c0,1.97,1.59,3.56,3.56,3.56h14.08c1.97,0,3.56-1.59,3.56-3.56v-4.14H241.26z"/>
			<g>
				<g>
					<defs>
						<rect id="SVGID_27_" x="243.32" y="196.94" width="2.03" height="10.8"/>
					</defs>
					<clipPath id="SVGID_28_">
						<use xlink:href="#SVGID_27_"  style="overflow:visible;"/>
					</clipPath>
					<path class="st41" d="M245.35,206.73c0,0.56-0.45,1.01-1.01,1.01s-1.01-0.45-1.01-1.01v-8.78c0-0.56,0.45-1.01,1.01-1.01
						s1.01,0.45,1.01,1.01V206.73z"/>
				</g>
			</g>
		</g>
		
			<linearGradient id="SVGID_29_" gradientUnits="userSpaceOnUse" x1="72.63" y1="269.1406" x2="77.03" y2="269.1406" gradientTransform="matrix(1 0 0 -1 0 461.2756)">
			<stop  offset="0" style="stop-color:#F0F1FF"/>
			<stop  offset="1" style="stop-color:#F3F9FF"/>
		</linearGradient>
		<polygon class="st42" points="76.56,195.63 72.63,192.17 76.56,188.64 77.03,189.16 73.68,192.16 77.03,195.11 		"/>
		
			<linearGradient id="SVGID_30_" gradientUnits="userSpaceOnUse" x1="51.0142" y1="269.1406" x2="55.4142" y2="269.1406" gradientTransform="matrix(-1 0 0 -1 418.2442 461.2756)">
			<stop  offset="0" style="stop-color:#F0F1FF"/>
			<stop  offset="1" style="stop-color:#F3F9FF"/>
		</linearGradient>
		<polygon class="st43" points="363.3,195.63 362.84,195.11 366.18,192.16 362.83,189.16 363.3,188.64 367.23,192.17 		"/>
		<path class="st21" d="M87.66,243.48h-6.71c-1.46,0-2.64-1.18-2.64-2.64v-6.71c0-1.46,1.18-2.64,2.64-2.64h6.71
			c1.46,0,2.64,1.18,2.64,2.64v6.71C90.3,242.3,89.12,243.48,87.66,243.48z"/>
		<path class="st21" d="M104.26,243.48h-6.71c-1.46,0-2.64-1.18-2.64-2.64v-6.71c0-1.46,1.18-2.64,2.64-2.64h6.71
			c1.46,0,2.64,1.18,2.64,2.64v6.71C106.91,242.3,105.72,243.48,104.26,243.48z"/>
		<path class="st21" d="M87.66,260.77h-6.71c-1.46,0-2.64-1.18-2.64-2.64v-6.71c0-1.46,1.18-2.64,2.64-2.64h6.71
			c1.46,0,2.64,1.18,2.64,2.64v6.71C90.3,259.59,89.12,260.77,87.66,260.77z"/>
		<path class="st21" d="M104.26,260.77h-6.71c-1.46,0-2.64-1.18-2.64-2.64v-6.71c0-1.46,1.18-2.64,2.64-2.64h6.71
			c1.46,0,2.64,1.18,2.64,2.64v6.71C106.91,259.59,105.72,260.77,104.26,260.77z"/>
		<path class="st21" d="M87.66,278.07h-6.71c-1.46,0-2.64-1.18-2.64-2.64v-6.71c0-1.46,1.18-2.64,2.64-2.64h6.71
			c1.46,0,2.64,1.18,2.64,2.64v6.71C90.3,276.88,89.12,278.07,87.66,278.07z"/>
		<path class="st21" d="M104.26,278.07h-6.71c-1.46,0-2.64-1.18-2.64-2.64v-6.71c0-1.46,1.18-2.64,2.64-2.64h6.71
			c1.46,0,2.64,1.18,2.64,2.64v6.71C106.91,276.88,105.72,278.07,104.26,278.07z"/>
		<path class="st21" d="M87.66,295.36h-6.71c-1.46,0-2.64-1.18-2.64-2.64V286c0-1.46,1.18-2.64,2.64-2.64h6.71
			c1.46,0,2.64,1.18,2.64,2.64v6.71C90.3,294.17,89.12,295.36,87.66,295.36z"/>
		<path class="st21" d="M104.26,295.36h-6.71c-1.46,0-2.64-1.18-2.64-2.64V286c0-1.46,1.18-2.64,2.64-2.64h6.71
			c1.46,0,2.64,1.18,2.64,2.64v6.71C106.91,294.17,105.72,295.36,104.26,295.36z"/>
		<path class="st21" d="M87.66,312.65h-6.71c-1.46,0-2.64-1.18-2.64-2.64v-6.71c0-1.46,1.18-2.64,2.64-2.64h6.71
			c1.46,0,2.64,1.18,2.64,2.64v6.71C90.3,311.47,89.12,312.65,87.66,312.65z"/>
		<path class="st21" d="M104.26,312.65h-6.71c-1.46,0-2.64-1.18-2.64-2.64v-6.71c0-1.46,1.18-2.64,2.64-2.64h6.71
			c1.46,0,2.64,1.18,2.64,2.64v6.71C106.91,311.47,105.72,312.65,104.26,312.65z"/>
		<path class="st44" d="M282.19,365.6H157.9c-2.62,0-4.74-2.12-4.74-4.74v-4.16c0-2.62,2.12-4.74,4.74-4.74h124.29
			c2.62,0,4.74,2.12,4.74,4.74v4.16C286.93,363.48,284.81,365.6,282.19,365.6z"/>
		<g>
			<circle class="st45" cx="188.97" cy="264.95" r="1.98"/>
			<path class="st45" d="M188.97,268.33c-1.86,0-3.38-1.52-3.38-3.38c0-1.86,1.52-3.38,3.38-3.38s3.38,1.52,3.38,3.38
				S190.83,268.33,188.97,268.33z M188.97,261.8c-1.73,0-3.14,1.41-3.14,3.14s1.41,3.14,3.14,3.14s3.14-1.41,3.14-3.14
				S190.7,261.8,188.97,261.8z"/>
		</g>
		<g id="柱状图" transform="translate(100.000000, 318.000000)">
			<path id="Path" class="st46" d="M33.46,85.88l-66.74,10.09c-3.09,0.47-5.97-1.66-6.43-4.75l-8.67-57.39
				c-0.47-3.09,1.66-5.97,4.75-6.44L23.1,17.3c3.09-0.47,5.97,1.66,6.43,4.75l8.67,57.39C38.67,82.53,36.55,85.41,33.46,85.88z"/>
			<polygon id="Rectangle" class="st47" points="-14.1,41.13 -8.64,40.3 -7.54,47.63 -13,48.46 			"/>
			<polygon id="Rectangle_1_" class="st48" points="-13,48.46 -7.54,47.63 -3.66,73.29 -9.12,74.11 			"/>
			<polygon id="Rectangle_2_" class="st47" points="-22.29,42.37 -16.83,41.54 -14.62,56.2 -20.08,57.02 			"/>
			<polygon id="Rectangle_3_" class="st48" points="-20.08,57.02 -14.62,56.2 -11.85,74.52 -17.31,75.35 			"/>
			<polygon id="Rectangle_4_" class="st47" points="-30.48,43.6 -25.02,42.78 -21.7,64.77 -27.16,65.59 			"/>
			<polygon id="Rectangle_5_" class="st48" points="-27.16,65.59 -21.7,64.77 -20.04,75.76 -25.5,76.58 			"/>
			<polygon id="Rectangle_6_" class="st47" points="9.86,37.51 15.32,36.68 20.3,69.66 14.84,70.49 			"/>
			<polygon id="Rectangle_7_" class="st47" points="1.67,38.74 7.13,37.92 7.58,40.88 2.12,41.71 			"/>
			<polygon id="Rectangle_8_" class="st48" points="2.12,41.71 7.58,40.88 12.11,70.9 6.65,71.73 			"/>
			<polygon id="Rectangle_9_" class="st47" points="-6.52,39.98 -1.06,39.16 -0.16,45.1 -5.62,45.93 			"/>
			<polygon id="Rectangle_10_" class="st48" points="-5.62,45.93 -0.16,45.1 3.93,72.14 -1.53,72.96 			"/>
		</g>
	</g>
</g>
</svg>
