<?xml version="1.0" encoding="utf-8"?>
<!-- Generator: Adobe Illustrator 24.0.0, SVG Export Plug-In . SVG Version: 6.00 Build 0)  -->
<svg version="1.1" id="图层_1" xmlns="http://www.w3.org/2000/svg" xmlns:xlink="http://www.w3.org/1999/xlink" x="0px" y="0px"
	 viewBox="0 0 460 460" style="enable-background:new 0 0 460 460;" xml:space="preserve">
<style type="text/css">
	.st0{fill:#ECF9FF;}
	.st1{opacity:0.57;fill:url(#SVGID_1_);}
	.st2{fill:#5D68F4;}
	.st3{clip-path:url(#SVGID_3_);}
	.st4{filter:url(#Adobe_OpacityMaskFilter);}
	.st5{filter:url(#Adobe_OpacityMaskFilter_1_);}
	.st6{mask:url(#SVGID_4_);fill:url(#SVGID_5_);}
	.st7{fill:url(#SVGID_6_);}
	.st8{fill:url(#SVGID_7_);}
	.st9{fill:#79D0F7;}
	.st10{fill:#CDD5D7;}
	.st11{fill:#F0F3F7;}
	.st12{fill:#596273;}
	.st13{fill:#373278;}
	.st14{fill:#E5E8EC;}
	.st15{fill:#C789B9;}
	.st16{fill:#F5C11C;}
	.st17{fill:#B1AFF9;}
	.st18{clip-path:url(#SVGID_9_);}
	.st19{fill:#F19319;}
	.st20{fill:#F9DAAA;}
	.st21{fill:#F5B178;}
	.st22{fill:#E63B6C;}
	.st23{fill:#B41B59;}
	.st24{fill:#F7BB84;}
	.st25{fill:#FFFFFF;}
	.st26{fill:#F4A662;}
	.st27{fill:#B34A2F;}
	.st28{opacity:0.3;}
	.st29{clip-path:url(#SVGID_10_);fill:#FFFFFF;}
	.st30{opacity:0.2;}
	.st31{clip-path:url(#SVGID_11_);fill:#FFFFFF;}
	.st32{fill:#56341A;}
	.st33{fill:#9359A0;}
	.st34{fill:#042138;}
	.st35{fill:#27A79C;}
	.st36{fill:#25838A;}
	.st37{fill:#E9617B;}
	.st38{clip-path:url(#SVGID_12_);fill:#FFFFFF;}
	.st39{clip-path:url(#SVGID_13_);fill:#FFFFFF;}
	.st40{fill:#FFCC3B;stroke:#FFDE83;stroke-width:2;stroke-miterlimit:10;}
	.st41{opacity:0.1;fill:#FFFFFF;}
	.st42{fill:#FDBF14;}
	.st43{fill:#F39806;}
	.st44{fill:url(#SVGID_14_);}
	.st45{fill:#FBAA98;}
	.st46{fill:#F3AA06;}
	.st47{fill:#4E99FF;}
	.st48{fill:#FF5931;}
	.st49{fill:#9FC400;}
	.st50{fill:#56A0E2;}
	.st51{opacity:0.35;fill:#215EAA;}
</style>
<g>
	<circle class="st0" cx="223.69" cy="236.84" r="210.19"/>
	<linearGradient id="SVGID_1_" gradientUnits="userSpaceOnUse" x1="223.6914" y1="75.3126" x2="223.6914" y2="464.063">
		<stop  offset="0" style="stop-color:#84D3F8;stop-opacity:0.1"/>
		<stop  offset="0.3153" style="stop-color:#83D0F8;stop-opacity:0.3837"/>
		<stop  offset="0.5226" style="stop-color:#7FC7F8;stop-opacity:0.5704"/>
		<stop  offset="0.6989" style="stop-color:#77B9F7;stop-opacity:0.729"/>
		<stop  offset="0.8568" style="stop-color:#6EA3F6;stop-opacity:0.8711"/>
		<stop  offset="1" style="stop-color:#6189F5"/>
	</linearGradient>
	<circle class="st1" cx="223.69" cy="236.84" r="210.19"/>
	<circle class="st2" cx="223.69" cy="236.84" r="182.28"/>
	<g>
		<defs>
			<circle id="SVGID_2_" cx="223.69" cy="236.84" r="182.28"/>
		</defs>
		<clipPath id="SVGID_3_">
			<use xlink:href="#SVGID_2_"  style="overflow:visible;"/>
		</clipPath>
		<g class="st3">
			<defs>
				<filter id="Adobe_OpacityMaskFilter" filterUnits="userSpaceOnUse" x="26.17" y="148.21" width="395.05" height="259.02">
					<feFlood  style="flood-color:white;flood-opacity:1" result="back"/>
					<feBlend  in="SourceGraphic" in2="back" mode="normal"/>
				</filter>
			</defs>
			<mask maskUnits="userSpaceOnUse" x="26.17" y="148.21" width="395.05" height="259.02" id="SVGID_4_">
				<g class="st4">
					<defs>
						<filter id="Adobe_OpacityMaskFilter_1_" filterUnits="userSpaceOnUse" x="26.17" y="148.21" width="395.05" height="259.02">
							<feFlood  style="flood-color:white;flood-opacity:1" result="back"/>
							<feBlend  in="SourceGraphic" in2="back" mode="normal"/>
						</filter>
					</defs>
					<mask maskUnits="userSpaceOnUse" x="26.17" y="148.21" width="395.05" height="259.02" id="SVGID_4_">
						<g class="st5">
						</g>
					</mask>
					
						<linearGradient id="SVGID_5_" gradientUnits="userSpaceOnUse" x1="381.0991" y1="1846.8007" x2="681.2563" y2="1846.8007" gradientTransform="matrix(0.3736 0.7545 1.0444 -0.6607 -1900.6498 1101.6669)">
						<stop  offset="0" style="stop-color:#000000"/>
						<stop  offset="1" style="stop-color:#FFFFFF"/>
					</linearGradient>
					<path class="st6" d="M129.54,404.47c60.5,9.02,152.77-4.15,198.26-37.9c132.85-98.56,94.95-175.83,61.42-195.7
						c-63.15-40.93-197.96-27.5-296.48,49.21C-5.49,296.28,3.51,388.46,129.54,404.47z"/>
				</g>
			</mask>
			
				<linearGradient id="SVGID_6_" gradientUnits="userSpaceOnUse" x1="381.0991" y1="1846.8007" x2="681.2563" y2="1846.8007" gradientTransform="matrix(0.3736 0.7545 1.0444 -0.6607 -1900.6498 1101.6669)">
				<stop  offset="0" style="stop-color:#5D68F4"/>
				<stop  offset="1" style="stop-color:#4E99FF"/>
			</linearGradient>
			<path class="st7" d="M129.54,404.47c60.5,9.02,152.77-4.15,198.26-37.9c132.85-98.56,94.95-175.83,61.42-195.7
				c-63.15-40.93-197.96-27.5-296.48,49.21C-5.49,296.28,3.51,388.46,129.54,404.47z"/>
			<linearGradient id="SVGID_7_" gradientUnits="userSpaceOnUse" x1="106.6314" y1="105.3416" x2="259.4748" y2="296.7531">
				<stop  offset="0" style="stop-color:#5D68F4"/>
				<stop  offset="0.2393" style="stop-color:#5C67F1"/>
				<stop  offset="0.4139" style="stop-color:#5963E8"/>
				<stop  offset="0.568" style="stop-color:#545CD8"/>
				<stop  offset="0.7103" style="stop-color:#4D52C1"/>
				<stop  offset="0.8444" style="stop-color:#4545A4"/>
				<stop  offset="0.9707" style="stop-color:#3A3681"/>
				<stop  offset="1" style="stop-color:#373278"/>
			</linearGradient>
			<path class="st8" d="M138.48,159.98c58.63-22.47,122.84-27.8,172.46-22.93c50.2,5.09,85.81,20.37,100.48,44.19
				c14.82,24.05,7.84,53.63-8.19,85.78c-16.57,31.92-42.2,66.4-77.08,94.6c-66.29,56.85-171.6,61.75-252.27,1.53
				C-6.61,303.42,16.81,203.86,138.48,159.98z"/>
		</g>
	</g>
	<g>
		<path class="st9" d="M397.1,211.59h-68.23c-3.41,0-6.18-2.77-6.18-6.18v-1.05c0-3.41,2.77-6.18,6.18-6.18h68.23
			c3.41,0,6.18,2.77,6.18,6.18v1.05C403.28,208.83,400.52,211.59,397.1,211.59z"/>
		<path class="st9" d="M422.44,237.53H354.2c-3.41,0-6.18-2.77-6.18-6.18v-1.05c0-3.41,2.77-6.18,6.18-6.18h68.23
			c3.41,0,6.18,2.77,6.18,6.18v1.05C428.61,234.77,425.85,237.53,422.44,237.53z"/>
		<path class="st9" d="M379.98,217.86c0-3.46,2.81-6.27,6.27-6.27h-20.7c3.46,0,6.27,2.81,6.27,6.27c0,3.46-2.81,6.27-6.27,6.27
			h20.7C382.78,224.13,379.98,221.33,379.98,217.86z"/>
	</g>
	<g>
		<g>
			<g>
				<path class="st10" d="M301.84,386.51c0.85,12.22-8.45,22.9-20.66,23.75l-132.65,9.23c-12.2,0.85-22.9-8.44-23.74-20.66
					L102.9,84.58c-0.85-12.22,8.44-22.9,20.65-23.75l132.65-9.23c12.21-0.85,22.9,8.44,23.76,20.66L301.84,386.51z"/>
			</g>
			<g>
				<path class="st11" d="M151.71,415.84c-12.21,0.85-22.9-8.44-23.75-20.66l-21.4-307.43c-0.85-12.21,8.44-22.89,20.66-23.74
					l125.81-8.76c12.21-0.85,22.9,8.44,23.75,20.66l21.41,307.43c0.85,12.21-8.45,22.9-20.66,23.75L151.71,415.84z"/>
			</g>
			<g>
				<path class="st12" d="M170.35,79.61c0.12,1.64-1.13,3.08-2.78,3.19c-1.65,0.12-3.08-1.13-3.2-2.78
					c-0.12-1.65,1.13-3.08,2.78-3.2C168.79,76.7,170.23,77.95,170.35,79.61z"/>
				<path class="st12" d="M192.32,67.62c0.08,1.07-0.72,1.98-1.78,2.06c-1.05,0.07-1.99-0.72-2.06-1.78
					c-0.08-1.06,0.73-1.98,1.79-2.06C191.32,65.77,192.25,66.57,192.32,67.62z"/>
				<path class="st12" d="M202.92,77.05c0.05,0.78-0.54,1.47-1.32,1.52L181.1,80c-0.79,0.06-1.46-0.54-1.52-1.32l0,0
					c-0.06-0.79,0.53-1.47,1.32-1.52l20.49-1.43C202.18,75.67,202.86,76.26,202.92,77.05L202.92,77.05z"/>
			</g>
			<polygon class="st10" points="108.45,118.02 108.45,118.02 104.28,118.31 104.28,118.31 103.33,104.65 103.33,104.65 
				107.5,104.36 107.5,104.36 			"/>
			<polygon class="st10" points="110.94,153.89 110.94,153.89 106.78,154.18 106.78,154.18 105.17,131.12 105.17,131.12 
				109.34,130.83 109.34,130.83 			"/>
			<polygon class="st10" points="112.85,181.21 112.85,181.21 108.68,181.5 108.68,181.5 107.15,159.51 107.15,159.51 
				111.31,159.22 111.31,159.22 			"/>
			
				<rect x="124.28" y="96.6" transform="matrix(0.9976 -0.0695 0.0695 0.9976 -15.8291 14.6151)" class="st13" width="155.8" height="276.5"/>
			<path class="st14" d="M237.01,366.75l-90.25,6.28c-5.08,0.35-9.49-3.48-9.85-8.56v0c-0.35-5.08,3.48-9.49,8.56-9.85l90.25-6.28
				c5.08-0.35,9.49,3.48,9.85,8.56v0C245.93,361.99,242.09,366.39,237.01,366.75z"/>
			
				<rect x="197.61" y="106.58" transform="matrix(0.9976 -0.0695 0.0695 0.9976 -11.0768 16.8406)" class="st15" width="77.9" height="122.15"/>
			
				<rect x="197.61" y="106.58" transform="matrix(0.9976 -0.0695 0.0695 0.9976 -11.0768 16.8406)" class="st15" width="77.9" height="122.15"/>
			
				<rect x="119.9" y="111.99" transform="matrix(0.9976 -0.0695 0.0695 0.9976 -11.6405 11.4545)" class="st16" width="77.9" height="122.15"/>
			
				<rect x="115.19" y="96.91" transform="matrix(0.9976 -0.0695 0.0695 0.9976 -6.7826 13.6635)" class="st17" width="155.8" height="14.9"/>
			<circle class="st10" cx="218.31" cy="390.22" r="9.2"/>
			<path class="st16" d="M268.6,252.15l-131.35,9.07c-0.75,0.05-1.4-0.52-1.45-1.27l-0.13-1.89c-0.05-0.75,0.52-1.4,1.27-1.45
				l131.35-9.07c0.75-0.05,1.4,0.52,1.45,1.27l0.13,1.89C269.92,251.44,269.35,252.09,268.6,252.15z"/>
			<path class="st15" d="M268.12,252.18l-95.29,6.64c-1.02,0.07-1.9-0.7-1.97-1.71l-0.06-0.93c-0.07-1.02,0.7-1.9,1.71-1.97
				l95.29-6.64c1.02-0.07,1.9,0.7,1.97,1.71l0.06,0.93C269.91,251.23,269.14,252.11,268.12,252.18z"/>
			<path class="st14" d="M209.25,271.02l-71.11,4.48c-0.75,0.05-1.4-0.52-1.45-1.28l-0.06-0.96c-0.05-0.75,0.52-1.4,1.28-1.45
				l71.11-4.48c0.75-0.05,1.4,0.52,1.45,1.28l0.06,0.96C210.57,270.33,210,270.98,209.25,271.02z"/>
			<path class="st14" d="M212.22,318.15l-71.11,4.48c-0.75,0.05-1.4-0.52-1.45-1.28l-0.06-0.96c-0.05-0.75,0.52-1.4,1.28-1.45
				l71.11-4.48c0.75-0.05,1.4,0.52,1.45,1.28l0.06,0.96C213.54,317.46,212.97,318.11,212.22,318.15z"/>
			<path class="st14" d="M171.29,288.16l-32.23,2.03c-0.75,0.05-1.4-0.52-1.45-1.28l-0.06-0.96c-0.05-0.75,0.52-1.4,1.28-1.45
				l32.23-2.03c0.75-0.05,1.4,0.52,1.45,1.28l0.06,0.96C172.62,287.46,172.05,288.11,171.29,288.16z"/>
			<g>
				<defs>
					
						<rect id="SVGID_8_" x="119.9" y="111.99" transform="matrix(0.9976 -0.0695 0.0695 0.9976 -11.6405 11.4545)" width="77.9" height="122.15"/>
				</defs>
				<clipPath id="SVGID_9_">
					<use xlink:href="#SVGID_8_"  style="overflow:visible;"/>
				</clipPath>
				<g class="st18">
					<polygon class="st19" points="199.64,128.02 178.38,109.78 157.32,150.45 157.16,160.7 167.29,219.74 176.4,233.29 
						207.53,230.9 					"/>
					<path class="st20" d="M180.74,144.41l0.96,12.56c3.47-0.27,6.06-3.29,5.8-6.76C187.24,146.74,184.21,144.15,180.74,144.41"/>
					<path class="st21" d="M180.93,146.91l0.58,7.56c2.09-0.16,3.65-1.98,3.49-4.07C184.85,148.31,183.02,146.75,180.93,146.91"/>
					<path class="st20" d="M133.06,148.07l0.96,12.56c-3.47,0.27-6.49-2.33-6.76-5.8C127,151.36,129.59,148.33,133.06,148.07"/>
					<path class="st21" d="M133.25,150.56l0.58,7.56c-2.09,0.16-3.91-1.4-4.07-3.49C129.6,152.55,131.16,150.72,133.25,150.56"/>
					<path class="st22" d="M137.18,236.36l-2.26-29.46c-1.12-14.64,9.84-27.42,24.48-28.54c14.64-1.12,27.42,9.84,28.54,24.48
						l2.26,29.46L137.18,236.36z"/>
					<path class="st23" d="M149.26,235.43l-2.46-32.12c-0.07-0.86-0.82-1.51-1.68-1.44c-0.86,0.07-1.51,0.82-1.44,1.68l2.46,32.12
						L149.26,235.43z"/>
					<path class="st23" d="M182.63,232.87l-2.46-32.12c-0.07-0.86-0.82-1.51-1.68-1.44c-0.86,0.07-1.51,0.82-1.44,1.68l2.46,32.12
						L182.63,232.87z"/>
					<path class="st24" d="M150.31,172.66l0.68,8.9c0.36,4.75,4.51,8.3,9.25,7.93c4.74-0.36,8.3-4.5,7.94-9.25l-0.68-8.9
						L150.31,172.66z"/>
					<path class="st20" d="M131.76,133.61l1.91,24.92c1.02,13.29,12.62,23.23,25.9,22.21c13.29-1.02,23.23-12.61,22.21-25.9
						l-2.08-27.11L131.76,133.61z"/>
					<path class="st25" d="M166.84,161.81l-17.5,1.34c0.37,4.83,4.59,8.45,9.42,8.08C163.59,170.86,167.21,166.65,166.84,161.81"/>
					<path class="st26" d="M153.98,158.49l7.56-0.58c-0.16-2.09-1.98-3.65-4.07-3.49C155.38,154.58,153.82,156.4,153.98,158.49"/>
					<path class="st27" d="M153.19,152.84c-0.94,0.07-1.77-0.63-1.84-1.58c-0.22-2.84-2.71-4.98-5.55-4.76
						c-2.85,0.22-4.98,2.71-4.76,5.55c0.07,0.94-0.63,1.76-1.58,1.84c-0.94,0.07-1.77-0.63-1.84-1.58
						c-0.36-4.73,3.19-8.87,7.92-9.23c4.73-0.36,8.87,3.19,9.23,7.92C154.84,151.95,154.14,152.77,153.19,152.84"/>
					<path class="st27" d="M175.37,151.14c-0.94,0.07-1.77-0.63-1.84-1.58c-0.22-2.84-2.71-4.98-5.55-4.76
						c-2.84,0.22-4.98,2.71-4.76,5.55c0.07,0.94-0.63,1.76-1.58,1.84c-0.94,0.07-1.77-0.63-1.84-1.58
						c-0.36-4.73,3.19-8.87,7.92-9.23c4.73-0.36,8.87,3.19,9.23,7.92C177.01,150.25,176.31,151.07,175.37,151.14"/>
					<g class="st28">
						<g>
							<defs>
								
									<rect id="SVGID_73_" x="138.16" y="161.49" transform="matrix(0.9971 -0.0764 0.0764 0.9971 -12.5702 11.7517)" width="18.25" height="17.32"/>
							</defs>
							<clipPath id="SVGID_10_">
								<use xlink:href="#SVGID_73_"  style="overflow:visible;"/>
							</clipPath>
							<path class="st29" d="M155.49,178.2c-0.11,0.01-0.23,0.01-0.35-0.01c-13.5-1.99-17.27-13.58-17.42-14.07
								c-0.26-0.82,0.2-1.7,1.03-1.96c0.82-0.26,1.7,0.2,1.96,1.02c0.13,0.42,3.38,10.21,14.89,11.91c0.86,0.13,1.45,0.92,1.32,1.78
								C156.81,177.6,156.2,178.14,155.49,178.2"/>
						</g>
					</g>
					<g class="st30">
						<g>
							<defs>
								
									<rect id="SVGID_75_" x="138.15" y="187.44" transform="matrix(0.9971 -0.0764 0.0764 0.9971 -14.6699 11.5834)" width="11.78" height="20.13"/>
							</defs>
							<clipPath id="SVGID_11_">
								<use xlink:href="#SVGID_75_"  style="overflow:visible;"/>
							</clipPath>
							<path class="st31" d="M140.66,207.85c-0.04,0-0.07,0-0.11,0.01c-0.95,0.01-1.73-0.75-1.75-1.7
								c-0.17-14.27,7.61-18.62,7.94-18.8c0.84-0.45,1.88-0.14,2.33,0.7c0.45,0.84,0.14,1.87-0.69,2.33
								c-0.28,0.16-6.28,3.71-6.14,15.72C142.26,207.02,141.56,207.78,140.66,207.85"/>
						</g>
					</g>
					<path class="st32" d="M133.35,154.36l3.13-16.96l19.77,1.16l19.54-4.17l5.53,14.42l-2.95-39.03l-4.26,7.75l-0.45-5.9
						l-3.21,3.94c0,0-29.82-4.22-39.05,13.41L133.35,154.36z"/>
				</g>
			</g>
			<g>
				<path class="st33" d="M249.5,121.97l-10.67,89.28c0.89,0.92,4.52,14.83,4.52,14.83l9.22,1.64l27.09-1.84l-5.79-82.94
					L249.5,121.97z"/>
				<path class="st20" d="M254.27,145.95l0.87,11.58c3.2-0.24,5.59-3.03,5.35-6.23C260.25,148.11,257.47,145.71,254.27,145.95"/>
				<path class="st21" d="M254.45,148.25l0.52,6.97c1.93-0.14,3.37-1.82,3.22-3.75C258.05,149.55,256.37,148.11,254.45,148.25"/>
				<path class="st20" d="M210.33,149.25l0.87,11.58c-3.2,0.24-5.98-2.16-6.22-5.36C204.74,152.28,207.14,149.49,210.33,149.25"/>
				<path class="st21" d="M210.51,151.56l0.52,6.97c-1.92,0.14-3.6-1.3-3.75-3.22C207.14,153.38,208.58,151.7,210.51,151.56"/>
				
					<rect x="209.84" y="140.5" transform="matrix(0.9972 -0.0749 0.0749 0.9972 -12.0946 18.0081)" class="st34" width="48.13" height="59.33"/>
				<path class="st35" d="M214.01,230.61l-2.04-27.14c-1.01-13.49,9.1-25.25,22.59-26.26c13.49-1.01,25.25,9.1,26.26,22.59
					l2.04,27.14L214.01,230.61z"/>
				<path class="st36" d="M225.14,229.78l-2.22-29.6c-0.06-0.79-0.75-1.39-1.55-1.33c-0.79,0.06-1.39,0.75-1.33,1.55l2.22,29.6
					L225.14,229.78z"/>
				<path class="st36" d="M255.89,227.47l-2.22-29.6c-0.06-0.79-0.75-1.39-1.55-1.33c-0.79,0.06-1.39,0.75-1.33,1.55l2.22,29.6
					L255.89,227.47z"/>
				<path class="st24" d="M226.2,171.94l0.62,8.2c0.33,4.38,4.14,7.65,8.51,7.33c4.37-0.33,7.65-4.14,7.32-8.52l-0.62-8.2
					L226.2,171.94z"/>
				<path class="st20" d="M209.16,135.93l1.73,22.97c0.92,12.25,11.59,21.43,23.84,20.51c12.24-0.92,21.42-11.59,20.5-23.84
					l-1.88-24.98L209.16,135.93z"/>
				<path class="st26" d="M229.59,158.88l6.97-0.52c-0.14-1.93-1.82-3.37-3.75-3.22C230.89,155.28,229.45,156.96,229.59,158.88"/>
				<path class="st37" d="M234.12,171.34c-5.21,0.39-9.77-3.53-10.16-8.74c-0.07-0.94,0.63-1.76,1.57-1.83s1.76,0.63,1.83,1.57
					c0.25,3.33,3.17,5.85,6.5,5.6c3.34-0.25,5.84-3.17,5.59-6.5c-0.07-0.94,0.63-1.76,1.57-1.83c0.94-0.07,1.76,0.63,1.83,1.57
					C243.25,166.39,239.33,170.95,234.12,171.34"/>
				<path class="st27" d="M229.2,153.38c-0.82,0.06-1.53-0.55-1.59-1.37c-0.19-2.47-2.34-4.33-4.81-4.14
					c-2.47,0.19-4.33,2.34-4.14,4.81c0.06,0.82-0.55,1.53-1.37,1.59c-0.82,0.06-1.53-0.55-1.59-1.37c-0.31-4.1,2.78-7.69,6.88-8
					c4.1-0.31,7.69,2.78,8,6.88C230.63,152.6,230.02,153.32,229.2,153.38"/>
				<path class="st27" d="M216.92,150.79c-0.01,0-0.02,0-0.03,0c-2.2,0.05-3.02-1.49-3.16-2.31c-0.04-0.29,0.15-0.56,0.45-0.61
					c0.27-0.05,0.56,0.15,0.61,0.44c0.03,0.15,0.31,1.46,2.07,1.42c0.29-0.01,0.54,0.23,0.55,0.52
					C217.42,150.53,217.2,150.77,216.92,150.79"/>
				<path class="st27" d="M215.94,152.68c-1.52,0.11-2.45-0.86-2.76-1.49c-0.13-0.26-0.02-0.58,0.25-0.71
					c0.27-0.13,0.58-0.02,0.71,0.24c0.07,0.14,0.73,1.31,2.4,0.75c0.28-0.09,0.58,0.06,0.68,0.34c0.09,0.28-0.06,0.58-0.34,0.67
					C216.54,152.59,216.23,152.65,215.94,152.68"/>
				<path class="st27" d="M235.93,152.87c0.82-0.06,1.43-0.77,1.37-1.59c-0.19-2.47,1.67-4.63,4.14-4.81
					c2.47-0.19,4.63,1.67,4.81,4.14c0.06,0.82,0.77,1.43,1.59,1.37c0.82-0.06,1.43-0.77,1.37-1.59c-0.31-4.1-3.9-7.19-8-6.88
					c-4.1,0.31-7.19,3.9-6.88,8C234.4,152.32,235.11,152.93,235.93,152.87"/>
				<path class="st27" d="M247.68,148.48c0.01,0,0.02,0,0.03,0c2.18-0.28,2.77-1.93,2.77-2.76c0-0.29-0.23-0.54-0.53-0.54
					c-0.27-0.01-0.53,0.23-0.54,0.53c0,0.15-0.09,1.49-1.84,1.71c-0.29,0.04-0.5,0.31-0.46,0.6
					C247.15,148.3,247.4,148.5,247.68,148.48"/>
				<path class="st27" d="M248.93,150.2c1.53-0.11,2.3-1.21,2.51-1.88c0.09-0.28-0.07-0.58-0.35-0.67
					c-0.29-0.09-0.58,0.07-0.67,0.34c-0.05,0.15-0.52,1.4-2.26,1.1c-0.29-0.05-0.57,0.15-0.62,0.44c-0.05,0.29,0.15,0.57,0.44,0.62
					C248.32,150.2,248.64,150.22,248.93,150.2"/>
				<g class="st28">
					<g>
						<defs>
							
								<rect id="SVGID_65_" x="215" y="161.63" transform="matrix(0.9972 -0.0749 0.0749 0.9972 -12.0827 17.2198)" width="16.82" height="15.96"/>
						</defs>
						<clipPath id="SVGID_12_">
							<use xlink:href="#SVGID_65_"  style="overflow:visible;"/>
						</clipPath>
						<path class="st38" d="M230.96,177.05c-0.11,0.01-0.21,0.01-0.32-0.01c-12.43-1.85-15.89-12.54-16.04-12.99
							c-0.24-0.76,0.19-1.57,0.95-1.8c0.76-0.24,1.57,0.19,1.8,0.95c0.12,0.38,3.1,9.42,13.71,11c0.79,0.12,1.33,0.85,1.21,1.64
							C232.18,176.5,231.61,177,230.96,177.05"/>
					</g>
				</g>
				<g class="st30">
					<g>
						<defs>
							
								<rect id="SVGID_67_" x="214.96" y="185.55" transform="matrix(0.9972 -0.0749 0.0749 0.9972 -13.9803 17.0637)" width="10.85" height="18.53"/>
						</defs>
						<clipPath id="SVGID_13_">
							<use xlink:href="#SVGID_67_"  style="overflow:visible;"/>
						</clipPath>
						<path class="st39" d="M217.25,204.35c-0.03,0-0.07,0-0.1,0c-0.88,0.01-1.6-0.69-1.61-1.57c-0.14-13.15,7.04-17.14,7.34-17.31
							c0.77-0.41,1.73-0.12,2.15,0.65c0.41,0.77,0.13,1.73-0.64,2.15c-0.26,0.15-5.79,3.41-5.68,14.48
							C218.73,203.59,218.08,204.29,217.25,204.35"/>
					</g>
				</g>
				<path class="st34" d="M240.03,135.78c0,0-6.3,12.98-31.38,16.03l-1.43-15.7c0,0-0.92-17.47,21.95-19.19
					c22.87-1.72,25.89,13.56,25.89,13.56l0.9,11.94C255.95,142.42,243.46,143.91,240.03,135.78"/>
			</g>
			<circle class="st40" cx="202.55" cy="230.83" r="15.16"/>
			<g>
				<path class="st25" d="M193.69,226.25l3.94-0.29c2.66-0.19,4.76,0.58,4.97,3.41c0.2,2.74-1.77,4.12-4.34,4.31l-1.6,0.12
					l0.31,4.26l-2.4,0.17L193.69,226.25z M197.95,231.8c1.65-0.12,2.39-0.87,2.29-2.25c-0.1-1.39-1.01-1.8-2.66-1.68l-1.36,0.1
					l0.29,3.93L197.95,231.8z"/>
				<path class="st25" d="M204.5,225.46l2.4-0.17l0.38,5.2l0.05,0l3.59-5.49l2.64-0.19l-3.32,4.98l4.84,6.96l-2.64,0.19l-3.48-5.15
					l-1.42,2.12l0.25,3.37l-2.4,0.17L204.5,225.46z"/>
			</g>
			<polygon class="st25" points="164.5,250.25 166.6,248.99 169.06,253.06 			"/>
			<polygon class="st25" points="170.13,248.21 172.37,248.09 171.6,252.79 			"/>
			<polygon class="st25" points="176.7,248.21 177.96,249.5 175.23,252.16 			"/>
			<g>
				<polygon class="st41" points="121.56,191.01 127.76,280.09 224.76,94.73 169.94,98.55 				"/>
				<polygon class="st41" points="131.2,329.48 255.15,92.62 234.3,94.07 128.84,295.58 				"/>
			</g>
		</g>
		<g>
			<path class="st42" d="M269.37,162.81c0.16,3.19,2.89,5.65,6.08,5.49l3.86-0.2l0.69,13.5l12.81-14.19l44.35-2.26
				c3.2-0.16,5.65-2.89,5.49-6.08l-2.46-48.21c-0.16-3.19-2.88-5.65-6.08-5.49l-61.7,3.15c-3.19,0.16-5.65,2.89-5.49,6.08
				L269.37,162.81z"/>
			
				<rect x="279.14" y="124.3" transform="matrix(0.9987 -0.0509 0.0509 0.9987 -6.0345 15.6593)" class="st43" width="50.2" height="3.86"/>
			
				<rect x="279.63" y="133.94" transform="matrix(0.9987 -0.0509 0.0509 0.9987 -6.5249 15.6969)" class="st43" width="50.2" height="3.86"/>
			
				<rect x="280.12" y="143.58" transform="matrix(0.9987 -0.0509 0.0509 0.9987 -7.0153 15.7344)" class="st43" width="50.2" height="3.86"/>
		</g>
		<g>
			<linearGradient id="SVGID_14_" gradientUnits="userSpaceOnUse" x1="310.2178" y1="248.7963" x2="376.8754" y2="248.7963">
				<stop  offset="0" style="stop-color:#E04037"/>
				<stop  offset="1" style="stop-color:#F95830"/>
			</linearGradient>
			<rect x="310.22" y="232.72" class="st44" width="66.66" height="32.15"/>
			<g>
				<path class="st25" d="M344.71,246.54c1.34,0,2.41,0.38,3.2,1.13c0.79,0.75,1.19,1.78,1.19,3.09c0,1.55-0.48,2.74-1.43,3.57
					c-0.95,0.83-2.32,1.25-4.09,1.25c-1.54,0-2.79-0.25-3.73-0.75v-2.53c0.5,0.27,1.08,0.48,1.74,0.65
					c0.66,0.17,1.29,0.25,1.89,0.25c1.79,0,2.68-0.73,2.68-2.2c0-1.4-0.93-2.09-2.78-2.09c-0.33,0-0.7,0.03-1.11,0.1
					c-0.4,0.07-0.73,0.14-0.99,0.21l-1.17-0.63l0.52-7.06h7.52v2.48h-4.95l-0.26,2.72l0.33-0.07
					C343.66,246.58,344.14,246.54,344.71,246.54z"/>
				<path class="st25" d="M350.65,249.51c0-2.74,0.58-4.78,1.74-6.12c1.16-1.34,2.9-2.01,5.21-2.01c0.79,0,1.41,0.05,1.86,0.14v2.34
					c-0.56-0.13-1.12-0.19-1.67-0.19c-1,0-1.82,0.15-2.46,0.45c-0.63,0.3-1.11,0.75-1.43,1.35c-0.32,0.59-0.5,1.44-0.56,2.53h0.12
					c0.63-1.07,1.63-1.61,3-1.61c1.24,0,2.21,0.39,2.91,1.17c0.7,0.78,1.05,1.85,1.05,3.22c0,1.48-0.42,2.65-1.25,3.51
					c-0.83,0.86-1.99,1.29-3.47,1.29c-1.02,0-1.92-0.24-2.68-0.71c-0.76-0.47-1.35-1.17-1.76-2.08
					C350.86,251.88,350.65,250.79,350.65,249.51z M355.66,253.24c0.63,0,1.11-0.21,1.44-0.63c0.33-0.42,0.5-1.02,0.5-1.8
					c0-0.68-0.16-1.21-0.47-1.6c-0.31-0.39-0.79-0.58-1.42-0.58c-0.59,0-1.1,0.19-1.52,0.58c-0.42,0.39-0.63,0.83-0.63,1.35
					c0,0.75,0.2,1.39,0.59,1.9C354.55,252.98,355.05,253.24,355.66,253.24z"/>
			</g>
			<path class="st25" d="M330.49,244.3c-1.28-1.28-3.36-1.28-4.64,0l-0.77,0.77l-0.77-0.77c-1.28-1.28-3.36-1.28-4.65,0
				c-1.28,1.28-1.28,3.36,0,4.64l0.78,0.78l0,0l4.64,4.64l4.64-4.64l0,0l0.78-0.78C331.77,247.66,331.77,245.58,330.49,244.3z"/>
		</g>
		<g>
			<polygon class="st45" points="155.63,405.86 74.03,405.86 82.41,374.57 164.02,374.57 			"/>
			<g>
				<path class="st25" d="M112.2,396.67h-2.85l2.09-7.8l0.37-1.28l0.42-1.4c-0.6,0.47-1.01,0.78-1.24,0.93l-1.88,1.24l-0.91-1.72
					l5.27-3.46h2.34L112.2,396.67z"/>
				<path class="st25" d="M125.35,396.67h-9.42l0.53-1.98l4.3-3.42c1.28-1.03,2.12-1.74,2.54-2.14c0.41-0.4,0.73-0.76,0.96-1.1
					c0.23-0.34,0.39-0.69,0.48-1.05c0.14-0.54,0.1-0.94-0.12-1.21c-0.23-0.26-0.59-0.4-1.09-0.4c-0.52,0-1.06,0.12-1.62,0.36
					c-0.56,0.24-1.16,0.58-1.81,1.02l-1.06-1.84c0.82-0.57,1.47-0.97,1.97-1.2c0.5-0.23,1.02-0.41,1.57-0.54
					c0.55-0.13,1.14-0.19,1.78-0.19c0.84,0,1.54,0.15,2.11,0.46c0.56,0.31,0.95,0.74,1.16,1.29c0.21,0.55,0.22,1.19,0.03,1.9
					c-0.17,0.62-0.43,1.2-0.8,1.75c-0.36,0.54-0.85,1.1-1.46,1.67c-0.61,0.57-1.64,1.39-3.08,2.44l-2.17,1.63l-0.03,0.13H126
					L125.35,396.67z"/>
				<path class="st25" d="M133.92,388.06c1.3,0,2.24,0.37,2.82,1.1c0.58,0.73,0.69,1.73,0.35,3.01c-0.4,1.51-1.18,2.67-2.32,3.48
					c-1.15,0.81-2.58,1.22-4.31,1.22c-1.5,0-2.65-0.24-3.44-0.73l0.66-2.46c0.42,0.26,0.93,0.47,1.53,0.63
					c0.6,0.16,1.19,0.24,1.77,0.24c1.74,0,2.8-0.71,3.18-2.14c0.36-1.36-0.35-2.04-2.16-2.04c-0.33,0-0.69,0.03-1.1,0.1
					c-0.41,0.06-0.75,0.13-1.01,0.21l-0.97-0.61l2.35-6.87h7.31l-0.65,2.42h-4.81l-0.96,2.65l0.34-0.06
					C132.9,388.1,133.37,388.06,133.92,388.06z"/>
				<path class="st25" d="M149.28,396.67h-3.25l-2.01-5.68l-1.44,0.87l-1.29,4.81h-2.86l3.61-13.48h2.86l-1.65,6.17l1.55-1.59
					l4.88-4.58h3.17l-6.3,5.97L149.28,396.67z"/>
			</g>
			<g>
				<path class="st25" d="M100.61,387.2h-5.24c0.42-0.59,0.91-1.32,1.08-1.69c0.17-0.38,0.34-1.28,0.34-1.28
					c0.18-0.68-0.22-1.23-0.9-1.23h-0.62l-0.51,1.9c0,0-2.82,2.51-3.1,3.53l-1.61,5.99c-0.18,0.68,0.22,1.23,0.9,1.23h4.3
					c0.68,0,1.58-0.55,2.01-1.23l3.79-5.99C101.49,387.75,101.29,387.2,100.61,387.2z"/>
				<polygon class="st25" points="90.71,394.88 89.07,394.88 90.87,388.17 92.51,388.17 				"/>
				<polygon class="st25" points="84.05,395.65 86.97,395.65 89.24,387.2 86.32,387.2 				"/>
			</g>
		</g>
		<g>
			<polygon class="st46" points="92.47,124.94 82.98,112.14 67.62,116.38 76.68,90.06 89.11,94.34 101.53,98.61 			"/>
			<path class="st42" d="M111.3,90.82c-3.57,10.36-14.85,15.87-25.22,12.3c-10.36-3.57-15.87-14.86-12.3-25.22
				C77.35,67.55,88.64,62.04,99,65.61C109.36,69.17,114.86,80.46,111.3,90.82z"/>
			<polygon class="st25" points="96.39,73.17 98.46,78.76 104.07,80.78 100.99,85.88 102.92,91.52 97,92.3 93.8,97.32 89.5,93.18 
				83.58,93.8 84.14,87.87 79.95,83.62 84.94,80.36 85.66,74.44 91.32,76.3 			"/>
		</g>
		<g>
			<g>
				<path class="st47" d="M367.26,344.65c0,2.72-2.2,4.92-4.92,4.92H229.91c-2.72,0-4.92-2.2-4.92-4.92v-36.9
					c0-2.72,2.2-4.92,4.92-4.92h132.43c2.72,0,4.92,2.2,4.92,4.92V344.65z"/>
				
					<rect x="254.51" y="338.91" transform="matrix(0.7071 -0.7071 0.7071 0.7071 -168.8372 288.2557)" class="st47" width="18.04" height="18.04"/>
			</g>
			<g>
				<path class="st25" d="M257.83,335.77c0,0,0-0.81,0-1.23c0-4.08-3.3-7.38-7.38-7.38c-1.35,0-6.03,0-7.38,0
					c-4.08,0-7.38,3.3-7.38,7.38c0,0.42,0,1.23,0,1.23H257.83z"/>
				<path class="st25" d="M251.68,318.55c0,2.72-2.2,4.92-4.92,4.92c-2.72,0-4.92-2.2-4.92-4.92c0-2.72,2.2-4.92,4.92-4.92
					C249.48,313.63,251.68,315.83,251.68,318.55z"/>
			</g>
			<path class="st48" d="M263.53,335.22c0,3.62-2.94,6.56-6.56,6.56c-3.62,0-6.56-2.94-6.56-6.56c0-3.62,2.94-6.56,6.56-6.56
				C260.6,328.66,263.53,331.6,263.53,335.22z"/>
			<path class="st48" d="M353.92,299.32c-1.4-1.4-3.68-1.4-5.08,0l-0.85,0.85l-0.85-0.85c-1.4-1.4-3.68-1.4-5.08,0
				c-1.4,1.4-1.4,3.68,0,5.08l0.85,0.85l0,0l5.08,5.08l5.08-5.08l0,0l0.85-0.85C355.32,302.99,355.32,300.72,353.92,299.32z"/>
			<g>
				<g>
					<path class="st25" d="M345.28,319h-9.55c0.47-1.07,1.01-2.4,1.14-3.08c0.13-0.69,0-2.33,0-2.33c0-1.24-1-2.24-2.24-2.24h-1.12
						v3.46c0,0-3.92,4.57-3.92,6.43v10.92c0,1.24,1,2.24,2.24,2.24h7.84c1.24,0,2.6-1,3.05-2.24l3.97-10.92
						C347.15,320.01,346.51,319,345.28,319z"/>
					<rect x="328.01" y="320.78" class="st25" width="2.98" height="12.23"/>
					<rect x="320.48" y="319" class="st25" width="5.32" height="15.4"/>
				</g>
			</g>
			<path class="st25" d="M301.6,312.02h-22.47c-1.16,0-2.11,0.94-2.11,2.11v17.56c0,1.16,0.94,2.11,2.11,2.11h1.4v4.91l4.92-4.91
				h16.15c1.16,0,2.11-0.94,2.11-2.11v-17.56C303.71,312.96,302.76,312.02,301.6,312.02z M299.49,326.76h-18.26v-1.4h18.26V326.76z
				 M299.49,323.25h-18.26v-1.41h18.26V323.25z M299.49,319.74h-18.26v-1.41h18.26V319.74z"/>
		</g>
		<g>
			<path class="st49" d="M111.57,190.82c3.81,2.2,3.81,5.79,0,7.99l-18.78,10.84c-3.81,2.2-6.92,0.4-6.92-4v-21.68
				c0-4.4,3.12-6.2,6.92-4L111.57,190.82z"/>
			<g>
				<path class="st25" d="M98.27,198.02c0.55,1.57-0.77,3.46-2.95,4.23c-2.18,0.76-4.39,0.11-4.95-1.46
					c-0.55-1.57,0.77-3.46,2.95-4.23C95.5,195.79,97.72,196.45,98.27,198.02z"/>
				<g>
					<polygon class="st25" points="98.38,198.63 95.38,198.63 95.38,184.71 102.08,188.46 100.62,191.07 98.38,189.82 					"/>
				</g>
			</g>
		</g>
		<g>
			<polygon class="st48" points="268.01,62.38 268.01,73.9 281.3,85.41 281.3,50.87 			"/>
			<path class="st48" d="M269.34,85.41c0,2.2-1.78,3.99-3.99,3.99H230.8c-2.2,0-3.99-1.79-3.99-3.99V50.87
				c0-2.2,1.79-3.99,3.99-3.99h34.55c2.2,0,3.99,1.78,3.99,3.99V85.41z"/>
			<polygon class="st25" points="245.42,61.5 245.42,74.78 254.72,68.14 			"/>
		</g>
	</g>
	<path class="st50" d="M92.89,291.54c12.21-2.58,24.2,5.21,26.78,17.41c1.15,5.45,0.23,10.85-2.23,15.39
		c-0.06,1.39,0.29,4.57,4.65,4.92c0,0,1.02-0.1,1.22,0.87c0.21,0.98-1.44,1.53-1.44,1.53s-5.82,2.56-9.39-1.09
		c-2.82,2.49-6.3,4.31-10.25,5.14c-12.21,2.58-24.2-5.21-26.78-17.42C72.88,306.11,80.68,294.12,92.89,291.54"/>
	<path class="st51" d="M91.09,305.76l18.43,12.7l-7.85,17.37c-7,1.3-13.87-0.78-18.9-5.12c-1.64-1.41-3.08-3.07-4.26-4.92"/>
	<g>
		<path class="st25" d="M110.2,313.97c-0.16-0.73-0.88-1.2-1.61-1.05c-0.73,0.16-1.2,0.88-1.05,1.61c0.1,0.47,0.45,0.86,0.91,1.01
			c0.46,0.15,0.97,0.04,1.33-0.28C110.14,314.94,110.3,314.44,110.2,313.97L110.2,313.97z M110.2,313.97"/>
		<path class="st25" d="M92.69,317.66c-0.1-0.47-0.45-0.86-0.91-1.01c-0.46-0.15-0.97-0.04-1.33,0.28
			c-0.36,0.32-0.52,0.82-0.42,1.29c0.1,0.47,0.45,0.86,0.91,1.01c0.46,0.15,0.97,0.04,1.33-0.28
			C92.63,318.63,92.79,318.14,92.69,317.66L92.69,317.66z M92.69,317.66"/>
		<path class="st25" d="M101.49,322.45c-0.74,0.16-1.21,0.88-1.05,1.61l0.59,2.79c0.16,0.74,0.88,1.21,1.61,1.05
			c0.74-0.16,1.21-0.88,1.05-1.61l-0.59-2.79C102.94,322.77,102.22,322.3,101.49,322.45L101.49,322.45z M101.49,322.45"/>
		<path class="st25" d="M106.25,326.79c-0.16-0.73-0.88-1.2-1.61-1.05l-4.76,1.01c-0.74,0.16-1.21,0.88-1.05,1.61
			c0.16,0.74,0.88,1.2,1.61,1.05l4.76-1.01C105.94,328.25,106.41,327.52,106.25,326.79L106.25,326.79z M93.24,315.89
			c0.01,0.04,0.02,0.07,0.03,0.11c0.87,3.49,4.35,5.68,7.9,4.94c3.55-0.75,5.84-4.17,5.22-7.71c-0.01-0.04-0.01-0.08-0.02-0.11
			l-2.14-10.13c-0.77-3.62-4.33-5.94-7.95-5.17c-3.58,0.76-5.88,4.24-5.2,7.82l0.01,0c0.01,0.05,0.01,0.1,0.02,0.15L93.24,315.89z
			 M91.09,305.76"/>
		<path class="st25" d="M90.05,318.36c1.78,4.74,6.81,7.61,11.92,6.52c5.11-1.08,8.54-5.73,8.26-10.78l-2.7,0.33
			c0.13,3.67-2.39,7.01-6.11,7.8c-3.72,0.79-7.37-1.24-8.75-4.65L90.05,318.36z M92.66,317.58"/>
	</g>
</g>
</svg>
