<?xml version="1.0" encoding="utf-8"?>
<!-- Generator: Adobe Illustrator 24.0.0, SVG Export Plug-In . SVG Version: 6.00 Build 0)  -->
<svg version="1.1" id="图层_1" xmlns="http://www.w3.org/2000/svg" xmlns:xlink="http://www.w3.org/1999/xlink" x="0px" y="0px"
	 viewBox="0 0 100 100" style="enable-background:new 0 0 100 100;" xml:space="preserve">
<style type="text/css">
	.st0{fill:#FFFFFF;}
</style>
<g>
	<path class="st0" d="M81.49,57.8h-5.38l-0.13,0.4c-1.08,3.46-2.79,6.62-5.1,9.39c-2.93-1.87-6.17-3.34-9.65-4.38
		c0.57-3.4,0.91-6.97,1.01-10.63H74.5c0.99,2.18,3.17,3.69,5.71,3.69c3.46,0,6.27-2.82,6.27-6.27s-2.82-6.27-6.27-6.27
		c-2.54,0-4.73,1.52-5.71,3.69H62.24c-0.1-3.67-0.45-7.24-1.01-10.63c3.48-1.05,6.73-2.52,9.65-4.38c2.31,2.79,4.02,5.94,5.09,9.37
		l0.13,0.4h5.39l-0.19-0.72C77.46,27.18,64.43,17.2,49.64,17.2s-27.81,9.97-31.66,24.25l-0.19,0.72h5.39l0.13-0.4
		c1.06-3.43,2.77-6.58,5.08-9.37c2.91,1.86,6.16,3.33,9.66,4.37c-0.57,3.4-0.91,6.98-1.01,10.64L25.5,47.4
		c-0.99-2.17-3.17-3.68-5.71-3.68c-3.46,0-6.27,2.82-6.27,6.27s2.82,6.27,6.27,6.27c2.54,0,4.73-1.52,5.71-3.69h11.52
		c0.1,3.67,0.45,7.24,1.01,10.64c-3.5,1.05-6.75,2.52-9.66,4.37c-2.31-2.78-4.02-5.94-5.09-9.39l-0.13-0.4h-5.39l0.19,0.72
		c3.83,14.29,16.86,24.27,31.67,24.27c14.8,0,27.82-9.98,31.67-24.27L81.49,57.8z M67.11,71.34c-2.94,2.41-6.37,4.2-10.01,5.23
		c1.21-2.27,2.26-5.1,3.06-8.27C62.62,69.06,64.95,70.08,67.11,71.34z M60.16,31.7c-0.82-3.19-1.87-6.02-3.07-8.27
		c3.64,1.02,7.07,2.81,10.02,5.22C64.95,29.91,62.62,30.93,60.16,31.7z M57.07,47.41H42.2c0.1-3.33,0.39-6.51,0.89-9.47
		c4.43,0.72,8.82,0.7,13.1,0.01C56.67,40.92,56.97,44.1,57.07,47.41z M57.06,52.59c-0.1,3.33-0.39,6.5-0.89,9.45
		c-4.26-0.69-8.66-0.71-13.09,0.01c-0.48-2.97-0.78-6.14-0.89-9.46H57.06z M44.14,32.88c1.92-7.33,4.54-10.51,5.49-10.51
		c0.95,0,3.58,3.18,5.5,10.5C51.46,33.45,47.78,33.45,44.14,32.88z M39.1,68.29c0.82,3.19,1.87,6.02,3.06,8.27
		c-3.63-1.03-7.06-2.81-10-5.22C34.32,70.09,36.65,69.06,39.1,68.29z M32.16,28.64c2.93-2.41,6.35-4.19,10-5.22
		c-1.19,2.26-2.24,5.08-3.06,8.27C36.66,30.93,34.33,29.91,32.16,28.64z M55.13,67.11c-1.92,7.33-4.55,10.5-5.5,10.5
		s-3.58-3.18-5.49-10.5C47.81,66.54,51.47,66.54,55.13,67.11z"/>
	<path class="st0" d="M56.05,4.64C55.33,1.97,52.89,0,50,0c-3.46,0-6.27,2.82-6.27,6.27s2.82,6.27,6.27,6.27
		c2.5,0,4.66-1.47,5.67-3.6c20.2,2.77,35.82,20.14,35.82,41.08c0,12.38-5.49,24.03-15.06,31.96l-0.31,0.26l1.62,4.21l0.61-0.48
		c11.1-8.78,17.47-21.88,17.47-35.95C95.8,26.83,78.46,7.61,56.05,4.64z"/>
	<path class="st0" d="M50,87.45c-2.52,0-4.7,1.5-5.69,3.65C24.17,88.29,8.52,70.83,8.52,50.03c0-11.41,4.79-22.44,13.15-30.27
		l0.28-0.26l-1.66-4.31l-0.62,0.54C9.83,24.44,4.19,36.94,4.19,50.03c0,23.22,17.36,42.44,39.78,45.4C44.71,98.06,47.13,100,50,100
		c3.46,0,6.27-2.82,6.27-6.27S53.46,87.45,50,87.45z"/>
</g>
</svg>
