<?xml version="1.0" encoding="utf-8"?>
<!-- Generator: Adobe Illustrator 24.0.0, SVG Export Plug-In . SVG Version: 6.00 Build 0)  -->
<svg version="1.1" id="图层_1" xmlns="http://www.w3.org/2000/svg" xmlns:xlink="http://www.w3.org/1999/xlink" x="0px" y="0px"
	 viewBox="0 0 100 100" style="enable-background:new 0 0 100 100;" xml:space="preserve">
<style type="text/css">
	.st0{fill:#FFFFFF;}
</style>
<g>
	<path class="st0" d="M48.88,27.73c-7.64,0-13.86-6.22-13.86-13.86S41.23,0,48.88,0s13.86,6.22,13.86,13.86S56.52,27.73,48.88,27.73
		z M48.88,6.56c-4.03,0-7.31,3.28-7.31,7.31s3.28,7.31,7.31,7.31s7.31-3.28,7.31-7.31S52.91,6.56,48.88,6.56z"/>
	<path class="st0" d="M57.21,100c-1.81,0-3.28-1.47-3.28-3.28v-23.5c0-3.92,3.19-7.11,7.11-7.11h1.38V38.34
		c0-1.5-1.22-2.72-2.72-2.72H38.04c-1.5,0-2.72,1.22-2.72,2.72v27.77h2.07c3.92,0,7.11,3.19,7.11,7.11v23.5
		c0,1.81-1.47,3.28-3.28,3.28c-1.81,0-3.28-1.47-3.28-3.28v-23.5c0-0.31-0.25-0.56-0.56-0.56h-2.94c-3.13,0-5.68-2.55-5.68-5.68
		V38.34c0-5.11,4.16-9.28,9.28-9.28h21.68c5.11,0,9.28,4.16,9.28,9.28v28.65c0,3.13-2.55,5.68-5.68,5.68h-2.26
		c-0.31,0-0.55,0.25-0.55,0.56v23.5C60.49,98.53,59.03,100,57.21,100z"/>
	<path class="st0" d="M23.02,30.91c-6.19,0-11.23-5.04-11.23-11.23S16.82,8.45,23.02,8.45s11.23,5.04,11.23,11.23
		S29.21,30.91,23.02,30.91z M23.02,15.01c-2.58,0-4.67,2.1-4.67,4.67s2.1,4.67,4.67,4.67s4.67-2.1,4.67-4.67
		S25.59,15.01,23.02,15.01z"/>
	<path class="st0" d="M19.87,100c-1.81,0-3.28-1.47-3.28-3.28V72.12c0-0.31-0.25-0.56-0.56-0.56h-1.6c-3.88,0-7.03-3.15-7.03-7.03
		V41.4c0-5.04,4.1-9.15,9.15-9.15h10.96c1.81,0,3.28,1.47,3.28,3.28s-1.47,3.28-3.28,3.28H16.56c-1.43,0-2.59,1.16-2.59,2.59v23.13
		c0,0.26,0.21,0.47,0.47,0.47h1.6c3.92,0,7.11,3.19,7.11,7.11v24.61C23.15,98.53,21.68,100,19.87,100z"/>
	<path class="st0" d="M74.83,30.91c-6.19,0-11.23-5.04-11.23-11.23S68.64,8.45,74.83,8.45s11.23,5.04,11.23,11.23
		S81.03,30.91,74.83,30.91z M74.83,15.01c-2.58,0-4.67,2.1-4.67,4.67s2.1,4.67,4.67,4.67s4.67-2.1,4.67-4.67
		S77.41,15.01,74.83,15.01z"/>
	<path class="st0" d="M77.98,100c-1.81,0-3.28-1.47-3.28-3.28V72.12c0-3.92,3.19-7.11,7.11-7.11h1.6c0.26,0,0.47-0.21,0.47-0.47
		V41.4c0-1.43-1.16-2.59-2.59-2.59H70.33c-1.81,0-3.28-1.47-3.28-3.28s1.47-3.28,3.28-3.28H81.3c5.04,0,9.15,4.1,9.15,9.15v23.13
		c0,3.88-3.15,7.03-7.03,7.03h-1.6c-0.31,0-0.56,0.25-0.56,0.56v24.61C81.26,98.53,79.79,100,77.98,100z"/>
</g>
</svg>
