<?xml version="1.0" encoding="utf-8"?>
<!-- Generator: Adobe Illustrator 24.0.0, SVG Export Plug-In . SVG Version: 6.00 Build 0)  -->
<svg version="1.1" id="图层_1" xmlns="http://www.w3.org/2000/svg" xmlns:xlink="http://www.w3.org/1999/xlink" x="0px" y="0px"
	 viewBox="0 0 111.65 83.73" style="enable-background:new 0 0 111.65 83.73;" xml:space="preserve">
<style type="text/css">
	.st0{fill:#FFFFFF;}
</style>
<path class="st0" d="M-0.02,23.26c0-12.82,10.41-23.21,23.24-23.21h39.14c12.29-0.01,22.46,9.55,23.2,21.82l19.15-10.12
	c1.44-0.76,3.17-0.71,4.57,0.13c1.39,0.84,2.25,2.34,2.26,3.97v54.2c0,1.63-0.85,3.14-2.25,3.98c-1.4,0.84-3.13,0.89-4.57,0.12
	L85.35,63.9C83.6,75.24,73.84,83.61,62.37,83.6H23.23c-6.17,0-12.08-2.44-16.43-6.8C2.43,72.46-0.01,66.55-0.02,60.4v-8.25
	c0-1.66,0.88-3.2,2.32-4.03c1.44-0.83,3.21-0.83,4.65,0.01c1.44,0.83,2.32,2.36,2.32,4.02v8.25c0,3.7,1.47,7.24,4.09,9.85
	c2.62,2.61,6.16,4.08,9.86,4.08h39.14c7.7,0,13.94-6.24,13.94-13.93v-4.07c0-1.63,0.85-3.15,2.25-3.99c1.4-0.84,3.14-0.88,4.58-0.11
	l19.11,10.11V23.56l-19.11,10.1c-1.44,0.76-3.17,0.71-4.57-0.13c-1.4-0.84-2.25-2.34-2.26-3.97v-6.3c0-3.7-1.47-7.24-4.09-9.85
	c-2.62-2.61-6.16-4.08-9.86-4.08H23.23c-3.7,0-7.24,1.46-9.86,4.08c-2.62,2.61-4.09,6.16-4.09,9.85v9.85c0,2.57-2.08,4.65-4.65,4.65
	c-2.57,0-4.65-2.08-4.65-4.65V23.26z M-0.02,23.26"/>
<path class="st0" d="M16.43,29.45c0.01-7.13,5.79-12.9,12.91-12.89H41.6c7.03,0.13,12.66,5.86,12.67,12.89
	c0,7.03-5.64,12.76-12.67,12.89H29.34c-3.42,0-6.71-1.35-9.13-3.77C17.79,36.15,16.43,32.87,16.43,29.45L16.43,29.45z M29.34,25.84
	c-1.32-0.05-2.56,0.63-3.23,1.77c-0.67,1.14-0.68,2.55,0,3.69c0.67,1.13,1.92,1.81,3.24,1.76H41.6c1.94-0.08,3.46-1.67,3.46-3.61
	c0-1.94-1.53-3.53-3.46-3.61L29.34,25.84L29.34,25.84z M29.34,25.84"/>
</svg>
