<?xml version="1.0" encoding="utf-8"?>
<!-- Generator: Adobe Illustrator 24.0.0, SVG Export Plug-In . SVG Version: 6.00 Build 0)  -->
<svg version="1.1" id="图层_1" xmlns="http://www.w3.org/2000/svg" xmlns:xlink="http://www.w3.org/1999/xlink" x="0px" y="0px"
	 viewBox="0 0 100 100" style="enable-background:new 0 0 100 100;" xml:space="preserve">
<style type="text/css">
	.st0{fill:#FFFFFF;}
</style>
<g>
	<path class="st0" d="M66.67,74.99c-1.23,0-2.43-0.53-3.26-1.56L46.75,52.6c-0.59-0.74-0.91-1.66-0.91-2.6V20.83
		c0-2.3,1.86-4.17,4.17-4.17c2.3,0,4.16,1.86,4.16,4.17v27.71l15.75,19.69c1.44,1.8,1.14,4.42-0.65,5.86
		C68.5,74.7,67.58,74.99,66.67,74.99"/>
	<path class="st0" d="M49.95,100c-13.25,0-25.78-5.12-35.3-14.65C3.11,73.81-1.97,57.85,0.7,41.56C4.21,20.11,21.78,3.2,43.41,0.42
		c17.25-2.2,34.1,4.41,45.11,17.7c1.47,1.77,1.22,4.4-0.55,5.87c-1.78,1.47-4.4,1.22-5.87-0.55C72.93,12.35,58.88,6.82,44.47,8.69
		C26.46,10.99,11.84,25.06,8.92,42.9c-2.23,13.61,2,26.93,11.62,36.55c9.62,9.61,22.94,13.85,36.55,11.62
		c17.87-2.93,32.3-18.2,34.31-36.3c0.46-4.16,0.32-8.32-0.42-12.36c-0.29-1.57-0.67-3.13-1.14-4.66c-0.68-2.2,0.56-4.53,2.76-5.2
		c2.2-0.69,4.53,0.56,5.21,2.76c0.56,1.82,1.02,3.71,1.36,5.6c0.9,4.84,1.07,9.82,0.51,14.78c-2.45,22.1-19.41,40.03-41.24,43.61
		C55.59,99.77,52.75,100,49.95,100"/>
</g>
</svg>
