<?xml version="1.0" encoding="utf-8"?>
<!-- Generator: Adobe Illustrator 24.0.0, SVG Export Plug-In . SVG Version: 6.00 Build 0)  -->
<svg version="1.1" id="图层_1" xmlns="http://www.w3.org/2000/svg" xmlns:xlink="http://www.w3.org/1999/xlink" x="0px" y="0px"
	 viewBox="0 0 56 56" style="enable-background:new 0 0 56 56;" xml:space="preserve">
<style type="text/css">
	.st0{fill:#01BBF4;}
	.st1{opacity:0.79;fill:#E8F7F9;}
	.st2{fill:#D7F4F9;}
</style>
<g>
	<path class="st0" d="M19.57,12.14c-0.55,0-1-0.45-1-1V3.37c0-0.55,0.45-1,1-1s1,0.45,1,1v7.76C20.57,11.69,20.12,12.14,19.57,12.14
		z"/>
	<path class="st0" d="M28,12.14c-0.55,0-1-0.45-1-1V3.37c0-0.55,0.45-1,1-1s1,0.45,1,1v7.76C29,11.69,28.55,12.14,28,12.14z"/>
	<path class="st0" d="M36.43,12.14c-0.55,0-1-0.45-1-1V3.37c0-0.55,0.45-1,1-1s1,0.45,1,1v7.76C37.43,11.69,36.98,12.14,36.43,12.14
		z"/>
	<path class="st0" d="M19.57,53.63c-0.55,0-1-0.45-1-1v-7.76c0-0.55,0.45-1,1-1s1,0.45,1,1v7.76
		C20.57,53.18,20.12,53.63,19.57,53.63z"/>
	<path class="st0" d="M28,53.63c-0.55,0-1-0.45-1-1v-7.76c0-0.55,0.45-1,1-1s1,0.45,1,1v7.76C29,53.18,28.55,53.63,28,53.63z"/>
	<path class="st0" d="M36.43,53.63c-0.55,0-1-0.45-1-1v-7.76c0-0.55,0.45-1,1-1s1,0.45,1,1v7.76
		C37.43,53.18,36.98,53.63,36.43,53.63z"/>
	<path class="st0" d="M11.14,37.43H3.37c-0.55,0-1-0.45-1-1s0.45-1,1-1h7.76c0.55,0,1,0.45,1,1S11.69,37.43,11.14,37.43z"/>
	<path class="st0" d="M11.14,29H3.37c-0.55,0-1-0.45-1-1s0.45-1,1-1h7.76c0.55,0,1,0.45,1,1S11.69,29,11.14,29z"/>
	<path class="st0" d="M11.14,20.57H3.37c-0.55,0-1-0.45-1-1s0.45-1,1-1h7.76c0.55,0,1,0.45,1,1S11.69,20.57,11.14,20.57z"/>
	<path class="st0" d="M52.63,37.43h-7.76c-0.55,0-1-0.45-1-1s0.45-1,1-1h7.76c0.55,0,1,0.45,1,1S53.18,37.43,52.63,37.43z"/>
	<path class="st0" d="M52.63,29h-7.76c-0.55,0-1-0.45-1-1s0.45-1,1-1h7.76c0.55,0,1,0.45,1,1S53.18,29,52.63,29z"/>
	<path class="st0" d="M52.63,20.57h-7.76c-0.55,0-1-0.45-1-1s0.45-1,1-1h7.76c0.55,0,1,0.45,1,1S53.18,20.57,52.63,20.57z"/>
	<path class="st1" d="M42.34,46.03H13.66c-2.07,0-3.75-1.68-3.75-3.75V13.6c0-2.07,1.68-3.75,3.75-3.75h28.68
		c2.07,0,3.75,1.68,3.75,3.75v28.68C46.09,44.35,44.41,46.03,42.34,46.03z"/>
	<path class="st0" d="M31.11,39.53H20.45c-2.23,0-4.04-1.81-4.04-4.04V20.38c0-2.23,1.81-4.04,4.04-4.04h15.11
		c2.23,0,4.04,1.81,4.04,4.04v14.38c0,0.45-0.26,0.85-0.66,1.05c-0.4,0.2-0.88,0.14-1.23-0.13l-4.48-3.52
		c-0.28-0.22-0.45-0.56-0.45-0.92v-9.39c-0.88,0.11-1.87,0.37-2.23,0.9c-0.53,0.8-0.56,2.08-0.53,2.5c0.03,0.32-0.08,0.65-0.3,0.89
		c-0.22,0.24-0.53,0.38-0.86,0.38h-4.62c-0.4,0-0.72,0.32-0.72,0.72v4.49c0,1.02,0.83,1.85,1.85,1.85h4.88
		c0.54,0,1.01,0.37,1.13,0.89l0.88,3.6c0.09,0.35,0.01,0.72-0.22,1C31.81,39.36,31.47,39.53,31.11,39.53z M20.45,18.68
		c-0.94,0-1.7,0.76-1.7,1.7v15.11c0,0.94,0.76,1.7,1.7,1.7h9.18l-0.31-1.26h-3.96c-2.3,0-4.18-1.87-4.18-4.18v-4.49
		c0-1.69,1.37-3.06,3.06-3.06h3.48c0.08-0.8,0.3-1.85,0.9-2.74c1.4-2.08,4.97-2.01,5.37-1.99c0.63,0.02,1.12,0.54,1.12,1.17v10.04
		l2.15,1.68V20.38c0-0.94-0.76-1.7-1.7-1.7H20.45z"/>
	<path class="st2" d="M35.55,18.68H20.45c-0.94,0-1.7,0.76-1.7,1.7v15.11c0,0.94,0.76,1.7,1.7,1.7h9.18l-0.31-1.26h-3.96
		c-2.3,0-4.18-1.87-4.18-4.18v-4.49c0-1.69,1.37-3.06,3.06-3.06h3.48c0.08-0.8,0.3-1.85,0.9-2.74c1.4-2.08,4.97-2.01,5.37-1.99
		c0.63,0.02,1.12,0.54,1.12,1.17v10.04l2.15,1.69V20.38C37.26,19.44,36.49,18.68,35.55,18.68z"/>
</g>
</svg>
