<?xml version="1.0" encoding="utf-8"?>
<!-- Generator: Adobe Illustrator 24.0.0, SVG Export Plug-In . SVG Version: 6.00 Build 0)  -->
<svg version="1.1" id="图层_1" xmlns="http://www.w3.org/2000/svg" xmlns:xlink="http://www.w3.org/1999/xlink" x="0px" y="0px"
	 viewBox="0 0 56 56" style="enable-background:new 0 0 56 56;" xml:space="preserve">
<style type="text/css">
	.st0{opacity:0.79;fill:#E8F7F9;}
	.st1{fill:#01BBF4;}
	.st2{fill:#D7F4F9;}
</style>
<g>
	<circle class="st0" cx="28" cy="28" r="14.63"/>
	<g>
		<polygon class="st1" points="32.43,5.02 23.91,5.02 19.66,12.41 23.91,19.81 32.43,19.81 36.68,12.41 		"/>
		<polygon class="st2" points="30.98,17.29 25.36,17.29 22.55,12.41 25.36,7.53 30.98,7.53 33.79,12.41 		"/>
		<polygon class="st1" points="46.61,28.48 38.09,28.48 33.83,35.88 38.09,43.27 46.5,43.27 49.7,37.9 50.87,35.88 		"/>
		<polygon class="st2" points="47.54,36.61 45.07,40.75 39.53,40.75 36.73,35.87 39.53,30.99 45.16,30.99 47.96,35.87 		"/>
		<polygon class="st1" points="20.87,37.89 22.03,35.87 17.78,28.48 9.26,28.48 5,35.87 9.26,43.26 17.67,43.26 		"/>
		<polygon class="st2" points="10.71,40.75 7.9,35.87 10.71,30.99 16.32,30.99 19.13,35.87 18.7,36.61 16.24,40.75 		"/>
		<path class="st1" d="M32.64,41.01c-0.19-0.33-0.58-0.48-0.95-0.37c-1.21,0.38-2.48,0.57-3.79,0.57c-1.29,0-2.54-0.19-3.73-0.54
			c-0.36-0.11-0.74,0.04-0.93,0.36c-0.27,0.46-0.05,1.04,0.46,1.2c1.35,0.41,2.77,0.62,4.21,0.62c1.47,0,2.9-0.22,4.27-0.65
			C32.67,42.04,32.9,41.47,32.64,41.01L32.64,41.01z"/>
		<path class="st1" d="M37.43,47.73c-0.23-0.38-0.71-0.5-1.1-0.3c-2.62,1.25-5.49,1.92-8.44,1.92c-2.97,0-5.86-0.68-8.48-1.93
			c-0.39-0.24-0.9-0.11-1.13,0.29l-0.02,0.03c-0.22,0.38-0.08,0.85,0.29,1.08l0.01,0.01l0.29,0.14c2.84,1.34,5.89,2.02,9.05,2.02
			c3.11,0,6.11-0.66,8.91-1.96c0.11-0.05,0.23-0.11,0.35-0.16C37.54,48.62,37.67,48.12,37.43,47.73L37.43,47.73z"/>
		<path class="st1" d="M37.39,17.56c-0.2,0.32-0.14,0.74,0.14,1.01c0.91,0.88,1.69,1.9,2.32,3.05c0.62,1.13,1.06,2.32,1.32,3.54
			c0.08,0.37,0.39,0.63,0.77,0.65c0.53,0.02,0.93-0.46,0.83-0.98c-0.29-1.39-0.79-2.73-1.48-3.99c-0.71-1.29-1.59-2.44-2.63-3.44
			C38.27,17.03,37.66,17.12,37.39,17.56L37.39,17.56z"/>
		<path class="st1" d="M40.95,10.11c-0.22,0.38-0.1,0.87,0.27,1.1c2.35,1.69,4.32,3.9,5.74,6.48c1.43,2.6,2.23,5.47,2.4,8.38
			c-0.02,0.46,0.34,0.84,0.8,0.85h0.04c0.44,0.01,0.78-0.34,0.81-0.77v-0.01l-0.02-0.32c-0.2-3.14-1.07-6.14-2.6-8.92
			c-1.5-2.73-3.52-5.04-6.01-6.88c-0.1-0.08-0.2-0.15-0.31-0.22C41.68,9.59,41.17,9.72,40.95,10.11L40.95,10.11z"/>
		<path class="st1" d="M13.95,25.71c0.38-0.04,0.67-0.34,0.72-0.72c0.14-1.26,0.47-2.51,1-3.71c0.52-1.18,1.19-2.26,1.99-3.2
			c0.24-0.29,0.26-0.69,0.05-1c-0.31-0.43-0.93-0.46-1.28-0.06c-0.92,1.08-1.68,2.29-2.26,3.61c-0.59,1.35-0.96,2.75-1.12,4.19
			C12.99,25.33,13.43,25.77,13.95,25.71L13.95,25.71z"/>
		<path class="st1" d="M6.01,27.42c0.43-0.06,0.74-0.45,0.71-0.89c-0.09-2.9,0.45-5.81,1.63-8.51c1.19-2.72,2.96-5.11,5.17-7.01
			c0.38-0.26,0.46-0.78,0.19-1.15l-0.02-0.03c-0.26-0.35-0.74-0.41-1.1-0.17l-0.01,0.01c-0.08,0.07-0.16,0.14-0.25,0.21
			c-2.37,2.07-4.2,4.6-5.47,7.5c-1.25,2.85-1.84,5.87-1.78,8.96c0,0.13,0.01,0.26,0.01,0.38C5.14,27.16,5.56,27.48,6.01,27.42
			L6.01,27.42z"/>
		<path class="st1" d="M6.01,27.42"/>
	</g>
</g>
</svg>
