<?xml version="1.0" encoding="utf-8"?>
<!-- Generator: Adobe Illustrator 24.0.0, SVG Export Plug-In . SVG Version: 6.00 Build 0)  -->
<svg version="1.1" id="图层_1" xmlns="http://www.w3.org/2000/svg" xmlns:xlink="http://www.w3.org/1999/xlink" x="0px" y="0px"
	 viewBox="0 0 56 56" style="enable-background:new 0 0 56 56;" xml:space="preserve">
<style type="text/css">
	.st0{opacity:0.79;fill:#E8F7F9;}
	.st1{fill:#01BBF4;}
</style>
<g>
	<path class="st0" d="M36.95,48.4H18.59v-26c0,0,16.28-10.3,16.75-10.4c2.45-0.53,3.44,0.75,3.53,2.17
		c0.05,0.75-1.91,8.23-1.91,8.23c7.15,0,13,5.85,13,13C49.95,42.55,44.1,48.4,36.95,48.4L36.95,48.4z M36.95,48.4"/>
	<g>
		<path class="st1" d="M42.44,22.28c-2.3-2.3-5.32-3.74-8.52-4.08c0.18-0.69,0.4-1.57,0.62-2.46c1.01-4.13,0.98-4.5,0.97-4.75
			c-0.06-0.92-0.39-1.73-0.95-2.32c-0.46-0.48-1.3-1.06-2.69-1.06c-0.42,0-0.86,0.05-1.3,0.15c-0.24,0.05-0.36,0.08-3.18,1.81
			c-1.39,0.86-3.29,2.04-5.64,3.51l-0.1,0.06c-3.68,2.3-7.35,4.63-8.08,5.08l-0.67,0.43v27.81h19.54c3.77,0,7.32-1.48,10-4.17
			c2.68-2.68,4.16-6.23,4.16-10S45.12,24.97,42.44,22.28z M31.3,18.99l-0.38,1.47h1.51c6.52,0,11.83,5.31,11.83,11.83
			s-5.31,11.83-11.83,11.83H15.24V19.93c6.97-4.41,14.85-9.34,15.95-9.93c0.25-0.05,0.48-0.07,0.68-0.07c0.83,0,1.25,0.37,1.31,1.14
			C33.14,11.61,32.3,15.16,31.3,18.99z"/>
		<path class="st1" d="M7.22,18.71c-0.65,0-1.17,0.53-1.17,1.17v25.04c0,0.65,0.53,1.17,1.17,1.17c0.64,0,1.17-0.52,1.17-1.17V19.88
			C8.39,19.23,7.86,18.71,7.22,18.71z"/>
	</g>
</g>
</svg>
