<?xml version="1.0" encoding="utf-8"?>
<!-- Generator: Adobe Illustrator 24.0.0, SVG Export Plug-In . SVG Version: 6.00 Build 0)  -->
<svg version="1.1" id="图层_1" xmlns="http://www.w3.org/2000/svg" xmlns:xlink="http://www.w3.org/1999/xlink" x="0px" y="0px"
	 viewBox="0 0 56 56" style="enable-background:new 0 0 56 56;" xml:space="preserve">
<style type="text/css">
	.st0{opacity:0.79;fill:#E8F7F9;}
	.st1{fill:#01BBF4;}
</style>
<g>
	<polygon class="st0" points="24.49,10.25 11.85,10.25 4.94,18.77 22.99,38.83 20.45,23.68 	"/>
	<polygon class="st0" points="31.23,10.25 43.87,10.25 50.78,18.77 32.73,38.83 35.27,23.68 	"/>
	<g>
		<path class="st1" d="M28.01,47.23C18.55,36.55,12.81,29.8,3.36,19.12c0.07-0.1,0.14-0.19,0.2-0.28c3.42-4.57,3.75-5.27,7.16-9.84
			c0.13-0.17,0.26-0.23,0.47-0.23c11.62,0,21.79,0,33.41,0c0.19,0,0.33,0.04,0.45,0.2c3.44,4.62,4.01,4.99,7.45,9.6
			c0.05,0.06,0.08,0.12,0.14,0.2C43.2,29.44,37.47,36.54,28.01,47.23L28.01,47.23z M28.02,43.02c0.26-0.3,0.5-0.6,0.76-0.87
			c0.23-0.25,0.39-0.53,0.48-0.87c1.5-5.1,3.01-9.69,4.51-14.79c0.15-0.5,0.3-1,0.45-1.53c-0.13,0.01-0.21,0.01-0.29,0.02
			c-1.63,0.28-3.27,0.57-4.9,0.85c-0.46,0.08-0.95,0.23-1.4,0.16c-1.39-0.22-2.76-0.53-4.14-0.81c-0.52-0.11-1.04-0.2-1.6-0.31
			c0.03,0.15,0.06,0.25,0.09,0.35c1.61,5.44,3.23,10.37,4.81,15.81C27.01,41.84,28.02,43.02,28.02,43.02z M16.97,20.82
			c0-0.06,0-0.09,0-0.12c-0.87-2.93-1.73-5.87-2.61-8.79c-0.02-0.08-0.17-0.18-0.26-0.19c-0.46-0.02-0.93,0.01-1.39-0.01
			c-0.25-0.01-0.4,0.08-0.55,0.26c-1.2,1.53-2.42,3.05-3.62,4.57c-0.6,0.76-1.2,1.52-1.81,2.28c0.23,0.27,0.39,0.53,0.79,0.59
			c2.6,0.37,5.19,0.77,7.79,1.16C15.86,20.65,16.4,20.74,16.97,20.82L16.97,20.82z M49.27,18.84c-0.01-0.03-0.01-0.04-0.02-0.05
			c-1.8-2.31-3.58-4.62-5.39-6.92c-0.07-0.09-0.23-0.14-0.34-0.15c-0.46-0.02-0.93,0.01-1.39-0.01c-0.25-0.01-0.34,0.08-0.41,0.31
			c-0.81,2.76-1.63,5.52-2.44,8.27c-0.05,0.16-0.09,0.33-0.14,0.51c0.07,0,0.1,0.01,0.13,0.01c3.01-0.45,6.03-0.92,9.04-1.35
			C48.76,19.4,49.04,19.21,49.27,18.84L49.27,18.84z M32.17,21.86c-0.05-0.16-0.08-0.25-0.11-0.35c-1.09-3-2.19-5.99-3.28-8.99
			c-0.3-0.81-0.3-0.8-1.17-0.81c-0.23,0-0.33,0.07-0.4,0.28c-1.15,3.17-2.31,6.33-3.46,9.5c-0.03,0.09-0.06,0.2-0.09,0.31
			c0.07,0.02,0.12,0.03,0.17,0.04c1.11,0.17,2.22,0.34,3.33,0.5c0.39,0.06,0.79,0.12,1.18,0.09c0.66-0.06,1.31-0.18,1.97-0.28
			C30.91,22.06,31.52,21.96,32.17,21.86L32.17,21.86z M10.75,23.41c-0.01,0.02-0.02,0.05-0.03,0.07c3.55,4.11,7.09,8.23,10.63,12.34
			c0.05-0.08,0.05-0.12,0.03-0.16c-1.08-3.66-2.17-7.32-3.24-10.99c-0.05-0.17-0.12-0.25-0.31-0.28c-1.62-0.22-3.23-0.45-4.84-0.67
			C12.25,23.62,11.5,23.51,10.75,23.41L10.75,23.41z M45.32,23.45c-0.1,0-0.14,0-0.18,0c-2.25,0.31-4.49,0.63-6.75,0.93
			c-0.28,0.04-0.38,0.17-0.45,0.42c-0.9,3.06-1.81,6.12-2.71,9.18c-0.16,0.54-0.32,1.08-0.47,1.63c0.02,0.01,0.04,0.02,0.06,0.03
			C38.31,31.58,41.8,27.53,45.32,23.45L45.32,23.45z M32.22,11.73c1.09,2.99,2.16,5.92,3.23,8.86c0.03-0.01,0.05-0.01,0.07-0.02
			c0.87-2.94,1.73-5.88,2.61-8.84H32.22z M20.45,20.08c0.02,0.01,0.05,0.01,0.07,0.01c1.01-2.77,2.03-5.55,3.05-8.36h-5.58
			C18.82,14.53,19.64,17.3,20.45,20.08L20.45,20.08z M20.45,20.08"/>
	</g>
</g>
</svg>
