<?xml version="1.0" encoding="utf-8"?>
<!-- Generator: Adobe Illustrator 24.0.0, SVG Export Plug-In . SVG Version: 6.00 Build 0)  -->
<svg version="1.1" id="图层_1" xmlns="http://www.w3.org/2000/svg" xmlns:xlink="http://www.w3.org/1999/xlink" x="0px" y="0px"
	 viewBox="0 0 56 56" style="enable-background:new 0 0 56 56;" xml:space="preserve">
<style type="text/css">
	.st0{fill:#01BBF4;}
	.st1{opacity:0.79;fill:#E8F7F9;}
	.st2{fill:#D7F4F9;}
</style>
<g>
	<path class="st0" d="M37.4,44.99h-5.16v-4.5v-1.04c0-0.32-0.08-0.56-0.23-0.73c-0.17-0.2-0.44-0.31-0.81-0.31
		c-0.38,0-0.64,0.11-0.81,0.31c-0.15,0.17-0.23,0.41-0.23,0.73v1.04v4.5h-12.4v-4.5v-1.04c0-0.32-0.08-0.56-0.23-0.73
		c-0.17-0.2-0.44-0.31-0.81-0.31c-0.36,0-0.62,0.11-0.79,0.31c-0.15,0.17-0.24,0.41-0.25,0.73v1.04v4.5H9.39
		c-0.69,0-1.04,0.35-1.04,1.04s0.35,1.04,1.04,1.04h7.32h14.48h7.84C37.99,46.14,37.4,44.99,37.4,44.99z"/>
	<path class="st1" d="M40.63,39.96H7.12c-2.61,0-4.72-2.11-4.72-4.72V13.65c0-2.61,2.11-4.72,4.72-4.72h33.51
		c2.61,0,4.72,2.11,4.72,4.72v21.59C45.35,37.85,43.23,39.96,40.63,39.96z"/>
	<path class="st0" d="M22,28.97c-0.23,0-0.45-0.08-0.62-0.22l-3.72-2.98l-2.23,2.1c-0.4,0.38-1.03,0.36-1.41-0.04
		c-0.38-0.4-0.36-1.03,0.04-1.41l2.86-2.7c0.36-0.34,0.92-0.37,1.31-0.05l3.57,2.86l4.35-6.17c0.17-0.24,0.44-0.4,0.74-0.42
		c0.29-0.02,0.59,0.09,0.79,0.3l6.05,6.18c0.39,0.39,0.38,1.03-0.02,1.41c-0.39,0.39-1.03,0.38-1.41-0.02l-5.21-5.32l-4.27,6.06
		c-0.16,0.23-0.4,0.38-0.68,0.41C22.09,28.97,22.04,28.97,22,28.97z"/>
	<g>
		<path class="st0" d="M53.47,40.02c0.09-0.49,0.14-0.99,0.14-1.5c0-0.49-0.05-0.96-0.13-1.42l-1.81-0.29
			c-0.17-0.64-0.44-1.24-0.78-1.79l1.09-1.5c-0.58-0.81-1.3-1.51-2.12-2.07l-1.59,1.12c-0.44-0.23-0.91-0.42-1.39-0.55l-0.3-1.91
			c-0.5-0.09-1.01-0.14-1.53-0.14c-0.48,0-0.94,0.05-1.39,0.12l-0.33,1.9c-0.34,0.09-0.66,0.21-0.97,0.34
			c-0.15,0.06-0.3,0.13-0.45,0.2l-1.57-1.15c-0.82,0.54-1.53,1.23-2.12,2.01l1.07,1.53c-0.37,0.58-0.65,1.21-0.84,1.89l-1.82,0.29
			c-0.08,0.46-0.13,0.94-0.13,1.42c0,0.24,0.01,0.48,0.04,0.72c0.02,0.27,0.06,0.53,0.11,0.79l1.78,0.31
			c0.14,0.56,0.35,1.09,0.61,1.58l-1.02,1.45c0.13,0.19,0.27,0.38,0.42,0.57l1.21,1.21c0.13,0.1,0.26,0.2,0.39,0.29l1.38-1
			c0.6,0.38,1.26,0.66,1.96,0.84l0.29,1.68c0.45,0.07,0.92,0.12,1.39,0.12c0.52,0,1.03-0.05,1.53-0.14l0.27-1.68
			c0.69-0.19,1.34-0.48,1.93-0.86l1.39,0.98c0.79-0.59,1.48-1.31,2.02-2.13l-1.04-1.44c0.24-0.46,0.43-0.95,0.56-1.47L53.47,40.02z
			 M45.05,42.47c-2.04,0-3.71-1.54-3.93-3.52c-0.02-0.14-0.03-0.29-0.03-0.44c0-1.14,0.49-2.16,1.26-2.89
			c0.71-0.66,1.65-1.07,2.7-1.07c2.18,0,3.96,1.77,3.96,3.96C49.01,40.7,47.24,42.47,45.05,42.47z"/>
		<circle class="st2" cx="45.05" cy="38.52" r="3.96"/>
	</g>
</g>
</svg>
