<?xml version="1.0" encoding="utf-8"?>
<!-- Generator: Adobe Illustrator 24.0.0, SVG Export Plug-In . SVG Version: 6.00 Build 0)  -->
<svg version="1.1" id="图层_1" xmlns="http://www.w3.org/2000/svg" xmlns:xlink="http://www.w3.org/1999/xlink" x="0px" y="0px"
	 viewBox="0 0 460 460" style="enable-background:new 0 0 460 460;" xml:space="preserve">
<style type="text/css">
	.st0{fill:#FFF8F8;}
	.st1{fill:#F4807D;}
	.st2{fill:#FF9F9F;}
	.st3{fill:#E27E71;}
	.st4{fill:none;stroke:#FFFFFF;stroke-width:0.975;stroke-miterlimit:10;}
	.st5{fill:#E8BF46;}
	.st6{fill:#FFFFFF;}
	.st7{clip-path:url(#SVGID_2_);fill:#E09D93;}
	.st8{clip-path:url(#SVGID_2_);fill:#E8B8AD;}
	.st9{clip-path:url(#SVGID_2_);fill:#16AFC5;}
	.st10{opacity:0.2;clip-path:url(#SVGID_4_);}
	.st11{clip-path:url(#SVGID_8_);fill:#E8B8AD;}
	.st12{clip-path:url(#SVGID_10_);fill:#904C98;}
	.st13{clip-path:url(#SVGID_10_);fill:#E09D93;}
	.st14{clip-path:url(#SVGID_10_);fill:#E8B8AD;}
	.st15{clip-path:url(#SVGID_10_);fill:#B06CA5;}
	.st16{fill:#C63939;}
	.st17{fill:url(#SVGID_11_);}
	.st18{fill:#28DB19;}
	.st19{fill:#2E2D35;}
	.st20{fill:#57565C;}
	.st21{fill:#FFC6C0;}
	.st22{fill:#FFE3DE;}
	.st23{fill:#D68B85;}
	.st24{fill:#E8B8AD;}
	.st25{fill:#E09D93;}
	.st26{fill:#904C98;}
	.st27{fill:#FFF5F3;}
	.st28{fill:#35474E;}
	.st29{fill:#5F7B87;}
	.st30{fill:#CEB2B0;}
	.st31{fill:#E8B7AC;}
	.st32{fill:none;stroke:#E09D93;stroke-width:0.975;stroke-miterlimit:10;}
	.st33{fill:#272633;}
	.st34{fill:#303549;}
	.st35{fill:#B06CA5;}
	.st36{fill:#2D6EB5;stroke:#FFFFFF;stroke-width:2;stroke-miterlimit:10;}
	.st37{fill:#EEB819;}
	.st38{clip-path:url(#SVGID_12_);fill:#FFFFFF;}
	.st39{clip-path:url(#SVGID_13_);fill:#FFFFFF;}
</style>
<g>
	<g>
		<circle class="st0" cx="238.72" cy="217.6" r="210.02"/>
	</g>
	<circle class="st1" cx="238.72" cy="217.6" r="182.14"/>
	<g>
		<path class="st2" d="M386.25,102.81h-58.12c-3.2,0-5.8-2.59-5.8-5.8v0c0-3.2,2.59-5.8,5.8-5.8h58.12c3.2,0,5.8,2.59,5.8,5.8v0
			C392.05,100.22,389.45,102.81,386.25,102.81z"/>
		<path class="st2" d="M408.17,125.25h-58.12c-3.2,0-5.8-2.59-5.8-5.8v0c0-3.2,2.59-5.8,5.8-5.8h58.12c3.2,0,5.8,2.59,5.8,5.8v0
			C413.96,122.65,411.37,125.25,408.17,125.25z"/>
		<path class="st2" d="M371.89,108.24c0-3,2.43-5.42,5.42-5.42H359.4c3,0,5.42,2.43,5.42,5.42c0,3-2.43,5.42-5.42,5.42h17.91
			C374.32,113.66,371.89,111.23,371.89,108.24z"/>
	</g>
	<g>
		<path class="st3" d="M219.35,93.39h5.22c0.34,0,0.62-0.28,0.62-0.62V86.6c0-0.34-0.28-0.62-0.62-0.62h-5.22
			c-0.34,0-0.62,0.27-0.62,0.62v6.17C218.73,93.11,219.01,93.39,219.35,93.39"/>
		<path class="st4" d="M219.35,93.39h5.22c0.34,0,0.62-0.28,0.62-0.62V86.6c0-0.34-0.28-0.62-0.62-0.62h-5.22
			c-0.34,0-0.62,0.27-0.62,0.62v6.17C218.73,93.11,219.01,93.39,219.35,93.39z"/>
		<path class="st3" d="M209.05,93.39h5.22c0.34,0,0.62-0.28,0.62-0.62V81.76c0-0.34-0.28-0.62-0.62-0.62h-5.22
			c-0.34,0-0.62,0.27-0.62,0.62v11.01C208.43,93.11,208.71,93.39,209.05,93.39"/>
		<path class="st4" d="M209.05,93.39h5.22c0.34,0,0.62-0.28,0.62-0.62V81.76c0-0.34-0.28-0.62-0.62-0.62h-5.22
			c-0.34,0-0.62,0.27-0.62,0.62v11.01C208.43,93.11,208.71,93.39,209.05,93.39z"/>
		<path class="st3" d="M198.76,93.39h5.22c0.34,0,0.62-0.28,0.62-0.62V76.91c0-0.34-0.28-0.62-0.62-0.62h-5.22
			c-0.34,0-0.62,0.28-0.62,0.62v15.85C198.14,93.11,198.41,93.39,198.76,93.39"/>
		<path class="st4" d="M198.76,93.39h5.22c0.34,0,0.62-0.28,0.62-0.62V76.91c0-0.34-0.28-0.62-0.62-0.62h-5.22
			c-0.34,0-0.62,0.28-0.62,0.62v15.85C198.14,93.11,198.41,93.39,198.76,93.39z"/>
	</g>
	<g>
		<path class="st5" d="M260.88,76.43c-8.72,0-15.78,6.84-15.78,15.28c0,5.89,7.7,20.46,12.34,28.72c1.51,2.68,5.38,2.68,6.89,0
			c4.64-8.26,12.34-22.83,12.34-28.72C276.66,83.27,269.59,76.43,260.88,76.43"/>
		<path class="st6" d="M262.86,101.73c-7.15,1.35-13.29-4.78-11.94-11.92c0.76-3.99,3.98-7.2,7.97-7.95
			c7.14-1.35,13.29,4.79,11.94,11.92C270.08,97.76,266.86,100.97,262.86,101.73"/>
		<path class="st6" d="M260.73,81.67c5.6,0,10.14,4.53,10.14,10.12c0,5.59-4.54,10.12-10.14,10.12c-5.6,0-10.14-4.53-10.14-10.12
			C250.59,86.2,255.13,81.67,260.73,81.67"/>
		<g>
			<defs>
				<path id="SVGID_1_" d="M251.49,91.79c0,5.09,4.14,9.22,9.24,9.22c5.1,0,9.24-4.13,9.24-9.22c0-5.09-4.14-9.22-9.24-9.22
					C255.63,82.57,251.49,86.7,251.49,91.79"/>
			</defs>
			<clipPath id="SVGID_2_">
				<use xlink:href="#SVGID_1_"  style="overflow:visible;"/>
			</clipPath>
			<path class="st7" d="M261.59,96.55v-2.31h-1.71v2.31c-2.6,0.41-4.59,2.66-4.59,5.37h10.89C266.17,99.2,264.19,96.96,261.59,96.55
				"/>
			<path class="st7" d="M258.27,92.61c0,0.25-0.2,0.46-0.46,0.46c-0.25,0-0.46-0.21-0.46-0.46c0-0.25,0.2-0.46,0.46-0.46
				C258.07,92.16,258.27,92.36,258.27,92.61"/>
			<path class="st7" d="M263.19,92.61c0,0.25,0.2,0.46,0.46,0.46c0.25,0,0.46-0.21,0.46-0.46c0-0.25-0.2-0.46-0.46-0.46
				C263.39,92.16,263.19,92.36,263.19,92.61"/>
			<path class="st8" d="M260.73,87.53c-1.61,0-2.92,1.3-2.92,2.91v1.86c0,1.61,1.31,2.91,2.92,2.91c1.61,0,2.92-1.3,2.92-2.91v-1.86
				C263.64,88.83,262.34,87.53,260.73,87.53"/>
			<path class="st9" d="M263.07,97.01c-0.59,0.49-1.35,0.78-2.17,0.78c-0.88,0-1.68-0.33-2.29-0.88c-1.95,0.83-3.32,2.76-3.32,5.01
				h10.89C266.17,99.75,264.91,97.88,263.07,97.01"/>
			<path class="st9" d="M257.81,91.76v-2.4c0-0.61,0.35-1.16,0.9-1.42l3.38-1.24l-0.53,0.73l2.99-0.77l-1.86,1.4h1.61l-0.3,0.38
				c-0.22,0.28-0.35,0.63-0.35,0.98v2.51l-0.9-2.97h-4.03L257.81,91.76z"/>
		</g>
	</g>
	<g>
		<defs>
			<circle id="SVGID_3_" cx="238.72" cy="217.6" r="182.14"/>
		</defs>
		<clipPath id="SVGID_4_">
			<use xlink:href="#SVGID_3_"  style="overflow:visible;"/>
		</clipPath>
		<g class="st10">
			<g>
				<defs>
					<rect id="SVGID_6_" x="-17.01" y="56.91" width="513.48" height="237.55"/>
				</defs>
				<clipPath id="SVGID_8_">
					<use xlink:href="#SVGID_6_"  style="overflow:visible;"/>
				</clipPath>
				<path class="st11" d="M315.03,89.17c2.24-1.83-0.84-3.75,1.65-5.85c3.77-3.18,12.18,0.96,15.49-2.7
					c4.75-5.24-11.99-2.27-14.27-1.6c-1.4,0.41-13.52,6.48-11.63,8.29c-0.74-0.22-1.35-0.34,0.5,0.29
					C309.07,88.06,312.79,90.99,315.03,89.17"/>
				<path class="st11" d="M157.44,201.55c-2.41-3.65-2.64-6.06-7.41-8.47c-1.74-0.87-3.72-1.03-5.39-2.06
					c-1.35-0.82-2.41-1.64-3.17-2.91c-0.41-0.69,0.5-1.96,0.1-2.68c0.27,0.68-4.1-0.27-2.96-0.27c-0.95,0-2.37,0.01-3.24-0.02
					c0.05,0-4.87,0.39-4.38,0.55c-0.68-0.22-1.08-1.72-1.38-1.8c-2.32-0.65-4.33-1.39-6.56-0.68c-2.34,0.74-3.42,4.12-5.61,4.83
					c-0.76,0.25-4.88,0.3-5.76,0.15c-3.16-0.54-3.3-1.24-3.54-3.76c-0.21-2.24,2.14-4.46-0.42-6.54c-2.02-1.64-4.7-0.04-5.84-2.22
					c-0.97-1.85,2.57-5.45,0.69-7.26c-2.43-2.35-5.21,1.23-6.45,1.95c-2.05,1.21-3.23,3.03-6.4,1.44c-2.4-1.2-2.13-2.49-2.18-4.69
					c-0.09-3.93-0.84-7.27,3.36-8.93c1.99-0.79,4.38-0.93,6.43-1.6c1.36-0.44,2.82-1.57,4.07-1.72c4.73-0.55,5.73,2.68,7.81,5.06
					c4.64,5.31,3.09-1.54,3.26-3.93c0.28-3.84,3.97-5.54,6.15-8.84c1.79-2.72,1.62-7.41,4.15-9.23c1.84-1.32,3.91-0.81,5.5-2.68
					c0.31-0.36-0.69-1.73,0.17-2.65c0.86-0.91,2.16-1.38,3.51-1.34c1.08,0.03,1.24,1.62,2.6,1.71c1.14,0.08,1.23-0.29,2.38-0.48
					c1.69-0.28,3.09-1.04,4.27-2.03c3.31-2.78,1.27-4.25,7.05-3.85c3.27,0.23,5.66,0.75,4.62-2.42c-0.81-2.49-4.28-2.01-4.93-3.16
					c-0.61-1.08,1.93-3.1,1.42-4.61c-0.04-0.12-3.82-3.42-4.07-3.58c-1.91-1.19-3.24-1.21-4.77-2.82c-1.08-1.13-2.26-4.85-4.01-5.39
					c-3.03-0.94-1.79,1.85-3.91,1.97c-2.37,0.13-2.18-1.25-3.07-1.77c-2.39-1.38-6.41-3.83-10.05-3.45c-2.85,0.3-3.37,2.1-3.97,4.31
					c-0.68,2.49-0.67,0.36-0.14,2.42c0.49,1.92,2.16,2.32,0.85,4.22c0.44-0.63-3.97,1.39-3.16,1.11c-2.53,0.89-1.21,1.39-3.62,0.33
					c-1.05-0.46-1.39-1.64-2.58-2.08c-1.26-0.47-3.18-0.28-4.6-0.67c-2.8-0.75-10.17-2.79-9.49-5.92c0.28-1.26,3.79-3.67,4.89-4.2
					c2.61-1.27,3.65-0.33,6.52-0.27c1.89,0.04,8.17,0.32,8.78-0.93c0.83-1.7-3.88-2.04-3.88-3.14c0.01-1.29,1.08-0.25,1.37-1.5
					c0,0.01,1.28-0.83,1.44-1.21c0.32-0.75-0.83-2.74-1.01-2.4c0.71-1.34,5.22-1.28,6.25-0.13c0.97,1.07-0.35,2.01-0.8,3.1
					c-0.11,0.27,0.74,0.62,0.56,1.06c-0.19,0.45-1.21,0.16-1.29,0.68c-0.25,1.84-1,2.19,0.8,3.41c1.88,1.27,6.24,0.31,8.68,1.05
					c3.36,1.02,6.4,3.85,9.71,1.68c2.77-1.81,0.43-1.41,0.41-3.52c0-0.46-0.05-0.79-0.12-1.02c0.46,0.22,1.4,0.36,3.21-0.01
					c7.04-1.44-1.87-4.48-3.6-5.56c-1.79-1.11-1.91-2.78-3.49-3.96c-1.36-1.01-3.54-1.05-5.24-1.39c-3.83-0.77-6.85-2.85-10.56-3.73
					c-2.86-0.68-5.9,0.32-8.87,0.23c-3.07-0.1-6.25-0.74-9.29-1.1c-8.29-0.98-16.58-1.96-24.87-2.94c-2.96-0.71-1.89-6.01-6.36-4.96
					c-1.86,0.44-2.14,3.15-3.05,3.35c-1.97,0.44-3.98-1.83-6.45-1.44c-2.45,0.39-4.38,2.34-6.01,3.77c-0.55,0.49,0,1.3-0.33,1.59
					c-0.5,0.43-1.54,0.15-1.94,0.52c-1.13,1.04-2.73,1.64-2.9,3.33c-0.04,0.38,0.28,1.78,0.27,1.88c-0.04,0.51,1.8,0.02,1.63,0.77
					c-0.32,1.35-9.09,0.86-10.87,0.96c-1.36,0.08-2.81-0.35-4.14-0.22c-1.83,0.18-2.37,1.23-4.49,1.35
					c-2.43,0.14-6.77-1.11-9.45-1.35c-3.52-0.31-7.39-0.31-10.81-1.04c-1.97-0.42-5.97-2.33-7.78-2.1
					c-1.98,0.25-4.14,1.65-6.55,2.44c-1.31,0.43-6.47,1.85-6.81,2.99c-0.46,1.55,2.87,2.66,4.47,3.61
					c-1.17-0.69-5.41-1.11-6.78,0.35c-3.27,3.45,2.22,2.97,2.99,4.93c0.51,1.29-2.75,3.32-0.86,5.57c1.26,1.5,3.86,0.99,5.21,1.3
					c-0.56-0.13,2.71,1.33,2.49,1.24c0.33,0.14,1.72-0.72,2.29-0.1c1.52,1.68-4.37,3.1-5.62,4.24c-4.33,3.96,4.46,1.27,7.1,0.41
					c1.46-0.48,3.15-0.91,4.54-1.42c1.11-0.41,2.39,0.3,3.33-0.68c1.11-1.14-0.37-2.09,0.28-3.21c2.57-4.46,11.54-2.11,16.08-0.91
					c4.02,1.06,7.11,3.17,9.77,5.85c1.67,1.69,1.85,4.69,4.14,5.74c1.97,0.91,2.47-0.48,4.43,1.25c2.23,1.98,5.49,6.16,6.5,8.75
					c1.78,4.57-1.84,8.99,1.71,13.16c2.21,2.6,5.5,4.51,7.58,7.2c1.43,1.86,2.65,4.18,3.7,6.22c0.81,1.57,0.4,4.32,1.16,5.33
					c0.72,0.95,3.42,1.03,4.46,1.74c1.39,0.97,1.66,3.34,3.03,4.07c1.73,0.92,2.97-0.58,4.27,0.04c2.48,1.18,2.43,5.21,4.56,6.9
					c1.56,1.23,4.28,1.51,6.03,2.55c1.13,0.67,2.03,2.05,3.21,2.54c2.1,0.88,2.88-0.15,5.05,0.26c2.32,0.44,5.1,3.1,7.38,4.09
					c2.82,1.21,2.77,0.83,4.44,3.09c1.17,1.59,1.11,3.3,3.48,4.43c2.52,1.2,13.34,0.82,8.81,5.72c-3.13,3.39-6.29,1.87-7.76,6.71
					c-0.67,2.23,0.22,2.91,0.07,5.01c-0.11,1.48-1.52,2.36-1.63,3.28c-0.34,2.7,0.97,2.55,2.76,4.98c2.82,3.83,1.71,9.45,5.16,12.81
					c5.14,5,13.45,4.17,11.74,12.41c-0.79,3.81-2.11,7.23-2.15,11.09c-0.02,1.86,0.54,4.09,0.12,5.92
					c-0.38,1.66-2.07,3.13-2.38,4.79c-0.59,3.11,1.26,6.27,0.37,9.78c-0.33,1.3-1.6,2.6-1.83,3.84c-0.37,2.02,0.29,4.55,0.46,6.63
					c0.22,2.55,0.38,6.3,2.38,8.39c1.78,1.85,9.5,5.44,9.78,2.03c0.12-1.5-2.05-3.32-2.37-4.82c-0.39-1.85,0.09-2.94,0.6-4.77
					c1.18-4.21,3.13-6.4,6.51-9.51c6.39-5.89,11.28-11.6,16.72-18.14c1.87-2.24,4.34-4.17,5.87-6.55c1.14-1.78,1.36-4.36,3.07-5.86
					c2.4-2.11,5.78-1.82,7.64-4.78c2.23-3.55,1.82-8.24,3.69-11.91c1.68-3.3,5.79-7.55,5.67-11.27
					C179.72,205.33,161.73,208.05,157.44,201.55"/>
				<path class="st11" d="M141.57,185.44c-0.01-0.01-0.01-0.03-0.03-0.05C141.56,185.4,141.56,185.42,141.57,185.44"/>
				<path class="st11" d="M141.55,185.39c-0.03-0.05-0.07-0.1-0.12-0.14C141.49,185.3,141.52,185.34,141.55,185.39"/>
				<path class="st11" d="M447.61,269.07c-2.9,0.74-6.13,1.76-1.7,4.26C450.81,276.1,450.1,267.6,447.61,269.07"/>
				<path class="st11" d="M419.3,187.53c-1.71-2.16-2.12-0.03-4.65-0.59c-4.59,0.48-1.28,5.55,2.44,4.9
					C419.14,191.48,420.64,189.23,419.3,187.53"/>
				<path class="st11" d="M443.6,225.31c-1.53-3.61-3.7-9.53,3.01-7.35c1.74,0.56,3.39,3.42,4.66,0.55
					c0.88-1.99-2.43-4.27-3.69-5.56c-3.92-4.01-6.33-6.66-12.45-8.08c-2.64-0.61-9.68-2.54-10.45,0.44
					c-0.23,0.87,1.98,3.43,2.72,4.09c2.1,1.89,4.84,1.87,6.42,4.13c0.73,1.05,0.08,1.93,1.14,3.14c0.32,0.37,1.71,0.56,2.29,0.98
					c2.51,1.85,2.48,3.15,2.39,5.79c-0.12,3.29-1.35,10.63-6.09,4.82c-1.47-1.8,0.41-3.37-0.64-4.87c-0.85-1.21-4.3-1.64-5.68-1.55
					c-2.1,0.14-1.27-0.46-3.44,0.99c-0.63,0.42-1.84,1.85-2.31,2.09c-1.17,0.61-1.58,0.39-2.66,0.65c-3.29,0.81-3.32,0.74-5.64,3.21
					c-1.26,1.34-2.48,3.67-3.61,4.67c-3.02,2.68-9.6,2.51-11.48,6.47c-1.53,3.23,0.12,8.7,1.63,11.76c0.98,1.98,1.4,3.29,1.42,5.33
					c0.02,2.1-2.15,4.17,1.69,4.79c6.95,1.12,17.87-12.34,24.8-5.15c1.84,1.91,0.47,3.35,3.55,4.31c3.62,1.13,3.3-0.49,5.87,2.72
					c2.38,2.97,3.42,3.61,7.63,3.29c2.88-0.22,5.04-0.27,7.08-2.44c8.73-9.32,4.1-19.19-0.59-28.75
					C447.09,232.16,445.59,230.02,443.6,225.31"/>
				<path class="st11" d="M413.36,217.92c-1.13,0.96-1.37,1.89-1.46,3.39c-0.01,0.08-0.01,0.18-0.02,0.29
					c0.23,0.87,0.3,0.74,0.3,0.37c1.53,0.88,8.04-2.2,6.48-4.51C417.77,216.12,414.36,217.07,413.36,217.92"/>
				<path class="st11" d="M486.92,260.75c-0.33,0.27,0.17,4.32,0.17,5.01c-0.04,4-0.75,2.18-3.5,4.54c-1.36,1.17-5.5,3.6-5.93,5.1
					c-0.42,1.5,1.38,4.12,3.56,3.82c1.73-0.24,4.38-4.9,5.47-6.04c1.72-1.8,3.28-1.98,5.01-3.4
					C495.9,266.33,489.45,258.72,486.92,260.75"/>
				<path class="st11" d="M410.43,208.65c1.02,1.08,2.59-0.07,3.34,0.49c0.77,0.56-0.09,1.37,0.89,2.07c4.8,1.49,2.26-8.76-2.11-7.5
					C411,204.15,409.21,207.36,410.43,208.65"/>
				<path class="st11" d="M496,92.02c-1.52-3.15-7.99-3.76-11.59-3.43c-2.77,0.25,0.32,1.41-2.95,1.51
					c-2.06,0.06-1.85-0.62-3.53-0.9c-2.21-0.38-3.71-0.2-6-0.21c-4.15,0-7.37-1.69-11.64-1.63c-2.42,0.03-4.44,0.51-6.69-0.46
					c-1.57-0.68-1.16-2.18-3.56-2.75c-1.36-0.32-4.23,0.73-5.42-0.26c-1.43-1.18,0.33-2.84-1.43-4.36c-0.69-0.6-4.19-1.15-5.29-1.06
					c-3.45,0.26-2.46,0.86-3.07,3c-0.33,1.18,1.07,4.1-1.18,5.14c-1.07,0.49-4.31-0.46-5.64-0.47c-0.09,0-4.44,0.13-3.81,0.3
					c-3.12-0.86,1.85,1.54-1.27-0.01c-2.07-1.02-1.2-3.5-4.12-4.28c-3.47-0.92-7.45,1.54-10.92,1.63c-1.72,0.04-5.38-0.26-6.91-0.92
					c-3.01-1.28-1.74-2.86-3.75-4.23c-1.94-1.32-10.14-1.81-12.82-1.79c-3.35,0.02-7.07,1.72-10.48,2.17
					c-3.83,0.5-7.48,0.75-11.25,1.54c-4.83,1.02-9.78,2.46-14.7,3.09c-3.08,0.39-6.18-0.31-8.8,1.52c-1.78-4.72-7.27-0.37-8.52,1.79
					c-1.54,2.64,0.88,4.94-2.65,4.67c-1.48-0.11-2.76-1.7-4.24-1.9c-2.22-0.29-2.41,0.41-4.33,0.85c-3.18,0.73-6.02,1.06-9.51,1.26
					c-2.51,0.15-5.01,0.38-7.52,0.29c-1.76-0.06-3.21-0.41-4.94-0.1c-2.08,0.37-2.08,1.75-4.74,1.52
					c-5.62-0.49-10.97-4.32-16.65-5.21c-5.38-0.84-13.27-1.58-18.29,1.02c-2.68,1.39-3.28,4.06-5.54,5.83
					c-2.49,1.95-6.32,2.32-8.95,4.08c-2.44,1.63-4.77,4.39-4.18,7.28c0.24,1.15,1.31,2.07,1.99,3.01c1.51,2.07,1.85,0.27,1.16,3.13
					c-0.54,2.21-2.6,4.75-5.87,5.2c-3.66,0.5-5.6-2.99-7.14-5.48c-1.67-2.7-2.29-5.97-6.45-4.5c-2.02,0.71-1.68,1.21-2.72,2.59
					c-0.29,0.38,0.53,0.82-0.11,1.65c-0.55,0.7-2.21,0.96-2.62,1.54c-2.29,3.2-2.16,4.87,2.17,6.06c1.82,0.5,3.23-1.09,4.59,1.42
					c0.77,1.41,0.17,2.43-1.11,3.65c1.62,0.76,3.26,1.94,3.64,3.54c0.8,3.35-1.33,2.27-3.59,3.19c-4.56,1.87-8.42,5.21-6.3,9.95
					c1.05,2.34,2.81,1.47,2.49,4.59c-0.18,1.72-1.64,3.82-2.33,5.44c-1.7,3.98-4.18,5.54-7.11,8.88c-2.1,2.38-3.69,5.56-3.85,8.56
					c-0.09,1.69,0.87,3.43,0.9,5.13c0.03,2.02-0.89,3.95-1.07,5.95c-0.48,5.33,3.66,4.22,6.52,8.13c2.04,2.79,1.7,9.01,7.59,8.4
					c1.22-0.13,2.51-1.5,3.64-1.89c1.95-0.68,4.3-0.93,6.37-1.13c4.83-0.46,6.49,0.61,10.5,2.37c1.35,0.59,3.64,0.39,4.33,1.54
					c1.02,1.7-1.09,4.56-1.13,6.26c-0.08,3.91,3.75,6.85,4.99,10.51c2.41,7.16-2.39,13.13,0.27,19.78c1.28,3.18,2.83,6.08,3.51,9.39
					c0.77,3.72,2.27,6.1,3.67,9.62c1.34,3.37,0.29,5.92,5.41,6.64c5.16,0.73,8.34-1.98,12.09-4.45c5.98-3.94,9.07-11.03,10.59-17.27
					c0.5-2.04,0.36-2.9,1.7-4.65c1.17-1.53,3.35-2.4,4.41-4.04c2.94-4.53,0.72-8.91,0.55-13.55c-0.13-3.48,1.9-6.9,3.5-10.09
					c1.66-3.32,4.39-4.65,6.83-7.49c1.89-2.21,3.37-5.16,4.3-7.79c0.75-2.13,1.78-3.93-1.07-5.36c-2.97-1.5-5.24,1.61-7.76,0.53
					c-5.46-2.34,7.45-5.26,8.87-5.9c3.51-1.58,8.52-4.05,10.96-6.79c0.77-0.86,2.26-3.15,2.37-4.21c0.28-2.64-0.7-1.96-2.28-3.81
					c-0.73-0.85-3.27-3.54-2.41-4.71c1.29-1.77,4.16,1.12,5.69,1.92c4.15,2.19,6.93-0.7,10.43,1.86c1.77,1.3,2.03,3.6,3.65,4.69
					c2.78,1.87,2.29-0.43,3.56,2.46c1.15,2.62,0.81,5.96,1.89,8.75c0.85,2.2,2.35,7.92,4.4,9.28c4.18,2.77,5.35-3.28,5.76-5.46
					c0.86-4.53,2.05-5.55,5.68-9.17c1.66-1.66,5.67-7.31,9.13-6.49c2.31,0.55,2.29,2.66,3.14,4.22c0.4,0.73,0.49,1.92,1.06,2.57
					c1.59,1.81,1.85,0.88,3.64,1.95c2.99,1.78,3.87,6.17,4.3,9.69c0.18,1.49-0.55,2.6-0.11,4.15c0.58,2.04,2.34,4.21,3.4,6.1
					c0.85,1.52,4.18,8.33,5.76,3.46c0.74-2.27-3.23-6.67-4.24-8.79c-1-2.08-3.97-9.36,0.83-6.14c1.29,0.86,1.46,2.8,3.05,3.42
					c2.92,1.13,5.62-1.36,6.87-3.31c2.11-3.28,0.75-6.38-1.15-9.41c-0.86-1.36-2.91-2.97-2.62-4.41c0.87-4.33,2.2-1.14,3.14-0.57
					c0.7,0.41-0.24,1.09,0.6,1.5c1.71,0.84,2.66,0.02,3.94-0.78c1.17-0.73,1.78-2.45,2.74-3.4c2.88-2.82,7.68-4.68,10.14-7.76
					c2.35-2.95,2.5-6.71,1.46-9.97c-0.79-2.49-1.25-2.19-0.26-4.86c0.11-0.31,1.06-0.7,1.27-1.1c0.46-0.84-0.07-2.05,0.39-2.92
					c2.83-5.27,3.84,4.35,5.9,5.58c6.96,4.17,3.22-5.87,3.21-7.02c0-4.8,4.94-4.87,8.73-6.42c3.72-1.52,5.47-4.88,7.42-7.71
					c4.01-5.81,1.46,2.05,4.53,3.02c2.7,0.85,2.04-7.6,1.62-9.18c-0.39-1.46-0.43-2.88-1.74-3.95c-0.96-0.78-4.26-0.3-5.08-1.09
					c-1.85-1.79,3.56-6.21,6.32-7.07c3.03-0.94,7.63-0.41,10.9-0.35c1.83,0.03,2.99,0.18,4.58-0.33c1.96-0.63,3.95-2.96,6-3.21
					c8.41-0.99-2.26,4.91-3.32,6.26c-1.83,2.32-2.05,7.79-0.69,10.23c2.16,3.85,4.79-1.29,7.02-3.84c2.45-2.81,4.74-5.74,7.26-8.5
					c4.33-4.73,13.49-1.64,19.19-5.84C495.99,100.35,497.22,94.55,496,92.02 M277.75,152.07c-3.96,0.6-10.24-1.56-14.25-2.17
					c-2.65-0.49-3.93,2.52-7.01,2.07c-1.83-0.27-4.37-1.93-5.97-2.73c-2.58-1.3-2.52-1.58-3.84-3.81c-1.37-2.34-1.67-3.12-5.28-3.29
					c-2.34-0.11-10.01,2.52-11.28,0.88c-1.22-1.58,4.83-7.14,6.2-8.07c1.68-1.13,3.61-1.81,6.08-1.74c3.3,0.1,3.02,0.82,5.5,2.56
					c1.37,0.96,3.29,2.05,4.81,2.79c0.95,0.46,0.55,1.25,1.81,1.46c1.74,0.27,1.35-1.56,2.36-1.59c3.69-0.08,2.5,1.96,4.86,3.34
					c3.43,2,2.12-0.58,3.86-2.07c2.6-2.23,2.32-0.2,3.66,1.55c1.51,1.98,3.24,2.88,5.99,3.23c3.34,0.42,6.49-1.1,6.67,2.89
					C282.02,149.54,280.09,151.71,277.75,152.07"/>
				<path class="st11" d="M197,77.62c0.49-4.53,1.25-4.16,5.16-7.54c2.32-2.01,4.01-5.29-0.81-4.96c-3.92,0.27-5.47,3.62-8.41,0.19
					c-3.08-3.61-0.95-6.26-7.18-6.26c-3.9,0-6.29-1.48-10.1-1.99c-3.66-0.49-7.7,0.34-11.18,1.22c-3.92,0.99-6.23,2.73-9.14,3.99
					c-0.18,0.08-0.94-0.95-1.73-0.48c-0.64,0.38-0.32,1.39-0.8,1.75c-1.7,1.3-1.33,2.18-4.34,2.21c-4.9,0.05-6.25-0.25-10.84,2.05
					c-2.94,1.48-4.59,3.35-7.09,5.32c-2.33,1.83-7.49,2.1-5.93,4.63c1.74,2.83,7.21,2.01,10.24,2.52c3.9,0.66,7.82,0.44,10.38,3.54
					c1.85,2.23,1.18,5.26,2.38,7.51c0.38,0.72,1.63,1.14,2.13,1.94c1.22,1.92,0.85,4.58,2.07,6.51c0.87,1.38,2.97,3.41,4.53,4.18
					c1.45,0.72,4.53,2.3,5.93,2.08c1.35-0.21,1.73-1.1,2.52-1.9c0.35-0.35,0.42-1.72,0.69-2.2c0.38-0.65,1.42-0.66,1.9-1.37
					c1.63-2.4,0.74-2.55,4.55-3.77c2.44-0.78,4.13-2.08,6.28-2.89c2.61-0.99,5.76-1.13,8.45-2.02c1.42-0.47,4.64-1.2,5.36-2.41
					c0.38-0.63-0.97-4.7,0.34-4.86C197.28,85.15,196.68,80.57,197,77.62"/>
				<path class="st11" d="M208.6,96.19c-1.1-2.18-8.73-1.1-10.71-0.77c-1.74,0.29-2.37-0.96-3.43,1.06c-1.2,2.28,0.15,2.05,1.65,3
					c2.33,1.48,7,2.97,8.82,0.3C207.19,99.49,209.68,98.35,208.6,96.19"/>
				<path class="st11" d="M295.5,230.81c-0.87,1.9-1.22,10.11-0.44,11.83c3.14,6.96,7.62-3.24,8.5-5.95
					c1.23-3.76,3.48-9.25,1.99-12.25C302.66,222.6,296.59,228.43,295.5,230.81"/>
				<path class="st11" d="M399.66,219.42c0.72-0.52,0.77-0.78,0.16-0.8c0.94-0.21-3.1-3.06-4.83-3.29
					c-2.12-0.29-6.87,0.52-8.04-1.74c-1.01-1.94,1.98-3.72,0.1-5.88c-1.23-1.42-3.98-2.29-6.01-2c-7.34,1.05,2.65,9.41,5.68,11.05
					c1.87,1.01,3.79,0.67,5.94,1.2C394.86,218.5,397.19,220.55,399.66,219.42"/>
				<path class="st11" d="M434.66,146.18c-2.36,1.42-4.41-0.02-6.6,0.92c-1.71,0.73-6.5,5.13-4.59,7.15
					c1.79,1.89,6.31-1.03,8.44-1.68c2.78-0.84,5.68-2.18,7.59-4.21c2.65-2.82,0.96-5.1,1.99-8.08c1.05-3.03,5.45-1.32,6.36-3.92
					c0.99-2.82-5.16-4.02-7.43-2.87c-3.5,1.78-3.16,8.05-3.1,9.41C436.72,144.14,435.94,145.41,434.66,146.18"/>
				<path class="st11" d="M398.11,195.88C398.06,195.9,398.01,195.93,398.11,195.88"/>
				<path class="st11" d="M398.16,195.92c-0.03,0.05-0.07,0.11-0.12,0.17c0.03-0.04,0.06-0.07,0.09-0.11
					C398.15,195.96,398.16,195.94,398.16,195.92"/>
				<path class="st11" d="M398.13,195.99c-0.53,0.77-0.29,0.41-0.09,0.11c-0.75,1.02-2.35,2.2-3.52,2.87
					c-0.28,0.16-2.86,0.55-2.86,0.55c-1.56,1.67-0.17,5.57,1.02,7.11c1.43,1.83,4.8,3.61,7.52,3.3c4.25-0.48,2.82-2.8,4-5.47
					c0.45-1,1.81-1.59,2.02-2.73c0.31-1.7-1.39-3.02-1.25-4.7c0.1-1.2,2.26-0.82,2.06-2.22c-0.19-1.39-1.14,0.01-1.41-0.56
					c-1.58-3.32-1.83-3.03-4.22-1.09c0.03,0.47,0.06,0.95,0.09,1.42c-1.1-0.09-1.98,0.19-2.64,0.86c-0.46,0.27-0.67,0.39-0.76,0.43
					c0.04-0.01,0.07-0.01,0.06,0.04C398.24,195.82,398.26,195.79,398.13,195.99"/>
			</g>
		</g>
	</g>
	<g>
		<path class="st5" d="M120.07,84.84c-8.86,0-16.05,6.96-16.05,15.54c0,5.99,7.82,20.81,12.55,29.2c1.54,2.73,5.47,2.73,7,0
			c4.72-8.39,12.55-23.21,12.55-29.2C136.12,91.8,128.94,84.84,120.07,84.84"/>
		<path class="st6" d="M122.09,110.56c-7.27,1.37-13.52-4.87-12.14-12.12c0.77-4.05,4.04-7.32,8.1-8.09
			c7.27-1.38,13.52,4.87,12.14,12.12C129.42,106.53,126.15,109.8,122.09,110.56"/>
		<path class="st6" d="M129,95.31c2.85,4.92,1.16,11.22-3.77,14.06c-4.93,2.84-11.24,1.16-14.08-3.77
			c-2.85-4.92-1.16-11.22,3.77-14.06C119.85,88.7,126.16,90.39,129,95.31"/>
		<g>
			<defs>
				<path id="SVGID_9_" d="M110.69,100.46c0,5.18,4.2,9.37,9.39,9.37c5.19,0,9.39-4.2,9.39-9.37c0-5.18-4.2-9.37-9.39-9.37
					C114.89,91.09,110.69,95.28,110.69,100.46"/>
			</defs>
			<clipPath id="SVGID_10_">
				<use xlink:href="#SVGID_9_"  style="overflow:visible;"/>
			</clipPath>
			<rect x="116.93" y="97.57" class="st12" width="6.39" height="9.42"/>
			<path class="st13" d="M120.94,104.86v-2.35h-1.74v2.35c-2.64,0.42-4.67,2.7-4.67,5.46h11.07
				C125.61,107.56,123.59,105.27,120.94,104.86"/>
			<path class="st13" d="M117.57,100.86c0,0.26-0.21,0.47-0.47,0.47c-0.26,0-0.47-0.21-0.47-0.47c0-0.26,0.21-0.47,0.47-0.47
				C117.37,100.39,117.57,100.6,117.57,100.86"/>
			<path class="st13" d="M122.57,100.86c0,0.26,0.21,0.47,0.47,0.47c0.26,0,0.47-0.21,0.47-0.47c0-0.26-0.21-0.47-0.47-0.47
				C122.78,100.39,122.57,100.6,122.57,100.86"/>
			<path class="st14" d="M120.07,95.69c-1.64,0-2.96,1.33-2.96,2.96v1.89c0,1.63,1.33,2.96,2.96,2.96c1.64,0,2.96-1.32,2.96-2.96
				v-1.89C123.04,97.01,121.71,95.69,120.07,95.69"/>
			<path class="st15" d="M122.45,105.33c-0.6,0.5-1.37,0.79-2.21,0.79c-0.9,0-1.71-0.34-2.33-0.89c-1.99,0.84-3.38,2.8-3.38,5.09
				h11.08C125.61,108.11,124.32,106.22,122.45,105.33"/>
			<path class="st12" d="M116.93,100.21L116.93,100.21v-2.65c0-0.46,0.37-0.84,0.84-0.84h0.37V99
				C118.14,99.67,117.6,100.21,116.93,100.21"/>
			<path class="st12" d="M117.57,96.7c0,0,0.94,2.53,5.74,3.51V96.7c0-0.56-0.45-1.01-1.01-1.01h-3.72
				C118.03,95.69,117.57,96.14,117.57,96.7"/>
		</g>
	</g>
	<g>
		<path class="st3" d="M219.37,377.84h-21.04c-2.93,0-5.31-2.37-5.31-5.3V360.9c0-2.93,2.38-5.3,5.31-5.3h21.04
			c2.93,0,5.31,2.37,5.31,5.3v11.64C224.68,375.46,222.3,377.84,219.37,377.84"/>
		<path class="st4" d="M219.37,377.84h-21.04c-2.93,0-5.31-2.37-5.31-5.3V360.9c0-2.93,2.38-5.3,5.31-5.3h21.04
			c2.93,0,5.31,2.37,5.31,5.3v11.64C224.68,375.46,222.3,377.84,219.37,377.84z"/>
		<path class="st6" d="M215.47,367.19l-9.89,4.93c-0.35,0.18-0.76-0.08-0.76-0.47v-9.87c0-0.39,0.41-0.65,0.76-0.47l9.89,4.93
			C215.86,366.44,215.86,366.99,215.47,367.19"/>
	</g>
	<path class="st16" d="M261.52,333.58h-46.47c-3.43,0-6.2-2.78-6.2-6.2V323c0-3.43,2.78-6.2,6.2-6.2h46.47c3.43,0,6.2,2.78,6.2,6.2
		v4.38C267.72,330.8,264.94,333.58,261.52,333.58z"/>
	<path class="st6" d="M229.18,323.88c0.03-0.02,0.06-0.05,0.08-0.07c1.63-1.27,3.5-2.12,5.56-2.53c1.78-0.36,3.64-0.38,5.55-0.08
		c1.64,0.26,3.23,0.76,4.6,1.45c1.29,0.64,2.26,1.4,2.76,2.13c0.3,0.44,0.35,1.42,0.36,1.71c0.01,0.49-0.01,1.41-0.35,2.08
		c-0.31,0.64-0.77,0.79-1.1,0.81c-0.54,0.03-1.67-0.04-2.72-0.23c-1.9-0.35-2.24-0.85-2.34-1.2c-0.17-0.61,0.04-1.31,0.22-1.94
		c0.09-0.31,0.17-0.6,0.2-0.83c0.03-0.23-0.02-0.29-0.02-0.29c-0.1-0.1-0.43-0.37-1.42-0.56c-0.69-0.14-1.55-0.22-2.47-0.23
		c-0.85-0.01-1.68,0.04-2.35,0.15c-0.96,0.15-1.15,0.34-1.15,0.34c0,0-0.07,0.08-0.04,0.43c0.02,0.3,0.11,0.67,0.19,1.04
		c0.15,0.65,0.28,1.26,0.16,1.72c-0.12,0.44-0.6,0.76-1.48,0.99c-0.7,0.18-1.61,0.28-2.43,0.26c-0.42-0.01-0.79-0.04-1.09-0.11
		c-0.4-0.08-0.67-0.21-0.84-0.39c-0.49-0.52-0.64-1.75-0.56-2.72C228.53,325.28,228.68,324.35,229.18,323.88L229.18,323.88z
		 M246.98,325.28c-0.4-0.6-1.28-1.26-2.41-1.83c-1.29-0.64-2.79-1.11-4.34-1.36c-2.26-0.36-6.61-0.52-10.41,2.43
		c-0.17,0.13-0.37,0.6-0.43,1.35c-0.04,0.44-0.02,0.9,0.05,1.3c0.07,0.41,0.18,0.65,0.26,0.74c0.05,0.04,0.32,0.16,0.97,0.2
		c0.54,0.03,1.2,0,1.8-0.08c1.08-0.16,1.48-0.41,1.55-0.49c0.06-0.25-0.07-0.82-0.17-1.28c-0.21-0.92-0.4-1.78,0.08-2.29
		c0.09-0.1,0.38-0.4,1.63-0.6c0.7-0.11,1.57-0.17,2.46-0.17c1.09,0.01,3.73,0.12,4.62,1.08c0.46,0.49,0.24,1.25,0.03,1.98
		c-0.14,0.5-0.31,1.07-0.22,1.44c0.07,0.09,0.5,0.37,1.75,0.59c0.94,0.16,1.93,0.22,2.38,0.2c0.05,0,0.19-0.01,0.34-0.31
		c0.18-0.36,0.27-0.98,0.26-1.65C247.17,325.83,247.05,325.38,246.98,325.28L246.98,325.28z M246.98,325.28"/>
	<g>
		<g>
			<path class="st6" d="M359.05,334.41l-0.37,0.19c-0.01-0.02-0.06-0.13-0.15-0.35c-0.09-0.22-0.22-0.5-0.37-0.84h-1.4
				c-0.17,0.37-0.29,0.65-0.38,0.85s-0.14,0.31-0.15,0.34l-0.32-0.17c0.04-0.08,0.21-0.44,0.51-1.08s0.6-1.31,0.92-2.02h0.31
				c0.32,0.71,0.62,1.39,0.93,2.05C358.88,334.03,359.04,334.38,359.05,334.41z M358.03,333.1c-0.08-0.19-0.17-0.39-0.26-0.6
				c-0.09-0.21-0.19-0.43-0.29-0.66l-0.01,0c-0.08,0.17-0.17,0.39-0.29,0.64c-0.11,0.25-0.2,0.46-0.28,0.62l0,0L358.03,333.1
				L358.03,333.1z"/>
			<path class="st6" d="M359.91,334.53h-0.37c0-0.02,0-0.25,0.01-0.69c0-0.44,0-0.81,0-1.1c0-0.19,0-0.42,0-0.71s0-0.61-0.01-0.96
				h0.37c0,0.24-0.01,0.52-0.01,0.84c0,0.32,0,0.59,0,0.81c0,0.48,0,0.89,0,1.25C359.91,334.33,359.91,334.51,359.91,334.53z"/>
			<path class="st6" d="M361.23,331.68h-0.42v-0.41h0.42V331.68z M361.2,334.53h-0.37c0-0.03,0-0.18,0.01-0.47c0-0.29,0-0.52,0-0.71
				c0-0.16,0-0.34,0-0.54c0-0.19,0-0.42-0.01-0.68h0.37c0,0.23-0.01,0.44-0.01,0.64c0,0.2,0,0.37,0,0.53c0,0.37,0,0.66,0.01,0.88
				S361.2,334.53,361.2,334.53z"/>
			<path class="st6" d="M363.39,333.84c0,0.12-0.03,0.22-0.08,0.31c-0.06,0.09-0.13,0.17-0.22,0.22c-0.1,0.06-0.21,0.1-0.34,0.14
				s-0.28,0.05-0.44,0.05c-0.08,0-0.16,0-0.24-0.01c-0.08-0.01-0.13-0.01-0.14-0.01l-0.01-0.31c0.01,0,0.07,0.01,0.16,0.01
				c0.1,0.01,0.19,0.01,0.29,0.01c0.05,0,0.13,0,0.21-0.01c0.09-0.01,0.16-0.03,0.22-0.05c0.08-0.03,0.14-0.08,0.17-0.13
				c0.04-0.05,0.06-0.11,0.06-0.18c0-0.06-0.02-0.12-0.05-0.16c-0.03-0.04-0.08-0.08-0.14-0.12c-0.06-0.04-0.15-0.09-0.26-0.14
				c-0.11-0.05-0.2-0.09-0.28-0.14c-0.11-0.06-0.19-0.14-0.24-0.23c-0.06-0.09-0.08-0.19-0.08-0.31s0.03-0.22,0.1-0.31
				c0.06-0.09,0.15-0.17,0.26-0.22c0.09-0.05,0.2-0.08,0.31-0.1c0.11-0.02,0.22-0.02,0.33-0.02c0.1,0,0.17,0,0.24,0s0.1,0,0.11,0
				l0.03,0.31c-0.01,0-0.06,0-0.15-0.01s-0.18-0.01-0.28-0.01c-0.07,0-0.14,0.01-0.21,0.02s-0.12,0.03-0.17,0.05
				c-0.07,0.03-0.12,0.08-0.15,0.12s-0.04,0.1-0.04,0.14c0,0.06,0.02,0.12,0.06,0.16c0.04,0.05,0.09,0.08,0.14,0.12
				c0.06,0.04,0.15,0.08,0.26,0.13c0.11,0.05,0.19,0.09,0.24,0.13c0.11,0.07,0.19,0.15,0.25,0.23S363.39,333.72,363.39,333.84z"/>
			<path class="st6" d="M365.7,333.18c0,0.39,0,0.71,0,0.95c0,0.25,0,0.38,0,0.4c-0.02,0-0.09,0.01-0.22,0.02
				c-0.13,0.01-0.3,0.02-0.5,0.02c-0.13,0-0.26-0.01-0.39-0.04c-0.13-0.02-0.24-0.06-0.34-0.1c-0.13-0.06-0.23-0.14-0.31-0.24
				c-0.08-0.1-0.12-0.22-0.12-0.36c0-0.15,0.05-0.28,0.14-0.39s0.22-0.2,0.38-0.27c0.1-0.04,0.24-0.08,0.41-0.11
				c0.17-0.03,0.37-0.06,0.58-0.08c-0.01-0.12-0.04-0.22-0.09-0.3c-0.05-0.08-0.13-0.14-0.23-0.18c-0.07-0.03-0.15-0.05-0.23-0.06
				c-0.09-0.01-0.18-0.02-0.3-0.02c-0.07,0-0.13,0-0.18,0c-0.05,0-0.12,0.01-0.2,0.01l0.04-0.31c0.02,0,0.07,0,0.14-0.01
				c0.07,0,0.17-0.01,0.29-0.01c0.19,0,0.35,0.02,0.5,0.06c0.15,0.04,0.27,0.1,0.36,0.19c0.09,0.08,0.16,0.18,0.2,0.3
				S365.7,332.96,365.7,333.18z M365.34,333.75c0-0.05,0-0.12,0-0.2s0-0.18,0-0.28c-0.07,0-0.19,0.02-0.36,0.04
				c-0.17,0.02-0.32,0.06-0.44,0.1c-0.09,0.03-0.17,0.08-0.23,0.15c-0.07,0.07-0.1,0.15-0.1,0.25c0,0.11,0.03,0.19,0.09,0.26
				s0.14,0.12,0.24,0.15c0.08,0.03,0.16,0.05,0.26,0.06s0.19,0.02,0.3,0.02c0.03,0,0.07,0,0.12,0c0.05,0,0.09,0,0.14,0
				c0-0.01,0-0.06,0-0.16C365.34,334.04,365.34,333.91,365.34,333.75z"/>
		</g>
	</g>
	<linearGradient id="SVGID_11_" gradientUnits="userSpaceOnUse" x1="238.7175" y1="70.3966" x2="238.7175" y2="458.8452">
		<stop  offset="0" style="stop-color:#EF8C7A;stop-opacity:0"/>
		<stop  offset="0.5974" style="stop-color:#EC897A;stop-opacity:0.239"/>
		<stop  offset="1" style="stop-color:#E5817A;stop-opacity:0.4"/>
	</linearGradient>
	<circle class="st17" cx="238.72" cy="217.6" r="210.02"/>
	<g>
		<path class="st18" d="M368.35,333.3c0,0.06,0.03,0.11,0.08,0.14c0.05,0.03,0.11,0.03,0.16,0c0.05-0.03,0.08-0.08,0.08-0.14
			c0-0.09-0.07-0.16-0.16-0.16S368.35,333.21,368.35,333.3L368.35,333.3z M368.35,333.3"/>
		<path class="st18" d="M370.43,333.3c0,0.06,0.03,0.11,0.08,0.14c0.05,0.03,0.11,0.03,0.16,0c0.05-0.03,0.08-0.08,0.08-0.14
			c0-0.06-0.03-0.11-0.08-0.14c-0.05-0.03-0.11-0.03-0.16,0C370.46,333.19,370.43,333.24,370.43,333.3L370.43,333.3z M370.43,333.3"
			/>
		<path class="st18" d="M369.55,334.06c-0.09,0-0.16,0.07-0.16,0.16v0.33c0,0.09,0.07,0.16,0.16,0.16c0.09,0,0.16-0.07,0.16-0.16
			v-0.33C369.71,334.13,369.63,334.06,369.55,334.06L369.55,334.06z M369.55,334.06"/>
		<path class="st18" d="M369.11,334.66c0,0.09,0.07,0.16,0.16,0.16h0.56c0.09,0,0.16-0.07,0.16-0.16c0-0.09-0.07-0.16-0.16-0.16
			h-0.56C369.18,334.5,369.11,334.57,369.11,334.66L369.11,334.66z M370.33,331.91c0-0.01,0-0.01,0-0.02h0
			c-0.01-0.42-0.35-0.76-0.78-0.76c-0.43,0-0.78,0.35-0.78,0.78v1.2c0,0,0,0.01,0,0.01c0.02,0.42,0.36,0.75,0.78,0.75
			c0.42,0,0.76-0.33,0.78-0.75c0,0,0-0.01,0-0.01V331.91z M370.33,331.91"/>
		<path class="st18" d="M370.43,333.29c-0.07,0.42-0.44,0.74-0.88,0.74c-0.44,0-0.81-0.32-0.88-0.74l-0.31,0.03
			c0.09,0.58,0.59,1.03,1.2,1.03c0.61,0,1.11-0.45,1.2-1.03L370.43,333.29z M370.43,333.29"/>
	</g>
	<path class="st4" d="M322.57,145.01c-0.14,0.11-0.33,0.11-0.47,0c-2.06-1.53-16.83-12.86-14.78-22.03
		c1.68-7.53,11.82-5.18,14.64,1.41c0.14,0.33,0.6,0.33,0.74,0c2.82-6.61,12.89-9.21,14.64-1.41
		C339.42,132.15,324.63,143.48,322.57,145.01z"/>
	<g>
		<path class="st19" d="M387.73,329.95c0,6.79-6.43,12.3-14.36,12.3H100.55c0,0-28.72,0-28.72-73.78
			c0-73.77,28.72-73.77,28.72-73.77h272.82c7.93,0,14.36,5.5,14.36,12.29v61.48V329.95z"/>
		<rect x="100.55" y="200.85" class="st5" width="258.47" height="135.25"/>
		<path class="st20" d="M94.09,268.48c0,2.72-2.57,4.92-5.74,4.92c-3.17,0-5.74-2.2-5.74-4.92c0-2.72,2.57-4.92,5.74-4.92
			C91.52,263.56,94.09,265.76,94.09,268.48"/>
		<path class="st19" d="M91.21,268.48c0,1.36-1.29,2.46-2.87,2.46c-1.59,0-2.87-1.1-2.87-2.46c0-1.36,1.29-2.46,2.87-2.46
			C89.93,266.02,91.21,267.12,91.21,268.48"/>
		<path class="st21" d="M150.61,342.25h-36.52c-18.69,0-33.85-12.98-33.85-28.98V186.75c0-17.69-11.01-32.03-31.72-31.97
			c-3.12,0.01-5.62,2.25-5.62,4.92v85.66L15.88,280.8c-9.66,8.27-15.09,19.49-15.09,31.19v126H66.8v-23.32
			c18.5,0,33.5-12.84,33.5-28.69v-6.85h50.31c11.9,0,21.54-8.26,21.54-18.44C172.15,350.51,162.5,342.25,150.61,342.25"/>
		<path class="st22" d="M140.51,371.76v-22.13c0-1.36,1.29-2.46,2.87-2.46h6.76c8.22,0,15.41,5.21,16.18,12.22
			c0.88,8.04-6.51,14.83-15.72,14.83h-7.22C141.8,374.22,140.51,373.12,140.51,371.76"/>
		<path class="st22" d="M42.91,159.7L42.91,159.7c2.97,0,5.38,2.06,5.38,4.61v13.93c0,2.55-2.41,4.61-5.38,4.61V159.7z"/>
		<polygon class="st23" points="42.91,245.36 42.91,261.75 39.56,242.49 		"/>
		<polygon class="st23" points="66.8,414.67 52.44,414.67 66.8,418.36 		"/>
		<path class="st21" d="M308.96,342.25h36.52c18.69,0,33.85-12.98,33.85-28.98V186.75c0-17.69,11.01-32.03,31.71-31.97
			c3.12,0.01,5.62,2.25,5.62,4.92v85.66l27.03,35.44c9.66,8.27,15.09,19.49,15.09,31.19v126h-66.01v-23.32
			c-18.5,0-33.5-12.84-33.5-28.69v-6.85h-50.31c-11.9,0-21.54-8.26-21.54-18.44C287.42,350.51,297.06,342.25,308.96,342.25"/>
		<path class="st22" d="M319.05,371.76v-22.13c0-1.36-1.29-2.46-2.87-2.46h-6.76c-8.22,0-15.41,5.21-16.18,12.22
			c-0.88,8.04,6.51,14.83,15.72,14.83h7.22C317.77,374.22,319.05,373.12,319.05,371.76"/>
		<path class="st22" d="M416.65,159.7L416.65,159.7c-2.97,0-5.38,2.06-5.38,4.61v13.93c0,2.55,2.41,4.61,5.38,4.61V159.7z"/>
		<polygon class="st23" points="416.65,245.36 416.65,261.75 420,242.49 		"/>
		<polygon class="st23" points="392.76,414.67 407.12,414.67 392.76,418.36 		"/>
		<rect x="213.86" y="259.75" class="st24" width="31.84" height="35.45"/>
		<path class="st25" d="M213.86,281.5c4.98,1.51,10.34,2.34,15.92,2.34c5.58,0,10.94-0.83,15.92-2.34v-21.75h-31.84V281.5z"/>
		<path class="st26" d="M197.94,295.2h63.69c17.59,0,31.84,12.21,31.84,27.27v13.63H166.1v-13.63
			C166.1,307.41,180.35,295.2,197.94,295.2"/>
		<polygon class="st27" points="213.86,295.2 229.78,322.47 245.7,295.2 253.58,295.2 253.58,336.1 205.42,336.1 205.42,295.2 		"/>
		<polygon class="st24" points="245.7,295.2 229.78,322.47 213.86,295.2 230.09,293.19 		"/>
		<path class="st25" d="M258.44,218.54c-0.09,9.04,8.38,16.42,18.94,16.51c10.55,0.08,19.18-7.18,19.27-16.22
			c0.09-9.03-8.38-16.42-18.94-16.5C267.16,202.25,258.53,209.51,258.44,218.54"/>
		<path class="st28" d="M292.54,203.29L292.54,203.29c1.24,1.06,1.24,2.79,0,3.86l-2.25,1.93c-1.24,1.07-3.26,1.07-4.5,0
			c-1.24-1.06-1.24-2.79,0-3.86l2.25-1.93C289.28,202.22,291.29,202.22,292.54,203.29"/>
		<path class="st28" d="M291.61,226.19c0,1.38-1.31,2.5-2.92,2.5c-1.61,0-2.92-1.12-2.92-2.5c0-1.38,1.31-2.5,2.92-2.5
			C290.3,223.69,291.61,224.8,291.61,226.19"/>
		<path class="st29" d="M294.53,217.71c0,1.38-1.31,2.5-2.92,2.5c-1.61,0-2.92-1.12-2.92-2.5c0-1.38,1.31-2.5,2.92-2.5
			C293.22,215.21,294.53,216.33,294.53,217.71"/>
		<path class="st25" d="M201.12,218.54c0.09,9.04-8.38,16.42-18.94,16.51c-10.55,0.08-19.18-7.18-19.27-16.22
			c-0.09-9.03,8.38-16.42,18.93-16.5C192.4,202.25,201.03,209.51,201.12,218.54"/>
		<path class="st28" d="M167.95,226.19c0,1.38,1.31,2.5,2.92,2.5c1.61,0,2.92-1.12,2.92-2.5c0-1.38-1.31-2.5-2.92-2.5
			C169.26,223.69,167.95,224.8,167.95,226.19"/>
		<path class="st29" d="M165.03,217.71c0,1.38,1.31,2.5,2.92,2.5c1.61,0,2.92-1.12,2.92-2.5c0-1.38-1.31-2.5-2.92-2.5
			C166.34,215.21,165.03,216.33,165.03,217.71"/>
		<path class="st24" d="M229.78,270.21L229.78,270.21c-26.38,0-47.77-18.31-47.77-40.9v-40.9c0-22.59,21.39-40.9,47.77-40.9
			c26.38,0,47.76,18.31,47.76,40.9v40.9C277.55,251.89,256.16,270.21,229.78,270.21"/>
		<path class="st30" d="M277.72,202.33L277.72,202.33c-2.63,0-4.76-1.83-4.76-4.08v-13.37c0-9.22-8.72-16.69-19.49-16.69h-7.76
			l-15.92,16.1V147.5c26.47,0,47.94,18.38,47.94,41.05V202.33z"/>
		<path class="st31" d="M234.56,220.64v6.82c0,2.26-2.14,4.09-4.78,4.09c-2.64,0-4.78-1.83-4.78-4.09v-6.82v-5.78
			c0-8.88-8.41-16.09-18.78-16.09"/>
		<path class="st32" d="M234.56,220.64v6.82c0,2.26-2.14,4.09-4.78,4.09c-2.64,0-4.78-1.83-4.78-4.09v-6.82v-5.78
			c0-8.88-8.41-16.09-18.78-16.09"/>
		<path class="st33" d="M243.16,149.14c0,0-4.35,48.8-59.72,48.8v85.9c-9.12-8.78-14.16-20.13-14.16-31.88v-49.63v-10.06
			c0-29.38,27.81-53.2,62.13-53.2C237.9,139.07,243.16,143.58,243.16,149.14"/>
		<path class="st34" d="M257.38,153.3c-4.49,15.97-18.81,48.73-73.94,48.73v-4.09c0,0,52.43-15.75,58.06-47.42
			c0.59-3.34,4.04-5.77,7.99-5.77C254.73,144.75,258.61,148.94,257.38,153.3"/>
		<path class="st35" d="M213.86,295.2L213.86,295.2c-4.08,3.49-6.38,8.23-6.39,13.17l-0.06,27.73h-24.5v-9.51h10.97l-9.97-8.52
			l20.03-25.53c2.22-2.83,5.94-4.53,9.92-4.53V295.2z"/>
		<path class="st35" d="M245.7,295.2L245.7,295.2c4.08,3.49,6.38,8.23,6.39,13.17l0.06,27.73h24.5v-9.51h-10.97l9.97-8.52
			l-20.03-25.53c-2.22-2.83-5.94-4.53-9.92-4.53V295.2z"/>
	</g>
	<g>
		<path class="st3" d="M132.08,150.99h-21.3c-2.86,0-5.18,2.31-5.18,5.17v11.9v11.92c0,1.86,2.42,2.58,3.44,1.03l4.43-6.73
			c0.43-0.66,1.17-1.05,1.96-1.05h16.65c2.86,0,5.18-2.31,5.18-5.17v-11.9C137.26,153.3,134.94,150.99,132.08,150.99"/>
		<path class="st6" d="M107.51,182.52c-0.25,0-0.5-0.04-0.76-0.11c-1.1-0.33-1.8-1.28-1.8-2.42v-23.82c0-3.21,2.62-5.83,5.84-5.83
			h21.3c3.22,0,5.84,2.61,5.84,5.83v11.9c0,3.21-2.62,5.83-5.84,5.83h-16.65c-0.57,0-1.09,0.28-1.41,0.76l-4.43,6.73
			C109.11,182.11,108.33,182.52,107.51,182.52z M110.78,151.65c-2.49,0-4.52,2.02-4.52,4.51v23.82c0,0.66,0.45,1.04,0.87,1.16
			c0.42,0.13,1,0.06,1.37-0.49l4.43-6.73c0.55-0.84,1.49-1.35,2.51-1.35h16.65c2.49,0,4.52-2.02,4.52-4.51v-11.9
			c0-2.49-2.03-4.51-4.52-4.51H110.78z"/>
		<rect x="113.26" y="157.94" class="st6" width="16.35" height="1.32"/>
		<rect x="113.26" y="161.45" class="st6" width="16.35" height="1.32"/>
		<rect x="113.26" y="164.96" class="st6" width="16.35" height="1.32"/>
		<path class="st3" d="M134.79,167.97h21.3c2.86,0,5.18,2.31,5.18,5.17v11.9v11.92c0,1.86-2.42,2.58-3.44,1.03l-4.43-6.72
			c-0.43-0.66-1.17-1.05-1.96-1.05h-16.65c-2.86,0-5.18-2.31-5.18-5.17v-11.9C129.61,170.29,131.93,167.97,134.79,167.97"/>
		<path class="st6" d="M159.37,199.5c-0.83,0-1.6-0.41-2.09-1.14l-4.43-6.72c-0.31-0.47-0.84-0.76-1.41-0.76h-16.65
			c-3.22,0-5.84-2.61-5.84-5.83v-11.9c0-3.21,2.62-5.83,5.84-5.83h21.3c3.22,0,5.84,2.61,5.84,5.83v23.82c0,1.14-0.71,2.09-1.8,2.42
			C159.87,199.46,159.62,199.5,159.37,199.5z M134.79,168.63c-2.49,0-4.52,2.02-4.52,4.51v11.9c0,2.49,2.03,4.51,4.52,4.51h16.65
			c1.01,0,1.95,0.5,2.51,1.35l4.43,6.72c0.37,0.56,0.94,0.62,1.36,0.5c0.42-0.13,0.86-0.5,0.86-1.16v-23.82
			c0-2.49-2.03-4.51-4.52-4.51H134.79z"/>
		<rect x="137.26" y="174.93" class="st6" width="16.35" height="1.32"/>
		<rect x="137.26" y="178.43" class="st6" width="16.35" height="1.32"/>
		<rect x="137.26" y="181.94" class="st6" width="16.35" height="1.32"/>
	</g>
	<path class="st36" d="M370.92,231.3h-52.4c-4.56,0-8.25-3.69-8.25-8.25v-52.4c0-4.56,3.69-8.25,8.25-8.25h52.4
		c4.56,0,8.25,3.69,8.25,8.25v52.4C379.17,227.6,375.48,231.3,370.92,231.3z"/>
	<g>
		<path class="st37" d="M331.67,181.59c0,7.2,5.84,13.04,13.05,13.04c7.21,0,13.05-5.84,13.05-13.04c0-7.21-5.84-13.04-13.05-13.04
			C337.51,168.55,331.67,174.38,331.67,181.59"/>
		<g>
			<defs>
				<rect id="SVGID_5_" x="333.47" y="171.82" width="7.09" height="11.01"/>
			</defs>
			<clipPath id="SVGID_12_">
				<use xlink:href="#SVGID_5_"  style="overflow:visible;"/>
			</clipPath>
			<path class="st38" d="M334.5,182.83c-0.57,0-1.03-0.46-1.03-1.03c0-4.05,2.06-7.72,5.52-9.83c0.48-0.3,1.12-0.14,1.41,0.34
				c0.3,0.48,0.14,1.12-0.34,1.41c-2.84,1.74-4.54,4.76-4.54,8.08C335.52,182.37,335.06,182.83,334.5,182.83"/>
		</g>
		<g>
			<defs>
				<rect id="SVGID_7_" x="341.11" y="170.28" width="4.91" height="2.45"/>
			</defs>
			<clipPath id="SVGID_13_">
				<use xlink:href="#SVGID_7_"  style="overflow:visible;"/>
			</clipPath>
			<path class="st39" d="M342.14,172.73c-0.45,0-0.86-0.3-0.99-0.75c-0.15-0.55,0.16-1.11,0.71-1.27c1.01-0.29,2.07-0.43,3.13-0.43
				c0.57,0,1.03,0.46,1.03,1.03c0,0.57-0.46,1.03-1.03,1.03c-0.87,0-1.74,0.12-2.57,0.35C342.33,172.72,342.23,172.73,342.14,172.73
				"/>
		</g>
		<path class="st37" d="M344.72,193.71c-10.12,0-18.32,8.2-18.32,18.31v6.92h36.64v-6.92C363.04,201.91,354.84,193.71,344.72,193.71
			"/>
		<path class="st6" d="M338.94,184.43L338.94,184.43c0,3.19,2.59,5.78,5.78,5.78c3.19,0,5.78-2.59,5.78-5.78H338.94z"/>
		<path class="st37" d="M326.4,215.85V223c0,3.4,2.76,6.16,6.16,6.16h24.33c3.4,0,6.16-2.75,6.16-6.16v-7.15H326.4z"/>
	</g>
	<g>
		<path class="st2" d="M95.96,127.81H53.79c-1.93,0-3.5-1.57-3.5-3.5v-1.18c0-1.93,1.57-3.5,3.5-3.5h42.17c1.93,0,3.5,1.57,3.5,3.5
			v1.18C99.45,126.24,97.89,127.81,95.96,127.81z"/>
		<path class="st2" d="M111.41,143.63H69.24c-1.93,0-3.5-1.57-3.5-3.5v-1.18c0-1.93,1.57-3.5,3.5-3.5h42.17c1.93,0,3.5,1.57,3.5,3.5
			v1.18C114.91,142.06,113.34,143.63,111.41,143.63z"/>
		<path class="st2" d="M85.24,131.63c0-2.11,1.71-3.82,3.82-3.82H76.43c2.11,0,3.82,1.71,3.82,3.82c0,2.11-1.71,3.82-3.82,3.82
			h12.63C86.95,135.45,85.24,133.74,85.24,131.63z"/>
	</g>
</g>
</svg>
